G04 #@! TF.FileFunction,Copper,L1,Top,Signal*
%FSLAX46Y46*%
G04 Gerber Fmt 4.6, Leading zero omitted, Abs format (unit mm)*
G04 Created by KiCad (PCBNEW 4.0.7) date 01/09/18 02:32:33*
%MOMM*%
%LPD*%
G01*
G04 APERTURE LIST*
%ADD10C,0.100000*%
%ADD11R,0.900000X0.500000*%
%ADD12C,2.000000*%
%ADD13R,2.400000X2.400000*%
%ADD14C,2.400000*%
%ADD15R,0.750000X0.800000*%
%ADD16R,0.800000X0.750000*%
%ADD17R,0.450000X0.600000*%
%ADD18R,0.600000X0.450000*%
%ADD19R,1.800000X1.800000*%
%ADD20O,1.800000X1.800000*%
%ADD21R,0.900000X1.200000*%
%ADD22R,0.900000X0.800000*%
%ADD23C,3.000000*%
%ADD24C,5.000000*%
%ADD25C,2.500000*%
%ADD26C,2.600000*%
%ADD27R,1.000000X1.500000*%
%ADD28R,2.500000X4.500000*%
%ADD29O,2.500000X4.500000*%
%ADD30R,0.500000X0.900000*%
%ADD31R,2.200000X1.200000*%
%ADD32R,6.400000X5.800000*%
%ADD33R,3.050000X2.750000*%
%ADD34R,1.600000X1.600000*%
%ADD35O,1.600000X1.600000*%
%ADD36R,1.200000X2.200000*%
%ADD37R,5.800000X6.400000*%
%ADD38R,2.750000X3.050000*%
%ADD39R,1.060000X0.650000*%
%ADD40C,1.500000*%
%ADD41R,2.500000X1.200000*%
%ADD42R,4.000000X4.000000*%
%ADD43C,4.000000*%
%ADD44R,1.700000X1.700000*%
%ADD45O,1.700000X1.700000*%
%ADD46C,0.600000*%
%ADD47C,0.250000*%
%ADD48C,0.500000*%
%ADD49C,2.000000*%
%ADD50C,0.254000*%
G04 APERTURE END LIST*
D10*
D11*
X193040000Y-112776000D03*
X193040000Y-114276000D03*
D12*
X83439000Y-104140000D03*
X83439000Y-109140000D03*
X83439000Y-99140000D03*
D13*
X180848000Y-75184000D03*
D14*
X180848000Y-70184000D03*
D15*
X189992000Y-73672000D03*
X189992000Y-75172000D03*
D13*
X207264000Y-70104000D03*
D14*
X207264000Y-75104000D03*
D16*
X211062000Y-81026000D03*
X209562000Y-81026000D03*
D13*
X190500000Y-86360000D03*
D14*
X195500000Y-86360000D03*
D16*
X193536000Y-93726000D03*
X192036000Y-93726000D03*
X214122000Y-102616000D03*
X215622000Y-102616000D03*
X214146000Y-105156000D03*
X215646000Y-105156000D03*
X213868000Y-116332000D03*
X215368000Y-116332000D03*
X101231000Y-112014000D03*
X102731000Y-112014000D03*
D15*
X91059000Y-84086000D03*
X91059000Y-85586000D03*
D16*
X92595000Y-85598000D03*
X94095000Y-85598000D03*
D15*
X98933000Y-106922000D03*
X98933000Y-105422000D03*
D16*
X101485000Y-98298000D03*
X102985000Y-98298000D03*
D15*
X98679000Y-92698000D03*
X98679000Y-91198000D03*
D16*
X101485000Y-85852000D03*
X102985000Y-85852000D03*
X99937000Y-86868000D03*
X98437000Y-86868000D03*
D17*
X180594000Y-114808000D03*
X180594000Y-112708000D03*
D18*
X183388000Y-113030000D03*
X185488000Y-113030000D03*
D12*
X139446000Y-88646000D03*
X134366000Y-88646000D03*
X129286000Y-88646000D03*
X144526000Y-88646000D03*
D19*
X156464000Y-124206000D03*
D20*
X151384000Y-124206000D03*
D19*
X168402000Y-124206000D03*
D20*
X163322000Y-124206000D03*
D21*
X103631000Y-103632000D03*
X100331000Y-103632000D03*
D22*
X93853000Y-95978000D03*
X93853000Y-98078000D03*
D17*
X95377000Y-92998000D03*
X95377000Y-90898000D03*
X93091000Y-120430000D03*
X93091000Y-118330000D03*
D18*
X94835000Y-120142000D03*
X96935000Y-120142000D03*
D14*
X166172000Y-70866000D03*
D13*
X169672000Y-70866000D03*
D23*
X137414000Y-82296000D03*
X144414000Y-82296000D03*
X130414000Y-82296000D03*
D24*
X157164000Y-74996000D03*
X117664000Y-74996000D03*
D12*
X84399000Y-91186000D03*
D25*
X88899000Y-91186000D03*
X86899000Y-89336000D03*
X86899000Y-93036000D03*
D26*
X172720000Y-116840000D03*
X169720000Y-116840000D03*
X164592000Y-89662000D03*
X161592000Y-89662000D03*
D27*
X100751000Y-106426000D03*
X103251000Y-106426000D03*
X100477000Y-92710000D03*
X102977000Y-92710000D03*
X101199000Y-88900000D03*
X98699000Y-88900000D03*
D28*
X125984000Y-124460000D03*
D29*
X120534000Y-124460000D03*
X115084000Y-124460000D03*
D28*
X143764000Y-124460000D03*
D29*
X138314000Y-124460000D03*
X132864000Y-124460000D03*
D11*
X201676000Y-121920000D03*
X201676000Y-123420000D03*
D30*
X188976000Y-113030000D03*
X187476000Y-113030000D03*
D11*
X196088000Y-95274000D03*
X196088000Y-96774000D03*
X127508000Y-101624000D03*
X127508000Y-103124000D03*
X89281000Y-85586000D03*
X89281000Y-84086000D03*
D30*
X94095000Y-83820000D03*
X92595000Y-83820000D03*
D11*
X99187000Y-112256000D03*
X99187000Y-110756000D03*
X99187000Y-109716000D03*
X99187000Y-108216000D03*
X93345000Y-114288000D03*
X93345000Y-112788000D03*
X90551000Y-112788000D03*
X90551000Y-114288000D03*
X95631000Y-98044000D03*
X95631000Y-99544000D03*
X104521000Y-119392000D03*
X104521000Y-120892000D03*
X104521000Y-117844000D03*
X104521000Y-116344000D03*
X102997000Y-88888000D03*
X102997000Y-87388000D03*
X104521000Y-87388000D03*
X104521000Y-88888000D03*
X101727000Y-71894000D03*
X101727000Y-73394000D03*
X170815000Y-76315000D03*
X170815000Y-74815000D03*
D12*
X83439000Y-123872000D03*
X83439000Y-128872000D03*
X83439000Y-118872000D03*
D31*
X190110000Y-72142000D03*
X190110000Y-76702000D03*
D32*
X196410000Y-74422000D03*
D33*
X198085000Y-75947000D03*
X194735000Y-72897000D03*
X198085000Y-72897000D03*
X194735000Y-75947000D03*
D34*
X180594000Y-124460000D03*
D35*
X195834000Y-116840000D03*
X183134000Y-124460000D03*
X193294000Y-116840000D03*
X185674000Y-124460000D03*
X190754000Y-116840000D03*
X188214000Y-124460000D03*
X188214000Y-116840000D03*
X190754000Y-124460000D03*
X185674000Y-116840000D03*
X193294000Y-124460000D03*
X183134000Y-116840000D03*
X195834000Y-124460000D03*
X180594000Y-116840000D03*
D36*
X212592000Y-80890000D03*
X208032000Y-80890000D03*
D37*
X210312000Y-87190000D03*
D38*
X208787000Y-88865000D03*
X211837000Y-85515000D03*
X211837000Y-88865000D03*
X208787000Y-85515000D03*
D34*
X204216000Y-102616000D03*
D35*
X211836000Y-110236000D03*
X204216000Y-105156000D03*
X211836000Y-107696000D03*
X204216000Y-107696000D03*
X211836000Y-105156000D03*
X204216000Y-110236000D03*
X211836000Y-102616000D03*
D34*
X203962000Y-116332000D03*
D35*
X211582000Y-123952000D03*
X203962000Y-118872000D03*
X211582000Y-121412000D03*
X203962000Y-121412000D03*
X211582000Y-118872000D03*
X203962000Y-123952000D03*
X211582000Y-116332000D03*
D39*
X100881000Y-108524000D03*
X100881000Y-109474000D03*
X100881000Y-110424000D03*
X103081000Y-110424000D03*
X103081000Y-108524000D03*
D34*
X89027000Y-79756000D03*
D35*
X96647000Y-72136000D03*
X91567000Y-79756000D03*
X94107000Y-72136000D03*
X94107000Y-79756000D03*
X91567000Y-72136000D03*
X96647000Y-79756000D03*
X89027000Y-72136000D03*
D34*
X88011000Y-110744000D03*
D35*
X95631000Y-103124000D03*
X90551000Y-110744000D03*
X93091000Y-103124000D03*
X93091000Y-110744000D03*
X90551000Y-103124000D03*
X95631000Y-110744000D03*
X88011000Y-103124000D03*
D34*
X99408000Y-130500999D03*
D35*
X107028000Y-122880999D03*
X101948000Y-130500999D03*
X104488000Y-122880999D03*
X104488000Y-130500999D03*
X101948000Y-122880999D03*
X107028000Y-130500999D03*
X99408000Y-122880999D03*
D39*
X100627000Y-94742000D03*
X100627000Y-95692000D03*
X100627000Y-96642000D03*
X102827000Y-96642000D03*
X102827000Y-94742000D03*
D34*
X88011000Y-130302000D03*
D35*
X95631000Y-122682000D03*
X90551000Y-130302000D03*
X93091000Y-122682000D03*
X93091000Y-130302000D03*
X90551000Y-122682000D03*
X95631000Y-130302000D03*
X88011000Y-122682000D03*
D34*
X204216000Y-92964000D03*
D35*
X211836000Y-98044000D03*
X204216000Y-95504000D03*
X211836000Y-95504000D03*
X204216000Y-98044000D03*
X211836000Y-92964000D03*
D40*
X193088000Y-110648000D03*
X196088000Y-110648000D03*
X193088000Y-98648000D03*
X196088000Y-98648000D03*
X199088000Y-110648000D03*
X199088000Y-98648000D03*
D41*
X171542000Y-90126000D03*
X171542000Y-92876000D03*
X183042000Y-92876000D03*
X183042000Y-90126000D03*
X183042000Y-87376000D03*
X183042000Y-84626000D03*
X183042000Y-81876000D03*
X171542000Y-87376000D03*
X171542000Y-84626000D03*
X171542000Y-81876000D03*
D14*
X164338000Y-98806000D03*
X186838000Y-98806000D03*
X186944000Y-107188000D03*
X164444000Y-107188000D03*
D42*
X148590000Y-99314000D03*
D43*
X148590000Y-109314000D03*
D42*
X122682000Y-99314000D03*
D43*
X122682000Y-109314000D03*
D44*
X101727000Y-68580000D03*
D45*
X104267000Y-68580000D03*
X106807000Y-68580000D03*
D44*
X193675000Y-67945000D03*
D45*
X196215000Y-67945000D03*
X198755000Y-67945000D03*
D46*
X85888324Y-81992776D03*
D40*
X202314463Y-79249732D03*
D46*
X101600000Y-86995000D03*
X97150022Y-115169629D03*
X97790000Y-118745000D03*
X103203210Y-115903211D03*
X97790000Y-107950000D03*
X100330000Y-113665000D03*
X95250000Y-94615000D03*
X97155000Y-86360000D03*
X90170000Y-115570000D03*
D40*
X186690000Y-77470000D03*
X187325000Y-74295000D03*
X167640000Y-79375000D03*
X211455000Y-71755000D03*
X213995000Y-113665000D03*
X207010000Y-120015000D03*
X197485000Y-78740000D03*
X173990000Y-99060000D03*
X177800000Y-116840000D03*
X172085000Y-106680000D03*
D46*
X91440000Y-93980000D03*
X100330000Y-90805000D03*
X95885000Y-106680000D03*
X101615710Y-117490710D03*
X106045000Y-112177522D03*
X106045000Y-83185000D03*
D40*
X188595000Y-94615000D03*
X182880000Y-100330000D03*
X179741725Y-122610923D03*
X162138536Y-122133536D03*
X191135000Y-114300000D03*
X173355000Y-76835000D03*
X200025000Y-104775000D03*
D46*
X102870000Y-119380000D03*
X101600000Y-120650000D03*
X106680000Y-121285000D03*
D40*
X174625000Y-81915000D03*
X189230000Y-111125000D03*
X203835000Y-80010000D03*
D47*
X92366999Y-80555999D02*
X91567000Y-79756000D01*
X93320001Y-81509001D02*
X92366999Y-80555999D01*
X93320001Y-90193589D02*
X93320001Y-81509001D01*
X88975988Y-94537601D02*
X93320001Y-90193589D01*
X88975988Y-98603012D02*
X88975988Y-94537601D01*
X83439000Y-104140000D02*
X88975988Y-98603012D01*
X96520000Y-87630000D02*
X95521999Y-86631999D01*
X95521999Y-86631999D02*
X95521999Y-73550999D01*
X95521999Y-73550999D02*
X94906999Y-72935999D01*
X94906999Y-72935999D02*
X94107000Y-72136000D01*
X89425999Y-94724001D02*
X96520000Y-87630000D01*
X93091000Y-110744000D02*
X89425999Y-107078999D01*
X89425999Y-107078999D02*
X89425999Y-94724001D01*
X83439000Y-109140000D02*
X84438999Y-108140001D01*
X84438999Y-108140001D02*
X90487001Y-108140001D01*
X90487001Y-108140001D02*
X92291001Y-109944001D01*
X92291001Y-109944001D02*
X93091000Y-110744000D01*
X86312588Y-81992776D02*
X85888324Y-81992776D01*
X88990776Y-81992776D02*
X86312588Y-81992776D01*
X91059000Y-84061000D02*
X88990776Y-81992776D01*
X91059000Y-84086000D02*
X91059000Y-84061000D01*
D48*
X171542000Y-87376000D02*
X172192000Y-87376000D01*
X195365001Y-68794999D02*
X196215000Y-67945000D01*
X172192000Y-87376000D02*
X190322999Y-69245001D01*
X190322999Y-69245001D02*
X194914999Y-69245001D01*
X194914999Y-69245001D02*
X195365001Y-68794999D01*
X202314463Y-79249732D02*
X202314463Y-73416461D01*
X202314463Y-73416461D02*
X199970001Y-71071999D01*
X199970001Y-71071999D02*
X199341999Y-71071999D01*
X199341999Y-71071999D02*
X196215000Y-67945000D01*
X171542000Y-87376000D02*
X171542000Y-87173508D01*
X137414000Y-82296000D02*
X139364001Y-80345999D01*
X139364001Y-80345999D02*
X163861999Y-80345999D01*
X163861999Y-80345999D02*
X170892000Y-87376000D01*
X170892000Y-87376000D02*
X171542000Y-87376000D01*
D47*
X104521000Y-88888000D02*
X104321000Y-88888000D01*
X101600000Y-87276002D02*
X101600000Y-86995000D01*
X104321000Y-88888000D02*
X103396001Y-87963001D01*
X103396001Y-87963001D02*
X102286999Y-87963001D01*
X102286999Y-87963001D02*
X101600000Y-87276002D01*
X95377000Y-92998000D02*
X95852000Y-92998000D01*
X95852000Y-92998000D02*
X98546000Y-95692000D01*
X98546000Y-95692000D02*
X99847000Y-95692000D01*
X99847000Y-95692000D02*
X100627000Y-95692000D01*
X100330000Y-113665000D02*
X98654651Y-113665000D01*
X97450021Y-114869630D02*
X97150022Y-115169629D01*
X98654651Y-113665000D02*
X97450021Y-114869630D01*
X96935000Y-120142000D02*
X96935000Y-119600000D01*
X96935000Y-119600000D02*
X97790000Y-118745000D01*
X103503209Y-116203210D02*
X103203210Y-115903211D01*
X104521000Y-116344000D02*
X103643999Y-116344000D01*
X103643999Y-116344000D02*
X103503209Y-116203210D01*
X95631000Y-122682000D02*
X95631000Y-121371000D01*
X95631000Y-121371000D02*
X96860000Y-120142000D01*
X96860000Y-120142000D02*
X96935000Y-120142000D01*
X98933000Y-106922000D02*
X98818000Y-106922000D01*
X98818000Y-106922000D02*
X97790000Y-107950000D01*
X101231000Y-112014000D02*
X101231000Y-112764000D01*
X101231000Y-112764000D02*
X100330000Y-113665000D01*
X99187000Y-108216000D02*
X100445000Y-109474000D01*
X100445000Y-109474000D02*
X100881000Y-109474000D01*
X98933000Y-106922000D02*
X98933000Y-107962000D01*
X98933000Y-107962000D02*
X99187000Y-108216000D01*
X93853000Y-95978000D02*
X93887000Y-95978000D01*
X93887000Y-95978000D02*
X95250000Y-94615000D01*
X95377000Y-92998000D02*
X95377000Y-94488000D01*
X95377000Y-94488000D02*
X95250000Y-94615000D01*
X99692000Y-97155000D02*
X99692000Y-95847000D01*
X99692000Y-95847000D02*
X99847000Y-95692000D01*
X101485000Y-98298000D02*
X100835000Y-98298000D01*
X100835000Y-98298000D02*
X99692000Y-97155000D01*
X98437000Y-86868000D02*
X97663000Y-86868000D01*
X97663000Y-86868000D02*
X97155000Y-86360000D01*
X90551000Y-114288000D02*
X90551000Y-115189000D01*
X90551000Y-115189000D02*
X90170000Y-115570000D01*
X91059000Y-84086000D02*
X92329000Y-84086000D01*
X92329000Y-84086000D02*
X92595000Y-83820000D01*
D48*
X190110000Y-76702000D02*
X187458000Y-76702000D01*
X187458000Y-76702000D02*
X186690000Y-77470000D01*
X190110000Y-76702000D02*
X190110000Y-75290000D01*
X190110000Y-75290000D02*
X189992000Y-75172000D01*
X190110000Y-72142000D02*
X189478000Y-72142000D01*
X189478000Y-72142000D02*
X187325000Y-74295000D01*
X189992000Y-73672000D02*
X189992000Y-72260000D01*
X189992000Y-72260000D02*
X190110000Y-72142000D01*
X204216000Y-110236000D02*
X211836000Y-110236000D01*
X171542000Y-84626000D02*
X170892000Y-84626000D01*
X170892000Y-84626000D02*
X167640000Y-81374000D01*
X167640000Y-81374000D02*
X167640000Y-79375000D01*
X185488000Y-113030000D02*
X185488000Y-116654000D01*
X185488000Y-116654000D02*
X185674000Y-116840000D01*
X212592000Y-80890000D02*
X212592000Y-72892000D01*
X212592000Y-72892000D02*
X211455000Y-71755000D01*
X203962000Y-123952000D02*
X202208000Y-123952000D01*
X202208000Y-123952000D02*
X201676000Y-123420000D01*
X170815000Y-74815000D02*
X170815000Y-72009000D01*
X170815000Y-72009000D02*
X169672000Y-70866000D01*
X215368000Y-116332000D02*
X215368000Y-115038000D01*
X215368000Y-115038000D02*
X213995000Y-113665000D01*
X210585999Y-104555999D02*
X210585999Y-108985999D01*
X210585999Y-108985999D02*
X211036001Y-109436001D01*
X215622000Y-102616000D02*
X215622000Y-103491000D01*
X215622000Y-103491000D02*
X215246999Y-103866001D01*
X215246999Y-103866001D02*
X211275997Y-103866001D01*
X211275997Y-103866001D02*
X210585999Y-104555999D01*
X211036001Y-109436001D02*
X211836000Y-110236000D01*
X193536000Y-93726000D02*
X193536000Y-88324000D01*
X193536000Y-88324000D02*
X195500000Y-86360000D01*
X212592000Y-80890000D02*
X211198000Y-80890000D01*
X211198000Y-80890000D02*
X211062000Y-81026000D01*
X207264000Y-75104000D02*
X212592000Y-80432000D01*
X212592000Y-80432000D02*
X212592000Y-80890000D01*
X203962000Y-116332000D02*
X205262000Y-116332000D01*
X205262000Y-116332000D02*
X207010000Y-118080000D01*
X207010000Y-118080000D02*
X207010000Y-120015000D01*
X211582000Y-116332000D02*
X213868000Y-116332000D01*
X202662000Y-116332000D02*
X203962000Y-116332000D01*
X197887999Y-111557999D02*
X202662000Y-116332000D01*
X200407996Y-102616000D02*
X197887999Y-105135997D01*
X204216000Y-102616000D02*
X200407996Y-102616000D01*
X197887999Y-105135997D02*
X197887999Y-111557999D01*
X211836000Y-102616000D02*
X204216000Y-102616000D01*
X214122000Y-102616000D02*
X211836000Y-102616000D01*
X209562000Y-81026000D02*
X208168000Y-81026000D01*
X208168000Y-81026000D02*
X208032000Y-80890000D01*
X197485000Y-78740000D02*
X197485000Y-75497000D01*
X197485000Y-75497000D02*
X196410000Y-74422000D01*
X208032000Y-80890000D02*
X208032000Y-80390000D01*
X208032000Y-80390000D02*
X205613999Y-77971999D01*
X205613999Y-77971999D02*
X205613999Y-73454001D01*
X205613999Y-73454001D02*
X207264000Y-71804000D01*
X207264000Y-71804000D02*
X207264000Y-70104000D01*
X180268001Y-98310001D02*
X190500000Y-88078002D01*
X190500000Y-88078002D02*
X190500000Y-88060000D01*
X174739999Y-98310001D02*
X180268001Y-98310001D01*
X173990000Y-99060000D02*
X174739999Y-98310001D01*
X190500000Y-88060000D02*
X190500000Y-86360000D01*
X180594000Y-114808000D02*
X179832000Y-114808000D01*
X179832000Y-114808000D02*
X177800000Y-116840000D01*
X210312000Y-87190000D02*
X210312000Y-93980000D01*
X210312000Y-93980000D02*
X211836000Y-95504000D01*
D47*
X102827000Y-96642000D02*
X102827000Y-98140000D01*
X102827000Y-98140000D02*
X102985000Y-98298000D01*
X102977000Y-92710000D02*
X102977000Y-94592000D01*
X102977000Y-94592000D02*
X102827000Y-94742000D01*
D48*
X211836000Y-105156000D02*
X211836000Y-107696000D01*
X214146000Y-105156000D02*
X211836000Y-105156000D01*
X216546000Y-104281000D02*
X215671000Y-105156000D01*
X213989001Y-99397999D02*
X216546000Y-101954998D01*
X199088000Y-98648000D02*
X199837999Y-99397999D01*
X199837999Y-99397999D02*
X213989001Y-99397999D01*
X216546000Y-101954998D02*
X216546000Y-104281000D01*
X215671000Y-105156000D02*
X215646000Y-105156000D01*
D49*
X164338000Y-98806000D02*
X167586901Y-102054901D01*
X167586901Y-102054901D02*
X167586901Y-110183099D01*
X167586901Y-110183099D02*
X156464000Y-121306000D01*
X156464000Y-121306000D02*
X156464000Y-124206000D01*
X148590000Y-99314000D02*
X163830000Y-99314000D01*
X163830000Y-99314000D02*
X164338000Y-98806000D01*
D48*
X127508000Y-101624000D02*
X124992000Y-101624000D01*
X124992000Y-101624000D02*
X122682000Y-99314000D01*
D49*
X144526000Y-88646000D02*
X144526000Y-95250000D01*
X144526000Y-95250000D02*
X148590000Y-99314000D01*
X144526000Y-88646000D02*
X133858000Y-99314000D01*
X133858000Y-99314000D02*
X122682000Y-99314000D01*
D48*
X172834999Y-105930001D02*
X172085000Y-106680000D01*
X180557955Y-99010012D02*
X179754988Y-99010012D01*
X182411967Y-97155999D02*
X180557955Y-99010012D01*
X191595999Y-97155999D02*
X182411967Y-97155999D01*
X193088000Y-98648000D02*
X191595999Y-97155999D01*
X179754988Y-99010012D02*
X172834999Y-105930001D01*
D49*
X148590000Y-109314000D02*
X162318000Y-109314000D01*
X162318000Y-109314000D02*
X164444000Y-107188000D01*
D48*
X127508000Y-103124000D02*
X127508000Y-104488000D01*
X127508000Y-104488000D02*
X122682000Y-109314000D01*
D49*
X122682000Y-109314000D02*
X148590000Y-109314000D01*
X129286000Y-88646000D02*
X124460000Y-88646000D01*
X117602000Y-104234000D02*
X122682000Y-109314000D01*
X117602000Y-95504000D02*
X117602000Y-104234000D01*
X124460000Y-88646000D02*
X117602000Y-95504000D01*
X172720000Y-114833381D02*
X172720000Y-116840000D01*
X186944000Y-107188000D02*
X180365381Y-107188000D01*
X180365381Y-107188000D02*
X172720000Y-114833381D01*
X186838000Y-98806000D02*
X186838000Y-107082000D01*
X186838000Y-107082000D02*
X186944000Y-107188000D01*
D47*
X91059000Y-85586000D02*
X92583000Y-85586000D01*
X92583000Y-85586000D02*
X92595000Y-85598000D01*
X89281000Y-85586000D02*
X91059000Y-85586000D01*
X94095000Y-85598000D02*
X94095000Y-83820000D01*
X94095000Y-83820000D02*
X94095000Y-79768000D01*
X94095000Y-79768000D02*
X94107000Y-79756000D01*
X90551000Y-103124000D02*
X90551000Y-94869000D01*
X90551000Y-94869000D02*
X91440000Y-93980000D01*
X97155000Y-107225000D02*
X97155000Y-110424000D01*
X97155000Y-110424000D02*
X98987000Y-112256000D01*
X98987000Y-112256000D02*
X99187000Y-112256000D01*
X98933000Y-105422000D02*
X98933000Y-105447000D01*
X98933000Y-105447000D02*
X97155000Y-107225000D01*
X83439000Y-128872000D02*
X83439000Y-127254000D01*
X83439000Y-127254000D02*
X88011000Y-122682000D01*
X88011000Y-130302000D02*
X84869000Y-130302000D01*
X84869000Y-130302000D02*
X83439000Y-128872000D01*
X88011000Y-130302000D02*
X88011000Y-129252000D01*
X88011000Y-129252000D02*
X88086001Y-129176999D01*
X88086001Y-129176999D02*
X91965999Y-129176999D01*
X91965999Y-129176999D02*
X92291001Y-129502001D01*
X92291001Y-129502001D02*
X93091000Y-130302000D01*
X101948000Y-122880999D02*
X100822999Y-124006000D01*
X93890999Y-129502001D02*
X93091000Y-130302000D01*
X100822999Y-124006000D02*
X99387000Y-124006000D01*
X99387000Y-124006000D02*
X93890999Y-129502001D01*
X88011000Y-122682000D02*
X88011000Y-119422000D01*
X88011000Y-119422000D02*
X93145000Y-114288000D01*
X93145000Y-114288000D02*
X93345000Y-114288000D01*
X98933000Y-105422000D02*
X92849000Y-105422000D01*
X92849000Y-105422000D02*
X90551000Y-103124000D01*
X103631000Y-103632000D02*
X102931000Y-103632000D01*
X102931000Y-103632000D02*
X102005999Y-102706999D01*
X98933000Y-103394998D02*
X98933000Y-104772000D01*
X102005999Y-102706999D02*
X99620999Y-102706999D01*
X99620999Y-102706999D02*
X98933000Y-103394998D01*
X98933000Y-104772000D02*
X98933000Y-105422000D01*
X99187000Y-112256000D02*
X95377000Y-112256000D01*
X93545000Y-114288000D02*
X93345000Y-114288000D01*
X95377000Y-112256000D02*
X94045000Y-113588000D01*
X94045000Y-113588000D02*
X94045000Y-113788000D01*
X94045000Y-113788000D02*
X93545000Y-114288000D01*
X100477000Y-92710000D02*
X100477000Y-94592000D01*
X100477000Y-94592000D02*
X100627000Y-94742000D01*
X98679000Y-92698000D02*
X100465000Y-92698000D01*
X100465000Y-92698000D02*
X100477000Y-92710000D01*
X95377000Y-90898000D02*
X98379000Y-90898000D01*
X98379000Y-90898000D02*
X98679000Y-91198000D01*
X98699000Y-88900000D02*
X98699000Y-91178000D01*
X98699000Y-91178000D02*
X98679000Y-91198000D01*
X100330000Y-90805000D02*
X100330000Y-89019000D01*
X100330000Y-89019000D02*
X100449000Y-88900000D01*
X100449000Y-88900000D02*
X101199000Y-88900000D01*
X95631000Y-110744000D02*
X95631000Y-106934000D01*
X95631000Y-106934000D02*
X95885000Y-106680000D01*
X105613001Y-122340998D02*
X104739004Y-121467001D01*
X105613001Y-129086000D02*
X105613001Y-122340998D01*
X107028000Y-130500999D02*
X105613001Y-129086000D01*
X103810999Y-121467001D02*
X101615710Y-119271712D01*
X101615710Y-119271712D02*
X101615710Y-117914974D01*
X104739004Y-121467001D02*
X103810999Y-121467001D01*
X101615710Y-117914974D02*
X101615710Y-117490710D01*
X96647000Y-79756000D02*
X96647000Y-81039000D01*
X96647000Y-81039000D02*
X101460000Y-85852000D01*
X101460000Y-85852000D02*
X101485000Y-85852000D01*
X101199000Y-88900000D02*
X102985000Y-88900000D01*
X102985000Y-88900000D02*
X102997000Y-88888000D01*
X99937000Y-86868000D02*
X99937000Y-88388000D01*
X99937000Y-88388000D02*
X100449000Y-88900000D01*
X99937000Y-86868000D02*
X100469000Y-86868000D01*
X100469000Y-86868000D02*
X101485000Y-85852000D01*
X100627000Y-96642000D02*
X101407000Y-96642000D01*
X101407000Y-96642000D02*
X101971999Y-96077001D01*
X101971999Y-91879999D02*
X104388997Y-89463001D01*
X101971999Y-96077001D02*
X101971999Y-91879999D01*
X104388997Y-89463001D02*
X105231001Y-89463001D01*
X105231001Y-89463001D02*
X105296001Y-89398001D01*
X105296001Y-89398001D02*
X105296001Y-87963001D01*
X105296001Y-87963001D02*
X104721000Y-87388000D01*
X104721000Y-87388000D02*
X104521000Y-87388000D01*
X102997000Y-87388000D02*
X102997000Y-85864000D01*
X102997000Y-85864000D02*
X102985000Y-85852000D01*
X102997000Y-87388000D02*
X104521000Y-87388000D01*
D48*
X187476000Y-113030000D02*
X187476000Y-113980000D01*
X187476000Y-113980000D02*
X186963999Y-114492001D01*
X186963999Y-114492001D02*
X186963999Y-123170001D01*
X186963999Y-123170001D02*
X186473999Y-123660001D01*
X186473999Y-123660001D02*
X185674000Y-124460000D01*
X187476000Y-113030000D02*
X187256552Y-113030000D01*
X187256552Y-113030000D02*
X185986552Y-111760000D01*
X185986552Y-111760000D02*
X184733000Y-111760000D01*
X184733000Y-111760000D02*
X183463000Y-113030000D01*
X183463000Y-113030000D02*
X183388000Y-113030000D01*
X180594000Y-112708000D02*
X183066000Y-112708000D01*
X183066000Y-112708000D02*
X183388000Y-113030000D01*
D49*
X144414000Y-82296000D02*
X144414000Y-83678000D01*
X144414000Y-83678000D02*
X139446000Y-88646000D01*
X130414000Y-82296000D02*
X130414000Y-84694000D01*
X130414000Y-84694000D02*
X134366000Y-88646000D01*
X169720000Y-122888000D02*
X169720000Y-116840000D01*
D48*
X196088000Y-110648000D02*
X196088000Y-109587340D01*
X169802000Y-124206000D02*
X168402000Y-124206000D01*
X196088000Y-109587340D02*
X195948659Y-109447999D01*
X195948659Y-109447999D02*
X182518999Y-109447999D01*
X182518999Y-109447999D02*
X174470001Y-117496997D01*
X174470001Y-117496997D02*
X174470001Y-119537999D01*
X174470001Y-119537999D02*
X169802000Y-124206000D01*
D49*
X115084000Y-124460000D02*
X115084000Y-123460000D01*
X115084000Y-123460000D02*
X118334000Y-120210000D01*
X118334000Y-120210000D02*
X140514000Y-120210000D01*
X140514000Y-120210000D02*
X143764000Y-123460000D01*
X143764000Y-123460000D02*
X143764000Y-124460000D01*
X115084000Y-124460000D02*
X115084000Y-125460000D01*
X143764000Y-125460000D02*
X143764000Y-124460000D01*
X151384000Y-124206000D02*
X144018000Y-124206000D01*
X144018000Y-124206000D02*
X143764000Y-124460000D01*
X169720000Y-122888000D02*
X168402000Y-124206000D01*
D47*
X100751000Y-106426000D02*
X100751000Y-108394000D01*
X100751000Y-108394000D02*
X100881000Y-108524000D01*
X100331000Y-103632000D02*
X100331000Y-106006000D01*
X100331000Y-106006000D02*
X100751000Y-106426000D01*
X93853000Y-98078000D02*
X95597000Y-98078000D01*
X95597000Y-98078000D02*
X95631000Y-98044000D01*
X95385000Y-120142000D02*
X94835000Y-120142000D01*
X97407002Y-118119998D02*
X95385000Y-120142000D01*
X100102524Y-118119998D02*
X97407002Y-118119998D01*
X106045000Y-112177522D02*
X100102524Y-118119998D01*
X106045000Y-78212000D02*
X106045000Y-83185000D01*
X101727000Y-73394000D02*
X101727000Y-73894000D01*
X101727000Y-73894000D02*
X106045000Y-78212000D01*
X94835000Y-120142000D02*
X93379000Y-120142000D01*
X93379000Y-120142000D02*
X93091000Y-120430000D01*
X93091000Y-122682000D02*
X90551000Y-122682000D01*
X93091000Y-118330000D02*
X93091000Y-118405000D01*
X93091000Y-118405000D02*
X92540999Y-118955001D01*
X92540999Y-118955001D02*
X92540999Y-121000629D01*
X92540999Y-121000629D02*
X93091000Y-121550630D01*
X93091000Y-121550630D02*
X93091000Y-122682000D01*
X88899000Y-91186000D02*
X88899000Y-89418234D01*
X88899000Y-89418234D02*
X88505999Y-89025233D01*
X88505999Y-89025233D02*
X88505999Y-84661001D01*
X88505999Y-84661001D02*
X89081000Y-84086000D01*
X89081000Y-84086000D02*
X89281000Y-84086000D01*
D48*
X160020000Y-123260002D02*
X160020000Y-122476070D01*
X160020000Y-122476070D02*
X161562535Y-120933535D01*
X162276465Y-120933535D02*
X182880000Y-100330000D01*
X161562535Y-120933535D02*
X162276465Y-120933535D01*
X122234001Y-127160001D02*
X156120001Y-127160001D01*
X156120001Y-127160001D02*
X160020000Y-123260002D01*
X195580000Y-94615000D02*
X196088000Y-95123000D01*
X196088000Y-95123000D02*
X196088000Y-95274000D01*
X188595000Y-94615000D02*
X195580000Y-94615000D01*
X182880000Y-100965000D02*
X182880000Y-100330000D01*
X120534000Y-124460000D02*
X120534000Y-125460000D01*
X120534000Y-125460000D02*
X122234001Y-127160001D01*
X178991726Y-123360922D02*
X179741725Y-122610923D01*
X163247538Y-122133536D02*
X166772992Y-125658990D01*
X162138536Y-122133536D02*
X163247538Y-122133536D01*
X166772992Y-125658990D02*
X176693658Y-125658990D01*
X176693658Y-125658990D02*
X178991726Y-123360922D01*
X191135000Y-114300000D02*
X193016000Y-114300000D01*
X193016000Y-114300000D02*
X193040000Y-114276000D01*
X203962000Y-121412000D02*
X202184000Y-121412000D01*
X202184000Y-121412000D02*
X201676000Y-121920000D01*
X173355000Y-76835000D02*
X171335000Y-76835000D01*
X171335000Y-76835000D02*
X170815000Y-76315000D01*
X204216000Y-107696000D02*
X202946000Y-107696000D01*
X202946000Y-107696000D02*
X200025000Y-104775000D01*
D47*
X99187000Y-110756000D02*
X99187000Y-109716000D01*
X99187000Y-110756000D02*
X100549000Y-110756000D01*
X100549000Y-110756000D02*
X100881000Y-110424000D01*
X90551000Y-110744000D02*
X90551000Y-112788000D01*
X90551000Y-112788000D02*
X91251000Y-112788000D01*
X91251000Y-112788000D02*
X93345000Y-112788000D01*
X95631000Y-99544000D02*
X95631000Y-100584000D01*
X95631000Y-100584000D02*
X93091000Y-103124000D01*
X104521000Y-119392000D02*
X104521000Y-117844000D01*
X102870000Y-119380000D02*
X104509000Y-119380000D01*
X104509000Y-119380000D02*
X104521000Y-119392000D01*
X90551000Y-130302000D02*
X91676001Y-131427001D01*
X91676001Y-131427001D02*
X96296996Y-131427001D01*
X96296996Y-131427001D02*
X103362999Y-124360998D01*
X103362999Y-124360998D02*
X103362999Y-122412999D01*
X103362999Y-122412999D02*
X101600000Y-120650000D01*
X106680000Y-121285000D02*
X106287000Y-120892000D01*
X106287000Y-120892000D02*
X104521000Y-120892000D01*
D48*
X183134000Y-124460000D02*
X184384001Y-125710001D01*
X184384001Y-125710001D02*
X196434001Y-125710001D01*
X196434001Y-125710001D02*
X202472003Y-119671999D01*
X202472003Y-119671999D02*
X203162001Y-119671999D01*
X203162001Y-119671999D02*
X203962000Y-118872000D01*
X171542000Y-90126000D02*
X165056000Y-90126000D01*
X165056000Y-90126000D02*
X164592000Y-89662000D01*
X174625000Y-81915000D02*
X171581000Y-81915000D01*
X171581000Y-81915000D02*
X171542000Y-81876000D01*
X188976000Y-113030000D02*
X188976000Y-111379000D01*
X188976000Y-111379000D02*
X189230000Y-111125000D01*
X196088000Y-96774000D02*
X196088000Y-98648000D01*
X193040000Y-112776000D02*
X193040000Y-110696000D01*
X193040000Y-110696000D02*
X193088000Y-110648000D01*
X200587998Y-110648000D02*
X200148660Y-110648000D01*
X208811998Y-118872000D02*
X200587998Y-110648000D01*
X211582000Y-118872000D02*
X208811998Y-118872000D01*
X200148660Y-110648000D02*
X199088000Y-110648000D01*
D47*
X101727000Y-71894000D02*
X101727000Y-68580000D01*
D48*
X198755000Y-67945000D02*
X199604999Y-68794999D01*
X199604999Y-68794999D02*
X199604999Y-69717032D01*
X199604999Y-69717032D02*
X204216000Y-74328033D01*
X204216000Y-74328033D02*
X204216000Y-79629000D01*
X204216000Y-79629000D02*
X203835000Y-80010000D01*
D50*
G36*
X107823000Y-67535347D02*
X107573924Y-67308355D01*
X107163890Y-67138524D01*
X106934000Y-67259845D01*
X106934000Y-68453000D01*
X106954000Y-68453000D01*
X106954000Y-68707000D01*
X106934000Y-68707000D01*
X106934000Y-69900155D01*
X107163890Y-70021476D01*
X107573924Y-69851645D01*
X107823000Y-69624653D01*
X107823000Y-121691391D01*
X107588671Y-121534816D01*
X107614838Y-121471799D01*
X107615162Y-121099833D01*
X107473117Y-120756057D01*
X107210327Y-120492808D01*
X106866799Y-120350162D01*
X106817697Y-120350119D01*
X106577839Y-120189852D01*
X106287000Y-120132000D01*
X105382176Y-120132000D01*
X105422441Y-120106090D01*
X105567431Y-119893890D01*
X105618440Y-119642000D01*
X105618440Y-119142000D01*
X105574162Y-118906683D01*
X105435090Y-118690559D01*
X105329111Y-118618146D01*
X105422441Y-118558090D01*
X105567431Y-118345890D01*
X105618440Y-118094000D01*
X105618440Y-117594000D01*
X105574162Y-117358683D01*
X105435090Y-117142559D01*
X105365289Y-117094866D01*
X105422441Y-117058090D01*
X105567431Y-116845890D01*
X105618440Y-116594000D01*
X105618440Y-116094000D01*
X105574162Y-115858683D01*
X105435090Y-115642559D01*
X105222890Y-115497569D01*
X104971000Y-115446560D01*
X104071000Y-115446560D01*
X104029429Y-115454382D01*
X103996327Y-115374268D01*
X103959723Y-115337601D01*
X106184680Y-113112644D01*
X106230167Y-113112684D01*
X106573943Y-112970639D01*
X106837192Y-112707849D01*
X106979838Y-112364321D01*
X106980162Y-111992355D01*
X106838117Y-111648579D01*
X106575327Y-111385330D01*
X106231799Y-111242684D01*
X105859833Y-111242360D01*
X105516057Y-111384405D01*
X105252808Y-111647195D01*
X105110162Y-111990723D01*
X105110121Y-112037599D01*
X99787722Y-117359998D01*
X97407002Y-117359998D01*
X97116163Y-117417850D01*
X96869601Y-117582597D01*
X95174616Y-119277582D01*
X95135000Y-119269560D01*
X94535000Y-119269560D01*
X94299683Y-119313838D01*
X94193756Y-119382000D01*
X93379000Y-119382000D01*
X93300999Y-119397516D01*
X93300999Y-119277440D01*
X93316000Y-119277440D01*
X93551317Y-119233162D01*
X93767441Y-119094090D01*
X93912431Y-118881890D01*
X93963440Y-118630000D01*
X93963440Y-118030000D01*
X93919162Y-117794683D01*
X93780090Y-117578559D01*
X93567890Y-117433569D01*
X93316000Y-117382560D01*
X92866000Y-117382560D01*
X92630683Y-117426838D01*
X92414559Y-117565910D01*
X92269569Y-117778110D01*
X92218560Y-118030000D01*
X92218560Y-118202638D01*
X92003598Y-118417600D01*
X91838851Y-118664162D01*
X91780999Y-118955001D01*
X91780999Y-121000629D01*
X91838851Y-121291468D01*
X92003598Y-121538030D01*
X92093360Y-121627792D01*
X92076302Y-121639189D01*
X91887333Y-121922000D01*
X91754667Y-121922000D01*
X91565698Y-121639189D01*
X91100151Y-121328120D01*
X90551000Y-121218887D01*
X90001849Y-121328120D01*
X89536302Y-121639189D01*
X89281000Y-122021275D01*
X89025698Y-121639189D01*
X88771000Y-121469005D01*
X88771000Y-119736802D01*
X93322362Y-115185440D01*
X93795000Y-115185440D01*
X94030317Y-115141162D01*
X94246441Y-115002090D01*
X94391431Y-114789890D01*
X94442440Y-114538000D01*
X94442440Y-114465362D01*
X94582401Y-114325401D01*
X94747148Y-114078839D01*
X94776494Y-113931308D01*
X95691802Y-113016000D01*
X98284270Y-113016000D01*
X98117250Y-113127599D01*
X97010342Y-114234507D01*
X96964855Y-114234467D01*
X96621079Y-114376512D01*
X96357830Y-114639302D01*
X96215184Y-114982830D01*
X96214860Y-115354796D01*
X96356905Y-115698572D01*
X96619695Y-115961821D01*
X96963223Y-116104467D01*
X97335189Y-116104791D01*
X97678965Y-115962746D01*
X97942214Y-115699956D01*
X98084860Y-115356428D01*
X98084901Y-115309552D01*
X98969453Y-114425000D01*
X99767537Y-114425000D01*
X99799673Y-114457192D01*
X100143201Y-114599838D01*
X100515167Y-114600162D01*
X100858943Y-114458117D01*
X101122192Y-114195327D01*
X101264838Y-113851799D01*
X101264879Y-113804923D01*
X101768401Y-113301401D01*
X101933148Y-113054840D01*
X101946954Y-112985431D01*
X101957255Y-112933645D01*
X101969646Y-112925671D01*
X101971302Y-112927327D01*
X102204691Y-113024000D01*
X102445250Y-113024000D01*
X102604000Y-112865250D01*
X102604000Y-112141000D01*
X102858000Y-112141000D01*
X102858000Y-112865250D01*
X103016750Y-113024000D01*
X103257309Y-113024000D01*
X103490698Y-112927327D01*
X103669327Y-112748699D01*
X103766000Y-112515310D01*
X103766000Y-112299750D01*
X103607250Y-112141000D01*
X102858000Y-112141000D01*
X102604000Y-112141000D01*
X102584000Y-112141000D01*
X102584000Y-111887000D01*
X102604000Y-111887000D01*
X102604000Y-111867000D01*
X102858000Y-111867000D01*
X102858000Y-111887000D01*
X103607250Y-111887000D01*
X103766000Y-111728250D01*
X103766000Y-111512690D01*
X103712695Y-111384000D01*
X103737309Y-111384000D01*
X103970698Y-111287327D01*
X104149327Y-111108699D01*
X104246000Y-110875310D01*
X104246000Y-110709750D01*
X104087250Y-110551000D01*
X103208000Y-110551000D01*
X103208000Y-110571000D01*
X102954000Y-110571000D01*
X102954000Y-110551000D01*
X102934000Y-110551000D01*
X102934000Y-110297000D01*
X102954000Y-110297000D01*
X102954000Y-109622750D01*
X102805250Y-109474000D01*
X102954000Y-109325250D01*
X102954000Y-108651000D01*
X103208000Y-108651000D01*
X103208000Y-109325250D01*
X103356750Y-109474000D01*
X103208000Y-109622750D01*
X103208000Y-110297000D01*
X104087250Y-110297000D01*
X104246000Y-110138250D01*
X104246000Y-109972690D01*
X104149327Y-109739301D01*
X103970698Y-109560673D01*
X103761451Y-109474000D01*
X103970698Y-109387327D01*
X104149327Y-109208699D01*
X104246000Y-108975310D01*
X104246000Y-108809750D01*
X104087250Y-108651000D01*
X103208000Y-108651000D01*
X102954000Y-108651000D01*
X102934000Y-108651000D01*
X102934000Y-108397000D01*
X102954000Y-108397000D01*
X102954000Y-108377000D01*
X103208000Y-108377000D01*
X103208000Y-108397000D01*
X104087250Y-108397000D01*
X104246000Y-108238250D01*
X104246000Y-108072690D01*
X104149327Y-107839301D01*
X104049642Y-107739617D01*
X104110698Y-107714327D01*
X104289327Y-107535699D01*
X104386000Y-107302310D01*
X104386000Y-106711750D01*
X104227250Y-106553000D01*
X103378000Y-106553000D01*
X103378000Y-106573000D01*
X103124000Y-106573000D01*
X103124000Y-106553000D01*
X102274750Y-106553000D01*
X102116000Y-106711750D01*
X102116000Y-107302310D01*
X102212673Y-107535699D01*
X102294784Y-107617809D01*
X102191302Y-107660673D01*
X102012673Y-107839301D01*
X101981912Y-107913565D01*
X101875090Y-107747559D01*
X101707331Y-107632934D01*
X101847431Y-107427890D01*
X101898440Y-107176000D01*
X101898440Y-105676000D01*
X101874674Y-105549690D01*
X102116000Y-105549690D01*
X102116000Y-106140250D01*
X102274750Y-106299000D01*
X103124000Y-106299000D01*
X103124000Y-105199750D01*
X103378000Y-105199750D01*
X103378000Y-106299000D01*
X104227250Y-106299000D01*
X104386000Y-106140250D01*
X104386000Y-105549690D01*
X104289327Y-105316301D01*
X104110698Y-105137673D01*
X103877309Y-105041000D01*
X103536750Y-105041000D01*
X103378000Y-105199750D01*
X103124000Y-105199750D01*
X102965250Y-105041000D01*
X102624691Y-105041000D01*
X102391302Y-105137673D01*
X102212673Y-105316301D01*
X102116000Y-105549690D01*
X101874674Y-105549690D01*
X101854162Y-105440683D01*
X101715090Y-105224559D01*
X101502890Y-105079569D01*
X101251000Y-105028560D01*
X101091000Y-105028560D01*
X101091000Y-104787105D01*
X101232441Y-104696090D01*
X101377431Y-104483890D01*
X101428440Y-104232000D01*
X101428440Y-103466999D01*
X101691197Y-103466999D01*
X102393599Y-104169401D01*
X102540215Y-104267366D01*
X102577838Y-104467317D01*
X102716910Y-104683441D01*
X102929110Y-104828431D01*
X103181000Y-104879440D01*
X104081000Y-104879440D01*
X104316317Y-104835162D01*
X104532441Y-104696090D01*
X104677431Y-104483890D01*
X104728440Y-104232000D01*
X104728440Y-103032000D01*
X104684162Y-102796683D01*
X104545090Y-102580559D01*
X104332890Y-102435569D01*
X104081000Y-102384560D01*
X103181000Y-102384560D01*
X102945683Y-102428838D01*
X102858646Y-102484844D01*
X102543400Y-102169598D01*
X102296838Y-102004851D01*
X102005999Y-101946999D01*
X99620999Y-101946999D01*
X99330160Y-102004851D01*
X99083598Y-102169598D01*
X98395599Y-102857597D01*
X98230852Y-103104159D01*
X98173000Y-103394998D01*
X98173000Y-104515156D01*
X98106559Y-104557910D01*
X98035437Y-104662000D01*
X93163802Y-104662000D01*
X93088397Y-104586595D01*
X93091000Y-104587113D01*
X93640151Y-104477880D01*
X94105698Y-104166811D01*
X94361000Y-103784725D01*
X94616302Y-104166811D01*
X95081849Y-104477880D01*
X95631000Y-104587113D01*
X96180151Y-104477880D01*
X96645698Y-104166811D01*
X96956767Y-103701264D01*
X97066000Y-103152113D01*
X97066000Y-103095887D01*
X96956767Y-102546736D01*
X96645698Y-102081189D01*
X96180151Y-101770120D01*
X95631000Y-101660887D01*
X95628397Y-101661405D01*
X96168401Y-101121401D01*
X96333148Y-100874840D01*
X96353064Y-100774716D01*
X96391000Y-100584000D01*
X96391000Y-100349105D01*
X96532441Y-100258090D01*
X96677431Y-100045890D01*
X96728440Y-99794000D01*
X96728440Y-99294000D01*
X96684162Y-99058683D01*
X96545090Y-98842559D01*
X96475289Y-98794866D01*
X96532441Y-98758090D01*
X96677431Y-98545890D01*
X96728440Y-98294000D01*
X96728440Y-97794000D01*
X96684162Y-97558683D01*
X96545090Y-97342559D01*
X96332890Y-97197569D01*
X96081000Y-97146560D01*
X95181000Y-97146560D01*
X94945683Y-97190838D01*
X94803131Y-97282568D01*
X94767090Y-97226559D01*
X94554890Y-97081569D01*
X94303000Y-97030560D01*
X93403000Y-97030560D01*
X93167683Y-97074838D01*
X92951559Y-97213910D01*
X92806569Y-97426110D01*
X92755560Y-97678000D01*
X92755560Y-98478000D01*
X92799838Y-98713317D01*
X92938910Y-98929441D01*
X93151110Y-99074431D01*
X93403000Y-99125440D01*
X94303000Y-99125440D01*
X94538317Y-99081162D01*
X94582406Y-99052792D01*
X94533560Y-99294000D01*
X94533560Y-99794000D01*
X94577838Y-100029317D01*
X94716910Y-100245441D01*
X94822566Y-100317632D01*
X93414886Y-101725312D01*
X93091000Y-101660887D01*
X92541849Y-101770120D01*
X92076302Y-102081189D01*
X91821000Y-102463275D01*
X91565698Y-102081189D01*
X91311000Y-101911005D01*
X91311000Y-95183802D01*
X91579680Y-94915122D01*
X91625167Y-94915162D01*
X91968943Y-94773117D01*
X92232192Y-94510327D01*
X92374838Y-94166799D01*
X92375162Y-93794833D01*
X92233117Y-93451057D01*
X92003631Y-93221171D01*
X94504560Y-90720242D01*
X94504560Y-91198000D01*
X94548838Y-91433317D01*
X94687910Y-91649441D01*
X94900110Y-91794431D01*
X95152000Y-91845440D01*
X95602000Y-91845440D01*
X95837317Y-91801162D01*
X96053441Y-91662090D01*
X96056236Y-91658000D01*
X97667850Y-91658000D01*
X97700838Y-91833317D01*
X97774620Y-91947978D01*
X97707569Y-92046110D01*
X97656560Y-92298000D01*
X97656560Y-93098000D01*
X97700838Y-93333317D01*
X97839910Y-93549441D01*
X98052110Y-93694431D01*
X98304000Y-93745440D01*
X99054000Y-93745440D01*
X99289317Y-93701162D01*
X99365691Y-93652017D01*
X99373838Y-93695317D01*
X99512910Y-93911441D01*
X99622657Y-93986428D01*
X99500569Y-94165110D01*
X99449560Y-94417000D01*
X99449560Y-94932000D01*
X98860802Y-94932000D01*
X96389401Y-92460599D01*
X96142839Y-92295852D01*
X96091199Y-92285580D01*
X96066090Y-92246559D01*
X95853890Y-92101569D01*
X95602000Y-92050560D01*
X95152000Y-92050560D01*
X94916683Y-92094838D01*
X94700559Y-92233910D01*
X94555569Y-92446110D01*
X94504560Y-92698000D01*
X94504560Y-93298000D01*
X94548838Y-93533317D01*
X94617000Y-93639244D01*
X94617000Y-93925759D01*
X94457808Y-94084673D01*
X94315162Y-94428201D01*
X94315121Y-94475077D01*
X93859638Y-94930560D01*
X93403000Y-94930560D01*
X93167683Y-94974838D01*
X92951559Y-95113910D01*
X92806569Y-95326110D01*
X92755560Y-95578000D01*
X92755560Y-96378000D01*
X92799838Y-96613317D01*
X92938910Y-96829441D01*
X93151110Y-96974431D01*
X93403000Y-97025440D01*
X94303000Y-97025440D01*
X94538317Y-96981162D01*
X94754441Y-96842090D01*
X94899431Y-96629890D01*
X94950440Y-96378000D01*
X94950440Y-95989362D01*
X95389680Y-95550122D01*
X95435167Y-95550162D01*
X95778943Y-95408117D01*
X96042192Y-95145327D01*
X96184838Y-94801799D01*
X96185162Y-94429833D01*
X96168355Y-94389157D01*
X98008599Y-96229401D01*
X98255160Y-96394148D01*
X98546000Y-96452000D01*
X98932000Y-96452000D01*
X98932000Y-97155000D01*
X98989852Y-97445839D01*
X99154599Y-97692401D01*
X100297599Y-98835401D01*
X100538492Y-98996360D01*
X100620910Y-99124441D01*
X100833110Y-99269431D01*
X101085000Y-99320440D01*
X101885000Y-99320440D01*
X102120317Y-99276162D01*
X102223646Y-99209671D01*
X102225302Y-99211327D01*
X102458691Y-99308000D01*
X102699250Y-99308000D01*
X102858000Y-99149250D01*
X102858000Y-98425000D01*
X103112000Y-98425000D01*
X103112000Y-99149250D01*
X103270750Y-99308000D01*
X103511309Y-99308000D01*
X103744698Y-99211327D01*
X103923327Y-99032699D01*
X104020000Y-98799310D01*
X104020000Y-98583750D01*
X103861250Y-98425000D01*
X103112000Y-98425000D01*
X102858000Y-98425000D01*
X102838000Y-98425000D01*
X102838000Y-98171000D01*
X102858000Y-98171000D01*
X102858000Y-98151000D01*
X103112000Y-98151000D01*
X103112000Y-98171000D01*
X103861250Y-98171000D01*
X104020000Y-98012250D01*
X104020000Y-97796690D01*
X103923327Y-97563301D01*
X103791025Y-97431000D01*
X103895327Y-97326699D01*
X103992000Y-97093310D01*
X103992000Y-96927750D01*
X103833250Y-96769000D01*
X102954000Y-96769000D01*
X102954000Y-96789000D01*
X102700000Y-96789000D01*
X102700000Y-96769000D01*
X102680000Y-96769000D01*
X102680000Y-96515000D01*
X102700000Y-96515000D01*
X102700000Y-96237870D01*
X102731999Y-96077001D01*
X102731999Y-94869000D01*
X102954000Y-94869000D01*
X102954000Y-95543250D01*
X103102750Y-95692000D01*
X102954000Y-95840750D01*
X102954000Y-96515000D01*
X103833250Y-96515000D01*
X103992000Y-96356250D01*
X103992000Y-96190690D01*
X103895327Y-95957301D01*
X103716698Y-95778673D01*
X103507451Y-95692000D01*
X103716698Y-95605327D01*
X103895327Y-95426699D01*
X103992000Y-95193310D01*
X103992000Y-95027750D01*
X103833250Y-94869000D01*
X102954000Y-94869000D01*
X102731999Y-94869000D01*
X102731999Y-94595000D01*
X102954000Y-94595000D01*
X102954000Y-94615000D01*
X103833250Y-94615000D01*
X103992000Y-94456250D01*
X103992000Y-94290690D01*
X103895327Y-94057301D01*
X103836454Y-93998428D01*
X103836698Y-93998327D01*
X104015327Y-93819699D01*
X104112000Y-93586310D01*
X104112000Y-92995750D01*
X103953250Y-92837000D01*
X103104000Y-92837000D01*
X103104000Y-92857000D01*
X102850000Y-92857000D01*
X102850000Y-92837000D01*
X102830000Y-92837000D01*
X102830000Y-92583000D01*
X102850000Y-92583000D01*
X102850000Y-92563000D01*
X103104000Y-92563000D01*
X103104000Y-92583000D01*
X103953250Y-92583000D01*
X104112000Y-92424250D01*
X104112000Y-91833690D01*
X104015327Y-91600301D01*
X103836698Y-91421673D01*
X103603309Y-91325000D01*
X103601800Y-91325000D01*
X104703799Y-90223001D01*
X105231001Y-90223001D01*
X105521840Y-90165149D01*
X105768402Y-90000402D01*
X105833402Y-89935402D01*
X105998149Y-89688840D01*
X106056001Y-89398001D01*
X106056001Y-87963001D01*
X105998149Y-87672162D01*
X105998149Y-87672161D01*
X105833402Y-87425600D01*
X105618440Y-87210638D01*
X105618440Y-87138000D01*
X105574162Y-86902683D01*
X105435090Y-86686559D01*
X105222890Y-86541569D01*
X104971000Y-86490560D01*
X104071000Y-86490560D01*
X103959066Y-86511622D01*
X103981431Y-86478890D01*
X104032440Y-86227000D01*
X104032440Y-85477000D01*
X103988162Y-85241683D01*
X103849090Y-85025559D01*
X103636890Y-84880569D01*
X103385000Y-84829560D01*
X102585000Y-84829560D01*
X102349683Y-84873838D01*
X102235022Y-84947620D01*
X102136890Y-84880569D01*
X101885000Y-84829560D01*
X101512362Y-84829560D01*
X97553745Y-80870943D01*
X97661698Y-80798811D01*
X97972767Y-80333264D01*
X98082000Y-79784113D01*
X98082000Y-79727887D01*
X97972767Y-79178736D01*
X97661698Y-78713189D01*
X97196151Y-78402120D01*
X96647000Y-78292887D01*
X96281999Y-78365490D01*
X96281999Y-73550999D01*
X96276927Y-73525501D01*
X96647000Y-73599113D01*
X97196151Y-73489880D01*
X97661698Y-73178811D01*
X97972767Y-72713264D01*
X98082000Y-72164113D01*
X98082000Y-72107887D01*
X97972767Y-71558736D01*
X97661698Y-71093189D01*
X97196151Y-70782120D01*
X96647000Y-70672887D01*
X96097849Y-70782120D01*
X95632302Y-71093189D01*
X95377000Y-71475275D01*
X95121698Y-71093189D01*
X94656151Y-70782120D01*
X94107000Y-70672887D01*
X93557849Y-70782120D01*
X93092302Y-71093189D01*
X92837000Y-71475275D01*
X92581698Y-71093189D01*
X92116151Y-70782120D01*
X91567000Y-70672887D01*
X91017849Y-70782120D01*
X90552302Y-71093189D01*
X90297000Y-71475275D01*
X90041698Y-71093189D01*
X89576151Y-70782120D01*
X89027000Y-70672887D01*
X88477849Y-70782120D01*
X88012302Y-71093189D01*
X87701233Y-71558736D01*
X87592000Y-72107887D01*
X87592000Y-72164113D01*
X87701233Y-72713264D01*
X88012302Y-73178811D01*
X88477849Y-73489880D01*
X89027000Y-73599113D01*
X89576151Y-73489880D01*
X90041698Y-73178811D01*
X90297000Y-72796725D01*
X90552302Y-73178811D01*
X91017849Y-73489880D01*
X91567000Y-73599113D01*
X92116151Y-73489880D01*
X92581698Y-73178811D01*
X92837000Y-72796725D01*
X93092302Y-73178811D01*
X93557849Y-73489880D01*
X94107000Y-73599113D01*
X94430886Y-73534688D01*
X94761999Y-73865801D01*
X94761999Y-78472845D01*
X94656151Y-78402120D01*
X94107000Y-78292887D01*
X93557849Y-78402120D01*
X93092302Y-78713189D01*
X92837000Y-79095275D01*
X92581698Y-78713189D01*
X92116151Y-78402120D01*
X91567000Y-78292887D01*
X91017849Y-78402120D01*
X90552302Y-78713189D01*
X90455899Y-78857465D01*
X90430162Y-78720683D01*
X90291090Y-78504559D01*
X90078890Y-78359569D01*
X89827000Y-78308560D01*
X88227000Y-78308560D01*
X87991683Y-78352838D01*
X87775559Y-78491910D01*
X87630569Y-78704110D01*
X87579560Y-78956000D01*
X87579560Y-80556000D01*
X87623838Y-80791317D01*
X87762910Y-81007441D01*
X87975110Y-81152431D01*
X88227000Y-81203440D01*
X89827000Y-81203440D01*
X90062317Y-81159162D01*
X90278441Y-81020090D01*
X90423431Y-80807890D01*
X90454815Y-80652911D01*
X90552302Y-80798811D01*
X91017849Y-81109880D01*
X91567000Y-81219113D01*
X91890886Y-81154688D01*
X92560001Y-81823803D01*
X92560001Y-82722560D01*
X92345000Y-82722560D01*
X92109683Y-82766838D01*
X91893559Y-82905910D01*
X91748569Y-83118110D01*
X91746028Y-83130659D01*
X91685890Y-83089569D01*
X91434000Y-83038560D01*
X91111362Y-83038560D01*
X89528177Y-81455375D01*
X89281615Y-81290628D01*
X88990776Y-81232776D01*
X86450787Y-81232776D01*
X86418651Y-81200584D01*
X86075123Y-81057938D01*
X85703157Y-81057614D01*
X85359381Y-81199659D01*
X85096132Y-81462449D01*
X84953486Y-81805977D01*
X84953162Y-82177943D01*
X85095207Y-82521719D01*
X85357997Y-82784968D01*
X85701525Y-82927614D01*
X86073491Y-82927938D01*
X86417267Y-82785893D01*
X86450442Y-82752776D01*
X88675974Y-82752776D01*
X89111758Y-83188560D01*
X88831000Y-83188560D01*
X88595683Y-83232838D01*
X88379559Y-83371910D01*
X88234569Y-83584110D01*
X88183560Y-83836000D01*
X88183560Y-83908638D01*
X87968598Y-84123600D01*
X87803851Y-84370162D01*
X87745999Y-84661001D01*
X87745999Y-87646657D01*
X87275595Y-87451328D01*
X86525695Y-87450674D01*
X85832628Y-87737043D01*
X85301907Y-88266839D01*
X85014328Y-88959405D01*
X85013707Y-89670896D01*
X84725648Y-89551284D01*
X84075205Y-89550716D01*
X83474057Y-89799106D01*
X83013722Y-90258637D01*
X82764284Y-90859352D01*
X82763716Y-91509795D01*
X83012106Y-92110943D01*
X83471637Y-92571278D01*
X84072352Y-92820716D01*
X84722795Y-92821284D01*
X85014292Y-92700840D01*
X85013674Y-93409305D01*
X85300043Y-94102372D01*
X85829839Y-94633093D01*
X86522405Y-94920672D01*
X87272305Y-94921326D01*
X87965372Y-94634957D01*
X88253918Y-94346913D01*
X88215988Y-94537601D01*
X88215988Y-98288210D01*
X83930473Y-102573725D01*
X83765648Y-102505284D01*
X83115205Y-102504716D01*
X82514057Y-102753106D01*
X82053722Y-103212637D01*
X81804284Y-103813352D01*
X81803716Y-104463795D01*
X82052106Y-105064943D01*
X82511637Y-105525278D01*
X83112352Y-105774716D01*
X83762795Y-105775284D01*
X84363943Y-105526894D01*
X84824278Y-105067363D01*
X85073716Y-104466648D01*
X85074284Y-103816205D01*
X85005081Y-103648721D01*
X88665999Y-99987803D01*
X88665999Y-101840845D01*
X88560151Y-101770120D01*
X88011000Y-101660887D01*
X87461849Y-101770120D01*
X86996302Y-102081189D01*
X86685233Y-102546736D01*
X86576000Y-103095887D01*
X86576000Y-103152113D01*
X86685233Y-103701264D01*
X86996302Y-104166811D01*
X87461849Y-104477880D01*
X88011000Y-104587113D01*
X88560151Y-104477880D01*
X88665999Y-104407155D01*
X88665999Y-107078999D01*
X88723851Y-107369838D01*
X88730642Y-107380001D01*
X84438999Y-107380001D01*
X84148160Y-107437853D01*
X83939317Y-107577397D01*
X83765648Y-107505284D01*
X83115205Y-107504716D01*
X82514057Y-107753106D01*
X82053722Y-108212637D01*
X81804284Y-108813352D01*
X81803716Y-109463795D01*
X82052106Y-110064943D01*
X82511637Y-110525278D01*
X83112352Y-110774716D01*
X83762795Y-110775284D01*
X84363943Y-110526894D01*
X84824278Y-110067363D01*
X85073716Y-109466648D01*
X85074211Y-108900001D01*
X90172199Y-108900001D01*
X90553603Y-109281405D01*
X90551000Y-109280887D01*
X90001849Y-109390120D01*
X89536302Y-109701189D01*
X89439899Y-109845465D01*
X89414162Y-109708683D01*
X89275090Y-109492559D01*
X89062890Y-109347569D01*
X88811000Y-109296560D01*
X87211000Y-109296560D01*
X86975683Y-109340838D01*
X86759559Y-109479910D01*
X86614569Y-109692110D01*
X86563560Y-109944000D01*
X86563560Y-111544000D01*
X86607838Y-111779317D01*
X86746910Y-111995441D01*
X86959110Y-112140431D01*
X87211000Y-112191440D01*
X88811000Y-112191440D01*
X89046317Y-112147162D01*
X89262441Y-112008090D01*
X89407431Y-111795890D01*
X89438815Y-111640911D01*
X89536302Y-111786811D01*
X89791000Y-111956995D01*
X89791000Y-111982895D01*
X89649559Y-112073910D01*
X89504569Y-112286110D01*
X89453560Y-112538000D01*
X89453560Y-113038000D01*
X89497838Y-113273317D01*
X89636910Y-113489441D01*
X89706711Y-113537134D01*
X89649559Y-113573910D01*
X89504569Y-113786110D01*
X89453560Y-114038000D01*
X89453560Y-114538000D01*
X89497838Y-114773317D01*
X89555251Y-114862539D01*
X89377808Y-115039673D01*
X89235162Y-115383201D01*
X89234838Y-115755167D01*
X89376883Y-116098943D01*
X89639673Y-116362192D01*
X89891456Y-116466742D01*
X87473599Y-118884599D01*
X87308852Y-119131161D01*
X87251000Y-119422000D01*
X87251000Y-121469005D01*
X86996302Y-121639189D01*
X86685233Y-122104736D01*
X86576000Y-122653887D01*
X86576000Y-122710113D01*
X86631096Y-122987102D01*
X84828143Y-124790055D01*
X85073716Y-124198648D01*
X85074284Y-123548205D01*
X84825894Y-122947057D01*
X84366363Y-122486722D01*
X83765648Y-122237284D01*
X83115205Y-122236716D01*
X82514057Y-122485106D01*
X82053722Y-122944637D01*
X81804284Y-123545352D01*
X81803716Y-124195795D01*
X82052106Y-124796943D01*
X82511637Y-125257278D01*
X83112352Y-125506716D01*
X83762795Y-125507284D01*
X84356038Y-125262160D01*
X82901599Y-126716599D01*
X82736852Y-126963161D01*
X82679000Y-127254000D01*
X82679000Y-127416953D01*
X82514057Y-127485106D01*
X82053722Y-127944637D01*
X81804284Y-128545352D01*
X81803716Y-129195795D01*
X82052106Y-129796943D01*
X82511637Y-130257278D01*
X83112352Y-130506716D01*
X83762795Y-130507284D01*
X83930279Y-130438081D01*
X84331599Y-130839401D01*
X84578160Y-131004148D01*
X84869000Y-131062000D01*
X86563560Y-131062000D01*
X86563560Y-131102000D01*
X86604203Y-131318000D01*
X81407000Y-131318000D01*
X81407000Y-119195795D01*
X81803716Y-119195795D01*
X82052106Y-119796943D01*
X82511637Y-120257278D01*
X83112352Y-120506716D01*
X83762795Y-120507284D01*
X84363943Y-120258894D01*
X84824278Y-119799363D01*
X85073716Y-119198648D01*
X85074284Y-118548205D01*
X84825894Y-117947057D01*
X84366363Y-117486722D01*
X83765648Y-117237284D01*
X83115205Y-117236716D01*
X82514057Y-117485106D01*
X82053722Y-117944637D01*
X81804284Y-118545352D01*
X81803716Y-119195795D01*
X81407000Y-119195795D01*
X81407000Y-99463795D01*
X81803716Y-99463795D01*
X82052106Y-100064943D01*
X82511637Y-100525278D01*
X83112352Y-100774716D01*
X83762795Y-100775284D01*
X84363943Y-100526894D01*
X84824278Y-100067363D01*
X85073716Y-99466648D01*
X85074284Y-98816205D01*
X84825894Y-98215057D01*
X84366363Y-97754722D01*
X83765648Y-97505284D01*
X83115205Y-97504716D01*
X82514057Y-97753106D01*
X82053722Y-98212637D01*
X81804284Y-98813352D01*
X81803716Y-99463795D01*
X81407000Y-99463795D01*
X81407000Y-67730000D01*
X100229560Y-67730000D01*
X100229560Y-69430000D01*
X100273838Y-69665317D01*
X100412910Y-69881441D01*
X100625110Y-70026431D01*
X100877000Y-70077440D01*
X100967000Y-70077440D01*
X100967000Y-71088895D01*
X100825559Y-71179910D01*
X100680569Y-71392110D01*
X100629560Y-71644000D01*
X100629560Y-72144000D01*
X100673838Y-72379317D01*
X100812910Y-72595441D01*
X100882711Y-72643134D01*
X100825559Y-72679910D01*
X100680569Y-72892110D01*
X100629560Y-73144000D01*
X100629560Y-73644000D01*
X100673838Y-73879317D01*
X100812910Y-74095441D01*
X101025110Y-74240431D01*
X101067770Y-74249070D01*
X101189599Y-74431401D01*
X105285000Y-78526802D01*
X105285000Y-82622537D01*
X105252808Y-82654673D01*
X105110162Y-82998201D01*
X105109838Y-83370167D01*
X105251883Y-83713943D01*
X105514673Y-83977192D01*
X105858201Y-84119838D01*
X106230167Y-84120162D01*
X106573943Y-83978117D01*
X106837192Y-83715327D01*
X106979838Y-83371799D01*
X106980162Y-82999833D01*
X106838117Y-82656057D01*
X106805000Y-82622882D01*
X106805000Y-78212000D01*
X106747148Y-77921161D01*
X106582401Y-77674599D01*
X102778527Y-73870725D01*
X102824440Y-73644000D01*
X102824440Y-73144000D01*
X102780162Y-72908683D01*
X102641090Y-72692559D01*
X102571289Y-72644866D01*
X102628441Y-72608090D01*
X102773431Y-72395890D01*
X102824440Y-72144000D01*
X102824440Y-71644000D01*
X102780162Y-71408683D01*
X102641090Y-71192559D01*
X102487000Y-71087274D01*
X102487000Y-70077440D01*
X102577000Y-70077440D01*
X102812317Y-70033162D01*
X103028441Y-69894090D01*
X103173431Y-69681890D01*
X103187086Y-69614459D01*
X103216946Y-69659147D01*
X103698715Y-69981054D01*
X104267000Y-70094093D01*
X104835285Y-69981054D01*
X105317054Y-69659147D01*
X105544702Y-69318447D01*
X105611817Y-69461358D01*
X106040076Y-69851645D01*
X106450110Y-70021476D01*
X106680000Y-69900155D01*
X106680000Y-68707000D01*
X106660000Y-68707000D01*
X106660000Y-68453000D01*
X106680000Y-68453000D01*
X106680000Y-67259845D01*
X106450110Y-67138524D01*
X106040076Y-67308355D01*
X105611817Y-67698642D01*
X105544702Y-67841553D01*
X105317054Y-67500853D01*
X104835285Y-67178946D01*
X104267000Y-67065907D01*
X103698715Y-67178946D01*
X103216946Y-67500853D01*
X103189150Y-67542452D01*
X103180162Y-67494683D01*
X103041090Y-67278559D01*
X102828890Y-67133569D01*
X102577000Y-67082560D01*
X100877000Y-67082560D01*
X100641683Y-67126838D01*
X100425559Y-67265910D01*
X100280569Y-67478110D01*
X100229560Y-67730000D01*
X81407000Y-67730000D01*
X81407000Y-66802000D01*
X107823000Y-66802000D01*
X107823000Y-67535347D01*
X107823000Y-67535347D01*
G37*
X107823000Y-67535347D02*
X107573924Y-67308355D01*
X107163890Y-67138524D01*
X106934000Y-67259845D01*
X106934000Y-68453000D01*
X106954000Y-68453000D01*
X106954000Y-68707000D01*
X106934000Y-68707000D01*
X106934000Y-69900155D01*
X107163890Y-70021476D01*
X107573924Y-69851645D01*
X107823000Y-69624653D01*
X107823000Y-121691391D01*
X107588671Y-121534816D01*
X107614838Y-121471799D01*
X107615162Y-121099833D01*
X107473117Y-120756057D01*
X107210327Y-120492808D01*
X106866799Y-120350162D01*
X106817697Y-120350119D01*
X106577839Y-120189852D01*
X106287000Y-120132000D01*
X105382176Y-120132000D01*
X105422441Y-120106090D01*
X105567431Y-119893890D01*
X105618440Y-119642000D01*
X105618440Y-119142000D01*
X105574162Y-118906683D01*
X105435090Y-118690559D01*
X105329111Y-118618146D01*
X105422441Y-118558090D01*
X105567431Y-118345890D01*
X105618440Y-118094000D01*
X105618440Y-117594000D01*
X105574162Y-117358683D01*
X105435090Y-117142559D01*
X105365289Y-117094866D01*
X105422441Y-117058090D01*
X105567431Y-116845890D01*
X105618440Y-116594000D01*
X105618440Y-116094000D01*
X105574162Y-115858683D01*
X105435090Y-115642559D01*
X105222890Y-115497569D01*
X104971000Y-115446560D01*
X104071000Y-115446560D01*
X104029429Y-115454382D01*
X103996327Y-115374268D01*
X103959723Y-115337601D01*
X106184680Y-113112644D01*
X106230167Y-113112684D01*
X106573943Y-112970639D01*
X106837192Y-112707849D01*
X106979838Y-112364321D01*
X106980162Y-111992355D01*
X106838117Y-111648579D01*
X106575327Y-111385330D01*
X106231799Y-111242684D01*
X105859833Y-111242360D01*
X105516057Y-111384405D01*
X105252808Y-111647195D01*
X105110162Y-111990723D01*
X105110121Y-112037599D01*
X99787722Y-117359998D01*
X97407002Y-117359998D01*
X97116163Y-117417850D01*
X96869601Y-117582597D01*
X95174616Y-119277582D01*
X95135000Y-119269560D01*
X94535000Y-119269560D01*
X94299683Y-119313838D01*
X94193756Y-119382000D01*
X93379000Y-119382000D01*
X93300999Y-119397516D01*
X93300999Y-119277440D01*
X93316000Y-119277440D01*
X93551317Y-119233162D01*
X93767441Y-119094090D01*
X93912431Y-118881890D01*
X93963440Y-118630000D01*
X93963440Y-118030000D01*
X93919162Y-117794683D01*
X93780090Y-117578559D01*
X93567890Y-117433569D01*
X93316000Y-117382560D01*
X92866000Y-117382560D01*
X92630683Y-117426838D01*
X92414559Y-117565910D01*
X92269569Y-117778110D01*
X92218560Y-118030000D01*
X92218560Y-118202638D01*
X92003598Y-118417600D01*
X91838851Y-118664162D01*
X91780999Y-118955001D01*
X91780999Y-121000629D01*
X91838851Y-121291468D01*
X92003598Y-121538030D01*
X92093360Y-121627792D01*
X92076302Y-121639189D01*
X91887333Y-121922000D01*
X91754667Y-121922000D01*
X91565698Y-121639189D01*
X91100151Y-121328120D01*
X90551000Y-121218887D01*
X90001849Y-121328120D01*
X89536302Y-121639189D01*
X89281000Y-122021275D01*
X89025698Y-121639189D01*
X88771000Y-121469005D01*
X88771000Y-119736802D01*
X93322362Y-115185440D01*
X93795000Y-115185440D01*
X94030317Y-115141162D01*
X94246441Y-115002090D01*
X94391431Y-114789890D01*
X94442440Y-114538000D01*
X94442440Y-114465362D01*
X94582401Y-114325401D01*
X94747148Y-114078839D01*
X94776494Y-113931308D01*
X95691802Y-113016000D01*
X98284270Y-113016000D01*
X98117250Y-113127599D01*
X97010342Y-114234507D01*
X96964855Y-114234467D01*
X96621079Y-114376512D01*
X96357830Y-114639302D01*
X96215184Y-114982830D01*
X96214860Y-115354796D01*
X96356905Y-115698572D01*
X96619695Y-115961821D01*
X96963223Y-116104467D01*
X97335189Y-116104791D01*
X97678965Y-115962746D01*
X97942214Y-115699956D01*
X98084860Y-115356428D01*
X98084901Y-115309552D01*
X98969453Y-114425000D01*
X99767537Y-114425000D01*
X99799673Y-114457192D01*
X100143201Y-114599838D01*
X100515167Y-114600162D01*
X100858943Y-114458117D01*
X101122192Y-114195327D01*
X101264838Y-113851799D01*
X101264879Y-113804923D01*
X101768401Y-113301401D01*
X101933148Y-113054840D01*
X101946954Y-112985431D01*
X101957255Y-112933645D01*
X101969646Y-112925671D01*
X101971302Y-112927327D01*
X102204691Y-113024000D01*
X102445250Y-113024000D01*
X102604000Y-112865250D01*
X102604000Y-112141000D01*
X102858000Y-112141000D01*
X102858000Y-112865250D01*
X103016750Y-113024000D01*
X103257309Y-113024000D01*
X103490698Y-112927327D01*
X103669327Y-112748699D01*
X103766000Y-112515310D01*
X103766000Y-112299750D01*
X103607250Y-112141000D01*
X102858000Y-112141000D01*
X102604000Y-112141000D01*
X102584000Y-112141000D01*
X102584000Y-111887000D01*
X102604000Y-111887000D01*
X102604000Y-111867000D01*
X102858000Y-111867000D01*
X102858000Y-111887000D01*
X103607250Y-111887000D01*
X103766000Y-111728250D01*
X103766000Y-111512690D01*
X103712695Y-111384000D01*
X103737309Y-111384000D01*
X103970698Y-111287327D01*
X104149327Y-111108699D01*
X104246000Y-110875310D01*
X104246000Y-110709750D01*
X104087250Y-110551000D01*
X103208000Y-110551000D01*
X103208000Y-110571000D01*
X102954000Y-110571000D01*
X102954000Y-110551000D01*
X102934000Y-110551000D01*
X102934000Y-110297000D01*
X102954000Y-110297000D01*
X102954000Y-109622750D01*
X102805250Y-109474000D01*
X102954000Y-109325250D01*
X102954000Y-108651000D01*
X103208000Y-108651000D01*
X103208000Y-109325250D01*
X103356750Y-109474000D01*
X103208000Y-109622750D01*
X103208000Y-110297000D01*
X104087250Y-110297000D01*
X104246000Y-110138250D01*
X104246000Y-109972690D01*
X104149327Y-109739301D01*
X103970698Y-109560673D01*
X103761451Y-109474000D01*
X103970698Y-109387327D01*
X104149327Y-109208699D01*
X104246000Y-108975310D01*
X104246000Y-108809750D01*
X104087250Y-108651000D01*
X103208000Y-108651000D01*
X102954000Y-108651000D01*
X102934000Y-108651000D01*
X102934000Y-108397000D01*
X102954000Y-108397000D01*
X102954000Y-108377000D01*
X103208000Y-108377000D01*
X103208000Y-108397000D01*
X104087250Y-108397000D01*
X104246000Y-108238250D01*
X104246000Y-108072690D01*
X104149327Y-107839301D01*
X104049642Y-107739617D01*
X104110698Y-107714327D01*
X104289327Y-107535699D01*
X104386000Y-107302310D01*
X104386000Y-106711750D01*
X104227250Y-106553000D01*
X103378000Y-106553000D01*
X103378000Y-106573000D01*
X103124000Y-106573000D01*
X103124000Y-106553000D01*
X102274750Y-106553000D01*
X102116000Y-106711750D01*
X102116000Y-107302310D01*
X102212673Y-107535699D01*
X102294784Y-107617809D01*
X102191302Y-107660673D01*
X102012673Y-107839301D01*
X101981912Y-107913565D01*
X101875090Y-107747559D01*
X101707331Y-107632934D01*
X101847431Y-107427890D01*
X101898440Y-107176000D01*
X101898440Y-105676000D01*
X101874674Y-105549690D01*
X102116000Y-105549690D01*
X102116000Y-106140250D01*
X102274750Y-106299000D01*
X103124000Y-106299000D01*
X103124000Y-105199750D01*
X103378000Y-105199750D01*
X103378000Y-106299000D01*
X104227250Y-106299000D01*
X104386000Y-106140250D01*
X104386000Y-105549690D01*
X104289327Y-105316301D01*
X104110698Y-105137673D01*
X103877309Y-105041000D01*
X103536750Y-105041000D01*
X103378000Y-105199750D01*
X103124000Y-105199750D01*
X102965250Y-105041000D01*
X102624691Y-105041000D01*
X102391302Y-105137673D01*
X102212673Y-105316301D01*
X102116000Y-105549690D01*
X101874674Y-105549690D01*
X101854162Y-105440683D01*
X101715090Y-105224559D01*
X101502890Y-105079569D01*
X101251000Y-105028560D01*
X101091000Y-105028560D01*
X101091000Y-104787105D01*
X101232441Y-104696090D01*
X101377431Y-104483890D01*
X101428440Y-104232000D01*
X101428440Y-103466999D01*
X101691197Y-103466999D01*
X102393599Y-104169401D01*
X102540215Y-104267366D01*
X102577838Y-104467317D01*
X102716910Y-104683441D01*
X102929110Y-104828431D01*
X103181000Y-104879440D01*
X104081000Y-104879440D01*
X104316317Y-104835162D01*
X104532441Y-104696090D01*
X104677431Y-104483890D01*
X104728440Y-104232000D01*
X104728440Y-103032000D01*
X104684162Y-102796683D01*
X104545090Y-102580559D01*
X104332890Y-102435569D01*
X104081000Y-102384560D01*
X103181000Y-102384560D01*
X102945683Y-102428838D01*
X102858646Y-102484844D01*
X102543400Y-102169598D01*
X102296838Y-102004851D01*
X102005999Y-101946999D01*
X99620999Y-101946999D01*
X99330160Y-102004851D01*
X99083598Y-102169598D01*
X98395599Y-102857597D01*
X98230852Y-103104159D01*
X98173000Y-103394998D01*
X98173000Y-104515156D01*
X98106559Y-104557910D01*
X98035437Y-104662000D01*
X93163802Y-104662000D01*
X93088397Y-104586595D01*
X93091000Y-104587113D01*
X93640151Y-104477880D01*
X94105698Y-104166811D01*
X94361000Y-103784725D01*
X94616302Y-104166811D01*
X95081849Y-104477880D01*
X95631000Y-104587113D01*
X96180151Y-104477880D01*
X96645698Y-104166811D01*
X96956767Y-103701264D01*
X97066000Y-103152113D01*
X97066000Y-103095887D01*
X96956767Y-102546736D01*
X96645698Y-102081189D01*
X96180151Y-101770120D01*
X95631000Y-101660887D01*
X95628397Y-101661405D01*
X96168401Y-101121401D01*
X96333148Y-100874840D01*
X96353064Y-100774716D01*
X96391000Y-100584000D01*
X96391000Y-100349105D01*
X96532441Y-100258090D01*
X96677431Y-100045890D01*
X96728440Y-99794000D01*
X96728440Y-99294000D01*
X96684162Y-99058683D01*
X96545090Y-98842559D01*
X96475289Y-98794866D01*
X96532441Y-98758090D01*
X96677431Y-98545890D01*
X96728440Y-98294000D01*
X96728440Y-97794000D01*
X96684162Y-97558683D01*
X96545090Y-97342559D01*
X96332890Y-97197569D01*
X96081000Y-97146560D01*
X95181000Y-97146560D01*
X94945683Y-97190838D01*
X94803131Y-97282568D01*
X94767090Y-97226559D01*
X94554890Y-97081569D01*
X94303000Y-97030560D01*
X93403000Y-97030560D01*
X93167683Y-97074838D01*
X92951559Y-97213910D01*
X92806569Y-97426110D01*
X92755560Y-97678000D01*
X92755560Y-98478000D01*
X92799838Y-98713317D01*
X92938910Y-98929441D01*
X93151110Y-99074431D01*
X93403000Y-99125440D01*
X94303000Y-99125440D01*
X94538317Y-99081162D01*
X94582406Y-99052792D01*
X94533560Y-99294000D01*
X94533560Y-99794000D01*
X94577838Y-100029317D01*
X94716910Y-100245441D01*
X94822566Y-100317632D01*
X93414886Y-101725312D01*
X93091000Y-101660887D01*
X92541849Y-101770120D01*
X92076302Y-102081189D01*
X91821000Y-102463275D01*
X91565698Y-102081189D01*
X91311000Y-101911005D01*
X91311000Y-95183802D01*
X91579680Y-94915122D01*
X91625167Y-94915162D01*
X91968943Y-94773117D01*
X92232192Y-94510327D01*
X92374838Y-94166799D01*
X92375162Y-93794833D01*
X92233117Y-93451057D01*
X92003631Y-93221171D01*
X94504560Y-90720242D01*
X94504560Y-91198000D01*
X94548838Y-91433317D01*
X94687910Y-91649441D01*
X94900110Y-91794431D01*
X95152000Y-91845440D01*
X95602000Y-91845440D01*
X95837317Y-91801162D01*
X96053441Y-91662090D01*
X96056236Y-91658000D01*
X97667850Y-91658000D01*
X97700838Y-91833317D01*
X97774620Y-91947978D01*
X97707569Y-92046110D01*
X97656560Y-92298000D01*
X97656560Y-93098000D01*
X97700838Y-93333317D01*
X97839910Y-93549441D01*
X98052110Y-93694431D01*
X98304000Y-93745440D01*
X99054000Y-93745440D01*
X99289317Y-93701162D01*
X99365691Y-93652017D01*
X99373838Y-93695317D01*
X99512910Y-93911441D01*
X99622657Y-93986428D01*
X99500569Y-94165110D01*
X99449560Y-94417000D01*
X99449560Y-94932000D01*
X98860802Y-94932000D01*
X96389401Y-92460599D01*
X96142839Y-92295852D01*
X96091199Y-92285580D01*
X96066090Y-92246559D01*
X95853890Y-92101569D01*
X95602000Y-92050560D01*
X95152000Y-92050560D01*
X94916683Y-92094838D01*
X94700559Y-92233910D01*
X94555569Y-92446110D01*
X94504560Y-92698000D01*
X94504560Y-93298000D01*
X94548838Y-93533317D01*
X94617000Y-93639244D01*
X94617000Y-93925759D01*
X94457808Y-94084673D01*
X94315162Y-94428201D01*
X94315121Y-94475077D01*
X93859638Y-94930560D01*
X93403000Y-94930560D01*
X93167683Y-94974838D01*
X92951559Y-95113910D01*
X92806569Y-95326110D01*
X92755560Y-95578000D01*
X92755560Y-96378000D01*
X92799838Y-96613317D01*
X92938910Y-96829441D01*
X93151110Y-96974431D01*
X93403000Y-97025440D01*
X94303000Y-97025440D01*
X94538317Y-96981162D01*
X94754441Y-96842090D01*
X94899431Y-96629890D01*
X94950440Y-96378000D01*
X94950440Y-95989362D01*
X95389680Y-95550122D01*
X95435167Y-95550162D01*
X95778943Y-95408117D01*
X96042192Y-95145327D01*
X96184838Y-94801799D01*
X96185162Y-94429833D01*
X96168355Y-94389157D01*
X98008599Y-96229401D01*
X98255160Y-96394148D01*
X98546000Y-96452000D01*
X98932000Y-96452000D01*
X98932000Y-97155000D01*
X98989852Y-97445839D01*
X99154599Y-97692401D01*
X100297599Y-98835401D01*
X100538492Y-98996360D01*
X100620910Y-99124441D01*
X100833110Y-99269431D01*
X101085000Y-99320440D01*
X101885000Y-99320440D01*
X102120317Y-99276162D01*
X102223646Y-99209671D01*
X102225302Y-99211327D01*
X102458691Y-99308000D01*
X102699250Y-99308000D01*
X102858000Y-99149250D01*
X102858000Y-98425000D01*
X103112000Y-98425000D01*
X103112000Y-99149250D01*
X103270750Y-99308000D01*
X103511309Y-99308000D01*
X103744698Y-99211327D01*
X103923327Y-99032699D01*
X104020000Y-98799310D01*
X104020000Y-98583750D01*
X103861250Y-98425000D01*
X103112000Y-98425000D01*
X102858000Y-98425000D01*
X102838000Y-98425000D01*
X102838000Y-98171000D01*
X102858000Y-98171000D01*
X102858000Y-98151000D01*
X103112000Y-98151000D01*
X103112000Y-98171000D01*
X103861250Y-98171000D01*
X104020000Y-98012250D01*
X104020000Y-97796690D01*
X103923327Y-97563301D01*
X103791025Y-97431000D01*
X103895327Y-97326699D01*
X103992000Y-97093310D01*
X103992000Y-96927750D01*
X103833250Y-96769000D01*
X102954000Y-96769000D01*
X102954000Y-96789000D01*
X102700000Y-96789000D01*
X102700000Y-96769000D01*
X102680000Y-96769000D01*
X102680000Y-96515000D01*
X102700000Y-96515000D01*
X102700000Y-96237870D01*
X102731999Y-96077001D01*
X102731999Y-94869000D01*
X102954000Y-94869000D01*
X102954000Y-95543250D01*
X103102750Y-95692000D01*
X102954000Y-95840750D01*
X102954000Y-96515000D01*
X103833250Y-96515000D01*
X103992000Y-96356250D01*
X103992000Y-96190690D01*
X103895327Y-95957301D01*
X103716698Y-95778673D01*
X103507451Y-95692000D01*
X103716698Y-95605327D01*
X103895327Y-95426699D01*
X103992000Y-95193310D01*
X103992000Y-95027750D01*
X103833250Y-94869000D01*
X102954000Y-94869000D01*
X102731999Y-94869000D01*
X102731999Y-94595000D01*
X102954000Y-94595000D01*
X102954000Y-94615000D01*
X103833250Y-94615000D01*
X103992000Y-94456250D01*
X103992000Y-94290690D01*
X103895327Y-94057301D01*
X103836454Y-93998428D01*
X103836698Y-93998327D01*
X104015327Y-93819699D01*
X104112000Y-93586310D01*
X104112000Y-92995750D01*
X103953250Y-92837000D01*
X103104000Y-92837000D01*
X103104000Y-92857000D01*
X102850000Y-92857000D01*
X102850000Y-92837000D01*
X102830000Y-92837000D01*
X102830000Y-92583000D01*
X102850000Y-92583000D01*
X102850000Y-92563000D01*
X103104000Y-92563000D01*
X103104000Y-92583000D01*
X103953250Y-92583000D01*
X104112000Y-92424250D01*
X104112000Y-91833690D01*
X104015327Y-91600301D01*
X103836698Y-91421673D01*
X103603309Y-91325000D01*
X103601800Y-91325000D01*
X104703799Y-90223001D01*
X105231001Y-90223001D01*
X105521840Y-90165149D01*
X105768402Y-90000402D01*
X105833402Y-89935402D01*
X105998149Y-89688840D01*
X106056001Y-89398001D01*
X106056001Y-87963001D01*
X105998149Y-87672162D01*
X105998149Y-87672161D01*
X105833402Y-87425600D01*
X105618440Y-87210638D01*
X105618440Y-87138000D01*
X105574162Y-86902683D01*
X105435090Y-86686559D01*
X105222890Y-86541569D01*
X104971000Y-86490560D01*
X104071000Y-86490560D01*
X103959066Y-86511622D01*
X103981431Y-86478890D01*
X104032440Y-86227000D01*
X104032440Y-85477000D01*
X103988162Y-85241683D01*
X103849090Y-85025559D01*
X103636890Y-84880569D01*
X103385000Y-84829560D01*
X102585000Y-84829560D01*
X102349683Y-84873838D01*
X102235022Y-84947620D01*
X102136890Y-84880569D01*
X101885000Y-84829560D01*
X101512362Y-84829560D01*
X97553745Y-80870943D01*
X97661698Y-80798811D01*
X97972767Y-80333264D01*
X98082000Y-79784113D01*
X98082000Y-79727887D01*
X97972767Y-79178736D01*
X97661698Y-78713189D01*
X97196151Y-78402120D01*
X96647000Y-78292887D01*
X96281999Y-78365490D01*
X96281999Y-73550999D01*
X96276927Y-73525501D01*
X96647000Y-73599113D01*
X97196151Y-73489880D01*
X97661698Y-73178811D01*
X97972767Y-72713264D01*
X98082000Y-72164113D01*
X98082000Y-72107887D01*
X97972767Y-71558736D01*
X97661698Y-71093189D01*
X97196151Y-70782120D01*
X96647000Y-70672887D01*
X96097849Y-70782120D01*
X95632302Y-71093189D01*
X95377000Y-71475275D01*
X95121698Y-71093189D01*
X94656151Y-70782120D01*
X94107000Y-70672887D01*
X93557849Y-70782120D01*
X93092302Y-71093189D01*
X92837000Y-71475275D01*
X92581698Y-71093189D01*
X92116151Y-70782120D01*
X91567000Y-70672887D01*
X91017849Y-70782120D01*
X90552302Y-71093189D01*
X90297000Y-71475275D01*
X90041698Y-71093189D01*
X89576151Y-70782120D01*
X89027000Y-70672887D01*
X88477849Y-70782120D01*
X88012302Y-71093189D01*
X87701233Y-71558736D01*
X87592000Y-72107887D01*
X87592000Y-72164113D01*
X87701233Y-72713264D01*
X88012302Y-73178811D01*
X88477849Y-73489880D01*
X89027000Y-73599113D01*
X89576151Y-73489880D01*
X90041698Y-73178811D01*
X90297000Y-72796725D01*
X90552302Y-73178811D01*
X91017849Y-73489880D01*
X91567000Y-73599113D01*
X92116151Y-73489880D01*
X92581698Y-73178811D01*
X92837000Y-72796725D01*
X93092302Y-73178811D01*
X93557849Y-73489880D01*
X94107000Y-73599113D01*
X94430886Y-73534688D01*
X94761999Y-73865801D01*
X94761999Y-78472845D01*
X94656151Y-78402120D01*
X94107000Y-78292887D01*
X93557849Y-78402120D01*
X93092302Y-78713189D01*
X92837000Y-79095275D01*
X92581698Y-78713189D01*
X92116151Y-78402120D01*
X91567000Y-78292887D01*
X91017849Y-78402120D01*
X90552302Y-78713189D01*
X90455899Y-78857465D01*
X90430162Y-78720683D01*
X90291090Y-78504559D01*
X90078890Y-78359569D01*
X89827000Y-78308560D01*
X88227000Y-78308560D01*
X87991683Y-78352838D01*
X87775559Y-78491910D01*
X87630569Y-78704110D01*
X87579560Y-78956000D01*
X87579560Y-80556000D01*
X87623838Y-80791317D01*
X87762910Y-81007441D01*
X87975110Y-81152431D01*
X88227000Y-81203440D01*
X89827000Y-81203440D01*
X90062317Y-81159162D01*
X90278441Y-81020090D01*
X90423431Y-80807890D01*
X90454815Y-80652911D01*
X90552302Y-80798811D01*
X91017849Y-81109880D01*
X91567000Y-81219113D01*
X91890886Y-81154688D01*
X92560001Y-81823803D01*
X92560001Y-82722560D01*
X92345000Y-82722560D01*
X92109683Y-82766838D01*
X91893559Y-82905910D01*
X91748569Y-83118110D01*
X91746028Y-83130659D01*
X91685890Y-83089569D01*
X91434000Y-83038560D01*
X91111362Y-83038560D01*
X89528177Y-81455375D01*
X89281615Y-81290628D01*
X88990776Y-81232776D01*
X86450787Y-81232776D01*
X86418651Y-81200584D01*
X86075123Y-81057938D01*
X85703157Y-81057614D01*
X85359381Y-81199659D01*
X85096132Y-81462449D01*
X84953486Y-81805977D01*
X84953162Y-82177943D01*
X85095207Y-82521719D01*
X85357997Y-82784968D01*
X85701525Y-82927614D01*
X86073491Y-82927938D01*
X86417267Y-82785893D01*
X86450442Y-82752776D01*
X88675974Y-82752776D01*
X89111758Y-83188560D01*
X88831000Y-83188560D01*
X88595683Y-83232838D01*
X88379559Y-83371910D01*
X88234569Y-83584110D01*
X88183560Y-83836000D01*
X88183560Y-83908638D01*
X87968598Y-84123600D01*
X87803851Y-84370162D01*
X87745999Y-84661001D01*
X87745999Y-87646657D01*
X87275595Y-87451328D01*
X86525695Y-87450674D01*
X85832628Y-87737043D01*
X85301907Y-88266839D01*
X85014328Y-88959405D01*
X85013707Y-89670896D01*
X84725648Y-89551284D01*
X84075205Y-89550716D01*
X83474057Y-89799106D01*
X83013722Y-90258637D01*
X82764284Y-90859352D01*
X82763716Y-91509795D01*
X83012106Y-92110943D01*
X83471637Y-92571278D01*
X84072352Y-92820716D01*
X84722795Y-92821284D01*
X85014292Y-92700840D01*
X85013674Y-93409305D01*
X85300043Y-94102372D01*
X85829839Y-94633093D01*
X86522405Y-94920672D01*
X87272305Y-94921326D01*
X87965372Y-94634957D01*
X88253918Y-94346913D01*
X88215988Y-94537601D01*
X88215988Y-98288210D01*
X83930473Y-102573725D01*
X83765648Y-102505284D01*
X83115205Y-102504716D01*
X82514057Y-102753106D01*
X82053722Y-103212637D01*
X81804284Y-103813352D01*
X81803716Y-104463795D01*
X82052106Y-105064943D01*
X82511637Y-105525278D01*
X83112352Y-105774716D01*
X83762795Y-105775284D01*
X84363943Y-105526894D01*
X84824278Y-105067363D01*
X85073716Y-104466648D01*
X85074284Y-103816205D01*
X85005081Y-103648721D01*
X88665999Y-99987803D01*
X88665999Y-101840845D01*
X88560151Y-101770120D01*
X88011000Y-101660887D01*
X87461849Y-101770120D01*
X86996302Y-102081189D01*
X86685233Y-102546736D01*
X86576000Y-103095887D01*
X86576000Y-103152113D01*
X86685233Y-103701264D01*
X86996302Y-104166811D01*
X87461849Y-104477880D01*
X88011000Y-104587113D01*
X88560151Y-104477880D01*
X88665999Y-104407155D01*
X88665999Y-107078999D01*
X88723851Y-107369838D01*
X88730642Y-107380001D01*
X84438999Y-107380001D01*
X84148160Y-107437853D01*
X83939317Y-107577397D01*
X83765648Y-107505284D01*
X83115205Y-107504716D01*
X82514057Y-107753106D01*
X82053722Y-108212637D01*
X81804284Y-108813352D01*
X81803716Y-109463795D01*
X82052106Y-110064943D01*
X82511637Y-110525278D01*
X83112352Y-110774716D01*
X83762795Y-110775284D01*
X84363943Y-110526894D01*
X84824278Y-110067363D01*
X85073716Y-109466648D01*
X85074211Y-108900001D01*
X90172199Y-108900001D01*
X90553603Y-109281405D01*
X90551000Y-109280887D01*
X90001849Y-109390120D01*
X89536302Y-109701189D01*
X89439899Y-109845465D01*
X89414162Y-109708683D01*
X89275090Y-109492559D01*
X89062890Y-109347569D01*
X88811000Y-109296560D01*
X87211000Y-109296560D01*
X86975683Y-109340838D01*
X86759559Y-109479910D01*
X86614569Y-109692110D01*
X86563560Y-109944000D01*
X86563560Y-111544000D01*
X86607838Y-111779317D01*
X86746910Y-111995441D01*
X86959110Y-112140431D01*
X87211000Y-112191440D01*
X88811000Y-112191440D01*
X89046317Y-112147162D01*
X89262441Y-112008090D01*
X89407431Y-111795890D01*
X89438815Y-111640911D01*
X89536302Y-111786811D01*
X89791000Y-111956995D01*
X89791000Y-111982895D01*
X89649559Y-112073910D01*
X89504569Y-112286110D01*
X89453560Y-112538000D01*
X89453560Y-113038000D01*
X89497838Y-113273317D01*
X89636910Y-113489441D01*
X89706711Y-113537134D01*
X89649559Y-113573910D01*
X89504569Y-113786110D01*
X89453560Y-114038000D01*
X89453560Y-114538000D01*
X89497838Y-114773317D01*
X89555251Y-114862539D01*
X89377808Y-115039673D01*
X89235162Y-115383201D01*
X89234838Y-115755167D01*
X89376883Y-116098943D01*
X89639673Y-116362192D01*
X89891456Y-116466742D01*
X87473599Y-118884599D01*
X87308852Y-119131161D01*
X87251000Y-119422000D01*
X87251000Y-121469005D01*
X86996302Y-121639189D01*
X86685233Y-122104736D01*
X86576000Y-122653887D01*
X86576000Y-122710113D01*
X86631096Y-122987102D01*
X84828143Y-124790055D01*
X85073716Y-124198648D01*
X85074284Y-123548205D01*
X84825894Y-122947057D01*
X84366363Y-122486722D01*
X83765648Y-122237284D01*
X83115205Y-122236716D01*
X82514057Y-122485106D01*
X82053722Y-122944637D01*
X81804284Y-123545352D01*
X81803716Y-124195795D01*
X82052106Y-124796943D01*
X82511637Y-125257278D01*
X83112352Y-125506716D01*
X83762795Y-125507284D01*
X84356038Y-125262160D01*
X82901599Y-126716599D01*
X82736852Y-126963161D01*
X82679000Y-127254000D01*
X82679000Y-127416953D01*
X82514057Y-127485106D01*
X82053722Y-127944637D01*
X81804284Y-128545352D01*
X81803716Y-129195795D01*
X82052106Y-129796943D01*
X82511637Y-130257278D01*
X83112352Y-130506716D01*
X83762795Y-130507284D01*
X83930279Y-130438081D01*
X84331599Y-130839401D01*
X84578160Y-131004148D01*
X84869000Y-131062000D01*
X86563560Y-131062000D01*
X86563560Y-131102000D01*
X86604203Y-131318000D01*
X81407000Y-131318000D01*
X81407000Y-119195795D01*
X81803716Y-119195795D01*
X82052106Y-119796943D01*
X82511637Y-120257278D01*
X83112352Y-120506716D01*
X83762795Y-120507284D01*
X84363943Y-120258894D01*
X84824278Y-119799363D01*
X85073716Y-119198648D01*
X85074284Y-118548205D01*
X84825894Y-117947057D01*
X84366363Y-117486722D01*
X83765648Y-117237284D01*
X83115205Y-117236716D01*
X82514057Y-117485106D01*
X82053722Y-117944637D01*
X81804284Y-118545352D01*
X81803716Y-119195795D01*
X81407000Y-119195795D01*
X81407000Y-99463795D01*
X81803716Y-99463795D01*
X82052106Y-100064943D01*
X82511637Y-100525278D01*
X83112352Y-100774716D01*
X83762795Y-100775284D01*
X84363943Y-100526894D01*
X84824278Y-100067363D01*
X85073716Y-99466648D01*
X85074284Y-98816205D01*
X84825894Y-98215057D01*
X84366363Y-97754722D01*
X83765648Y-97505284D01*
X83115205Y-97504716D01*
X82514057Y-97753106D01*
X82053722Y-98212637D01*
X81804284Y-98813352D01*
X81803716Y-99463795D01*
X81407000Y-99463795D01*
X81407000Y-67730000D01*
X100229560Y-67730000D01*
X100229560Y-69430000D01*
X100273838Y-69665317D01*
X100412910Y-69881441D01*
X100625110Y-70026431D01*
X100877000Y-70077440D01*
X100967000Y-70077440D01*
X100967000Y-71088895D01*
X100825559Y-71179910D01*
X100680569Y-71392110D01*
X100629560Y-71644000D01*
X100629560Y-72144000D01*
X100673838Y-72379317D01*
X100812910Y-72595441D01*
X100882711Y-72643134D01*
X100825559Y-72679910D01*
X100680569Y-72892110D01*
X100629560Y-73144000D01*
X100629560Y-73644000D01*
X100673838Y-73879317D01*
X100812910Y-74095441D01*
X101025110Y-74240431D01*
X101067770Y-74249070D01*
X101189599Y-74431401D01*
X105285000Y-78526802D01*
X105285000Y-82622537D01*
X105252808Y-82654673D01*
X105110162Y-82998201D01*
X105109838Y-83370167D01*
X105251883Y-83713943D01*
X105514673Y-83977192D01*
X105858201Y-84119838D01*
X106230167Y-84120162D01*
X106573943Y-83978117D01*
X106837192Y-83715327D01*
X106979838Y-83371799D01*
X106980162Y-82999833D01*
X106838117Y-82656057D01*
X106805000Y-82622882D01*
X106805000Y-78212000D01*
X106747148Y-77921161D01*
X106582401Y-77674599D01*
X102778527Y-73870725D01*
X102824440Y-73644000D01*
X102824440Y-73144000D01*
X102780162Y-72908683D01*
X102641090Y-72692559D01*
X102571289Y-72644866D01*
X102628441Y-72608090D01*
X102773431Y-72395890D01*
X102824440Y-72144000D01*
X102824440Y-71644000D01*
X102780162Y-71408683D01*
X102641090Y-71192559D01*
X102487000Y-71087274D01*
X102487000Y-70077440D01*
X102577000Y-70077440D01*
X102812317Y-70033162D01*
X103028441Y-69894090D01*
X103173431Y-69681890D01*
X103187086Y-69614459D01*
X103216946Y-69659147D01*
X103698715Y-69981054D01*
X104267000Y-70094093D01*
X104835285Y-69981054D01*
X105317054Y-69659147D01*
X105544702Y-69318447D01*
X105611817Y-69461358D01*
X106040076Y-69851645D01*
X106450110Y-70021476D01*
X106680000Y-69900155D01*
X106680000Y-68707000D01*
X106660000Y-68707000D01*
X106660000Y-68453000D01*
X106680000Y-68453000D01*
X106680000Y-67259845D01*
X106450110Y-67138524D01*
X106040076Y-67308355D01*
X105611817Y-67698642D01*
X105544702Y-67841553D01*
X105317054Y-67500853D01*
X104835285Y-67178946D01*
X104267000Y-67065907D01*
X103698715Y-67178946D01*
X103216946Y-67500853D01*
X103189150Y-67542452D01*
X103180162Y-67494683D01*
X103041090Y-67278559D01*
X102828890Y-67133569D01*
X102577000Y-67082560D01*
X100877000Y-67082560D01*
X100641683Y-67126838D01*
X100425559Y-67265910D01*
X100280569Y-67478110D01*
X100229560Y-67730000D01*
X81407000Y-67730000D01*
X81407000Y-66802000D01*
X107823000Y-66802000D01*
X107823000Y-67535347D01*
G36*
X192190000Y-66968691D02*
X192190000Y-67659250D01*
X192348750Y-67818000D01*
X193548000Y-67818000D01*
X193548000Y-67798000D01*
X193802000Y-67798000D01*
X193802000Y-67818000D01*
X193822000Y-67818000D01*
X193822000Y-68072000D01*
X193802000Y-68072000D01*
X193802000Y-68092000D01*
X193548000Y-68092000D01*
X193548000Y-68072000D01*
X192348750Y-68072000D01*
X192190000Y-68230750D01*
X192190000Y-68360001D01*
X190323004Y-68360001D01*
X190322999Y-68360000D01*
X190040515Y-68416191D01*
X189984324Y-68427368D01*
X189697209Y-68619211D01*
X189697207Y-68619214D01*
X182695440Y-75620981D01*
X182695440Y-73984000D01*
X182651162Y-73748683D01*
X182512090Y-73532559D01*
X182299890Y-73387569D01*
X182048000Y-73336560D01*
X179648000Y-73336560D01*
X179412683Y-73380838D01*
X179196559Y-73519910D01*
X179051569Y-73732110D01*
X179000560Y-73984000D01*
X179000560Y-76384000D01*
X179044838Y-76619317D01*
X179183910Y-76835441D01*
X179396110Y-76980431D01*
X179648000Y-77031440D01*
X181284981Y-77031440D01*
X175928127Y-82388293D01*
X176009759Y-82191702D01*
X176010240Y-81640715D01*
X175799831Y-81131485D01*
X175410564Y-80741539D01*
X174901702Y-80530241D01*
X174350715Y-80529760D01*
X173841485Y-80740169D01*
X173551148Y-81030000D01*
X173388288Y-81030000D01*
X173256090Y-80824559D01*
X173043890Y-80679569D01*
X172792000Y-80628560D01*
X170292000Y-80628560D01*
X170056683Y-80672838D01*
X169840559Y-80811910D01*
X169695569Y-81024110D01*
X169644560Y-81276000D01*
X169644560Y-82126980D01*
X168525000Y-81007420D01*
X168525000Y-80448523D01*
X168813461Y-80160564D01*
X169024759Y-79651702D01*
X169025240Y-79100715D01*
X168814831Y-78591485D01*
X168425564Y-78201539D01*
X167916702Y-77990241D01*
X167365715Y-77989760D01*
X166856485Y-78200169D01*
X166466539Y-78589436D01*
X166255241Y-79098298D01*
X166254760Y-79649285D01*
X166465169Y-80158515D01*
X166755000Y-80448852D01*
X166755000Y-81373995D01*
X166754999Y-81374000D01*
X166795245Y-81576325D01*
X166822367Y-81712675D01*
X166985837Y-81957326D01*
X167014210Y-81999790D01*
X169644560Y-84630139D01*
X169644560Y-84876981D01*
X164487789Y-79720209D01*
X164351284Y-79629000D01*
X164200674Y-79528366D01*
X164144483Y-79517189D01*
X163861999Y-79460998D01*
X163861994Y-79460999D01*
X139364006Y-79460999D01*
X139364001Y-79460998D01*
X139081517Y-79517189D01*
X139025326Y-79528366D01*
X138738211Y-79720209D01*
X138738209Y-79720212D01*
X138163107Y-80295313D01*
X137840541Y-80161372D01*
X136991185Y-80160630D01*
X136206200Y-80484980D01*
X135605091Y-81085041D01*
X135279372Y-81869459D01*
X135278630Y-82718815D01*
X135602980Y-83503800D01*
X136203041Y-84104909D01*
X136987459Y-84430628D01*
X137836815Y-84431370D01*
X138621800Y-84107020D01*
X139222909Y-83506959D01*
X139548628Y-82722541D01*
X139549370Y-81873185D01*
X139414589Y-81546990D01*
X139730580Y-81230999D01*
X142544484Y-81230999D01*
X142279372Y-81869459D01*
X142278630Y-82718815D01*
X142507365Y-83272395D01*
X138290317Y-87489443D01*
X138060722Y-87718637D01*
X137811284Y-88319352D01*
X137810716Y-88969795D01*
X138059106Y-89570943D01*
X138518637Y-90031278D01*
X139119352Y-90280716D01*
X139769795Y-90281284D01*
X140370943Y-90032894D01*
X140831278Y-89573363D01*
X140831563Y-89572677D01*
X145570120Y-84834120D01*
X145924543Y-84303688D01*
X146048365Y-83681199D01*
X146222909Y-83506959D01*
X146548628Y-82722541D01*
X146549370Y-81873185D01*
X146284023Y-81230999D01*
X163495419Y-81230999D01*
X169644560Y-87380139D01*
X169644560Y-87976000D01*
X169688838Y-88211317D01*
X169827910Y-88427441D01*
X170040110Y-88572431D01*
X170292000Y-88623440D01*
X172792000Y-88623440D01*
X173027317Y-88579162D01*
X173243441Y-88440090D01*
X173388431Y-88227890D01*
X173439440Y-87976000D01*
X173439440Y-87380140D01*
X174043579Y-86776000D01*
X181144560Y-86776000D01*
X181144560Y-87976000D01*
X181188838Y-88211317D01*
X181327910Y-88427441D01*
X181540110Y-88572431D01*
X181792000Y-88623440D01*
X184292000Y-88623440D01*
X184527317Y-88579162D01*
X184743441Y-88440090D01*
X184888431Y-88227890D01*
X184939440Y-87976000D01*
X184939440Y-86776000D01*
X184914932Y-86645750D01*
X188665000Y-86645750D01*
X188665000Y-87686310D01*
X188761673Y-87919699D01*
X188940302Y-88098327D01*
X189173691Y-88195000D01*
X190214250Y-88195000D01*
X190373000Y-88036250D01*
X190373000Y-86487000D01*
X190627000Y-86487000D01*
X190627000Y-88036250D01*
X190785750Y-88195000D01*
X191826309Y-88195000D01*
X192059698Y-88098327D01*
X192238327Y-87919699D01*
X192335000Y-87686310D01*
X192335000Y-86645750D01*
X192176250Y-86487000D01*
X190627000Y-86487000D01*
X190373000Y-86487000D01*
X188823750Y-86487000D01*
X188665000Y-86645750D01*
X184914932Y-86645750D01*
X184895162Y-86540683D01*
X184756090Y-86324559D01*
X184543890Y-86179569D01*
X184292000Y-86128560D01*
X181792000Y-86128560D01*
X181556683Y-86172838D01*
X181340559Y-86311910D01*
X181195569Y-86524110D01*
X181144560Y-86776000D01*
X174043579Y-86776000D01*
X176793579Y-84026000D01*
X181144560Y-84026000D01*
X181144560Y-85226000D01*
X181188838Y-85461317D01*
X181327910Y-85677441D01*
X181540110Y-85822431D01*
X181792000Y-85873440D01*
X184292000Y-85873440D01*
X184527317Y-85829162D01*
X184743441Y-85690090D01*
X184888431Y-85477890D01*
X184939440Y-85226000D01*
X184939440Y-85033690D01*
X188665000Y-85033690D01*
X188665000Y-86074250D01*
X188823750Y-86233000D01*
X190373000Y-86233000D01*
X190373000Y-84683750D01*
X190627000Y-84683750D01*
X190627000Y-86233000D01*
X192176250Y-86233000D01*
X192335000Y-86074250D01*
X192335000Y-85033690D01*
X192238327Y-84800301D01*
X192059698Y-84621673D01*
X191826309Y-84525000D01*
X190785750Y-84525000D01*
X190627000Y-84683750D01*
X190373000Y-84683750D01*
X190214250Y-84525000D01*
X189173691Y-84525000D01*
X188940302Y-84621673D01*
X188761673Y-84800301D01*
X188665000Y-85033690D01*
X184939440Y-85033690D01*
X184939440Y-84026000D01*
X184908900Y-83863691D01*
X206777000Y-83863691D01*
X206777000Y-87166309D01*
X206786813Y-87190000D01*
X206777000Y-87213691D01*
X206777000Y-90516309D01*
X206873673Y-90749698D01*
X207052301Y-90928327D01*
X207285690Y-91025000D01*
X210288310Y-91025000D01*
X210312000Y-91015187D01*
X210335690Y-91025000D01*
X213338310Y-91025000D01*
X213571699Y-90928327D01*
X213750327Y-90749698D01*
X213847000Y-90516309D01*
X213847000Y-87213691D01*
X213837187Y-87190000D01*
X213847000Y-87166309D01*
X213847000Y-83863691D01*
X213750327Y-83630302D01*
X213571699Y-83451673D01*
X213338310Y-83355000D01*
X210335690Y-83355000D01*
X210312000Y-83364813D01*
X210288310Y-83355000D01*
X207285690Y-83355000D01*
X207052301Y-83451673D01*
X206873673Y-83630302D01*
X206777000Y-83863691D01*
X184908900Y-83863691D01*
X184895162Y-83790683D01*
X184756090Y-83574559D01*
X184543890Y-83429569D01*
X184292000Y-83378560D01*
X181792000Y-83378560D01*
X181556683Y-83422838D01*
X181340559Y-83561910D01*
X181195569Y-83774110D01*
X181144560Y-84026000D01*
X176793579Y-84026000D01*
X179543579Y-81276000D01*
X181144560Y-81276000D01*
X181144560Y-82476000D01*
X181188838Y-82711317D01*
X181327910Y-82927441D01*
X181540110Y-83072431D01*
X181792000Y-83123440D01*
X184292000Y-83123440D01*
X184527317Y-83079162D01*
X184743441Y-82940090D01*
X184888431Y-82727890D01*
X184939440Y-82476000D01*
X184939440Y-81276000D01*
X184895162Y-81040683D01*
X184756090Y-80824559D01*
X184543890Y-80679569D01*
X184292000Y-80628560D01*
X181792000Y-80628560D01*
X181556683Y-80672838D01*
X181340559Y-80811910D01*
X181195569Y-81024110D01*
X181144560Y-81276000D01*
X179543579Y-81276000D01*
X186030554Y-74789025D01*
X186150169Y-75078515D01*
X186539436Y-75468461D01*
X187048298Y-75679759D01*
X187599285Y-75680240D01*
X188108515Y-75469831D01*
X188498461Y-75080564D01*
X188709759Y-74571702D01*
X188710117Y-74161463D01*
X188969560Y-73902020D01*
X188969560Y-74072000D01*
X189013838Y-74307317D01*
X189087620Y-74421978D01*
X189020569Y-74520110D01*
X188969560Y-74772000D01*
X188969560Y-75462169D01*
X188774683Y-75498838D01*
X188558559Y-75637910D01*
X188436192Y-75817000D01*
X187458005Y-75817000D01*
X187458000Y-75816999D01*
X187175516Y-75873190D01*
X187119325Y-75884367D01*
X186832210Y-76076210D01*
X186832208Y-76076213D01*
X186823305Y-76085116D01*
X186415715Y-76084760D01*
X185906485Y-76295169D01*
X185516539Y-76684436D01*
X185305241Y-77193298D01*
X185304760Y-77744285D01*
X185515169Y-78253515D01*
X185904436Y-78643461D01*
X186413298Y-78854759D01*
X186964285Y-78855240D01*
X187473515Y-78644831D01*
X187863461Y-78255564D01*
X188074759Y-77746702D01*
X188074898Y-77587000D01*
X188438808Y-77587000D01*
X188545910Y-77753441D01*
X188758110Y-77898431D01*
X189010000Y-77949440D01*
X191210000Y-77949440D01*
X191445317Y-77905162D01*
X191661441Y-77766090D01*
X191806431Y-77553890D01*
X191857440Y-77302000D01*
X191857440Y-76102000D01*
X191813162Y-75866683D01*
X191674090Y-75650559D01*
X191461890Y-75505569D01*
X191210000Y-75454560D01*
X191014440Y-75454560D01*
X191014440Y-74772000D01*
X190970162Y-74536683D01*
X190896380Y-74422022D01*
X190963431Y-74323890D01*
X191014440Y-74072000D01*
X191014440Y-73389440D01*
X191210000Y-73389440D01*
X191445317Y-73345162D01*
X191661441Y-73206090D01*
X191806431Y-72993890D01*
X191857440Y-72742000D01*
X191857440Y-71542000D01*
X191813162Y-71306683D01*
X191674090Y-71090559D01*
X191461890Y-70945569D01*
X191210000Y-70894560D01*
X189925019Y-70894560D01*
X190689578Y-70130001D01*
X194914994Y-70130001D01*
X194914999Y-70130002D01*
X195197483Y-70073811D01*
X195253674Y-70062634D01*
X195540789Y-69870791D01*
X195540790Y-69870790D01*
X195990788Y-69420791D01*
X195990791Y-69420789D01*
X195996041Y-69415539D01*
X196215000Y-69459093D01*
X196433959Y-69415539D01*
X197892981Y-70874560D01*
X193210000Y-70874560D01*
X192974683Y-70918838D01*
X192758559Y-71057910D01*
X192613569Y-71270110D01*
X192562560Y-71522000D01*
X192562560Y-77322000D01*
X192606838Y-77557317D01*
X192745910Y-77773441D01*
X192958110Y-77918431D01*
X193210000Y-77969440D01*
X196305309Y-77969440D01*
X196100241Y-78463298D01*
X196099760Y-79014285D01*
X196310169Y-79523515D01*
X196699436Y-79913461D01*
X197208298Y-80124759D01*
X197759285Y-80125240D01*
X198268515Y-79914831D01*
X198658461Y-79525564D01*
X198869759Y-79016702D01*
X198870240Y-78465715D01*
X198665184Y-77969440D01*
X199610000Y-77969440D01*
X199845317Y-77925162D01*
X200061441Y-77786090D01*
X200206431Y-77573890D01*
X200257440Y-77322000D01*
X200257440Y-72611018D01*
X201429463Y-73783040D01*
X201429463Y-78176209D01*
X201141002Y-78464168D01*
X200929704Y-78973030D01*
X200929223Y-79524017D01*
X201139632Y-80033247D01*
X201528899Y-80423193D01*
X202037761Y-80634491D01*
X202588748Y-80634972D01*
X202593798Y-80632885D01*
X202660169Y-80793515D01*
X203049436Y-81183461D01*
X203558298Y-81394759D01*
X204109285Y-81395240D01*
X204618515Y-81184831D01*
X205008461Y-80795564D01*
X205219759Y-80286702D01*
X205220240Y-79735715D01*
X205101000Y-79447131D01*
X205101000Y-78710580D01*
X206784560Y-80394139D01*
X206784560Y-81990000D01*
X206828838Y-82225317D01*
X206967910Y-82441441D01*
X207180110Y-82586431D01*
X207432000Y-82637440D01*
X208632000Y-82637440D01*
X208867317Y-82593162D01*
X209083441Y-82454090D01*
X209228431Y-82241890D01*
X209267606Y-82048440D01*
X209962000Y-82048440D01*
X210197317Y-82004162D01*
X210311978Y-81930380D01*
X210410110Y-81997431D01*
X210662000Y-82048440D01*
X211355556Y-82048440D01*
X211388838Y-82225317D01*
X211527910Y-82441441D01*
X211740110Y-82586431D01*
X211992000Y-82637440D01*
X213192000Y-82637440D01*
X213427317Y-82593162D01*
X213643441Y-82454090D01*
X213788431Y-82241890D01*
X213839440Y-81990000D01*
X213839440Y-79790000D01*
X213795162Y-79554683D01*
X213656090Y-79338559D01*
X213477000Y-79216192D01*
X213477000Y-72892005D01*
X213477001Y-72892000D01*
X213418684Y-72598828D01*
X213409633Y-72553325D01*
X213217790Y-72266210D01*
X213217787Y-72266208D01*
X212839884Y-71888305D01*
X212840240Y-71480715D01*
X212629831Y-70971485D01*
X212240564Y-70581539D01*
X211731702Y-70370241D01*
X211180715Y-70369760D01*
X210671485Y-70580169D01*
X210281539Y-70969436D01*
X210070241Y-71478298D01*
X210069760Y-72029285D01*
X210280169Y-72538515D01*
X210669436Y-72928461D01*
X211178298Y-73139759D01*
X211588538Y-73140117D01*
X211707000Y-73258579D01*
X211707000Y-78295421D01*
X209035160Y-75623580D01*
X209098681Y-75470605D01*
X209099318Y-74740597D01*
X208820545Y-74065914D01*
X208304801Y-73549270D01*
X207630605Y-73269319D01*
X207050766Y-73268813D01*
X207889787Y-72429792D01*
X207889790Y-72429790D01*
X208081633Y-72142675D01*
X208104188Y-72029285D01*
X208119673Y-71951440D01*
X208464000Y-71951440D01*
X208699317Y-71907162D01*
X208915441Y-71768090D01*
X209060431Y-71555890D01*
X209111440Y-71304000D01*
X209111440Y-68904000D01*
X209067162Y-68668683D01*
X208928090Y-68452559D01*
X208715890Y-68307569D01*
X208464000Y-68256560D01*
X206064000Y-68256560D01*
X205828683Y-68300838D01*
X205612559Y-68439910D01*
X205467569Y-68652110D01*
X205416560Y-68904000D01*
X205416560Y-71304000D01*
X205460838Y-71539317D01*
X205599910Y-71755441D01*
X205812110Y-71900431D01*
X205898496Y-71917925D01*
X204988209Y-72828211D01*
X204796366Y-73115326D01*
X204796366Y-73115327D01*
X204728998Y-73454001D01*
X204728999Y-73454006D01*
X204728999Y-73589453D01*
X200489999Y-69350452D01*
X200489999Y-68795004D01*
X200490000Y-68794999D01*
X200422632Y-68456324D01*
X200358271Y-68360001D01*
X200230789Y-68169209D01*
X200230786Y-68169207D01*
X200206100Y-68144521D01*
X200240000Y-67974093D01*
X200240000Y-67915907D01*
X200126961Y-67347622D01*
X199805054Y-66865853D01*
X199709491Y-66802000D01*
X217043000Y-66802000D01*
X217043000Y-101200419D01*
X214614791Y-98772209D01*
X214489231Y-98688313D01*
X214327676Y-98580366D01*
X214271485Y-98569189D01*
X213989001Y-98512998D01*
X213988996Y-98512999D01*
X213205823Y-98512999D01*
X213299113Y-98044000D01*
X213189880Y-97494849D01*
X212878811Y-97029302D01*
X212474297Y-96759014D01*
X212691134Y-96656389D01*
X213067041Y-96241423D01*
X213227904Y-95853039D01*
X213105915Y-95631000D01*
X211963000Y-95631000D01*
X211963000Y-95651000D01*
X211709000Y-95651000D01*
X211709000Y-95631000D01*
X210566085Y-95631000D01*
X210444096Y-95853039D01*
X210604959Y-96241423D01*
X210980866Y-96656389D01*
X211197703Y-96759014D01*
X210793189Y-97029302D01*
X210482120Y-97494849D01*
X210372887Y-98044000D01*
X210466177Y-98512999D01*
X205585823Y-98512999D01*
X205679113Y-98044000D01*
X205569880Y-97494849D01*
X205258811Y-97029302D01*
X204876725Y-96774000D01*
X205258811Y-96518698D01*
X205569880Y-96053151D01*
X205679113Y-95504000D01*
X205569880Y-94954849D01*
X205258811Y-94489302D01*
X205114535Y-94392899D01*
X205251317Y-94367162D01*
X205467441Y-94228090D01*
X205612431Y-94015890D01*
X205663440Y-93764000D01*
X205663440Y-92964000D01*
X210372887Y-92964000D01*
X210482120Y-93513151D01*
X210793189Y-93978698D01*
X211197703Y-94248986D01*
X210980866Y-94351611D01*
X210604959Y-94766577D01*
X210444096Y-95154961D01*
X210566085Y-95377000D01*
X211709000Y-95377000D01*
X211709000Y-95357000D01*
X211963000Y-95357000D01*
X211963000Y-95377000D01*
X213105915Y-95377000D01*
X213227904Y-95154961D01*
X213067041Y-94766577D01*
X212691134Y-94351611D01*
X212474297Y-94248986D01*
X212878811Y-93978698D01*
X213189880Y-93513151D01*
X213299113Y-92964000D01*
X213189880Y-92414849D01*
X212878811Y-91949302D01*
X212413264Y-91638233D01*
X211864113Y-91529000D01*
X211807887Y-91529000D01*
X211258736Y-91638233D01*
X210793189Y-91949302D01*
X210482120Y-92414849D01*
X210372887Y-92964000D01*
X205663440Y-92964000D01*
X205663440Y-92164000D01*
X205619162Y-91928683D01*
X205480090Y-91712559D01*
X205267890Y-91567569D01*
X205016000Y-91516560D01*
X203416000Y-91516560D01*
X203180683Y-91560838D01*
X202964559Y-91699910D01*
X202819569Y-91912110D01*
X202768560Y-92164000D01*
X202768560Y-93764000D01*
X202812838Y-93999317D01*
X202951910Y-94215441D01*
X203164110Y-94360431D01*
X203319089Y-94391815D01*
X203173189Y-94489302D01*
X202862120Y-94954849D01*
X202752887Y-95504000D01*
X202862120Y-96053151D01*
X203173189Y-96518698D01*
X203555275Y-96774000D01*
X203173189Y-97029302D01*
X202862120Y-97494849D01*
X202752887Y-98044000D01*
X202846177Y-98512999D01*
X200473118Y-98512999D01*
X200473240Y-98373715D01*
X200262831Y-97864485D01*
X199873564Y-97474539D01*
X199364702Y-97263241D01*
X198813715Y-97262760D01*
X198304485Y-97473169D01*
X197914539Y-97862436D01*
X197703241Y-98371298D01*
X197702760Y-98922285D01*
X197913169Y-99431515D01*
X198302436Y-99821461D01*
X198811298Y-100032759D01*
X199226176Y-100033121D01*
X199499324Y-100215632D01*
X199555515Y-100226809D01*
X199837999Y-100283000D01*
X199838004Y-100282999D01*
X213622421Y-100282999D01*
X214980950Y-101641527D01*
X214872022Y-101711620D01*
X214773890Y-101644569D01*
X214522000Y-101593560D01*
X213722000Y-101593560D01*
X213486683Y-101637838D01*
X213341905Y-101731000D01*
X212965473Y-101731000D01*
X212878811Y-101601302D01*
X212413264Y-101290233D01*
X211864113Y-101181000D01*
X211807887Y-101181000D01*
X211258736Y-101290233D01*
X210793189Y-101601302D01*
X210706527Y-101731000D01*
X205647446Y-101731000D01*
X205619162Y-101580683D01*
X205480090Y-101364559D01*
X205267890Y-101219569D01*
X205016000Y-101168560D01*
X203416000Y-101168560D01*
X203180683Y-101212838D01*
X202964559Y-101351910D01*
X202819569Y-101564110D01*
X202785773Y-101731000D01*
X200408001Y-101731000D01*
X200407996Y-101730999D01*
X200125512Y-101787190D01*
X200069321Y-101798367D01*
X199782206Y-101990210D01*
X199782204Y-101990213D01*
X197262209Y-104510207D01*
X197070366Y-104797322D01*
X197064527Y-104826675D01*
X197002998Y-105135997D01*
X197002999Y-105136002D01*
X197002999Y-109604200D01*
X196969724Y-109570867D01*
X196905633Y-109248666D01*
X196905633Y-109248665D01*
X196713790Y-108961550D01*
X196713787Y-108961548D01*
X196574449Y-108822209D01*
X196522603Y-108787567D01*
X196287334Y-108630366D01*
X196227016Y-108618368D01*
X195948659Y-108562998D01*
X195948654Y-108562999D01*
X188163949Y-108562999D01*
X188498730Y-108228801D01*
X188778681Y-107554605D01*
X188779318Y-106824597D01*
X188500545Y-106149914D01*
X188473000Y-106122321D01*
X188473000Y-99653490D01*
X188672681Y-99172605D01*
X188673318Y-98442597D01*
X188507381Y-98040999D01*
X191229419Y-98040999D01*
X191703116Y-98514695D01*
X191702760Y-98922285D01*
X191913169Y-99431515D01*
X192302436Y-99821461D01*
X192811298Y-100032759D01*
X193362285Y-100033240D01*
X193871515Y-99822831D01*
X194261461Y-99433564D01*
X194472759Y-98924702D01*
X194473240Y-98373715D01*
X194262831Y-97864485D01*
X193873564Y-97474539D01*
X193364702Y-97263241D01*
X192954462Y-97262883D01*
X192221789Y-96530209D01*
X191934674Y-96338366D01*
X191878483Y-96327189D01*
X191595999Y-96270998D01*
X191595994Y-96270999D01*
X182411972Y-96270999D01*
X182411967Y-96270998D01*
X182129483Y-96327189D01*
X182073292Y-96338366D01*
X181786177Y-96530209D01*
X181786175Y-96530212D01*
X180191376Y-98125012D01*
X179754988Y-98125012D01*
X179416313Y-98192379D01*
X179129198Y-98384222D01*
X179129196Y-98384225D01*
X172218304Y-105295116D01*
X171810715Y-105294760D01*
X171301485Y-105505169D01*
X170911539Y-105894436D01*
X170700241Y-106403298D01*
X170699760Y-106954285D01*
X170910169Y-107463515D01*
X171299436Y-107853461D01*
X171808298Y-108064759D01*
X172359285Y-108065240D01*
X172868515Y-107854831D01*
X173258461Y-107465564D01*
X173469759Y-106956702D01*
X173470117Y-106546463D01*
X180121567Y-99895012D01*
X180557950Y-99895012D01*
X180557955Y-99895013D01*
X180896630Y-99827645D01*
X180982902Y-99770000D01*
X181183745Y-99635802D01*
X181183747Y-99635799D01*
X182778546Y-98040999D01*
X185168748Y-98040999D01*
X185003319Y-98439395D01*
X185002682Y-99169403D01*
X185203000Y-99654210D01*
X185203000Y-105553000D01*
X180365381Y-105553000D01*
X179739694Y-105677457D01*
X179209261Y-106031880D01*
X179209259Y-106031883D01*
X171563880Y-113677261D01*
X171209457Y-114207693D01*
X171084999Y-114833381D01*
X171085000Y-114833386D01*
X171085000Y-115468489D01*
X170817521Y-115200543D01*
X170106584Y-114905337D01*
X169556723Y-114904857D01*
X182656113Y-101805466D01*
X182880000Y-101850000D01*
X183218675Y-101782633D01*
X183505790Y-101590790D01*
X183524978Y-101562073D01*
X183663515Y-101504831D01*
X184053461Y-101115564D01*
X184264759Y-100606702D01*
X184265240Y-100055715D01*
X184054831Y-99546485D01*
X183665564Y-99156539D01*
X183156702Y-98945241D01*
X182605715Y-98944760D01*
X182096485Y-99155169D01*
X181706539Y-99544436D01*
X181495241Y-100053298D01*
X181494883Y-100463538D01*
X161909885Y-120048535D01*
X161562540Y-120048535D01*
X161562535Y-120048534D01*
X161280051Y-120104725D01*
X161223860Y-120115902D01*
X160936745Y-120307745D01*
X160936743Y-120307748D01*
X159394210Y-121850280D01*
X159202367Y-122137395D01*
X159191190Y-122193586D01*
X159134999Y-122476070D01*
X159135000Y-122476075D01*
X159135000Y-122893423D01*
X158099000Y-123929423D01*
X158099000Y-121983240D01*
X168743018Y-111339221D01*
X168743021Y-111339219D01*
X169097444Y-110808786D01*
X169221901Y-110183099D01*
X169221901Y-102054906D01*
X169221902Y-102054901D01*
X169097444Y-101429213D01*
X168809457Y-100998210D01*
X168743021Y-100898781D01*
X168743018Y-100898779D01*
X166093386Y-98249146D01*
X165894545Y-97767914D01*
X165378801Y-97251270D01*
X164704605Y-96971319D01*
X163974597Y-96970682D01*
X163299914Y-97249455D01*
X162869619Y-97679000D01*
X151237440Y-97679000D01*
X151237440Y-97314000D01*
X151193162Y-97078683D01*
X151054090Y-96862559D01*
X150841890Y-96717569D01*
X150590000Y-96666560D01*
X148254800Y-96666560D01*
X146477525Y-94889285D01*
X187209760Y-94889285D01*
X187420169Y-95398515D01*
X187809436Y-95788461D01*
X188318298Y-95999759D01*
X188869285Y-96000240D01*
X189378515Y-95789831D01*
X189668852Y-95500000D01*
X194990560Y-95500000D01*
X194990560Y-95524000D01*
X195034838Y-95759317D01*
X195173910Y-95975441D01*
X195243711Y-96023134D01*
X195186559Y-96059910D01*
X195041569Y-96272110D01*
X194990560Y-96524000D01*
X194990560Y-97024000D01*
X195034838Y-97259317D01*
X195173910Y-97475441D01*
X195203000Y-97495317D01*
X195203000Y-97574477D01*
X194914539Y-97862436D01*
X194703241Y-98371298D01*
X194702760Y-98922285D01*
X194913169Y-99431515D01*
X195302436Y-99821461D01*
X195811298Y-100032759D01*
X196362285Y-100033240D01*
X196871515Y-99822831D01*
X197261461Y-99433564D01*
X197472759Y-98924702D01*
X197473240Y-98373715D01*
X197262831Y-97864485D01*
X196973000Y-97574148D01*
X196973000Y-97498669D01*
X196989441Y-97488090D01*
X197134431Y-97275890D01*
X197185440Y-97024000D01*
X197185440Y-96524000D01*
X197141162Y-96288683D01*
X197002090Y-96072559D01*
X196932289Y-96024866D01*
X196989441Y-95988090D01*
X197134431Y-95775890D01*
X197185440Y-95524000D01*
X197185440Y-95024000D01*
X197141162Y-94788683D01*
X197002090Y-94572559D01*
X196789890Y-94427569D01*
X196607141Y-94390561D01*
X196205790Y-93989210D01*
X196132276Y-93940090D01*
X195918675Y-93797367D01*
X195862484Y-93786190D01*
X195580000Y-93729999D01*
X195579995Y-93730000D01*
X194583440Y-93730000D01*
X194583440Y-93351000D01*
X194539162Y-93115683D01*
X194421000Y-92932054D01*
X194421000Y-88690580D01*
X194980420Y-88131160D01*
X195133395Y-88194681D01*
X195863403Y-88195318D01*
X196538086Y-87916545D01*
X197054730Y-87400801D01*
X197334681Y-86726605D01*
X197335318Y-85996597D01*
X197056545Y-85321914D01*
X196540801Y-84805270D01*
X195866605Y-84525319D01*
X195136597Y-84524682D01*
X194461914Y-84803455D01*
X193945270Y-85319199D01*
X193665319Y-85993395D01*
X193664682Y-86723403D01*
X193729104Y-86879316D01*
X192910210Y-87698210D01*
X192718367Y-87985325D01*
X192718367Y-87985326D01*
X192650999Y-88324000D01*
X192651000Y-88324005D01*
X192651000Y-92752737D01*
X192562309Y-92716000D01*
X192321750Y-92716000D01*
X192163000Y-92874750D01*
X192163000Y-93599000D01*
X192183000Y-93599000D01*
X192183000Y-93730000D01*
X189668523Y-93730000D01*
X189380564Y-93441539D01*
X188871702Y-93230241D01*
X188320715Y-93229760D01*
X187811485Y-93440169D01*
X187421539Y-93829436D01*
X187210241Y-94338298D01*
X187209760Y-94889285D01*
X146477525Y-94889285D01*
X146161000Y-94572760D01*
X146161000Y-92276000D01*
X169644560Y-92276000D01*
X169644560Y-93476000D01*
X169688838Y-93711317D01*
X169827910Y-93927441D01*
X170040110Y-94072431D01*
X170292000Y-94123440D01*
X172792000Y-94123440D01*
X173027317Y-94079162D01*
X173243441Y-93940090D01*
X173388431Y-93727890D01*
X173439440Y-93476000D01*
X173439440Y-92276000D01*
X181144560Y-92276000D01*
X181144560Y-93476000D01*
X181188838Y-93711317D01*
X181327910Y-93927441D01*
X181540110Y-94072431D01*
X181792000Y-94123440D01*
X184292000Y-94123440D01*
X184527317Y-94079162D01*
X184743441Y-93940090D01*
X184888431Y-93727890D01*
X184939440Y-93476000D01*
X184939440Y-93224690D01*
X191001000Y-93224690D01*
X191001000Y-93440250D01*
X191159750Y-93599000D01*
X191909000Y-93599000D01*
X191909000Y-92874750D01*
X191750250Y-92716000D01*
X191509691Y-92716000D01*
X191276302Y-92812673D01*
X191097673Y-92991301D01*
X191001000Y-93224690D01*
X184939440Y-93224690D01*
X184939440Y-92276000D01*
X184895162Y-92040683D01*
X184756090Y-91824559D01*
X184543890Y-91679569D01*
X184292000Y-91628560D01*
X181792000Y-91628560D01*
X181556683Y-91672838D01*
X181340559Y-91811910D01*
X181195569Y-92024110D01*
X181144560Y-92276000D01*
X173439440Y-92276000D01*
X173395162Y-92040683D01*
X173256090Y-91824559D01*
X173043890Y-91679569D01*
X172792000Y-91628560D01*
X170292000Y-91628560D01*
X170056683Y-91672838D01*
X169840559Y-91811910D01*
X169695569Y-92024110D01*
X169644560Y-92276000D01*
X146161000Y-92276000D01*
X146161000Y-90045207D01*
X159656665Y-90045207D01*
X159950630Y-90756658D01*
X160494479Y-91301457D01*
X161205416Y-91596663D01*
X161975207Y-91597335D01*
X162686658Y-91303370D01*
X163092230Y-90898505D01*
X163494479Y-91301457D01*
X164205416Y-91596663D01*
X164975207Y-91597335D01*
X165686658Y-91303370D01*
X165979539Y-91011000D01*
X169720808Y-91011000D01*
X169827910Y-91177441D01*
X170040110Y-91322431D01*
X170292000Y-91373440D01*
X172792000Y-91373440D01*
X173027317Y-91329162D01*
X173243441Y-91190090D01*
X173388431Y-90977890D01*
X173439440Y-90726000D01*
X173439440Y-89526000D01*
X181144560Y-89526000D01*
X181144560Y-90726000D01*
X181188838Y-90961317D01*
X181327910Y-91177441D01*
X181540110Y-91322431D01*
X181792000Y-91373440D01*
X184292000Y-91373440D01*
X184527317Y-91329162D01*
X184743441Y-91190090D01*
X184888431Y-90977890D01*
X184939440Y-90726000D01*
X184939440Y-89526000D01*
X184895162Y-89290683D01*
X184756090Y-89074559D01*
X184543890Y-88929569D01*
X184292000Y-88878560D01*
X181792000Y-88878560D01*
X181556683Y-88922838D01*
X181340559Y-89061910D01*
X181195569Y-89274110D01*
X181144560Y-89526000D01*
X173439440Y-89526000D01*
X173395162Y-89290683D01*
X173256090Y-89074559D01*
X173043890Y-88929569D01*
X172792000Y-88878560D01*
X170292000Y-88878560D01*
X170056683Y-88922838D01*
X169840559Y-89061910D01*
X169718192Y-89241000D01*
X166511719Y-89241000D01*
X166233370Y-88567342D01*
X165689521Y-88022543D01*
X164978584Y-87727337D01*
X164208793Y-87726665D01*
X163497342Y-88020630D01*
X163091770Y-88425495D01*
X162689521Y-88022543D01*
X161978584Y-87727337D01*
X161208793Y-87726665D01*
X160497342Y-88020630D01*
X159952543Y-88564479D01*
X159657337Y-89275416D01*
X159656665Y-90045207D01*
X146161000Y-90045207D01*
X146161000Y-88647427D01*
X146161284Y-88322205D01*
X145912894Y-87721057D01*
X145453363Y-87260722D01*
X144852648Y-87011284D01*
X144202205Y-87010716D01*
X143601057Y-87259106D01*
X143140722Y-87718637D01*
X143140437Y-87719324D01*
X133180760Y-97679000D01*
X125329440Y-97679000D01*
X125329440Y-97314000D01*
X125285162Y-97078683D01*
X125146090Y-96862559D01*
X124933890Y-96717569D01*
X124682000Y-96666560D01*
X120682000Y-96666560D01*
X120446683Y-96710838D01*
X120230559Y-96849910D01*
X120085569Y-97062110D01*
X120034560Y-97314000D01*
X120034560Y-101314000D01*
X120078838Y-101549317D01*
X120217910Y-101765441D01*
X120430110Y-101910431D01*
X120682000Y-101961440D01*
X124077861Y-101961440D01*
X124366208Y-102249787D01*
X124366210Y-102249790D01*
X124605848Y-102409910D01*
X124653325Y-102441633D01*
X124992000Y-102509000D01*
X126538854Y-102509000D01*
X126461569Y-102622110D01*
X126410560Y-102874000D01*
X126410560Y-103374000D01*
X126454838Y-103609317D01*
X126593910Y-103825441D01*
X126623000Y-103845317D01*
X126623000Y-104121421D01*
X123813653Y-106930767D01*
X123208433Y-106679458D01*
X122358957Y-106678717D01*
X119237000Y-103556760D01*
X119237000Y-96181240D01*
X125137239Y-90281000D01*
X129284573Y-90281000D01*
X129609795Y-90281284D01*
X130210943Y-90032894D01*
X130671278Y-89573363D01*
X130920716Y-88972648D01*
X130921284Y-88322205D01*
X130672894Y-87721057D01*
X130213363Y-87260722D01*
X129612648Y-87011284D01*
X128962205Y-87010716D01*
X128961518Y-87011000D01*
X124460005Y-87011000D01*
X124460000Y-87010999D01*
X123834313Y-87135457D01*
X123303880Y-87489880D01*
X123303878Y-87489883D01*
X116445880Y-94347880D01*
X116091457Y-94878312D01*
X115966999Y-95504000D01*
X115967000Y-95504005D01*
X115967000Y-104233995D01*
X115966999Y-104234000D01*
X116091457Y-104859688D01*
X116445880Y-105390120D01*
X120047280Y-108991520D01*
X120046543Y-109835834D01*
X120446853Y-110804658D01*
X121187443Y-111546542D01*
X122155567Y-111948542D01*
X123203834Y-111949457D01*
X124172658Y-111549147D01*
X124773854Y-110949000D01*
X146498943Y-110949000D01*
X147095443Y-111546542D01*
X148063567Y-111948542D01*
X149111834Y-111949457D01*
X150080658Y-111549147D01*
X150681854Y-110949000D01*
X162317995Y-110949000D01*
X162318000Y-110949001D01*
X162943688Y-110824543D01*
X163474120Y-110470120D01*
X165000854Y-108943386D01*
X165482086Y-108744545D01*
X165951901Y-108275548D01*
X165951901Y-109505860D01*
X155307880Y-120149880D01*
X154953457Y-120680312D01*
X154828999Y-121306000D01*
X154829000Y-121306005D01*
X154829000Y-124206000D01*
X154916560Y-124646193D01*
X154916560Y-125106000D01*
X154960838Y-125341317D01*
X155099910Y-125557441D01*
X155312110Y-125702431D01*
X155564000Y-125753440D01*
X156023807Y-125753440D01*
X156233309Y-125795113D01*
X155753421Y-126275001D01*
X145661440Y-126275001D01*
X145661440Y-125841000D01*
X151384000Y-125841000D01*
X152009687Y-125716543D01*
X152540120Y-125362120D01*
X152894543Y-124831687D01*
X153019000Y-124206000D01*
X152894543Y-123580313D01*
X152540120Y-123049880D01*
X152009687Y-122695457D01*
X151384000Y-122571000D01*
X145661440Y-122571000D01*
X145661440Y-122210000D01*
X145617162Y-121974683D01*
X145478090Y-121758559D01*
X145265890Y-121613569D01*
X145014000Y-121562560D01*
X144178800Y-121562560D01*
X141670120Y-119053880D01*
X141139688Y-118699457D01*
X140514000Y-118574999D01*
X140513995Y-118575000D01*
X118334005Y-118575000D01*
X118334000Y-118574999D01*
X117708312Y-118699457D01*
X117177880Y-119053880D01*
X114621229Y-121610531D01*
X114362642Y-121661967D01*
X113751104Y-122070584D01*
X113342487Y-122682122D01*
X113199000Y-123403480D01*
X113199000Y-125516520D01*
X113342487Y-126237878D01*
X113751104Y-126849416D01*
X114362642Y-127258033D01*
X115084000Y-127401520D01*
X115805358Y-127258033D01*
X116416896Y-126849416D01*
X116825513Y-126237878D01*
X116969000Y-125516520D01*
X116969000Y-123887240D01*
X119011240Y-121845000D01*
X119538714Y-121845000D01*
X119201104Y-122070584D01*
X118792487Y-122682122D01*
X118649000Y-123403480D01*
X118649000Y-125516520D01*
X118792487Y-126237878D01*
X119201104Y-126849416D01*
X119812642Y-127258033D01*
X120534000Y-127401520D01*
X121109472Y-127287051D01*
X121330421Y-127508000D01*
X109982000Y-127508000D01*
X109982000Y-82718815D01*
X128278630Y-82718815D01*
X128602980Y-83503800D01*
X128779000Y-83680127D01*
X128779000Y-84693995D01*
X128778999Y-84694000D01*
X128903457Y-85319688D01*
X129257880Y-85850120D01*
X133209443Y-89801683D01*
X133438637Y-90031278D01*
X134039352Y-90280716D01*
X134689795Y-90281284D01*
X135290943Y-90032894D01*
X135751278Y-89573363D01*
X136000716Y-88972648D01*
X136001284Y-88322205D01*
X135752894Y-87721057D01*
X135293363Y-87260722D01*
X135292677Y-87260437D01*
X132049000Y-84016760D01*
X132049000Y-83680565D01*
X132222909Y-83506959D01*
X132548628Y-82722541D01*
X132549370Y-81873185D01*
X132225020Y-81088200D01*
X131624959Y-80487091D01*
X130840541Y-80161372D01*
X129991185Y-80160630D01*
X129206200Y-80484980D01*
X128605091Y-81085041D01*
X128279372Y-81869459D01*
X128278630Y-82718815D01*
X109982000Y-82718815D01*
X109982000Y-75616854D01*
X114528457Y-75616854D01*
X115004727Y-76769515D01*
X115885847Y-77652174D01*
X117037674Y-78130454D01*
X118284854Y-78131543D01*
X119437515Y-77655273D01*
X120320174Y-76774153D01*
X120798454Y-75622326D01*
X120798458Y-75616854D01*
X154028457Y-75616854D01*
X154504727Y-76769515D01*
X155385847Y-77652174D01*
X156537674Y-78130454D01*
X157784854Y-78131543D01*
X158937515Y-77655273D01*
X159820174Y-76774153D01*
X160298454Y-75622326D01*
X160299543Y-74375146D01*
X159823273Y-73222485D01*
X158942153Y-72339826D01*
X157790326Y-71861546D01*
X156543146Y-71860457D01*
X155390485Y-72336727D01*
X154507826Y-73217847D01*
X154029546Y-74369674D01*
X154028457Y-75616854D01*
X120798458Y-75616854D01*
X120799543Y-74375146D01*
X120323273Y-73222485D01*
X119442153Y-72339826D01*
X118290326Y-71861546D01*
X117043146Y-71860457D01*
X115890485Y-72336727D01*
X115007826Y-73217847D01*
X114529546Y-74369674D01*
X114528457Y-75616854D01*
X109982000Y-75616854D01*
X109982000Y-71229403D01*
X164336682Y-71229403D01*
X164615455Y-71904086D01*
X165131199Y-72420730D01*
X165805395Y-72700681D01*
X166535403Y-72701318D01*
X167210086Y-72422545D01*
X167726730Y-71906801D01*
X167824560Y-71671201D01*
X167824560Y-72066000D01*
X167868838Y-72301317D01*
X168007910Y-72517441D01*
X168220110Y-72662431D01*
X168472000Y-72713440D01*
X169930000Y-72713440D01*
X169930000Y-74090331D01*
X169913559Y-74100910D01*
X169768569Y-74313110D01*
X169717560Y-74565000D01*
X169717560Y-75065000D01*
X169761838Y-75300317D01*
X169900910Y-75516441D01*
X169970711Y-75564134D01*
X169913559Y-75600910D01*
X169768569Y-75813110D01*
X169717560Y-76065000D01*
X169717560Y-76565000D01*
X169761838Y-76800317D01*
X169900910Y-77016441D01*
X170113110Y-77161431D01*
X170365000Y-77212440D01*
X170460861Y-77212440D01*
X170709208Y-77460787D01*
X170709210Y-77460790D01*
X170996325Y-77652633D01*
X171052516Y-77663810D01*
X171335000Y-77720001D01*
X171335005Y-77720000D01*
X172281477Y-77720000D01*
X172569436Y-78008461D01*
X173078298Y-78219759D01*
X173629285Y-78220240D01*
X174138515Y-78009831D01*
X174528461Y-77620564D01*
X174739759Y-77111702D01*
X174740240Y-76560715D01*
X174529831Y-76051485D01*
X174140564Y-75661539D01*
X173631702Y-75450241D01*
X173080715Y-75449760D01*
X172571485Y-75660169D01*
X172281148Y-75950000D01*
X171890801Y-75950000D01*
X171868162Y-75829683D01*
X171729090Y-75613559D01*
X171659289Y-75565866D01*
X171716441Y-75529090D01*
X171861431Y-75316890D01*
X171912440Y-75065000D01*
X171912440Y-74565000D01*
X171868162Y-74329683D01*
X171729090Y-74113559D01*
X171700000Y-74093683D01*
X171700000Y-72009005D01*
X171700001Y-72009000D01*
X171632633Y-71670325D01*
X171546889Y-71542000D01*
X171519440Y-71500919D01*
X171519440Y-70547403D01*
X179012682Y-70547403D01*
X179291455Y-71222086D01*
X179807199Y-71738730D01*
X180481395Y-72018681D01*
X181211403Y-72019318D01*
X181886086Y-71740545D01*
X182402730Y-71224801D01*
X182682681Y-70550605D01*
X182683318Y-69820597D01*
X182404545Y-69145914D01*
X181888801Y-68629270D01*
X181214605Y-68349319D01*
X180484597Y-68348682D01*
X179809914Y-68627455D01*
X179293270Y-69143199D01*
X179013319Y-69817395D01*
X179012682Y-70547403D01*
X171519440Y-70547403D01*
X171519440Y-69666000D01*
X171475162Y-69430683D01*
X171336090Y-69214559D01*
X171123890Y-69069569D01*
X170872000Y-69018560D01*
X168472000Y-69018560D01*
X168236683Y-69062838D01*
X168020559Y-69201910D01*
X167875569Y-69414110D01*
X167824560Y-69666000D01*
X167824560Y-70060288D01*
X167728545Y-69827914D01*
X167212801Y-69311270D01*
X166538605Y-69031319D01*
X165808597Y-69030682D01*
X165133914Y-69309455D01*
X164617270Y-69825199D01*
X164337319Y-70499395D01*
X164336682Y-71229403D01*
X109982000Y-71229403D01*
X109982000Y-66802000D01*
X192259046Y-66802000D01*
X192190000Y-66968691D01*
X192190000Y-66968691D01*
G37*
X192190000Y-66968691D02*
X192190000Y-67659250D01*
X192348750Y-67818000D01*
X193548000Y-67818000D01*
X193548000Y-67798000D01*
X193802000Y-67798000D01*
X193802000Y-67818000D01*
X193822000Y-67818000D01*
X193822000Y-68072000D01*
X193802000Y-68072000D01*
X193802000Y-68092000D01*
X193548000Y-68092000D01*
X193548000Y-68072000D01*
X192348750Y-68072000D01*
X192190000Y-68230750D01*
X192190000Y-68360001D01*
X190323004Y-68360001D01*
X190322999Y-68360000D01*
X190040515Y-68416191D01*
X189984324Y-68427368D01*
X189697209Y-68619211D01*
X189697207Y-68619214D01*
X182695440Y-75620981D01*
X182695440Y-73984000D01*
X182651162Y-73748683D01*
X182512090Y-73532559D01*
X182299890Y-73387569D01*
X182048000Y-73336560D01*
X179648000Y-73336560D01*
X179412683Y-73380838D01*
X179196559Y-73519910D01*
X179051569Y-73732110D01*
X179000560Y-73984000D01*
X179000560Y-76384000D01*
X179044838Y-76619317D01*
X179183910Y-76835441D01*
X179396110Y-76980431D01*
X179648000Y-77031440D01*
X181284981Y-77031440D01*
X175928127Y-82388293D01*
X176009759Y-82191702D01*
X176010240Y-81640715D01*
X175799831Y-81131485D01*
X175410564Y-80741539D01*
X174901702Y-80530241D01*
X174350715Y-80529760D01*
X173841485Y-80740169D01*
X173551148Y-81030000D01*
X173388288Y-81030000D01*
X173256090Y-80824559D01*
X173043890Y-80679569D01*
X172792000Y-80628560D01*
X170292000Y-80628560D01*
X170056683Y-80672838D01*
X169840559Y-80811910D01*
X169695569Y-81024110D01*
X169644560Y-81276000D01*
X169644560Y-82126980D01*
X168525000Y-81007420D01*
X168525000Y-80448523D01*
X168813461Y-80160564D01*
X169024759Y-79651702D01*
X169025240Y-79100715D01*
X168814831Y-78591485D01*
X168425564Y-78201539D01*
X167916702Y-77990241D01*
X167365715Y-77989760D01*
X166856485Y-78200169D01*
X166466539Y-78589436D01*
X166255241Y-79098298D01*
X166254760Y-79649285D01*
X166465169Y-80158515D01*
X166755000Y-80448852D01*
X166755000Y-81373995D01*
X166754999Y-81374000D01*
X166795245Y-81576325D01*
X166822367Y-81712675D01*
X166985837Y-81957326D01*
X167014210Y-81999790D01*
X169644560Y-84630139D01*
X169644560Y-84876981D01*
X164487789Y-79720209D01*
X164351284Y-79629000D01*
X164200674Y-79528366D01*
X164144483Y-79517189D01*
X163861999Y-79460998D01*
X163861994Y-79460999D01*
X139364006Y-79460999D01*
X139364001Y-79460998D01*
X139081517Y-79517189D01*
X139025326Y-79528366D01*
X138738211Y-79720209D01*
X138738209Y-79720212D01*
X138163107Y-80295313D01*
X137840541Y-80161372D01*
X136991185Y-80160630D01*
X136206200Y-80484980D01*
X135605091Y-81085041D01*
X135279372Y-81869459D01*
X135278630Y-82718815D01*
X135602980Y-83503800D01*
X136203041Y-84104909D01*
X136987459Y-84430628D01*
X137836815Y-84431370D01*
X138621800Y-84107020D01*
X139222909Y-83506959D01*
X139548628Y-82722541D01*
X139549370Y-81873185D01*
X139414589Y-81546990D01*
X139730580Y-81230999D01*
X142544484Y-81230999D01*
X142279372Y-81869459D01*
X142278630Y-82718815D01*
X142507365Y-83272395D01*
X138290317Y-87489443D01*
X138060722Y-87718637D01*
X137811284Y-88319352D01*
X137810716Y-88969795D01*
X138059106Y-89570943D01*
X138518637Y-90031278D01*
X139119352Y-90280716D01*
X139769795Y-90281284D01*
X140370943Y-90032894D01*
X140831278Y-89573363D01*
X140831563Y-89572677D01*
X145570120Y-84834120D01*
X145924543Y-84303688D01*
X146048365Y-83681199D01*
X146222909Y-83506959D01*
X146548628Y-82722541D01*
X146549370Y-81873185D01*
X146284023Y-81230999D01*
X163495419Y-81230999D01*
X169644560Y-87380139D01*
X169644560Y-87976000D01*
X169688838Y-88211317D01*
X169827910Y-88427441D01*
X170040110Y-88572431D01*
X170292000Y-88623440D01*
X172792000Y-88623440D01*
X173027317Y-88579162D01*
X173243441Y-88440090D01*
X173388431Y-88227890D01*
X173439440Y-87976000D01*
X173439440Y-87380140D01*
X174043579Y-86776000D01*
X181144560Y-86776000D01*
X181144560Y-87976000D01*
X181188838Y-88211317D01*
X181327910Y-88427441D01*
X181540110Y-88572431D01*
X181792000Y-88623440D01*
X184292000Y-88623440D01*
X184527317Y-88579162D01*
X184743441Y-88440090D01*
X184888431Y-88227890D01*
X184939440Y-87976000D01*
X184939440Y-86776000D01*
X184914932Y-86645750D01*
X188665000Y-86645750D01*
X188665000Y-87686310D01*
X188761673Y-87919699D01*
X188940302Y-88098327D01*
X189173691Y-88195000D01*
X190214250Y-88195000D01*
X190373000Y-88036250D01*
X190373000Y-86487000D01*
X190627000Y-86487000D01*
X190627000Y-88036250D01*
X190785750Y-88195000D01*
X191826309Y-88195000D01*
X192059698Y-88098327D01*
X192238327Y-87919699D01*
X192335000Y-87686310D01*
X192335000Y-86645750D01*
X192176250Y-86487000D01*
X190627000Y-86487000D01*
X190373000Y-86487000D01*
X188823750Y-86487000D01*
X188665000Y-86645750D01*
X184914932Y-86645750D01*
X184895162Y-86540683D01*
X184756090Y-86324559D01*
X184543890Y-86179569D01*
X184292000Y-86128560D01*
X181792000Y-86128560D01*
X181556683Y-86172838D01*
X181340559Y-86311910D01*
X181195569Y-86524110D01*
X181144560Y-86776000D01*
X174043579Y-86776000D01*
X176793579Y-84026000D01*
X181144560Y-84026000D01*
X181144560Y-85226000D01*
X181188838Y-85461317D01*
X181327910Y-85677441D01*
X181540110Y-85822431D01*
X181792000Y-85873440D01*
X184292000Y-85873440D01*
X184527317Y-85829162D01*
X184743441Y-85690090D01*
X184888431Y-85477890D01*
X184939440Y-85226000D01*
X184939440Y-85033690D01*
X188665000Y-85033690D01*
X188665000Y-86074250D01*
X188823750Y-86233000D01*
X190373000Y-86233000D01*
X190373000Y-84683750D01*
X190627000Y-84683750D01*
X190627000Y-86233000D01*
X192176250Y-86233000D01*
X192335000Y-86074250D01*
X192335000Y-85033690D01*
X192238327Y-84800301D01*
X192059698Y-84621673D01*
X191826309Y-84525000D01*
X190785750Y-84525000D01*
X190627000Y-84683750D01*
X190373000Y-84683750D01*
X190214250Y-84525000D01*
X189173691Y-84525000D01*
X188940302Y-84621673D01*
X188761673Y-84800301D01*
X188665000Y-85033690D01*
X184939440Y-85033690D01*
X184939440Y-84026000D01*
X184908900Y-83863691D01*
X206777000Y-83863691D01*
X206777000Y-87166309D01*
X206786813Y-87190000D01*
X206777000Y-87213691D01*
X206777000Y-90516309D01*
X206873673Y-90749698D01*
X207052301Y-90928327D01*
X207285690Y-91025000D01*
X210288310Y-91025000D01*
X210312000Y-91015187D01*
X210335690Y-91025000D01*
X213338310Y-91025000D01*
X213571699Y-90928327D01*
X213750327Y-90749698D01*
X213847000Y-90516309D01*
X213847000Y-87213691D01*
X213837187Y-87190000D01*
X213847000Y-87166309D01*
X213847000Y-83863691D01*
X213750327Y-83630302D01*
X213571699Y-83451673D01*
X213338310Y-83355000D01*
X210335690Y-83355000D01*
X210312000Y-83364813D01*
X210288310Y-83355000D01*
X207285690Y-83355000D01*
X207052301Y-83451673D01*
X206873673Y-83630302D01*
X206777000Y-83863691D01*
X184908900Y-83863691D01*
X184895162Y-83790683D01*
X184756090Y-83574559D01*
X184543890Y-83429569D01*
X184292000Y-83378560D01*
X181792000Y-83378560D01*
X181556683Y-83422838D01*
X181340559Y-83561910D01*
X181195569Y-83774110D01*
X181144560Y-84026000D01*
X176793579Y-84026000D01*
X179543579Y-81276000D01*
X181144560Y-81276000D01*
X181144560Y-82476000D01*
X181188838Y-82711317D01*
X181327910Y-82927441D01*
X181540110Y-83072431D01*
X181792000Y-83123440D01*
X184292000Y-83123440D01*
X184527317Y-83079162D01*
X184743441Y-82940090D01*
X184888431Y-82727890D01*
X184939440Y-82476000D01*
X184939440Y-81276000D01*
X184895162Y-81040683D01*
X184756090Y-80824559D01*
X184543890Y-80679569D01*
X184292000Y-80628560D01*
X181792000Y-80628560D01*
X181556683Y-80672838D01*
X181340559Y-80811910D01*
X181195569Y-81024110D01*
X181144560Y-81276000D01*
X179543579Y-81276000D01*
X186030554Y-74789025D01*
X186150169Y-75078515D01*
X186539436Y-75468461D01*
X187048298Y-75679759D01*
X187599285Y-75680240D01*
X188108515Y-75469831D01*
X188498461Y-75080564D01*
X188709759Y-74571702D01*
X188710117Y-74161463D01*
X188969560Y-73902020D01*
X188969560Y-74072000D01*
X189013838Y-74307317D01*
X189087620Y-74421978D01*
X189020569Y-74520110D01*
X188969560Y-74772000D01*
X188969560Y-75462169D01*
X188774683Y-75498838D01*
X188558559Y-75637910D01*
X188436192Y-75817000D01*
X187458005Y-75817000D01*
X187458000Y-75816999D01*
X187175516Y-75873190D01*
X187119325Y-75884367D01*
X186832210Y-76076210D01*
X186832208Y-76076213D01*
X186823305Y-76085116D01*
X186415715Y-76084760D01*
X185906485Y-76295169D01*
X185516539Y-76684436D01*
X185305241Y-77193298D01*
X185304760Y-77744285D01*
X185515169Y-78253515D01*
X185904436Y-78643461D01*
X186413298Y-78854759D01*
X186964285Y-78855240D01*
X187473515Y-78644831D01*
X187863461Y-78255564D01*
X188074759Y-77746702D01*
X188074898Y-77587000D01*
X188438808Y-77587000D01*
X188545910Y-77753441D01*
X188758110Y-77898431D01*
X189010000Y-77949440D01*
X191210000Y-77949440D01*
X191445317Y-77905162D01*
X191661441Y-77766090D01*
X191806431Y-77553890D01*
X191857440Y-77302000D01*
X191857440Y-76102000D01*
X191813162Y-75866683D01*
X191674090Y-75650559D01*
X191461890Y-75505569D01*
X191210000Y-75454560D01*
X191014440Y-75454560D01*
X191014440Y-74772000D01*
X190970162Y-74536683D01*
X190896380Y-74422022D01*
X190963431Y-74323890D01*
X191014440Y-74072000D01*
X191014440Y-73389440D01*
X191210000Y-73389440D01*
X191445317Y-73345162D01*
X191661441Y-73206090D01*
X191806431Y-72993890D01*
X191857440Y-72742000D01*
X191857440Y-71542000D01*
X191813162Y-71306683D01*
X191674090Y-71090559D01*
X191461890Y-70945569D01*
X191210000Y-70894560D01*
X189925019Y-70894560D01*
X190689578Y-70130001D01*
X194914994Y-70130001D01*
X194914999Y-70130002D01*
X195197483Y-70073811D01*
X195253674Y-70062634D01*
X195540789Y-69870791D01*
X195540790Y-69870790D01*
X195990788Y-69420791D01*
X195990791Y-69420789D01*
X195996041Y-69415539D01*
X196215000Y-69459093D01*
X196433959Y-69415539D01*
X197892981Y-70874560D01*
X193210000Y-70874560D01*
X192974683Y-70918838D01*
X192758559Y-71057910D01*
X192613569Y-71270110D01*
X192562560Y-71522000D01*
X192562560Y-77322000D01*
X192606838Y-77557317D01*
X192745910Y-77773441D01*
X192958110Y-77918431D01*
X193210000Y-77969440D01*
X196305309Y-77969440D01*
X196100241Y-78463298D01*
X196099760Y-79014285D01*
X196310169Y-79523515D01*
X196699436Y-79913461D01*
X197208298Y-80124759D01*
X197759285Y-80125240D01*
X198268515Y-79914831D01*
X198658461Y-79525564D01*
X198869759Y-79016702D01*
X198870240Y-78465715D01*
X198665184Y-77969440D01*
X199610000Y-77969440D01*
X199845317Y-77925162D01*
X200061441Y-77786090D01*
X200206431Y-77573890D01*
X200257440Y-77322000D01*
X200257440Y-72611018D01*
X201429463Y-73783040D01*
X201429463Y-78176209D01*
X201141002Y-78464168D01*
X200929704Y-78973030D01*
X200929223Y-79524017D01*
X201139632Y-80033247D01*
X201528899Y-80423193D01*
X202037761Y-80634491D01*
X202588748Y-80634972D01*
X202593798Y-80632885D01*
X202660169Y-80793515D01*
X203049436Y-81183461D01*
X203558298Y-81394759D01*
X204109285Y-81395240D01*
X204618515Y-81184831D01*
X205008461Y-80795564D01*
X205219759Y-80286702D01*
X205220240Y-79735715D01*
X205101000Y-79447131D01*
X205101000Y-78710580D01*
X206784560Y-80394139D01*
X206784560Y-81990000D01*
X206828838Y-82225317D01*
X206967910Y-82441441D01*
X207180110Y-82586431D01*
X207432000Y-82637440D01*
X208632000Y-82637440D01*
X208867317Y-82593162D01*
X209083441Y-82454090D01*
X209228431Y-82241890D01*
X209267606Y-82048440D01*
X209962000Y-82048440D01*
X210197317Y-82004162D01*
X210311978Y-81930380D01*
X210410110Y-81997431D01*
X210662000Y-82048440D01*
X211355556Y-82048440D01*
X211388838Y-82225317D01*
X211527910Y-82441441D01*
X211740110Y-82586431D01*
X211992000Y-82637440D01*
X213192000Y-82637440D01*
X213427317Y-82593162D01*
X213643441Y-82454090D01*
X213788431Y-82241890D01*
X213839440Y-81990000D01*
X213839440Y-79790000D01*
X213795162Y-79554683D01*
X213656090Y-79338559D01*
X213477000Y-79216192D01*
X213477000Y-72892005D01*
X213477001Y-72892000D01*
X213418684Y-72598828D01*
X213409633Y-72553325D01*
X213217790Y-72266210D01*
X213217787Y-72266208D01*
X212839884Y-71888305D01*
X212840240Y-71480715D01*
X212629831Y-70971485D01*
X212240564Y-70581539D01*
X211731702Y-70370241D01*
X211180715Y-70369760D01*
X210671485Y-70580169D01*
X210281539Y-70969436D01*
X210070241Y-71478298D01*
X210069760Y-72029285D01*
X210280169Y-72538515D01*
X210669436Y-72928461D01*
X211178298Y-73139759D01*
X211588538Y-73140117D01*
X211707000Y-73258579D01*
X211707000Y-78295421D01*
X209035160Y-75623580D01*
X209098681Y-75470605D01*
X209099318Y-74740597D01*
X208820545Y-74065914D01*
X208304801Y-73549270D01*
X207630605Y-73269319D01*
X207050766Y-73268813D01*
X207889787Y-72429792D01*
X207889790Y-72429790D01*
X208081633Y-72142675D01*
X208104188Y-72029285D01*
X208119673Y-71951440D01*
X208464000Y-71951440D01*
X208699317Y-71907162D01*
X208915441Y-71768090D01*
X209060431Y-71555890D01*
X209111440Y-71304000D01*
X209111440Y-68904000D01*
X209067162Y-68668683D01*
X208928090Y-68452559D01*
X208715890Y-68307569D01*
X208464000Y-68256560D01*
X206064000Y-68256560D01*
X205828683Y-68300838D01*
X205612559Y-68439910D01*
X205467569Y-68652110D01*
X205416560Y-68904000D01*
X205416560Y-71304000D01*
X205460838Y-71539317D01*
X205599910Y-71755441D01*
X205812110Y-71900431D01*
X205898496Y-71917925D01*
X204988209Y-72828211D01*
X204796366Y-73115326D01*
X204796366Y-73115327D01*
X204728998Y-73454001D01*
X204728999Y-73454006D01*
X204728999Y-73589453D01*
X200489999Y-69350452D01*
X200489999Y-68795004D01*
X200490000Y-68794999D01*
X200422632Y-68456324D01*
X200358271Y-68360001D01*
X200230789Y-68169209D01*
X200230786Y-68169207D01*
X200206100Y-68144521D01*
X200240000Y-67974093D01*
X200240000Y-67915907D01*
X200126961Y-67347622D01*
X199805054Y-66865853D01*
X199709491Y-66802000D01*
X217043000Y-66802000D01*
X217043000Y-101200419D01*
X214614791Y-98772209D01*
X214489231Y-98688313D01*
X214327676Y-98580366D01*
X214271485Y-98569189D01*
X213989001Y-98512998D01*
X213988996Y-98512999D01*
X213205823Y-98512999D01*
X213299113Y-98044000D01*
X213189880Y-97494849D01*
X212878811Y-97029302D01*
X212474297Y-96759014D01*
X212691134Y-96656389D01*
X213067041Y-96241423D01*
X213227904Y-95853039D01*
X213105915Y-95631000D01*
X211963000Y-95631000D01*
X211963000Y-95651000D01*
X211709000Y-95651000D01*
X211709000Y-95631000D01*
X210566085Y-95631000D01*
X210444096Y-95853039D01*
X210604959Y-96241423D01*
X210980866Y-96656389D01*
X211197703Y-96759014D01*
X210793189Y-97029302D01*
X210482120Y-97494849D01*
X210372887Y-98044000D01*
X210466177Y-98512999D01*
X205585823Y-98512999D01*
X205679113Y-98044000D01*
X205569880Y-97494849D01*
X205258811Y-97029302D01*
X204876725Y-96774000D01*
X205258811Y-96518698D01*
X205569880Y-96053151D01*
X205679113Y-95504000D01*
X205569880Y-94954849D01*
X205258811Y-94489302D01*
X205114535Y-94392899D01*
X205251317Y-94367162D01*
X205467441Y-94228090D01*
X205612431Y-94015890D01*
X205663440Y-93764000D01*
X205663440Y-92964000D01*
X210372887Y-92964000D01*
X210482120Y-93513151D01*
X210793189Y-93978698D01*
X211197703Y-94248986D01*
X210980866Y-94351611D01*
X210604959Y-94766577D01*
X210444096Y-95154961D01*
X210566085Y-95377000D01*
X211709000Y-95377000D01*
X211709000Y-95357000D01*
X211963000Y-95357000D01*
X211963000Y-95377000D01*
X213105915Y-95377000D01*
X213227904Y-95154961D01*
X213067041Y-94766577D01*
X212691134Y-94351611D01*
X212474297Y-94248986D01*
X212878811Y-93978698D01*
X213189880Y-93513151D01*
X213299113Y-92964000D01*
X213189880Y-92414849D01*
X212878811Y-91949302D01*
X212413264Y-91638233D01*
X211864113Y-91529000D01*
X211807887Y-91529000D01*
X211258736Y-91638233D01*
X210793189Y-91949302D01*
X210482120Y-92414849D01*
X210372887Y-92964000D01*
X205663440Y-92964000D01*
X205663440Y-92164000D01*
X205619162Y-91928683D01*
X205480090Y-91712559D01*
X205267890Y-91567569D01*
X205016000Y-91516560D01*
X203416000Y-91516560D01*
X203180683Y-91560838D01*
X202964559Y-91699910D01*
X202819569Y-91912110D01*
X202768560Y-92164000D01*
X202768560Y-93764000D01*
X202812838Y-93999317D01*
X202951910Y-94215441D01*
X203164110Y-94360431D01*
X203319089Y-94391815D01*
X203173189Y-94489302D01*
X202862120Y-94954849D01*
X202752887Y-95504000D01*
X202862120Y-96053151D01*
X203173189Y-96518698D01*
X203555275Y-96774000D01*
X203173189Y-97029302D01*
X202862120Y-97494849D01*
X202752887Y-98044000D01*
X202846177Y-98512999D01*
X200473118Y-98512999D01*
X200473240Y-98373715D01*
X200262831Y-97864485D01*
X199873564Y-97474539D01*
X199364702Y-97263241D01*
X198813715Y-97262760D01*
X198304485Y-97473169D01*
X197914539Y-97862436D01*
X197703241Y-98371298D01*
X197702760Y-98922285D01*
X197913169Y-99431515D01*
X198302436Y-99821461D01*
X198811298Y-100032759D01*
X199226176Y-100033121D01*
X199499324Y-100215632D01*
X199555515Y-100226809D01*
X199837999Y-100283000D01*
X199838004Y-100282999D01*
X213622421Y-100282999D01*
X214980950Y-101641527D01*
X214872022Y-101711620D01*
X214773890Y-101644569D01*
X214522000Y-101593560D01*
X213722000Y-101593560D01*
X213486683Y-101637838D01*
X213341905Y-101731000D01*
X212965473Y-101731000D01*
X212878811Y-101601302D01*
X212413264Y-101290233D01*
X211864113Y-101181000D01*
X211807887Y-101181000D01*
X211258736Y-101290233D01*
X210793189Y-101601302D01*
X210706527Y-101731000D01*
X205647446Y-101731000D01*
X205619162Y-101580683D01*
X205480090Y-101364559D01*
X205267890Y-101219569D01*
X205016000Y-101168560D01*
X203416000Y-101168560D01*
X203180683Y-101212838D01*
X202964559Y-101351910D01*
X202819569Y-101564110D01*
X202785773Y-101731000D01*
X200408001Y-101731000D01*
X200407996Y-101730999D01*
X200125512Y-101787190D01*
X200069321Y-101798367D01*
X199782206Y-101990210D01*
X199782204Y-101990213D01*
X197262209Y-104510207D01*
X197070366Y-104797322D01*
X197064527Y-104826675D01*
X197002998Y-105135997D01*
X197002999Y-105136002D01*
X197002999Y-109604200D01*
X196969724Y-109570867D01*
X196905633Y-109248666D01*
X196905633Y-109248665D01*
X196713790Y-108961550D01*
X196713787Y-108961548D01*
X196574449Y-108822209D01*
X196522603Y-108787567D01*
X196287334Y-108630366D01*
X196227016Y-108618368D01*
X195948659Y-108562998D01*
X195948654Y-108562999D01*
X188163949Y-108562999D01*
X188498730Y-108228801D01*
X188778681Y-107554605D01*
X188779318Y-106824597D01*
X188500545Y-106149914D01*
X188473000Y-106122321D01*
X188473000Y-99653490D01*
X188672681Y-99172605D01*
X188673318Y-98442597D01*
X188507381Y-98040999D01*
X191229419Y-98040999D01*
X191703116Y-98514695D01*
X191702760Y-98922285D01*
X191913169Y-99431515D01*
X192302436Y-99821461D01*
X192811298Y-100032759D01*
X193362285Y-100033240D01*
X193871515Y-99822831D01*
X194261461Y-99433564D01*
X194472759Y-98924702D01*
X194473240Y-98373715D01*
X194262831Y-97864485D01*
X193873564Y-97474539D01*
X193364702Y-97263241D01*
X192954462Y-97262883D01*
X192221789Y-96530209D01*
X191934674Y-96338366D01*
X191878483Y-96327189D01*
X191595999Y-96270998D01*
X191595994Y-96270999D01*
X182411972Y-96270999D01*
X182411967Y-96270998D01*
X182129483Y-96327189D01*
X182073292Y-96338366D01*
X181786177Y-96530209D01*
X181786175Y-96530212D01*
X180191376Y-98125012D01*
X179754988Y-98125012D01*
X179416313Y-98192379D01*
X179129198Y-98384222D01*
X179129196Y-98384225D01*
X172218304Y-105295116D01*
X171810715Y-105294760D01*
X171301485Y-105505169D01*
X170911539Y-105894436D01*
X170700241Y-106403298D01*
X170699760Y-106954285D01*
X170910169Y-107463515D01*
X171299436Y-107853461D01*
X171808298Y-108064759D01*
X172359285Y-108065240D01*
X172868515Y-107854831D01*
X173258461Y-107465564D01*
X173469759Y-106956702D01*
X173470117Y-106546463D01*
X180121567Y-99895012D01*
X180557950Y-99895012D01*
X180557955Y-99895013D01*
X180896630Y-99827645D01*
X180982902Y-99770000D01*
X181183745Y-99635802D01*
X181183747Y-99635799D01*
X182778546Y-98040999D01*
X185168748Y-98040999D01*
X185003319Y-98439395D01*
X185002682Y-99169403D01*
X185203000Y-99654210D01*
X185203000Y-105553000D01*
X180365381Y-105553000D01*
X179739694Y-105677457D01*
X179209261Y-106031880D01*
X179209259Y-106031883D01*
X171563880Y-113677261D01*
X171209457Y-114207693D01*
X171084999Y-114833381D01*
X171085000Y-114833386D01*
X171085000Y-115468489D01*
X170817521Y-115200543D01*
X170106584Y-114905337D01*
X169556723Y-114904857D01*
X182656113Y-101805466D01*
X182880000Y-101850000D01*
X183218675Y-101782633D01*
X183505790Y-101590790D01*
X183524978Y-101562073D01*
X183663515Y-101504831D01*
X184053461Y-101115564D01*
X184264759Y-100606702D01*
X184265240Y-100055715D01*
X184054831Y-99546485D01*
X183665564Y-99156539D01*
X183156702Y-98945241D01*
X182605715Y-98944760D01*
X182096485Y-99155169D01*
X181706539Y-99544436D01*
X181495241Y-100053298D01*
X181494883Y-100463538D01*
X161909885Y-120048535D01*
X161562540Y-120048535D01*
X161562535Y-120048534D01*
X161280051Y-120104725D01*
X161223860Y-120115902D01*
X160936745Y-120307745D01*
X160936743Y-120307748D01*
X159394210Y-121850280D01*
X159202367Y-122137395D01*
X159191190Y-122193586D01*
X159134999Y-122476070D01*
X159135000Y-122476075D01*
X159135000Y-122893423D01*
X158099000Y-123929423D01*
X158099000Y-121983240D01*
X168743018Y-111339221D01*
X168743021Y-111339219D01*
X169097444Y-110808786D01*
X169221901Y-110183099D01*
X169221901Y-102054906D01*
X169221902Y-102054901D01*
X169097444Y-101429213D01*
X168809457Y-100998210D01*
X168743021Y-100898781D01*
X168743018Y-100898779D01*
X166093386Y-98249146D01*
X165894545Y-97767914D01*
X165378801Y-97251270D01*
X164704605Y-96971319D01*
X163974597Y-96970682D01*
X163299914Y-97249455D01*
X162869619Y-97679000D01*
X151237440Y-97679000D01*
X151237440Y-97314000D01*
X151193162Y-97078683D01*
X151054090Y-96862559D01*
X150841890Y-96717569D01*
X150590000Y-96666560D01*
X148254800Y-96666560D01*
X146477525Y-94889285D01*
X187209760Y-94889285D01*
X187420169Y-95398515D01*
X187809436Y-95788461D01*
X188318298Y-95999759D01*
X188869285Y-96000240D01*
X189378515Y-95789831D01*
X189668852Y-95500000D01*
X194990560Y-95500000D01*
X194990560Y-95524000D01*
X195034838Y-95759317D01*
X195173910Y-95975441D01*
X195243711Y-96023134D01*
X195186559Y-96059910D01*
X195041569Y-96272110D01*
X194990560Y-96524000D01*
X194990560Y-97024000D01*
X195034838Y-97259317D01*
X195173910Y-97475441D01*
X195203000Y-97495317D01*
X195203000Y-97574477D01*
X194914539Y-97862436D01*
X194703241Y-98371298D01*
X194702760Y-98922285D01*
X194913169Y-99431515D01*
X195302436Y-99821461D01*
X195811298Y-100032759D01*
X196362285Y-100033240D01*
X196871515Y-99822831D01*
X197261461Y-99433564D01*
X197472759Y-98924702D01*
X197473240Y-98373715D01*
X197262831Y-97864485D01*
X196973000Y-97574148D01*
X196973000Y-97498669D01*
X196989441Y-97488090D01*
X197134431Y-97275890D01*
X197185440Y-97024000D01*
X197185440Y-96524000D01*
X197141162Y-96288683D01*
X197002090Y-96072559D01*
X196932289Y-96024866D01*
X196989441Y-95988090D01*
X197134431Y-95775890D01*
X197185440Y-95524000D01*
X197185440Y-95024000D01*
X197141162Y-94788683D01*
X197002090Y-94572559D01*
X196789890Y-94427569D01*
X196607141Y-94390561D01*
X196205790Y-93989210D01*
X196132276Y-93940090D01*
X195918675Y-93797367D01*
X195862484Y-93786190D01*
X195580000Y-93729999D01*
X195579995Y-93730000D01*
X194583440Y-93730000D01*
X194583440Y-93351000D01*
X194539162Y-93115683D01*
X194421000Y-92932054D01*
X194421000Y-88690580D01*
X194980420Y-88131160D01*
X195133395Y-88194681D01*
X195863403Y-88195318D01*
X196538086Y-87916545D01*
X197054730Y-87400801D01*
X197334681Y-86726605D01*
X197335318Y-85996597D01*
X197056545Y-85321914D01*
X196540801Y-84805270D01*
X195866605Y-84525319D01*
X195136597Y-84524682D01*
X194461914Y-84803455D01*
X193945270Y-85319199D01*
X193665319Y-85993395D01*
X193664682Y-86723403D01*
X193729104Y-86879316D01*
X192910210Y-87698210D01*
X192718367Y-87985325D01*
X192718367Y-87985326D01*
X192650999Y-88324000D01*
X192651000Y-88324005D01*
X192651000Y-92752737D01*
X192562309Y-92716000D01*
X192321750Y-92716000D01*
X192163000Y-92874750D01*
X192163000Y-93599000D01*
X192183000Y-93599000D01*
X192183000Y-93730000D01*
X189668523Y-93730000D01*
X189380564Y-93441539D01*
X188871702Y-93230241D01*
X188320715Y-93229760D01*
X187811485Y-93440169D01*
X187421539Y-93829436D01*
X187210241Y-94338298D01*
X187209760Y-94889285D01*
X146477525Y-94889285D01*
X146161000Y-94572760D01*
X146161000Y-92276000D01*
X169644560Y-92276000D01*
X169644560Y-93476000D01*
X169688838Y-93711317D01*
X169827910Y-93927441D01*
X170040110Y-94072431D01*
X170292000Y-94123440D01*
X172792000Y-94123440D01*
X173027317Y-94079162D01*
X173243441Y-93940090D01*
X173388431Y-93727890D01*
X173439440Y-93476000D01*
X173439440Y-92276000D01*
X181144560Y-92276000D01*
X181144560Y-93476000D01*
X181188838Y-93711317D01*
X181327910Y-93927441D01*
X181540110Y-94072431D01*
X181792000Y-94123440D01*
X184292000Y-94123440D01*
X184527317Y-94079162D01*
X184743441Y-93940090D01*
X184888431Y-93727890D01*
X184939440Y-93476000D01*
X184939440Y-93224690D01*
X191001000Y-93224690D01*
X191001000Y-93440250D01*
X191159750Y-93599000D01*
X191909000Y-93599000D01*
X191909000Y-92874750D01*
X191750250Y-92716000D01*
X191509691Y-92716000D01*
X191276302Y-92812673D01*
X191097673Y-92991301D01*
X191001000Y-93224690D01*
X184939440Y-93224690D01*
X184939440Y-92276000D01*
X184895162Y-92040683D01*
X184756090Y-91824559D01*
X184543890Y-91679569D01*
X184292000Y-91628560D01*
X181792000Y-91628560D01*
X181556683Y-91672838D01*
X181340559Y-91811910D01*
X181195569Y-92024110D01*
X181144560Y-92276000D01*
X173439440Y-92276000D01*
X173395162Y-92040683D01*
X173256090Y-91824559D01*
X173043890Y-91679569D01*
X172792000Y-91628560D01*
X170292000Y-91628560D01*
X170056683Y-91672838D01*
X169840559Y-91811910D01*
X169695569Y-92024110D01*
X169644560Y-92276000D01*
X146161000Y-92276000D01*
X146161000Y-90045207D01*
X159656665Y-90045207D01*
X159950630Y-90756658D01*
X160494479Y-91301457D01*
X161205416Y-91596663D01*
X161975207Y-91597335D01*
X162686658Y-91303370D01*
X163092230Y-90898505D01*
X163494479Y-91301457D01*
X164205416Y-91596663D01*
X164975207Y-91597335D01*
X165686658Y-91303370D01*
X165979539Y-91011000D01*
X169720808Y-91011000D01*
X169827910Y-91177441D01*
X170040110Y-91322431D01*
X170292000Y-91373440D01*
X172792000Y-91373440D01*
X173027317Y-91329162D01*
X173243441Y-91190090D01*
X173388431Y-90977890D01*
X173439440Y-90726000D01*
X173439440Y-89526000D01*
X181144560Y-89526000D01*
X181144560Y-90726000D01*
X181188838Y-90961317D01*
X181327910Y-91177441D01*
X181540110Y-91322431D01*
X181792000Y-91373440D01*
X184292000Y-91373440D01*
X184527317Y-91329162D01*
X184743441Y-91190090D01*
X184888431Y-90977890D01*
X184939440Y-90726000D01*
X184939440Y-89526000D01*
X184895162Y-89290683D01*
X184756090Y-89074559D01*
X184543890Y-88929569D01*
X184292000Y-88878560D01*
X181792000Y-88878560D01*
X181556683Y-88922838D01*
X181340559Y-89061910D01*
X181195569Y-89274110D01*
X181144560Y-89526000D01*
X173439440Y-89526000D01*
X173395162Y-89290683D01*
X173256090Y-89074559D01*
X173043890Y-88929569D01*
X172792000Y-88878560D01*
X170292000Y-88878560D01*
X170056683Y-88922838D01*
X169840559Y-89061910D01*
X169718192Y-89241000D01*
X166511719Y-89241000D01*
X166233370Y-88567342D01*
X165689521Y-88022543D01*
X164978584Y-87727337D01*
X164208793Y-87726665D01*
X163497342Y-88020630D01*
X163091770Y-88425495D01*
X162689521Y-88022543D01*
X161978584Y-87727337D01*
X161208793Y-87726665D01*
X160497342Y-88020630D01*
X159952543Y-88564479D01*
X159657337Y-89275416D01*
X159656665Y-90045207D01*
X146161000Y-90045207D01*
X146161000Y-88647427D01*
X146161284Y-88322205D01*
X145912894Y-87721057D01*
X145453363Y-87260722D01*
X144852648Y-87011284D01*
X144202205Y-87010716D01*
X143601057Y-87259106D01*
X143140722Y-87718637D01*
X143140437Y-87719324D01*
X133180760Y-97679000D01*
X125329440Y-97679000D01*
X125329440Y-97314000D01*
X125285162Y-97078683D01*
X125146090Y-96862559D01*
X124933890Y-96717569D01*
X124682000Y-96666560D01*
X120682000Y-96666560D01*
X120446683Y-96710838D01*
X120230559Y-96849910D01*
X120085569Y-97062110D01*
X120034560Y-97314000D01*
X120034560Y-101314000D01*
X120078838Y-101549317D01*
X120217910Y-101765441D01*
X120430110Y-101910431D01*
X120682000Y-101961440D01*
X124077861Y-101961440D01*
X124366208Y-102249787D01*
X124366210Y-102249790D01*
X124605848Y-102409910D01*
X124653325Y-102441633D01*
X124992000Y-102509000D01*
X126538854Y-102509000D01*
X126461569Y-102622110D01*
X126410560Y-102874000D01*
X126410560Y-103374000D01*
X126454838Y-103609317D01*
X126593910Y-103825441D01*
X126623000Y-103845317D01*
X126623000Y-104121421D01*
X123813653Y-106930767D01*
X123208433Y-106679458D01*
X122358957Y-106678717D01*
X119237000Y-103556760D01*
X119237000Y-96181240D01*
X125137239Y-90281000D01*
X129284573Y-90281000D01*
X129609795Y-90281284D01*
X130210943Y-90032894D01*
X130671278Y-89573363D01*
X130920716Y-88972648D01*
X130921284Y-88322205D01*
X130672894Y-87721057D01*
X130213363Y-87260722D01*
X129612648Y-87011284D01*
X128962205Y-87010716D01*
X128961518Y-87011000D01*
X124460005Y-87011000D01*
X124460000Y-87010999D01*
X123834313Y-87135457D01*
X123303880Y-87489880D01*
X123303878Y-87489883D01*
X116445880Y-94347880D01*
X116091457Y-94878312D01*
X115966999Y-95504000D01*
X115967000Y-95504005D01*
X115967000Y-104233995D01*
X115966999Y-104234000D01*
X116091457Y-104859688D01*
X116445880Y-105390120D01*
X120047280Y-108991520D01*
X120046543Y-109835834D01*
X120446853Y-110804658D01*
X121187443Y-111546542D01*
X122155567Y-111948542D01*
X123203834Y-111949457D01*
X124172658Y-111549147D01*
X124773854Y-110949000D01*
X146498943Y-110949000D01*
X147095443Y-111546542D01*
X148063567Y-111948542D01*
X149111834Y-111949457D01*
X150080658Y-111549147D01*
X150681854Y-110949000D01*
X162317995Y-110949000D01*
X162318000Y-110949001D01*
X162943688Y-110824543D01*
X163474120Y-110470120D01*
X165000854Y-108943386D01*
X165482086Y-108744545D01*
X165951901Y-108275548D01*
X165951901Y-109505860D01*
X155307880Y-120149880D01*
X154953457Y-120680312D01*
X154828999Y-121306000D01*
X154829000Y-121306005D01*
X154829000Y-124206000D01*
X154916560Y-124646193D01*
X154916560Y-125106000D01*
X154960838Y-125341317D01*
X155099910Y-125557441D01*
X155312110Y-125702431D01*
X155564000Y-125753440D01*
X156023807Y-125753440D01*
X156233309Y-125795113D01*
X155753421Y-126275001D01*
X145661440Y-126275001D01*
X145661440Y-125841000D01*
X151384000Y-125841000D01*
X152009687Y-125716543D01*
X152540120Y-125362120D01*
X152894543Y-124831687D01*
X153019000Y-124206000D01*
X152894543Y-123580313D01*
X152540120Y-123049880D01*
X152009687Y-122695457D01*
X151384000Y-122571000D01*
X145661440Y-122571000D01*
X145661440Y-122210000D01*
X145617162Y-121974683D01*
X145478090Y-121758559D01*
X145265890Y-121613569D01*
X145014000Y-121562560D01*
X144178800Y-121562560D01*
X141670120Y-119053880D01*
X141139688Y-118699457D01*
X140514000Y-118574999D01*
X140513995Y-118575000D01*
X118334005Y-118575000D01*
X118334000Y-118574999D01*
X117708312Y-118699457D01*
X117177880Y-119053880D01*
X114621229Y-121610531D01*
X114362642Y-121661967D01*
X113751104Y-122070584D01*
X113342487Y-122682122D01*
X113199000Y-123403480D01*
X113199000Y-125516520D01*
X113342487Y-126237878D01*
X113751104Y-126849416D01*
X114362642Y-127258033D01*
X115084000Y-127401520D01*
X115805358Y-127258033D01*
X116416896Y-126849416D01*
X116825513Y-126237878D01*
X116969000Y-125516520D01*
X116969000Y-123887240D01*
X119011240Y-121845000D01*
X119538714Y-121845000D01*
X119201104Y-122070584D01*
X118792487Y-122682122D01*
X118649000Y-123403480D01*
X118649000Y-125516520D01*
X118792487Y-126237878D01*
X119201104Y-126849416D01*
X119812642Y-127258033D01*
X120534000Y-127401520D01*
X121109472Y-127287051D01*
X121330421Y-127508000D01*
X109982000Y-127508000D01*
X109982000Y-82718815D01*
X128278630Y-82718815D01*
X128602980Y-83503800D01*
X128779000Y-83680127D01*
X128779000Y-84693995D01*
X128778999Y-84694000D01*
X128903457Y-85319688D01*
X129257880Y-85850120D01*
X133209443Y-89801683D01*
X133438637Y-90031278D01*
X134039352Y-90280716D01*
X134689795Y-90281284D01*
X135290943Y-90032894D01*
X135751278Y-89573363D01*
X136000716Y-88972648D01*
X136001284Y-88322205D01*
X135752894Y-87721057D01*
X135293363Y-87260722D01*
X135292677Y-87260437D01*
X132049000Y-84016760D01*
X132049000Y-83680565D01*
X132222909Y-83506959D01*
X132548628Y-82722541D01*
X132549370Y-81873185D01*
X132225020Y-81088200D01*
X131624959Y-80487091D01*
X130840541Y-80161372D01*
X129991185Y-80160630D01*
X129206200Y-80484980D01*
X128605091Y-81085041D01*
X128279372Y-81869459D01*
X128278630Y-82718815D01*
X109982000Y-82718815D01*
X109982000Y-75616854D01*
X114528457Y-75616854D01*
X115004727Y-76769515D01*
X115885847Y-77652174D01*
X117037674Y-78130454D01*
X118284854Y-78131543D01*
X119437515Y-77655273D01*
X120320174Y-76774153D01*
X120798454Y-75622326D01*
X120798458Y-75616854D01*
X154028457Y-75616854D01*
X154504727Y-76769515D01*
X155385847Y-77652174D01*
X156537674Y-78130454D01*
X157784854Y-78131543D01*
X158937515Y-77655273D01*
X159820174Y-76774153D01*
X160298454Y-75622326D01*
X160299543Y-74375146D01*
X159823273Y-73222485D01*
X158942153Y-72339826D01*
X157790326Y-71861546D01*
X156543146Y-71860457D01*
X155390485Y-72336727D01*
X154507826Y-73217847D01*
X154029546Y-74369674D01*
X154028457Y-75616854D01*
X120798458Y-75616854D01*
X120799543Y-74375146D01*
X120323273Y-73222485D01*
X119442153Y-72339826D01*
X118290326Y-71861546D01*
X117043146Y-71860457D01*
X115890485Y-72336727D01*
X115007826Y-73217847D01*
X114529546Y-74369674D01*
X114528457Y-75616854D01*
X109982000Y-75616854D01*
X109982000Y-71229403D01*
X164336682Y-71229403D01*
X164615455Y-71904086D01*
X165131199Y-72420730D01*
X165805395Y-72700681D01*
X166535403Y-72701318D01*
X167210086Y-72422545D01*
X167726730Y-71906801D01*
X167824560Y-71671201D01*
X167824560Y-72066000D01*
X167868838Y-72301317D01*
X168007910Y-72517441D01*
X168220110Y-72662431D01*
X168472000Y-72713440D01*
X169930000Y-72713440D01*
X169930000Y-74090331D01*
X169913559Y-74100910D01*
X169768569Y-74313110D01*
X169717560Y-74565000D01*
X169717560Y-75065000D01*
X169761838Y-75300317D01*
X169900910Y-75516441D01*
X169970711Y-75564134D01*
X169913559Y-75600910D01*
X169768569Y-75813110D01*
X169717560Y-76065000D01*
X169717560Y-76565000D01*
X169761838Y-76800317D01*
X169900910Y-77016441D01*
X170113110Y-77161431D01*
X170365000Y-77212440D01*
X170460861Y-77212440D01*
X170709208Y-77460787D01*
X170709210Y-77460790D01*
X170996325Y-77652633D01*
X171052516Y-77663810D01*
X171335000Y-77720001D01*
X171335005Y-77720000D01*
X172281477Y-77720000D01*
X172569436Y-78008461D01*
X173078298Y-78219759D01*
X173629285Y-78220240D01*
X174138515Y-78009831D01*
X174528461Y-77620564D01*
X174739759Y-77111702D01*
X174740240Y-76560715D01*
X174529831Y-76051485D01*
X174140564Y-75661539D01*
X173631702Y-75450241D01*
X173080715Y-75449760D01*
X172571485Y-75660169D01*
X172281148Y-75950000D01*
X171890801Y-75950000D01*
X171868162Y-75829683D01*
X171729090Y-75613559D01*
X171659289Y-75565866D01*
X171716441Y-75529090D01*
X171861431Y-75316890D01*
X171912440Y-75065000D01*
X171912440Y-74565000D01*
X171868162Y-74329683D01*
X171729090Y-74113559D01*
X171700000Y-74093683D01*
X171700000Y-72009005D01*
X171700001Y-72009000D01*
X171632633Y-71670325D01*
X171546889Y-71542000D01*
X171519440Y-71500919D01*
X171519440Y-70547403D01*
X179012682Y-70547403D01*
X179291455Y-71222086D01*
X179807199Y-71738730D01*
X180481395Y-72018681D01*
X181211403Y-72019318D01*
X181886086Y-71740545D01*
X182402730Y-71224801D01*
X182682681Y-70550605D01*
X182683318Y-69820597D01*
X182404545Y-69145914D01*
X181888801Y-68629270D01*
X181214605Y-68349319D01*
X180484597Y-68348682D01*
X179809914Y-68627455D01*
X179293270Y-69143199D01*
X179013319Y-69817395D01*
X179012682Y-70547403D01*
X171519440Y-70547403D01*
X171519440Y-69666000D01*
X171475162Y-69430683D01*
X171336090Y-69214559D01*
X171123890Y-69069569D01*
X170872000Y-69018560D01*
X168472000Y-69018560D01*
X168236683Y-69062838D01*
X168020559Y-69201910D01*
X167875569Y-69414110D01*
X167824560Y-69666000D01*
X167824560Y-70060288D01*
X167728545Y-69827914D01*
X167212801Y-69311270D01*
X166538605Y-69031319D01*
X165808597Y-69030682D01*
X165133914Y-69309455D01*
X164617270Y-69825199D01*
X164337319Y-70499395D01*
X164336682Y-71229403D01*
X109982000Y-71229403D01*
X109982000Y-66802000D01*
X192259046Y-66802000D01*
X192190000Y-66968691D01*
G36*
X184540560Y-113255000D02*
X184584838Y-113490317D01*
X184603000Y-113518542D01*
X184603000Y-115881451D01*
X184404000Y-116179275D01*
X184148698Y-115797189D01*
X183683151Y-115486120D01*
X183134000Y-115376887D01*
X182584849Y-115486120D01*
X182119302Y-115797189D01*
X181849014Y-116201703D01*
X181746389Y-115984866D01*
X181331423Y-115608959D01*
X181249852Y-115575174D01*
X181357327Y-115467698D01*
X181454000Y-115234309D01*
X181454000Y-115093750D01*
X181295250Y-114935000D01*
X180706500Y-114935000D01*
X180706500Y-115584250D01*
X180721000Y-115598750D01*
X180721000Y-116713000D01*
X180741000Y-116713000D01*
X180741000Y-116967000D01*
X180721000Y-116967000D01*
X180721000Y-118109915D01*
X180943039Y-118231904D01*
X181331423Y-118071041D01*
X181746389Y-117695134D01*
X181849014Y-117478297D01*
X182119302Y-117882811D01*
X182584849Y-118193880D01*
X183134000Y-118303113D01*
X183683151Y-118193880D01*
X184148698Y-117882811D01*
X184404000Y-117500725D01*
X184659302Y-117882811D01*
X185124849Y-118193880D01*
X185674000Y-118303113D01*
X186078999Y-118222554D01*
X186078999Y-122803421D01*
X185850437Y-123031983D01*
X185674000Y-122996887D01*
X185124849Y-123106120D01*
X184659302Y-123417189D01*
X184404000Y-123799275D01*
X184148698Y-123417189D01*
X183683151Y-123106120D01*
X183134000Y-122996887D01*
X182584849Y-123106120D01*
X182119302Y-123417189D01*
X182022899Y-123561465D01*
X181997162Y-123424683D01*
X181858090Y-123208559D01*
X181645890Y-123063569D01*
X181394000Y-123012560D01*
X181074606Y-123012560D01*
X181126484Y-122887625D01*
X181126965Y-122336638D01*
X180916556Y-121827408D01*
X180527289Y-121437462D01*
X180018427Y-121226164D01*
X179467440Y-121225683D01*
X178958210Y-121436092D01*
X178568264Y-121825359D01*
X178356966Y-122334221D01*
X178356608Y-122744461D01*
X176327078Y-124773990D01*
X170485590Y-124773990D01*
X175095788Y-120163791D01*
X175095791Y-120163789D01*
X175287634Y-119876674D01*
X175355001Y-119537999D01*
X175355001Y-117863577D01*
X176029536Y-117189041D01*
X179202086Y-117189041D01*
X179441611Y-117695134D01*
X179856577Y-118071041D01*
X180244961Y-118231904D01*
X180467000Y-118109915D01*
X180467000Y-116967000D01*
X179323371Y-116967000D01*
X179202086Y-117189041D01*
X176029536Y-117189041D01*
X176727618Y-116490959D01*
X179202086Y-116490959D01*
X179323371Y-116713000D01*
X180467000Y-116713000D01*
X180467000Y-115598750D01*
X180481500Y-115584250D01*
X180481500Y-114935000D01*
X179892750Y-114935000D01*
X179734000Y-115093750D01*
X179734000Y-115234309D01*
X179830673Y-115467698D01*
X179938148Y-115575174D01*
X179856577Y-115608959D01*
X179441611Y-115984866D01*
X179202086Y-116490959D01*
X176727618Y-116490959D01*
X178836886Y-114381691D01*
X179734000Y-114381691D01*
X179734000Y-114522250D01*
X179892750Y-114681000D01*
X180481500Y-114681000D01*
X180481500Y-114031750D01*
X180706500Y-114031750D01*
X180706500Y-114681000D01*
X181295250Y-114681000D01*
X181454000Y-114522250D01*
X181454000Y-114381691D01*
X181357327Y-114148302D01*
X181178699Y-113969673D01*
X180945310Y-113873000D01*
X180865250Y-113873000D01*
X180706500Y-114031750D01*
X180481500Y-114031750D01*
X180322750Y-113873000D01*
X180242690Y-113873000D01*
X180009301Y-113969673D01*
X179830673Y-114148302D01*
X179734000Y-114381691D01*
X178836886Y-114381691D01*
X179847834Y-113370743D01*
X179904910Y-113459441D01*
X180117110Y-113604431D01*
X180369000Y-113655440D01*
X180819000Y-113655440D01*
X181054317Y-113611162D01*
X181082542Y-113593000D01*
X182550913Y-113593000D01*
X182623910Y-113706441D01*
X182836110Y-113851431D01*
X183088000Y-113902440D01*
X183324853Y-113902440D01*
X183388000Y-113915001D01*
X183388005Y-113915000D01*
X183462995Y-113915000D01*
X183463000Y-113915001D01*
X183526147Y-113902440D01*
X183688000Y-113902440D01*
X183923317Y-113858162D01*
X184139441Y-113719090D01*
X184284431Y-113506890D01*
X184296300Y-113448280D01*
X184540560Y-113204020D01*
X184540560Y-113255000D01*
X184540560Y-113255000D01*
G37*
X184540560Y-113255000D02*
X184584838Y-113490317D01*
X184603000Y-113518542D01*
X184603000Y-115881451D01*
X184404000Y-116179275D01*
X184148698Y-115797189D01*
X183683151Y-115486120D01*
X183134000Y-115376887D01*
X182584849Y-115486120D01*
X182119302Y-115797189D01*
X181849014Y-116201703D01*
X181746389Y-115984866D01*
X181331423Y-115608959D01*
X181249852Y-115575174D01*
X181357327Y-115467698D01*
X181454000Y-115234309D01*
X181454000Y-115093750D01*
X181295250Y-114935000D01*
X180706500Y-114935000D01*
X180706500Y-115584250D01*
X180721000Y-115598750D01*
X180721000Y-116713000D01*
X180741000Y-116713000D01*
X180741000Y-116967000D01*
X180721000Y-116967000D01*
X180721000Y-118109915D01*
X180943039Y-118231904D01*
X181331423Y-118071041D01*
X181746389Y-117695134D01*
X181849014Y-117478297D01*
X182119302Y-117882811D01*
X182584849Y-118193880D01*
X183134000Y-118303113D01*
X183683151Y-118193880D01*
X184148698Y-117882811D01*
X184404000Y-117500725D01*
X184659302Y-117882811D01*
X185124849Y-118193880D01*
X185674000Y-118303113D01*
X186078999Y-118222554D01*
X186078999Y-122803421D01*
X185850437Y-123031983D01*
X185674000Y-122996887D01*
X185124849Y-123106120D01*
X184659302Y-123417189D01*
X184404000Y-123799275D01*
X184148698Y-123417189D01*
X183683151Y-123106120D01*
X183134000Y-122996887D01*
X182584849Y-123106120D01*
X182119302Y-123417189D01*
X182022899Y-123561465D01*
X181997162Y-123424683D01*
X181858090Y-123208559D01*
X181645890Y-123063569D01*
X181394000Y-123012560D01*
X181074606Y-123012560D01*
X181126484Y-122887625D01*
X181126965Y-122336638D01*
X180916556Y-121827408D01*
X180527289Y-121437462D01*
X180018427Y-121226164D01*
X179467440Y-121225683D01*
X178958210Y-121436092D01*
X178568264Y-121825359D01*
X178356966Y-122334221D01*
X178356608Y-122744461D01*
X176327078Y-124773990D01*
X170485590Y-124773990D01*
X175095788Y-120163791D01*
X175095791Y-120163789D01*
X175287634Y-119876674D01*
X175355001Y-119537999D01*
X175355001Y-117863577D01*
X176029536Y-117189041D01*
X179202086Y-117189041D01*
X179441611Y-117695134D01*
X179856577Y-118071041D01*
X180244961Y-118231904D01*
X180467000Y-118109915D01*
X180467000Y-116967000D01*
X179323371Y-116967000D01*
X179202086Y-117189041D01*
X176029536Y-117189041D01*
X176727618Y-116490959D01*
X179202086Y-116490959D01*
X179323371Y-116713000D01*
X180467000Y-116713000D01*
X180467000Y-115598750D01*
X180481500Y-115584250D01*
X180481500Y-114935000D01*
X179892750Y-114935000D01*
X179734000Y-115093750D01*
X179734000Y-115234309D01*
X179830673Y-115467698D01*
X179938148Y-115575174D01*
X179856577Y-115608959D01*
X179441611Y-115984866D01*
X179202086Y-116490959D01*
X176727618Y-116490959D01*
X178836886Y-114381691D01*
X179734000Y-114381691D01*
X179734000Y-114522250D01*
X179892750Y-114681000D01*
X180481500Y-114681000D01*
X180481500Y-114031750D01*
X180706500Y-114031750D01*
X180706500Y-114681000D01*
X181295250Y-114681000D01*
X181454000Y-114522250D01*
X181454000Y-114381691D01*
X181357327Y-114148302D01*
X181178699Y-113969673D01*
X180945310Y-113873000D01*
X180865250Y-113873000D01*
X180706500Y-114031750D01*
X180481500Y-114031750D01*
X180322750Y-113873000D01*
X180242690Y-113873000D01*
X180009301Y-113969673D01*
X179830673Y-114148302D01*
X179734000Y-114381691D01*
X178836886Y-114381691D01*
X179847834Y-113370743D01*
X179904910Y-113459441D01*
X180117110Y-113604431D01*
X180369000Y-113655440D01*
X180819000Y-113655440D01*
X181054317Y-113611162D01*
X181082542Y-113593000D01*
X182550913Y-113593000D01*
X182623910Y-113706441D01*
X182836110Y-113851431D01*
X183088000Y-113902440D01*
X183324853Y-113902440D01*
X183388000Y-113915001D01*
X183388005Y-113915000D01*
X183462995Y-113915000D01*
X183463000Y-113915001D01*
X183526147Y-113902440D01*
X183688000Y-113902440D01*
X183923317Y-113858162D01*
X184139441Y-113719090D01*
X184284431Y-113506890D01*
X184296300Y-113448280D01*
X184540560Y-113204020D01*
X184540560Y-113255000D01*
M02*
