G04 #@! TF.FileFunction,Soldermask,Bot*
%FSLAX46Y46*%
G04 Gerber Fmt 4.6, Leading zero omitted, Abs format (unit mm)*
G04 Created by KiCad (PCBNEW 4.0.7) date 01/05/18 17:04:07*
%MOMM*%
%LPD*%
G01*
G04 APERTURE LIST*
%ADD10C,0.100000*%
%ADD11C,2.400000*%
%ADD12R,2.800000X2.800000*%
%ADD13C,2.800000*%
%ADD14R,2.200000X2.200000*%
%ADD15O,2.200000X2.200000*%
%ADD16C,3.400000*%
%ADD17C,5.400000*%
%ADD18C,2.900000*%
%ADD19C,3.000000*%
%ADD20R,2.900000X4.900000*%
%ADD21O,2.900000X4.900000*%
%ADD22R,2.000000X2.000000*%
%ADD23O,2.000000X2.000000*%
%ADD24C,1.900000*%
%ADD25R,4.400000X4.400000*%
%ADD26C,4.400000*%
%ADD27R,2.100000X2.100000*%
%ADD28O,2.100000X2.100000*%
G04 APERTURE END LIST*
D10*
D11*
X83439000Y-104140000D03*
X83439000Y-109140000D03*
X83439000Y-99140000D03*
D12*
X180848000Y-75184000D03*
D13*
X180848000Y-70184000D03*
D12*
X207264000Y-70104000D03*
D13*
X207264000Y-75104000D03*
D12*
X190500000Y-86360000D03*
D13*
X195500000Y-86360000D03*
D11*
X139446000Y-88646000D03*
X134366000Y-88646000D03*
X129286000Y-88646000D03*
X144526000Y-88646000D03*
D14*
X156464000Y-124206000D03*
D15*
X151384000Y-124206000D03*
D14*
X168402000Y-124206000D03*
D15*
X163322000Y-124206000D03*
D13*
X166172000Y-70866000D03*
D12*
X169672000Y-70866000D03*
D16*
X137414000Y-82296000D03*
X144414000Y-82296000D03*
X130414000Y-82296000D03*
D17*
X157164000Y-74996000D03*
X117664000Y-74996000D03*
D11*
X84399000Y-91186000D03*
D18*
X88899000Y-91186000D03*
X86899000Y-89336000D03*
X86899000Y-93036000D03*
D19*
X172720000Y-116840000D03*
X169720000Y-116840000D03*
X164592000Y-89662000D03*
X161592000Y-89662000D03*
D20*
X125984000Y-124460000D03*
D21*
X120534000Y-124460000D03*
X115084000Y-124460000D03*
D20*
X143764000Y-124460000D03*
D21*
X138314000Y-124460000D03*
X132864000Y-124460000D03*
D11*
X83439000Y-123872000D03*
X83439000Y-128872000D03*
X83439000Y-118872000D03*
D22*
X180594000Y-124460000D03*
D23*
X195834000Y-116840000D03*
X183134000Y-124460000D03*
X193294000Y-116840000D03*
X185674000Y-124460000D03*
X190754000Y-116840000D03*
X188214000Y-124460000D03*
X188214000Y-116840000D03*
X190754000Y-124460000D03*
X185674000Y-116840000D03*
X193294000Y-124460000D03*
X183134000Y-116840000D03*
X195834000Y-124460000D03*
X180594000Y-116840000D03*
D22*
X204216000Y-102616000D03*
D23*
X211836000Y-110236000D03*
X204216000Y-105156000D03*
X211836000Y-107696000D03*
X204216000Y-107696000D03*
X211836000Y-105156000D03*
X204216000Y-110236000D03*
X211836000Y-102616000D03*
D22*
X203962000Y-116332000D03*
D23*
X211582000Y-123952000D03*
X203962000Y-118872000D03*
X211582000Y-121412000D03*
X203962000Y-121412000D03*
X211582000Y-118872000D03*
X203962000Y-123952000D03*
X211582000Y-116332000D03*
D22*
X89027000Y-79756000D03*
D23*
X96647000Y-72136000D03*
X91567000Y-79756000D03*
X94107000Y-72136000D03*
X94107000Y-79756000D03*
X91567000Y-72136000D03*
X96647000Y-79756000D03*
X89027000Y-72136000D03*
D22*
X88011000Y-110744000D03*
D23*
X95631000Y-103124000D03*
X90551000Y-110744000D03*
X93091000Y-103124000D03*
X93091000Y-110744000D03*
X90551000Y-103124000D03*
X95631000Y-110744000D03*
X88011000Y-103124000D03*
D22*
X99408000Y-130500999D03*
D23*
X107028000Y-122880999D03*
X101948000Y-130500999D03*
X104488000Y-122880999D03*
X104488000Y-130500999D03*
X101948000Y-122880999D03*
X107028000Y-130500999D03*
X99408000Y-122880999D03*
D22*
X88011000Y-130302000D03*
D23*
X95631000Y-122682000D03*
X90551000Y-130302000D03*
X93091000Y-122682000D03*
X93091000Y-130302000D03*
X90551000Y-122682000D03*
X95631000Y-130302000D03*
X88011000Y-122682000D03*
D22*
X204216000Y-92964000D03*
D23*
X211836000Y-98044000D03*
X204216000Y-95504000D03*
X211836000Y-95504000D03*
X204216000Y-98044000D03*
X211836000Y-92964000D03*
D24*
X193088000Y-110648000D03*
X196088000Y-110648000D03*
X193088000Y-98648000D03*
X196088000Y-98648000D03*
X199088000Y-110648000D03*
X199088000Y-98648000D03*
D13*
X164338000Y-98806000D03*
X186838000Y-98806000D03*
X186944000Y-107188000D03*
X164444000Y-107188000D03*
D25*
X148590000Y-99314000D03*
D26*
X148590000Y-109314000D03*
D25*
X122682000Y-99314000D03*
D26*
X122682000Y-109314000D03*
D27*
X101727000Y-68580000D03*
D28*
X104267000Y-68580000D03*
X106807000Y-68580000D03*
D27*
X193675000Y-67945000D03*
D28*
X196215000Y-67945000D03*
X198755000Y-67945000D03*
M02*
