M48
;DRILL file {KiCad 4.0.7} date 01/05/18 17:35:20
;FORMAT={2:4/ absolute / inch / suppress leading zeros}
FMAT,2
INCH,TZ
T1C0.016
T2C0.031
T3C0.035
T4C0.039
T5C0.047
T6C0.049
T7C0.051
T8C0.059
T9C0.071
T10C0.079
T11C0.138
%
G90
G05
M72
T1
X33814Y-32281
X35500Y-45500
X36000Y-37000
X37500Y-37250
X37750Y-42000
X38248Y-45342
X38250Y-34000
X38500Y-42500
X38500Y-46750
X39500Y-35750
X39500Y-44750
X40000Y-34250
X40000Y-47500
X40006Y-46256
X40500Y-47000
X40631Y-45631
X41750Y-32750
X41750Y-44164
X42000Y-47750
T2
X34650Y-40600
X34650Y-43600
X34650Y-48300
X34650Y-51300
X35050Y-28400
X35050Y-31400
X35650Y-40600
X35650Y-43600
X35650Y-48300
X35650Y-51300
X36050Y-28400
X36050Y-31400
X36650Y-40600
X36650Y-43600
X36650Y-48300
X36650Y-51300
X37050Y-28400
X37050Y-31400
X37650Y-40600
X37650Y-43600
X37650Y-48300
X37650Y-51300
X38050Y-28400
X38050Y-31400
X39137Y-48378
X39137Y-51378
X40137Y-48378
X40137Y-51378
X41137Y-48378
X41137Y-51378
X42137Y-48378
X42137Y-51378
X71100Y-46000
X71100Y-49000
X72100Y-46000
X72100Y-49000
X73100Y-46000
X73100Y-49000
X74100Y-46000
X74100Y-49000
X75100Y-46000
X75100Y-49000
X76019Y-38838
X76019Y-43562
X76100Y-46000
X76100Y-49000
X77100Y-46000
X77100Y-49000
X77200Y-38838
X78381Y-38838
X78381Y-43562
X80300Y-45800
X80300Y-46800
X80300Y-47800
X80300Y-48800
X80400Y-36600
X80400Y-37600
X80400Y-38600
X80400Y-40400
X80400Y-41400
X80400Y-42400
X80400Y-43400
X83300Y-45800
X83300Y-46800
X83300Y-47800
X83300Y-48800
X83400Y-36600
X83400Y-37600
X83400Y-38600
X83400Y-40400
X83400Y-41400
X83400Y-42400
X83400Y-43400
T3
X77200Y-43562
T4
X40050Y-27000
X41050Y-27000
X42050Y-27000
X59600Y-48900
X61600Y-48900
X63834Y-48084
X64300Y-48900
X66000Y-31250
X66300Y-48900
X67750Y-42000
X68250Y-30250
X68500Y-39000
X68750Y-32250
X70000Y-46000
X70764Y-48272
X72000Y-39500
X73500Y-30500
X73750Y-29250
X74250Y-37250
X74500Y-43750
X75250Y-45000
X76250Y-26750
X77250Y-26750
X77750Y-31000
X78250Y-26750
X78750Y-41250
X79651Y-31201
X80250Y-31500
X81500Y-47250
X83250Y-28250
X84250Y-44750
T5
X32850Y-39031
X32850Y-41000
X32850Y-46800
X32850Y-48769
X33228Y-35900
X50900Y-34900
X52900Y-34900
X54900Y-34900
X56900Y-34900
X64700Y-38900
X64742Y-42200
X65422Y-27900
X66800Y-27900
X71200Y-27631
X71200Y-29600
X73558Y-38900
X73600Y-42200
X75000Y-34000
X76969Y-34000
X81600Y-27600
X81600Y-29569
T6
X32850Y-42969
X32850Y-50737
T7
X63619Y-35300
X64800Y-35300
X66819Y-46000
X68000Y-46000
T8
X34212Y-35172
X34212Y-36628
X35000Y-35900
X45309Y-49000
X47454Y-49000
X49600Y-49000
X52309Y-49000
X54454Y-49000
X56600Y-49000
T9
X51344Y-32400
X54100Y-32400
X56856Y-32400
T10
X48300Y-39100
X48300Y-43037
X58500Y-39100
X58500Y-43037
T11
X46324Y-29526
X61876Y-29526
T0
M30
