G04 #@! TF.FileFunction,Profile,NP*
%FSLAX46Y46*%
G04 Gerber Fmt 4.6, Leading zero omitted, Abs format (unit mm)*
G04 Created by KiCad (PCBNEW 4.0.7) date 01/05/18 17:34:34*
%MOMM*%
%LPD*%
G01*
G04 APERTURE LIST*
%ADD10C,0.100000*%
%ADD11C,0.150000*%
G04 APERTURE END LIST*
D10*
D11*
X108585000Y-124460000D02*
X109220000Y-124460000D01*
X108585000Y-127000000D02*
X108585000Y-124460000D01*
X109220000Y-127000000D02*
X108585000Y-127000000D01*
X109220000Y-124460000D02*
X109220000Y-127000000D01*
X108585000Y-118110000D02*
X109220000Y-118110000D01*
X108585000Y-123190000D02*
X108585000Y-118110000D01*
X109220000Y-123190000D02*
X108585000Y-123190000D01*
X109220000Y-118110000D02*
X109220000Y-123190000D01*
X108585000Y-111760000D02*
X109220000Y-111760000D01*
X108585000Y-116840000D02*
X108585000Y-111760000D01*
X109220000Y-116840000D02*
X108585000Y-116840000D01*
X109220000Y-111760000D02*
X109220000Y-116840000D01*
X108585000Y-105410000D02*
X109220000Y-105410000D01*
X108585000Y-110490000D02*
X108585000Y-105410000D01*
X109220000Y-110490000D02*
X108585000Y-110490000D01*
X109220000Y-105410000D02*
X109220000Y-110490000D01*
X108585000Y-99060000D02*
X109220000Y-99060000D01*
X108585000Y-104140000D02*
X108585000Y-99060000D01*
X109220000Y-104140000D02*
X108585000Y-104140000D01*
X109220000Y-99060000D02*
X109220000Y-104140000D01*
X108585000Y-92710000D02*
X109220000Y-92710000D01*
X108585000Y-97790000D02*
X108585000Y-92710000D01*
X109220000Y-97790000D02*
X108585000Y-97790000D01*
X109220000Y-92710000D02*
X109220000Y-97790000D01*
X108585000Y-86360000D02*
X109220000Y-86360000D01*
X108585000Y-91440000D02*
X108585000Y-86360000D01*
X109220000Y-91440000D02*
X108585000Y-91440000D01*
X109220000Y-86360000D02*
X109220000Y-91440000D01*
X108585000Y-80010000D02*
X109220000Y-80010000D01*
X108585000Y-85090000D02*
X108585000Y-80010000D01*
X109220000Y-85090000D02*
X108585000Y-85090000D01*
X109220000Y-80010000D02*
X109220000Y-85090000D01*
X108585000Y-78740000D02*
X108585000Y-73660000D01*
X109220000Y-78740000D02*
X108585000Y-78740000D01*
X109220000Y-73660000D02*
X109220000Y-78740000D01*
X108585000Y-73660000D02*
X109220000Y-73660000D01*
X108585000Y-72390000D02*
X108585000Y-67310000D01*
X109220000Y-72390000D02*
X108585000Y-72390000D01*
X109220000Y-67310000D02*
X109220000Y-72390000D01*
X108585000Y-67310000D02*
X109220000Y-67310000D01*
X108585000Y-66040000D02*
X109220000Y-66040000D01*
X108585000Y-128270000D02*
X109220000Y-128270000D01*
X108585000Y-132080000D02*
X108585000Y-128270000D01*
X80645000Y-66040000D02*
X80645000Y-132080000D01*
X108585000Y-66040000D02*
X80645000Y-66040000D01*
X80645000Y-132080000D02*
X108585000Y-132080000D01*
X217805000Y-66040000D02*
X109220000Y-66040000D01*
X217805000Y-128270000D02*
X217805000Y-66040000D01*
X109220000Y-128270000D02*
X217805000Y-128270000D01*
M02*
