G04 #@! TF.FileFunction,Legend,Top*
%FSLAX46Y46*%
G04 Gerber Fmt 4.6, Leading zero omitted, Abs format (unit mm)*
G04 Created by KiCad (PCBNEW 4.0.7) date 01/05/18 17:34:34*
%MOMM*%
%LPD*%
G01*
G04 APERTURE LIST*
%ADD10C,0.100000*%
%ADD11C,0.120000*%
%ADD12C,0.150000*%
G04 APERTURE END LIST*
D10*
D11*
X192360000Y-114026000D02*
X192360000Y-113026000D01*
X193720000Y-113026000D02*
X193720000Y-114026000D01*
D12*
X78359000Y-99060000D02*
X78359000Y-109220000D01*
X80899000Y-99060000D02*
X80899000Y-107950000D01*
X85979000Y-96520000D02*
X80899000Y-96520000D01*
X80899000Y-96520000D02*
X80899000Y-99060000D01*
X80899000Y-99060000D02*
X78359000Y-99060000D01*
X78359000Y-109220000D02*
X80899000Y-109220000D01*
X80899000Y-107950000D02*
X80899000Y-111760000D01*
X80899000Y-111760000D02*
X85979000Y-111760000D01*
X85979000Y-111760000D02*
X85979000Y-96520000D01*
D11*
X187188000Y-72684000D02*
G75*
G03X187188000Y-72684000I-6340000J0D01*
G01*
X174548000Y-72684000D02*
X187148000Y-72684000D01*
X174548000Y-72644000D02*
X187148000Y-72644000D01*
X174548000Y-72604000D02*
X187148000Y-72604000D01*
X174549000Y-72564000D02*
X187147000Y-72564000D01*
X174550000Y-72524000D02*
X187146000Y-72524000D01*
X174551000Y-72484000D02*
X187145000Y-72484000D01*
X174552000Y-72444000D02*
X187144000Y-72444000D01*
X174554000Y-72404000D02*
X187142000Y-72404000D01*
X174556000Y-72364000D02*
X187140000Y-72364000D01*
X174558000Y-72324000D02*
X187138000Y-72324000D01*
X174560000Y-72284000D02*
X187136000Y-72284000D01*
X174563000Y-72244000D02*
X187133000Y-72244000D01*
X174566000Y-72204000D02*
X187130000Y-72204000D01*
X174569000Y-72164000D02*
X187127000Y-72164000D01*
X174572000Y-72124000D02*
X187124000Y-72124000D01*
X174576000Y-72084000D02*
X187120000Y-72084000D01*
X174580000Y-72044000D02*
X187116000Y-72044000D01*
X174584000Y-72004000D02*
X187112000Y-72004000D01*
X174589000Y-71963000D02*
X187107000Y-71963000D01*
X174593000Y-71923000D02*
X187103000Y-71923000D01*
X174598000Y-71883000D02*
X187098000Y-71883000D01*
X174603000Y-71843000D02*
X187093000Y-71843000D01*
X174609000Y-71803000D02*
X187087000Y-71803000D01*
X174615000Y-71763000D02*
X187081000Y-71763000D01*
X174621000Y-71723000D02*
X187075000Y-71723000D01*
X174627000Y-71683000D02*
X187069000Y-71683000D01*
X174633000Y-71643000D02*
X187063000Y-71643000D01*
X174640000Y-71603000D02*
X187056000Y-71603000D01*
X174647000Y-71563000D02*
X179468000Y-71563000D01*
X182228000Y-71563000D02*
X187049000Y-71563000D01*
X174655000Y-71523000D02*
X179468000Y-71523000D01*
X182228000Y-71523000D02*
X187041000Y-71523000D01*
X174662000Y-71483000D02*
X179468000Y-71483000D01*
X182228000Y-71483000D02*
X187034000Y-71483000D01*
X174670000Y-71443000D02*
X179468000Y-71443000D01*
X182228000Y-71443000D02*
X187026000Y-71443000D01*
X174678000Y-71403000D02*
X179468000Y-71403000D01*
X182228000Y-71403000D02*
X187018000Y-71403000D01*
X174686000Y-71363000D02*
X179468000Y-71363000D01*
X182228000Y-71363000D02*
X187010000Y-71363000D01*
X174695000Y-71323000D02*
X179468000Y-71323000D01*
X182228000Y-71323000D02*
X187001000Y-71323000D01*
X174704000Y-71283000D02*
X179468000Y-71283000D01*
X182228000Y-71283000D02*
X186992000Y-71283000D01*
X174713000Y-71243000D02*
X179468000Y-71243000D01*
X182228000Y-71243000D02*
X186983000Y-71243000D01*
X174723000Y-71203000D02*
X179468000Y-71203000D01*
X182228000Y-71203000D02*
X186973000Y-71203000D01*
X174732000Y-71163000D02*
X179468000Y-71163000D01*
X182228000Y-71163000D02*
X186964000Y-71163000D01*
X174742000Y-71123000D02*
X179468000Y-71123000D01*
X182228000Y-71123000D02*
X186954000Y-71123000D01*
X174753000Y-71083000D02*
X179468000Y-71083000D01*
X182228000Y-71083000D02*
X186943000Y-71083000D01*
X174763000Y-71043000D02*
X179468000Y-71043000D01*
X182228000Y-71043000D02*
X186933000Y-71043000D01*
X174774000Y-71003000D02*
X179468000Y-71003000D01*
X182228000Y-71003000D02*
X186922000Y-71003000D01*
X174785000Y-70963000D02*
X179468000Y-70963000D01*
X182228000Y-70963000D02*
X186911000Y-70963000D01*
X174797000Y-70923000D02*
X179468000Y-70923000D01*
X182228000Y-70923000D02*
X186899000Y-70923000D01*
X174808000Y-70883000D02*
X179468000Y-70883000D01*
X182228000Y-70883000D02*
X186888000Y-70883000D01*
X174820000Y-70843000D02*
X179468000Y-70843000D01*
X182228000Y-70843000D02*
X186876000Y-70843000D01*
X174833000Y-70803000D02*
X179468000Y-70803000D01*
X182228000Y-70803000D02*
X186863000Y-70803000D01*
X174845000Y-70763000D02*
X179468000Y-70763000D01*
X182228000Y-70763000D02*
X186851000Y-70763000D01*
X174858000Y-70723000D02*
X179468000Y-70723000D01*
X182228000Y-70723000D02*
X186838000Y-70723000D01*
X174871000Y-70683000D02*
X179468000Y-70683000D01*
X182228000Y-70683000D02*
X186825000Y-70683000D01*
X174885000Y-70643000D02*
X179468000Y-70643000D01*
X182228000Y-70643000D02*
X186811000Y-70643000D01*
X174898000Y-70603000D02*
X179468000Y-70603000D01*
X182228000Y-70603000D02*
X186798000Y-70603000D01*
X174912000Y-70563000D02*
X179468000Y-70563000D01*
X182228000Y-70563000D02*
X186784000Y-70563000D01*
X174927000Y-70523000D02*
X179468000Y-70523000D01*
X182228000Y-70523000D02*
X186769000Y-70523000D01*
X174941000Y-70483000D02*
X179468000Y-70483000D01*
X182228000Y-70483000D02*
X186755000Y-70483000D01*
X174956000Y-70443000D02*
X179468000Y-70443000D01*
X182228000Y-70443000D02*
X186740000Y-70443000D01*
X174972000Y-70403000D02*
X179468000Y-70403000D01*
X182228000Y-70403000D02*
X186724000Y-70403000D01*
X174987000Y-70363000D02*
X179468000Y-70363000D01*
X182228000Y-70363000D02*
X186709000Y-70363000D01*
X175003000Y-70323000D02*
X179468000Y-70323000D01*
X182228000Y-70323000D02*
X186693000Y-70323000D01*
X175019000Y-70283000D02*
X179468000Y-70283000D01*
X182228000Y-70283000D02*
X186677000Y-70283000D01*
X175036000Y-70243000D02*
X179468000Y-70243000D01*
X182228000Y-70243000D02*
X186660000Y-70243000D01*
X175053000Y-70203000D02*
X179468000Y-70203000D01*
X182228000Y-70203000D02*
X186643000Y-70203000D01*
X175070000Y-70163000D02*
X179468000Y-70163000D01*
X182228000Y-70163000D02*
X186626000Y-70163000D01*
X175087000Y-70123000D02*
X179468000Y-70123000D01*
X182228000Y-70123000D02*
X186609000Y-70123000D01*
X175105000Y-70083000D02*
X179468000Y-70083000D01*
X182228000Y-70083000D02*
X186591000Y-70083000D01*
X175123000Y-70043000D02*
X179468000Y-70043000D01*
X182228000Y-70043000D02*
X186573000Y-70043000D01*
X175142000Y-70003000D02*
X179468000Y-70003000D01*
X182228000Y-70003000D02*
X186554000Y-70003000D01*
X175161000Y-69963000D02*
X179468000Y-69963000D01*
X182228000Y-69963000D02*
X186535000Y-69963000D01*
X175180000Y-69923000D02*
X179468000Y-69923000D01*
X182228000Y-69923000D02*
X186516000Y-69923000D01*
X175199000Y-69883000D02*
X179468000Y-69883000D01*
X182228000Y-69883000D02*
X186497000Y-69883000D01*
X175219000Y-69843000D02*
X179468000Y-69843000D01*
X182228000Y-69843000D02*
X186477000Y-69843000D01*
X175239000Y-69803000D02*
X179468000Y-69803000D01*
X182228000Y-69803000D02*
X186457000Y-69803000D01*
X175260000Y-69763000D02*
X179468000Y-69763000D01*
X182228000Y-69763000D02*
X186436000Y-69763000D01*
X175281000Y-69723000D02*
X179468000Y-69723000D01*
X182228000Y-69723000D02*
X186415000Y-69723000D01*
X175302000Y-69683000D02*
X179468000Y-69683000D01*
X182228000Y-69683000D02*
X186394000Y-69683000D01*
X175324000Y-69643000D02*
X179468000Y-69643000D01*
X182228000Y-69643000D02*
X186372000Y-69643000D01*
X175346000Y-69603000D02*
X179468000Y-69603000D01*
X182228000Y-69603000D02*
X186350000Y-69603000D01*
X175368000Y-69563000D02*
X179468000Y-69563000D01*
X182228000Y-69563000D02*
X186328000Y-69563000D01*
X175391000Y-69523000D02*
X179468000Y-69523000D01*
X182228000Y-69523000D02*
X186305000Y-69523000D01*
X175414000Y-69483000D02*
X179468000Y-69483000D01*
X182228000Y-69483000D02*
X186282000Y-69483000D01*
X175438000Y-69443000D02*
X179468000Y-69443000D01*
X182228000Y-69443000D02*
X186258000Y-69443000D01*
X175462000Y-69403000D02*
X179468000Y-69403000D01*
X182228000Y-69403000D02*
X186234000Y-69403000D01*
X175486000Y-69363000D02*
X179468000Y-69363000D01*
X182228000Y-69363000D02*
X186210000Y-69363000D01*
X175511000Y-69323000D02*
X179468000Y-69323000D01*
X182228000Y-69323000D02*
X186185000Y-69323000D01*
X175536000Y-69283000D02*
X179468000Y-69283000D01*
X182228000Y-69283000D02*
X186160000Y-69283000D01*
X175562000Y-69243000D02*
X179468000Y-69243000D01*
X182228000Y-69243000D02*
X186134000Y-69243000D01*
X175588000Y-69203000D02*
X179468000Y-69203000D01*
X182228000Y-69203000D02*
X186108000Y-69203000D01*
X175614000Y-69163000D02*
X179468000Y-69163000D01*
X182228000Y-69163000D02*
X186082000Y-69163000D01*
X175641000Y-69123000D02*
X179468000Y-69123000D01*
X182228000Y-69123000D02*
X186055000Y-69123000D01*
X175669000Y-69083000D02*
X179468000Y-69083000D01*
X182228000Y-69083000D02*
X186027000Y-69083000D01*
X175697000Y-69043000D02*
X179468000Y-69043000D01*
X182228000Y-69043000D02*
X185999000Y-69043000D01*
X175725000Y-69003000D02*
X179468000Y-69003000D01*
X182228000Y-69003000D02*
X185971000Y-69003000D01*
X175754000Y-68963000D02*
X179468000Y-68963000D01*
X182228000Y-68963000D02*
X185942000Y-68963000D01*
X175783000Y-68923000D02*
X179468000Y-68923000D01*
X182228000Y-68923000D02*
X185913000Y-68923000D01*
X175813000Y-68883000D02*
X179468000Y-68883000D01*
X182228000Y-68883000D02*
X185883000Y-68883000D01*
X175843000Y-68843000D02*
X179468000Y-68843000D01*
X182228000Y-68843000D02*
X185853000Y-68843000D01*
X175873000Y-68803000D02*
X185823000Y-68803000D01*
X175905000Y-68763000D02*
X185791000Y-68763000D01*
X175936000Y-68723000D02*
X185760000Y-68723000D01*
X175969000Y-68683000D02*
X185727000Y-68683000D01*
X176001000Y-68643000D02*
X185695000Y-68643000D01*
X176035000Y-68603000D02*
X185661000Y-68603000D01*
X176069000Y-68563000D02*
X185627000Y-68563000D01*
X176103000Y-68523000D02*
X185593000Y-68523000D01*
X176138000Y-68483000D02*
X185558000Y-68483000D01*
X176174000Y-68443000D02*
X185522000Y-68443000D01*
X176210000Y-68403000D02*
X185486000Y-68403000D01*
X176247000Y-68363000D02*
X185449000Y-68363000D01*
X176285000Y-68323000D02*
X185411000Y-68323000D01*
X176323000Y-68283000D02*
X185373000Y-68283000D01*
X176362000Y-68243000D02*
X185334000Y-68243000D01*
X176401000Y-68203000D02*
X185295000Y-68203000D01*
X176442000Y-68163000D02*
X185254000Y-68163000D01*
X176483000Y-68123000D02*
X185213000Y-68123000D01*
X176525000Y-68083000D02*
X185171000Y-68083000D01*
X176567000Y-68043000D02*
X185129000Y-68043000D01*
X176610000Y-68003000D02*
X185086000Y-68003000D01*
X176655000Y-67963000D02*
X185041000Y-67963000D01*
X176700000Y-67923000D02*
X184996000Y-67923000D01*
X176746000Y-67883000D02*
X184950000Y-67883000D01*
X176792000Y-67843000D02*
X184904000Y-67843000D01*
X176840000Y-67803000D02*
X184856000Y-67803000D01*
X176889000Y-67763000D02*
X184807000Y-67763000D01*
X176939000Y-67723000D02*
X184757000Y-67723000D01*
X176989000Y-67683000D02*
X184707000Y-67683000D01*
X177041000Y-67643000D02*
X184655000Y-67643000D01*
X177094000Y-67603000D02*
X184602000Y-67603000D01*
X177148000Y-67563000D02*
X184548000Y-67563000D01*
X177204000Y-67523000D02*
X184492000Y-67523000D01*
X177260000Y-67483000D02*
X184436000Y-67483000D01*
X177318000Y-67443000D02*
X184378000Y-67443000D01*
X177378000Y-67403000D02*
X184318000Y-67403000D01*
X177439000Y-67363000D02*
X184257000Y-67363000D01*
X177501000Y-67323000D02*
X184195000Y-67323000D01*
X177566000Y-67283000D02*
X184130000Y-67283000D01*
X177631000Y-67243000D02*
X184065000Y-67243000D01*
X177699000Y-67203000D02*
X183997000Y-67203000D01*
X177769000Y-67163000D02*
X183927000Y-67163000D01*
X177841000Y-67123000D02*
X183855000Y-67123000D01*
X177915000Y-67083000D02*
X183781000Y-67083000D01*
X177992000Y-67043000D02*
X183704000Y-67043000D01*
X178071000Y-67003000D02*
X183625000Y-67003000D01*
X178153000Y-66963000D02*
X183543000Y-66963000D01*
X178238000Y-66923000D02*
X183458000Y-66923000D01*
X178327000Y-66883000D02*
X183369000Y-66883000D01*
X178420000Y-66843000D02*
X183276000Y-66843000D01*
X178517000Y-66803000D02*
X183179000Y-66803000D01*
X178618000Y-66763000D02*
X183078000Y-66763000D01*
X178726000Y-66723000D02*
X182970000Y-66723000D01*
X178839000Y-66683000D02*
X182857000Y-66683000D01*
X178960000Y-66643000D02*
X182736000Y-66643000D01*
X179091000Y-66603000D02*
X182605000Y-66603000D01*
X179232000Y-66563000D02*
X182464000Y-66563000D01*
X179388000Y-66523000D02*
X182308000Y-66523000D01*
X179563000Y-66483000D02*
X182133000Y-66483000D01*
X179766000Y-66443000D02*
X181930000Y-66443000D01*
X180017000Y-66403000D02*
X181679000Y-66403000D01*
X180384000Y-66363000D02*
X181312000Y-66363000D01*
X180848000Y-78384000D02*
X180848000Y-76584000D01*
X179948000Y-77484000D02*
X181748000Y-77484000D01*
X190592000Y-74072000D02*
X190592000Y-74772000D01*
X189392000Y-74772000D02*
X189392000Y-74072000D01*
X213604000Y-72604000D02*
G75*
G03X213604000Y-72604000I-6340000J0D01*
G01*
X213564000Y-72604000D02*
X200964000Y-72604000D01*
X213564000Y-72644000D02*
X200964000Y-72644000D01*
X213564000Y-72684000D02*
X200964000Y-72684000D01*
X213563000Y-72724000D02*
X200965000Y-72724000D01*
X213562000Y-72764000D02*
X200966000Y-72764000D01*
X213561000Y-72804000D02*
X200967000Y-72804000D01*
X213560000Y-72844000D02*
X200968000Y-72844000D01*
X213558000Y-72884000D02*
X200970000Y-72884000D01*
X213556000Y-72924000D02*
X200972000Y-72924000D01*
X213554000Y-72964000D02*
X200974000Y-72964000D01*
X213552000Y-73004000D02*
X200976000Y-73004000D01*
X213549000Y-73044000D02*
X200979000Y-73044000D01*
X213546000Y-73084000D02*
X200982000Y-73084000D01*
X213543000Y-73124000D02*
X200985000Y-73124000D01*
X213540000Y-73164000D02*
X200988000Y-73164000D01*
X213536000Y-73204000D02*
X200992000Y-73204000D01*
X213532000Y-73244000D02*
X200996000Y-73244000D01*
X213528000Y-73284000D02*
X201000000Y-73284000D01*
X213523000Y-73325000D02*
X201005000Y-73325000D01*
X213519000Y-73365000D02*
X201009000Y-73365000D01*
X213514000Y-73405000D02*
X201014000Y-73405000D01*
X213509000Y-73445000D02*
X201019000Y-73445000D01*
X213503000Y-73485000D02*
X201025000Y-73485000D01*
X213497000Y-73525000D02*
X201031000Y-73525000D01*
X213491000Y-73565000D02*
X201037000Y-73565000D01*
X213485000Y-73605000D02*
X201043000Y-73605000D01*
X213479000Y-73645000D02*
X201049000Y-73645000D01*
X213472000Y-73685000D02*
X201056000Y-73685000D01*
X213465000Y-73725000D02*
X208644000Y-73725000D01*
X205884000Y-73725000D02*
X201063000Y-73725000D01*
X213457000Y-73765000D02*
X208644000Y-73765000D01*
X205884000Y-73765000D02*
X201071000Y-73765000D01*
X213450000Y-73805000D02*
X208644000Y-73805000D01*
X205884000Y-73805000D02*
X201078000Y-73805000D01*
X213442000Y-73845000D02*
X208644000Y-73845000D01*
X205884000Y-73845000D02*
X201086000Y-73845000D01*
X213434000Y-73885000D02*
X208644000Y-73885000D01*
X205884000Y-73885000D02*
X201094000Y-73885000D01*
X213426000Y-73925000D02*
X208644000Y-73925000D01*
X205884000Y-73925000D02*
X201102000Y-73925000D01*
X213417000Y-73965000D02*
X208644000Y-73965000D01*
X205884000Y-73965000D02*
X201111000Y-73965000D01*
X213408000Y-74005000D02*
X208644000Y-74005000D01*
X205884000Y-74005000D02*
X201120000Y-74005000D01*
X213399000Y-74045000D02*
X208644000Y-74045000D01*
X205884000Y-74045000D02*
X201129000Y-74045000D01*
X213389000Y-74085000D02*
X208644000Y-74085000D01*
X205884000Y-74085000D02*
X201139000Y-74085000D01*
X213380000Y-74125000D02*
X208644000Y-74125000D01*
X205884000Y-74125000D02*
X201148000Y-74125000D01*
X213370000Y-74165000D02*
X208644000Y-74165000D01*
X205884000Y-74165000D02*
X201158000Y-74165000D01*
X213359000Y-74205000D02*
X208644000Y-74205000D01*
X205884000Y-74205000D02*
X201169000Y-74205000D01*
X213349000Y-74245000D02*
X208644000Y-74245000D01*
X205884000Y-74245000D02*
X201179000Y-74245000D01*
X213338000Y-74285000D02*
X208644000Y-74285000D01*
X205884000Y-74285000D02*
X201190000Y-74285000D01*
X213327000Y-74325000D02*
X208644000Y-74325000D01*
X205884000Y-74325000D02*
X201201000Y-74325000D01*
X213315000Y-74365000D02*
X208644000Y-74365000D01*
X205884000Y-74365000D02*
X201213000Y-74365000D01*
X213304000Y-74405000D02*
X208644000Y-74405000D01*
X205884000Y-74405000D02*
X201224000Y-74405000D01*
X213292000Y-74445000D02*
X208644000Y-74445000D01*
X205884000Y-74445000D02*
X201236000Y-74445000D01*
X213279000Y-74485000D02*
X208644000Y-74485000D01*
X205884000Y-74485000D02*
X201249000Y-74485000D01*
X213267000Y-74525000D02*
X208644000Y-74525000D01*
X205884000Y-74525000D02*
X201261000Y-74525000D01*
X213254000Y-74565000D02*
X208644000Y-74565000D01*
X205884000Y-74565000D02*
X201274000Y-74565000D01*
X213241000Y-74605000D02*
X208644000Y-74605000D01*
X205884000Y-74605000D02*
X201287000Y-74605000D01*
X213227000Y-74645000D02*
X208644000Y-74645000D01*
X205884000Y-74645000D02*
X201301000Y-74645000D01*
X213214000Y-74685000D02*
X208644000Y-74685000D01*
X205884000Y-74685000D02*
X201314000Y-74685000D01*
X213200000Y-74725000D02*
X208644000Y-74725000D01*
X205884000Y-74725000D02*
X201328000Y-74725000D01*
X213185000Y-74765000D02*
X208644000Y-74765000D01*
X205884000Y-74765000D02*
X201343000Y-74765000D01*
X213171000Y-74805000D02*
X208644000Y-74805000D01*
X205884000Y-74805000D02*
X201357000Y-74805000D01*
X213156000Y-74845000D02*
X208644000Y-74845000D01*
X205884000Y-74845000D02*
X201372000Y-74845000D01*
X213140000Y-74885000D02*
X208644000Y-74885000D01*
X205884000Y-74885000D02*
X201388000Y-74885000D01*
X213125000Y-74925000D02*
X208644000Y-74925000D01*
X205884000Y-74925000D02*
X201403000Y-74925000D01*
X213109000Y-74965000D02*
X208644000Y-74965000D01*
X205884000Y-74965000D02*
X201419000Y-74965000D01*
X213093000Y-75005000D02*
X208644000Y-75005000D01*
X205884000Y-75005000D02*
X201435000Y-75005000D01*
X213076000Y-75045000D02*
X208644000Y-75045000D01*
X205884000Y-75045000D02*
X201452000Y-75045000D01*
X213059000Y-75085000D02*
X208644000Y-75085000D01*
X205884000Y-75085000D02*
X201469000Y-75085000D01*
X213042000Y-75125000D02*
X208644000Y-75125000D01*
X205884000Y-75125000D02*
X201486000Y-75125000D01*
X213025000Y-75165000D02*
X208644000Y-75165000D01*
X205884000Y-75165000D02*
X201503000Y-75165000D01*
X213007000Y-75205000D02*
X208644000Y-75205000D01*
X205884000Y-75205000D02*
X201521000Y-75205000D01*
X212989000Y-75245000D02*
X208644000Y-75245000D01*
X205884000Y-75245000D02*
X201539000Y-75245000D01*
X212970000Y-75285000D02*
X208644000Y-75285000D01*
X205884000Y-75285000D02*
X201558000Y-75285000D01*
X212951000Y-75325000D02*
X208644000Y-75325000D01*
X205884000Y-75325000D02*
X201577000Y-75325000D01*
X212932000Y-75365000D02*
X208644000Y-75365000D01*
X205884000Y-75365000D02*
X201596000Y-75365000D01*
X212913000Y-75405000D02*
X208644000Y-75405000D01*
X205884000Y-75405000D02*
X201615000Y-75405000D01*
X212893000Y-75445000D02*
X208644000Y-75445000D01*
X205884000Y-75445000D02*
X201635000Y-75445000D01*
X212873000Y-75485000D02*
X208644000Y-75485000D01*
X205884000Y-75485000D02*
X201655000Y-75485000D01*
X212852000Y-75525000D02*
X208644000Y-75525000D01*
X205884000Y-75525000D02*
X201676000Y-75525000D01*
X212831000Y-75565000D02*
X208644000Y-75565000D01*
X205884000Y-75565000D02*
X201697000Y-75565000D01*
X212810000Y-75605000D02*
X208644000Y-75605000D01*
X205884000Y-75605000D02*
X201718000Y-75605000D01*
X212788000Y-75645000D02*
X208644000Y-75645000D01*
X205884000Y-75645000D02*
X201740000Y-75645000D01*
X212766000Y-75685000D02*
X208644000Y-75685000D01*
X205884000Y-75685000D02*
X201762000Y-75685000D01*
X212744000Y-75725000D02*
X208644000Y-75725000D01*
X205884000Y-75725000D02*
X201784000Y-75725000D01*
X212721000Y-75765000D02*
X208644000Y-75765000D01*
X205884000Y-75765000D02*
X201807000Y-75765000D01*
X212698000Y-75805000D02*
X208644000Y-75805000D01*
X205884000Y-75805000D02*
X201830000Y-75805000D01*
X212674000Y-75845000D02*
X208644000Y-75845000D01*
X205884000Y-75845000D02*
X201854000Y-75845000D01*
X212650000Y-75885000D02*
X208644000Y-75885000D01*
X205884000Y-75885000D02*
X201878000Y-75885000D01*
X212626000Y-75925000D02*
X208644000Y-75925000D01*
X205884000Y-75925000D02*
X201902000Y-75925000D01*
X212601000Y-75965000D02*
X208644000Y-75965000D01*
X205884000Y-75965000D02*
X201927000Y-75965000D01*
X212576000Y-76005000D02*
X208644000Y-76005000D01*
X205884000Y-76005000D02*
X201952000Y-76005000D01*
X212550000Y-76045000D02*
X208644000Y-76045000D01*
X205884000Y-76045000D02*
X201978000Y-76045000D01*
X212524000Y-76085000D02*
X208644000Y-76085000D01*
X205884000Y-76085000D02*
X202004000Y-76085000D01*
X212498000Y-76125000D02*
X208644000Y-76125000D01*
X205884000Y-76125000D02*
X202030000Y-76125000D01*
X212471000Y-76165000D02*
X208644000Y-76165000D01*
X205884000Y-76165000D02*
X202057000Y-76165000D01*
X212443000Y-76205000D02*
X208644000Y-76205000D01*
X205884000Y-76205000D02*
X202085000Y-76205000D01*
X212415000Y-76245000D02*
X208644000Y-76245000D01*
X205884000Y-76245000D02*
X202113000Y-76245000D01*
X212387000Y-76285000D02*
X208644000Y-76285000D01*
X205884000Y-76285000D02*
X202141000Y-76285000D01*
X212358000Y-76325000D02*
X208644000Y-76325000D01*
X205884000Y-76325000D02*
X202170000Y-76325000D01*
X212329000Y-76365000D02*
X208644000Y-76365000D01*
X205884000Y-76365000D02*
X202199000Y-76365000D01*
X212299000Y-76405000D02*
X208644000Y-76405000D01*
X205884000Y-76405000D02*
X202229000Y-76405000D01*
X212269000Y-76445000D02*
X208644000Y-76445000D01*
X205884000Y-76445000D02*
X202259000Y-76445000D01*
X212239000Y-76485000D02*
X202289000Y-76485000D01*
X212207000Y-76525000D02*
X202321000Y-76525000D01*
X212176000Y-76565000D02*
X202352000Y-76565000D01*
X212143000Y-76605000D02*
X202385000Y-76605000D01*
X212111000Y-76645000D02*
X202417000Y-76645000D01*
X212077000Y-76685000D02*
X202451000Y-76685000D01*
X212043000Y-76725000D02*
X202485000Y-76725000D01*
X212009000Y-76765000D02*
X202519000Y-76765000D01*
X211974000Y-76805000D02*
X202554000Y-76805000D01*
X211938000Y-76845000D02*
X202590000Y-76845000D01*
X211902000Y-76885000D02*
X202626000Y-76885000D01*
X211865000Y-76925000D02*
X202663000Y-76925000D01*
X211827000Y-76965000D02*
X202701000Y-76965000D01*
X211789000Y-77005000D02*
X202739000Y-77005000D01*
X211750000Y-77045000D02*
X202778000Y-77045000D01*
X211711000Y-77085000D02*
X202817000Y-77085000D01*
X211670000Y-77125000D02*
X202858000Y-77125000D01*
X211629000Y-77165000D02*
X202899000Y-77165000D01*
X211587000Y-77205000D02*
X202941000Y-77205000D01*
X211545000Y-77245000D02*
X202983000Y-77245000D01*
X211502000Y-77285000D02*
X203026000Y-77285000D01*
X211457000Y-77325000D02*
X203071000Y-77325000D01*
X211412000Y-77365000D02*
X203116000Y-77365000D01*
X211366000Y-77405000D02*
X203162000Y-77405000D01*
X211320000Y-77445000D02*
X203208000Y-77445000D01*
X211272000Y-77485000D02*
X203256000Y-77485000D01*
X211223000Y-77525000D02*
X203305000Y-77525000D01*
X211173000Y-77565000D02*
X203355000Y-77565000D01*
X211123000Y-77605000D02*
X203405000Y-77605000D01*
X211071000Y-77645000D02*
X203457000Y-77645000D01*
X211018000Y-77685000D02*
X203510000Y-77685000D01*
X210964000Y-77725000D02*
X203564000Y-77725000D01*
X210908000Y-77765000D02*
X203620000Y-77765000D01*
X210852000Y-77805000D02*
X203676000Y-77805000D01*
X210794000Y-77845000D02*
X203734000Y-77845000D01*
X210734000Y-77885000D02*
X203794000Y-77885000D01*
X210673000Y-77925000D02*
X203855000Y-77925000D01*
X210611000Y-77965000D02*
X203917000Y-77965000D01*
X210546000Y-78005000D02*
X203982000Y-78005000D01*
X210481000Y-78045000D02*
X204047000Y-78045000D01*
X210413000Y-78085000D02*
X204115000Y-78085000D01*
X210343000Y-78125000D02*
X204185000Y-78125000D01*
X210271000Y-78165000D02*
X204257000Y-78165000D01*
X210197000Y-78205000D02*
X204331000Y-78205000D01*
X210120000Y-78245000D02*
X204408000Y-78245000D01*
X210041000Y-78285000D02*
X204487000Y-78285000D01*
X209959000Y-78325000D02*
X204569000Y-78325000D01*
X209874000Y-78365000D02*
X204654000Y-78365000D01*
X209785000Y-78405000D02*
X204743000Y-78405000D01*
X209692000Y-78445000D02*
X204836000Y-78445000D01*
X209595000Y-78485000D02*
X204933000Y-78485000D01*
X209494000Y-78525000D02*
X205034000Y-78525000D01*
X209386000Y-78565000D02*
X205142000Y-78565000D01*
X209273000Y-78605000D02*
X205255000Y-78605000D01*
X209152000Y-78645000D02*
X205376000Y-78645000D01*
X209021000Y-78685000D02*
X205507000Y-78685000D01*
X208880000Y-78725000D02*
X205648000Y-78725000D01*
X208724000Y-78765000D02*
X205804000Y-78765000D01*
X208549000Y-78805000D02*
X205979000Y-78805000D01*
X208346000Y-78845000D02*
X206182000Y-78845000D01*
X208095000Y-78885000D02*
X206433000Y-78885000D01*
X207728000Y-78925000D02*
X206800000Y-78925000D01*
X207264000Y-66904000D02*
X207264000Y-68704000D01*
X208164000Y-67804000D02*
X206364000Y-67804000D01*
X210662000Y-81626000D02*
X209962000Y-81626000D01*
X209962000Y-80426000D02*
X210662000Y-80426000D01*
X199340000Y-86360000D02*
G75*
G03X199340000Y-86360000I-6340000J0D01*
G01*
X193000000Y-80060000D02*
X193000000Y-92660000D01*
X193040000Y-80060000D02*
X193040000Y-92660000D01*
X193080000Y-80060000D02*
X193080000Y-92660000D01*
X193120000Y-80061000D02*
X193120000Y-92659000D01*
X193160000Y-80062000D02*
X193160000Y-92658000D01*
X193200000Y-80063000D02*
X193200000Y-92657000D01*
X193240000Y-80064000D02*
X193240000Y-92656000D01*
X193280000Y-80066000D02*
X193280000Y-92654000D01*
X193320000Y-80068000D02*
X193320000Y-92652000D01*
X193360000Y-80070000D02*
X193360000Y-92650000D01*
X193400000Y-80072000D02*
X193400000Y-92648000D01*
X193440000Y-80075000D02*
X193440000Y-92645000D01*
X193480000Y-80078000D02*
X193480000Y-92642000D01*
X193520000Y-80081000D02*
X193520000Y-92639000D01*
X193560000Y-80084000D02*
X193560000Y-92636000D01*
X193600000Y-80088000D02*
X193600000Y-92632000D01*
X193640000Y-80092000D02*
X193640000Y-92628000D01*
X193680000Y-80096000D02*
X193680000Y-92624000D01*
X193721000Y-80101000D02*
X193721000Y-92619000D01*
X193761000Y-80105000D02*
X193761000Y-92615000D01*
X193801000Y-80110000D02*
X193801000Y-92610000D01*
X193841000Y-80115000D02*
X193841000Y-92605000D01*
X193881000Y-80121000D02*
X193881000Y-92599000D01*
X193921000Y-80127000D02*
X193921000Y-92593000D01*
X193961000Y-80133000D02*
X193961000Y-92587000D01*
X194001000Y-80139000D02*
X194001000Y-92581000D01*
X194041000Y-80145000D02*
X194041000Y-92575000D01*
X194081000Y-80152000D02*
X194081000Y-92568000D01*
X194121000Y-80159000D02*
X194121000Y-84980000D01*
X194121000Y-87740000D02*
X194121000Y-92561000D01*
X194161000Y-80167000D02*
X194161000Y-84980000D01*
X194161000Y-87740000D02*
X194161000Y-92553000D01*
X194201000Y-80174000D02*
X194201000Y-84980000D01*
X194201000Y-87740000D02*
X194201000Y-92546000D01*
X194241000Y-80182000D02*
X194241000Y-84980000D01*
X194241000Y-87740000D02*
X194241000Y-92538000D01*
X194281000Y-80190000D02*
X194281000Y-84980000D01*
X194281000Y-87740000D02*
X194281000Y-92530000D01*
X194321000Y-80198000D02*
X194321000Y-84980000D01*
X194321000Y-87740000D02*
X194321000Y-92522000D01*
X194361000Y-80207000D02*
X194361000Y-84980000D01*
X194361000Y-87740000D02*
X194361000Y-92513000D01*
X194401000Y-80216000D02*
X194401000Y-84980000D01*
X194401000Y-87740000D02*
X194401000Y-92504000D01*
X194441000Y-80225000D02*
X194441000Y-84980000D01*
X194441000Y-87740000D02*
X194441000Y-92495000D01*
X194481000Y-80235000D02*
X194481000Y-84980000D01*
X194481000Y-87740000D02*
X194481000Y-92485000D01*
X194521000Y-80244000D02*
X194521000Y-84980000D01*
X194521000Y-87740000D02*
X194521000Y-92476000D01*
X194561000Y-80254000D02*
X194561000Y-84980000D01*
X194561000Y-87740000D02*
X194561000Y-92466000D01*
X194601000Y-80265000D02*
X194601000Y-84980000D01*
X194601000Y-87740000D02*
X194601000Y-92455000D01*
X194641000Y-80275000D02*
X194641000Y-84980000D01*
X194641000Y-87740000D02*
X194641000Y-92445000D01*
X194681000Y-80286000D02*
X194681000Y-84980000D01*
X194681000Y-87740000D02*
X194681000Y-92434000D01*
X194721000Y-80297000D02*
X194721000Y-84980000D01*
X194721000Y-87740000D02*
X194721000Y-92423000D01*
X194761000Y-80309000D02*
X194761000Y-84980000D01*
X194761000Y-87740000D02*
X194761000Y-92411000D01*
X194801000Y-80320000D02*
X194801000Y-84980000D01*
X194801000Y-87740000D02*
X194801000Y-92400000D01*
X194841000Y-80332000D02*
X194841000Y-84980000D01*
X194841000Y-87740000D02*
X194841000Y-92388000D01*
X194881000Y-80345000D02*
X194881000Y-84980000D01*
X194881000Y-87740000D02*
X194881000Y-92375000D01*
X194921000Y-80357000D02*
X194921000Y-84980000D01*
X194921000Y-87740000D02*
X194921000Y-92363000D01*
X194961000Y-80370000D02*
X194961000Y-84980000D01*
X194961000Y-87740000D02*
X194961000Y-92350000D01*
X195001000Y-80383000D02*
X195001000Y-84980000D01*
X195001000Y-87740000D02*
X195001000Y-92337000D01*
X195041000Y-80397000D02*
X195041000Y-84980000D01*
X195041000Y-87740000D02*
X195041000Y-92323000D01*
X195081000Y-80410000D02*
X195081000Y-84980000D01*
X195081000Y-87740000D02*
X195081000Y-92310000D01*
X195121000Y-80424000D02*
X195121000Y-84980000D01*
X195121000Y-87740000D02*
X195121000Y-92296000D01*
X195161000Y-80439000D02*
X195161000Y-84980000D01*
X195161000Y-87740000D02*
X195161000Y-92281000D01*
X195201000Y-80453000D02*
X195201000Y-84980000D01*
X195201000Y-87740000D02*
X195201000Y-92267000D01*
X195241000Y-80468000D02*
X195241000Y-84980000D01*
X195241000Y-87740000D02*
X195241000Y-92252000D01*
X195281000Y-80484000D02*
X195281000Y-84980000D01*
X195281000Y-87740000D02*
X195281000Y-92236000D01*
X195321000Y-80499000D02*
X195321000Y-84980000D01*
X195321000Y-87740000D02*
X195321000Y-92221000D01*
X195361000Y-80515000D02*
X195361000Y-84980000D01*
X195361000Y-87740000D02*
X195361000Y-92205000D01*
X195401000Y-80531000D02*
X195401000Y-84980000D01*
X195401000Y-87740000D02*
X195401000Y-92189000D01*
X195441000Y-80548000D02*
X195441000Y-84980000D01*
X195441000Y-87740000D02*
X195441000Y-92172000D01*
X195481000Y-80565000D02*
X195481000Y-84980000D01*
X195481000Y-87740000D02*
X195481000Y-92155000D01*
X195521000Y-80582000D02*
X195521000Y-84980000D01*
X195521000Y-87740000D02*
X195521000Y-92138000D01*
X195561000Y-80599000D02*
X195561000Y-84980000D01*
X195561000Y-87740000D02*
X195561000Y-92121000D01*
X195601000Y-80617000D02*
X195601000Y-84980000D01*
X195601000Y-87740000D02*
X195601000Y-92103000D01*
X195641000Y-80635000D02*
X195641000Y-84980000D01*
X195641000Y-87740000D02*
X195641000Y-92085000D01*
X195681000Y-80654000D02*
X195681000Y-84980000D01*
X195681000Y-87740000D02*
X195681000Y-92066000D01*
X195721000Y-80673000D02*
X195721000Y-84980000D01*
X195721000Y-87740000D02*
X195721000Y-92047000D01*
X195761000Y-80692000D02*
X195761000Y-84980000D01*
X195761000Y-87740000D02*
X195761000Y-92028000D01*
X195801000Y-80711000D02*
X195801000Y-84980000D01*
X195801000Y-87740000D02*
X195801000Y-92009000D01*
X195841000Y-80731000D02*
X195841000Y-84980000D01*
X195841000Y-87740000D02*
X195841000Y-91989000D01*
X195881000Y-80751000D02*
X195881000Y-84980000D01*
X195881000Y-87740000D02*
X195881000Y-91969000D01*
X195921000Y-80772000D02*
X195921000Y-84980000D01*
X195921000Y-87740000D02*
X195921000Y-91948000D01*
X195961000Y-80793000D02*
X195961000Y-84980000D01*
X195961000Y-87740000D02*
X195961000Y-91927000D01*
X196001000Y-80814000D02*
X196001000Y-84980000D01*
X196001000Y-87740000D02*
X196001000Y-91906000D01*
X196041000Y-80836000D02*
X196041000Y-84980000D01*
X196041000Y-87740000D02*
X196041000Y-91884000D01*
X196081000Y-80858000D02*
X196081000Y-84980000D01*
X196081000Y-87740000D02*
X196081000Y-91862000D01*
X196121000Y-80880000D02*
X196121000Y-84980000D01*
X196121000Y-87740000D02*
X196121000Y-91840000D01*
X196161000Y-80903000D02*
X196161000Y-84980000D01*
X196161000Y-87740000D02*
X196161000Y-91817000D01*
X196201000Y-80926000D02*
X196201000Y-84980000D01*
X196201000Y-87740000D02*
X196201000Y-91794000D01*
X196241000Y-80950000D02*
X196241000Y-84980000D01*
X196241000Y-87740000D02*
X196241000Y-91770000D01*
X196281000Y-80974000D02*
X196281000Y-84980000D01*
X196281000Y-87740000D02*
X196281000Y-91746000D01*
X196321000Y-80998000D02*
X196321000Y-84980000D01*
X196321000Y-87740000D02*
X196321000Y-91722000D01*
X196361000Y-81023000D02*
X196361000Y-84980000D01*
X196361000Y-87740000D02*
X196361000Y-91697000D01*
X196401000Y-81048000D02*
X196401000Y-84980000D01*
X196401000Y-87740000D02*
X196401000Y-91672000D01*
X196441000Y-81074000D02*
X196441000Y-84980000D01*
X196441000Y-87740000D02*
X196441000Y-91646000D01*
X196481000Y-81100000D02*
X196481000Y-84980000D01*
X196481000Y-87740000D02*
X196481000Y-91620000D01*
X196521000Y-81126000D02*
X196521000Y-84980000D01*
X196521000Y-87740000D02*
X196521000Y-91594000D01*
X196561000Y-81153000D02*
X196561000Y-84980000D01*
X196561000Y-87740000D02*
X196561000Y-91567000D01*
X196601000Y-81181000D02*
X196601000Y-84980000D01*
X196601000Y-87740000D02*
X196601000Y-91539000D01*
X196641000Y-81209000D02*
X196641000Y-84980000D01*
X196641000Y-87740000D02*
X196641000Y-91511000D01*
X196681000Y-81237000D02*
X196681000Y-84980000D01*
X196681000Y-87740000D02*
X196681000Y-91483000D01*
X196721000Y-81266000D02*
X196721000Y-84980000D01*
X196721000Y-87740000D02*
X196721000Y-91454000D01*
X196761000Y-81295000D02*
X196761000Y-84980000D01*
X196761000Y-87740000D02*
X196761000Y-91425000D01*
X196801000Y-81325000D02*
X196801000Y-84980000D01*
X196801000Y-87740000D02*
X196801000Y-91395000D01*
X196841000Y-81355000D02*
X196841000Y-84980000D01*
X196841000Y-87740000D02*
X196841000Y-91365000D01*
X196881000Y-81385000D02*
X196881000Y-91335000D01*
X196921000Y-81417000D02*
X196921000Y-91303000D01*
X196961000Y-81448000D02*
X196961000Y-91272000D01*
X197001000Y-81481000D02*
X197001000Y-91239000D01*
X197041000Y-81513000D02*
X197041000Y-91207000D01*
X197081000Y-81547000D02*
X197081000Y-91173000D01*
X197121000Y-81581000D02*
X197121000Y-91139000D01*
X197161000Y-81615000D02*
X197161000Y-91105000D01*
X197201000Y-81650000D02*
X197201000Y-91070000D01*
X197241000Y-81686000D02*
X197241000Y-91034000D01*
X197281000Y-81722000D02*
X197281000Y-90998000D01*
X197321000Y-81759000D02*
X197321000Y-90961000D01*
X197361000Y-81797000D02*
X197361000Y-90923000D01*
X197401000Y-81835000D02*
X197401000Y-90885000D01*
X197441000Y-81874000D02*
X197441000Y-90846000D01*
X197481000Y-81913000D02*
X197481000Y-90807000D01*
X197521000Y-81954000D02*
X197521000Y-90766000D01*
X197561000Y-81995000D02*
X197561000Y-90725000D01*
X197601000Y-82037000D02*
X197601000Y-90683000D01*
X197641000Y-82079000D02*
X197641000Y-90641000D01*
X197681000Y-82122000D02*
X197681000Y-90598000D01*
X197721000Y-82167000D02*
X197721000Y-90553000D01*
X197761000Y-82212000D02*
X197761000Y-90508000D01*
X197801000Y-82258000D02*
X197801000Y-90462000D01*
X197841000Y-82304000D02*
X197841000Y-90416000D01*
X197881000Y-82352000D02*
X197881000Y-90368000D01*
X197921000Y-82401000D02*
X197921000Y-90319000D01*
X197961000Y-82451000D02*
X197961000Y-90269000D01*
X198001000Y-82501000D02*
X198001000Y-90219000D01*
X198041000Y-82553000D02*
X198041000Y-90167000D01*
X198081000Y-82606000D02*
X198081000Y-90114000D01*
X198121000Y-82660000D02*
X198121000Y-90060000D01*
X198161000Y-82716000D02*
X198161000Y-90004000D01*
X198201000Y-82772000D02*
X198201000Y-89948000D01*
X198241000Y-82830000D02*
X198241000Y-89890000D01*
X198281000Y-82890000D02*
X198281000Y-89830000D01*
X198321000Y-82951000D02*
X198321000Y-89769000D01*
X198361000Y-83013000D02*
X198361000Y-89707000D01*
X198401000Y-83078000D02*
X198401000Y-89642000D01*
X198441000Y-83143000D02*
X198441000Y-89577000D01*
X198481000Y-83211000D02*
X198481000Y-89509000D01*
X198521000Y-83281000D02*
X198521000Y-89439000D01*
X198561000Y-83353000D02*
X198561000Y-89367000D01*
X198601000Y-83427000D02*
X198601000Y-89293000D01*
X198641000Y-83504000D02*
X198641000Y-89216000D01*
X198681000Y-83583000D02*
X198681000Y-89137000D01*
X198721000Y-83665000D02*
X198721000Y-89055000D01*
X198761000Y-83750000D02*
X198761000Y-88970000D01*
X198801000Y-83839000D02*
X198801000Y-88881000D01*
X198841000Y-83932000D02*
X198841000Y-88788000D01*
X198881000Y-84029000D02*
X198881000Y-88691000D01*
X198921000Y-84130000D02*
X198921000Y-88590000D01*
X198961000Y-84238000D02*
X198961000Y-88482000D01*
X199001000Y-84351000D02*
X199001000Y-88369000D01*
X199041000Y-84472000D02*
X199041000Y-88248000D01*
X199081000Y-84603000D02*
X199081000Y-88117000D01*
X199121000Y-84744000D02*
X199121000Y-87976000D01*
X199161000Y-84900000D02*
X199161000Y-87820000D01*
X199201000Y-85075000D02*
X199201000Y-87645000D01*
X199241000Y-85278000D02*
X199241000Y-87442000D01*
X199281000Y-85529000D02*
X199281000Y-87191000D01*
X199321000Y-85896000D02*
X199321000Y-86824000D01*
X187300000Y-86360000D02*
X189100000Y-86360000D01*
X188200000Y-85460000D02*
X188200000Y-87260000D01*
X193136000Y-94326000D02*
X192436000Y-94326000D01*
X192436000Y-93126000D02*
X193136000Y-93126000D01*
X214522000Y-102016000D02*
X215222000Y-102016000D01*
X215222000Y-103216000D02*
X214522000Y-103216000D01*
X214546000Y-104556000D02*
X215246000Y-104556000D01*
X215246000Y-105756000D02*
X214546000Y-105756000D01*
X214268000Y-115732000D02*
X214968000Y-115732000D01*
X214968000Y-116932000D02*
X214268000Y-116932000D01*
X101631000Y-111414000D02*
X102331000Y-111414000D01*
X102331000Y-112614000D02*
X101631000Y-112614000D01*
X91659000Y-84486000D02*
X91659000Y-85186000D01*
X90459000Y-85186000D02*
X90459000Y-84486000D01*
X92995000Y-84998000D02*
X93695000Y-84998000D01*
X93695000Y-86198000D02*
X92995000Y-86198000D01*
X98333000Y-106522000D02*
X98333000Y-105822000D01*
X99533000Y-105822000D02*
X99533000Y-106522000D01*
X101885000Y-97698000D02*
X102585000Y-97698000D01*
X102585000Y-98898000D02*
X101885000Y-98898000D01*
X98079000Y-92298000D02*
X98079000Y-91598000D01*
X99279000Y-91598000D02*
X99279000Y-92298000D01*
X101885000Y-85252000D02*
X102585000Y-85252000D01*
X102585000Y-86452000D02*
X101885000Y-86452000D01*
X99537000Y-87468000D02*
X98837000Y-87468000D01*
X98837000Y-86268000D02*
X99537000Y-86268000D01*
X179744000Y-115258000D02*
X181444000Y-115258000D01*
X181444000Y-115258000D02*
X181444000Y-112708000D01*
X179744000Y-115258000D02*
X179744000Y-112708000D01*
X182938000Y-112180000D02*
X182938000Y-113880000D01*
X182938000Y-113880000D02*
X185488000Y-113880000D01*
X182938000Y-112180000D02*
X185488000Y-112180000D01*
D12*
X147066000Y-91186000D02*
X147066000Y-86106000D01*
X147066000Y-86106000D02*
X126746000Y-86106000D01*
X126746000Y-86106000D02*
X126746000Y-91186000D01*
X126746000Y-91186000D02*
X147066000Y-91186000D01*
D11*
X159044000Y-126826000D02*
X148804000Y-126826000D01*
X159044000Y-122185000D02*
X148804000Y-122185000D01*
X159044000Y-126826000D02*
X159044000Y-122185000D01*
X148804000Y-126826000D02*
X148804000Y-122185000D01*
X159044000Y-125316000D02*
X148804000Y-125316000D01*
X155774000Y-126826000D02*
X155774000Y-125316000D01*
X152073000Y-126826000D02*
X152073000Y-125316000D01*
X170982000Y-126826000D02*
X160742000Y-126826000D01*
X170982000Y-122185000D02*
X160742000Y-122185000D01*
X170982000Y-126826000D02*
X170982000Y-122185000D01*
X160742000Y-126826000D02*
X160742000Y-122185000D01*
X170982000Y-125316000D02*
X160742000Y-125316000D01*
X167712000Y-126826000D02*
X167712000Y-125316000D01*
X164011000Y-126826000D02*
X164011000Y-125316000D01*
X104231000Y-104632000D02*
X104231000Y-102632000D01*
X104231000Y-102632000D02*
X100331000Y-102632000D01*
X104231000Y-104632000D02*
X100331000Y-104632000D01*
X94653000Y-95428000D02*
X93053000Y-95428000D01*
X93053000Y-95428000D02*
X93053000Y-98028000D01*
X94653000Y-95428000D02*
X94653000Y-98028000D01*
X94527000Y-93448000D02*
X96227000Y-93448000D01*
X96227000Y-93448000D02*
X96227000Y-90898000D01*
X94527000Y-93448000D02*
X94527000Y-90898000D01*
X92241000Y-120880000D02*
X93941000Y-120880000D01*
X93941000Y-120880000D02*
X93941000Y-118330000D01*
X92241000Y-120880000D02*
X92241000Y-118330000D01*
X94385000Y-119292000D02*
X94385000Y-120992000D01*
X94385000Y-120992000D02*
X96935000Y-120992000D01*
X94385000Y-119292000D02*
X96935000Y-119292000D01*
D12*
X167922000Y-66766000D02*
X167922000Y-66366000D01*
X171422000Y-67866000D02*
X164422000Y-67866000D01*
X171422000Y-66766000D02*
X164422000Y-66766000D01*
X171422000Y-73966000D02*
X171422000Y-66366000D01*
X164422000Y-66366000D02*
X164422000Y-73966000D01*
X164422000Y-73966000D02*
X171422000Y-73966000D01*
X112364000Y-66296000D02*
X162464000Y-66296000D01*
X162464000Y-66296000D02*
X162464000Y-79756000D01*
X162464000Y-79756000D02*
X153414000Y-84836000D01*
X153414000Y-84836000D02*
X121414000Y-84836000D01*
X121414000Y-84836000D02*
X112364000Y-79756000D01*
X112364000Y-79756000D02*
X112364000Y-66296000D01*
X80899000Y-88646000D02*
X80899000Y-87376000D01*
X80899000Y-87376000D02*
X82169000Y-87376000D01*
X80899000Y-88646000D02*
X78359000Y-88646000D01*
X78359000Y-88646000D02*
X78359000Y-93726000D01*
X78359000Y-93726000D02*
X80899000Y-93726000D01*
X80899000Y-93726000D02*
X80899000Y-94996000D01*
X80899000Y-94996000D02*
X82169000Y-94996000D01*
D11*
X174810000Y-116840000D02*
G75*
G03X174810000Y-116840000I-3590000J0D01*
G01*
X166682000Y-89662000D02*
G75*
G03X166682000Y-89662000I-3590000J0D01*
G01*
X103001000Y-107496000D02*
X101001000Y-107496000D01*
X101001000Y-105356000D02*
X103001000Y-105356000D01*
X102727000Y-93780000D02*
X100727000Y-93780000D01*
X100727000Y-91640000D02*
X102727000Y-91640000D01*
X98949000Y-87830000D02*
X100949000Y-87830000D01*
X100949000Y-89970000D02*
X98949000Y-89970000D01*
X128604000Y-126911000D02*
X112464000Y-126911000D01*
X128604000Y-121640000D02*
X112464000Y-121640000D01*
X128604000Y-126911000D02*
X128604000Y-121640000D01*
X112464000Y-126911000D02*
X112464000Y-121640000D01*
X122338000Y-126911000D02*
X122338000Y-121640000D01*
X118729000Y-126911000D02*
X118729000Y-121640000D01*
X146384000Y-126911000D02*
X130244000Y-126911000D01*
X146384000Y-121640000D02*
X130244000Y-121640000D01*
X146384000Y-126911000D02*
X146384000Y-121640000D01*
X130244000Y-126911000D02*
X130244000Y-121640000D01*
X140118000Y-126911000D02*
X140118000Y-121640000D01*
X136509000Y-126911000D02*
X136509000Y-121640000D01*
X200996000Y-123170000D02*
X200996000Y-122170000D01*
X202356000Y-122170000D02*
X202356000Y-123170000D01*
X187726000Y-112350000D02*
X188726000Y-112350000D01*
X188726000Y-113710000D02*
X187726000Y-113710000D01*
X195408000Y-96524000D02*
X195408000Y-95524000D01*
X196768000Y-95524000D02*
X196768000Y-96524000D01*
X126828000Y-102874000D02*
X126828000Y-101874000D01*
X128188000Y-101874000D02*
X128188000Y-102874000D01*
X89961000Y-84336000D02*
X89961000Y-85336000D01*
X88601000Y-85336000D02*
X88601000Y-84336000D01*
X92845000Y-83140000D02*
X93845000Y-83140000D01*
X93845000Y-84500000D02*
X92845000Y-84500000D01*
X99867000Y-111006000D02*
X99867000Y-112006000D01*
X98507000Y-112006000D02*
X98507000Y-111006000D01*
X99867000Y-108466000D02*
X99867000Y-109466000D01*
X98507000Y-109466000D02*
X98507000Y-108466000D01*
X94025000Y-113038000D02*
X94025000Y-114038000D01*
X92665000Y-114038000D02*
X92665000Y-113038000D01*
X89871000Y-114038000D02*
X89871000Y-113038000D01*
X91231000Y-113038000D02*
X91231000Y-114038000D01*
X94951000Y-99294000D02*
X94951000Y-98294000D01*
X96311000Y-98294000D02*
X96311000Y-99294000D01*
X103841000Y-120642000D02*
X103841000Y-119642000D01*
X105201000Y-119642000D02*
X105201000Y-120642000D01*
X105201000Y-116594000D02*
X105201000Y-117594000D01*
X103841000Y-117594000D02*
X103841000Y-116594000D01*
X103677000Y-87638000D02*
X103677000Y-88638000D01*
X102317000Y-88638000D02*
X102317000Y-87638000D01*
X103841000Y-88638000D02*
X103841000Y-87638000D01*
X105201000Y-87638000D02*
X105201000Y-88638000D01*
X101047000Y-73144000D02*
X101047000Y-72144000D01*
X102407000Y-72144000D02*
X102407000Y-73144000D01*
X171495000Y-75065000D02*
X171495000Y-76065000D01*
X170135000Y-76065000D02*
X170135000Y-75065000D01*
D12*
X78359000Y-118792000D02*
X78359000Y-128952000D01*
X80899000Y-118792000D02*
X80899000Y-127682000D01*
X85979000Y-116252000D02*
X80899000Y-116252000D01*
X80899000Y-116252000D02*
X80899000Y-118792000D01*
X80899000Y-118792000D02*
X78359000Y-118792000D01*
X78359000Y-128952000D02*
X80899000Y-128952000D01*
X80899000Y-127682000D02*
X80899000Y-131492000D01*
X80899000Y-131492000D02*
X85979000Y-131492000D01*
X85979000Y-131492000D02*
X85979000Y-116252000D01*
D11*
X193340000Y-70972000D02*
X191840000Y-70972000D01*
X191840000Y-70972000D02*
X191840000Y-71242000D01*
X191840000Y-71242000D02*
X189010000Y-71242000D01*
X193340000Y-77872000D02*
X191840000Y-77872000D01*
X191840000Y-77872000D02*
X191840000Y-77602000D01*
X191840000Y-77602000D02*
X190740000Y-77602000D01*
X179264000Y-119650000D02*
G75*
G02X179264000Y-121650000I0J-1000000D01*
G01*
X179264000Y-121650000D02*
X179264000Y-123300000D01*
X179264000Y-123300000D02*
X197164000Y-123300000D01*
X197164000Y-123300000D02*
X197164000Y-118000000D01*
X197164000Y-118000000D02*
X179264000Y-118000000D01*
X179264000Y-118000000D02*
X179264000Y-119650000D01*
X213762000Y-84120000D02*
X213762000Y-82620000D01*
X213762000Y-82620000D02*
X213492000Y-82620000D01*
X213492000Y-82620000D02*
X213492000Y-79790000D01*
X206862000Y-84120000D02*
X206862000Y-82620000D01*
X206862000Y-82620000D02*
X207132000Y-82620000D01*
X207132000Y-82620000D02*
X207132000Y-81520000D01*
X209026000Y-101286000D02*
G75*
G02X207026000Y-101286000I-1000000J0D01*
G01*
X207026000Y-101286000D02*
X205376000Y-101286000D01*
X205376000Y-101286000D02*
X205376000Y-111566000D01*
X205376000Y-111566000D02*
X210676000Y-111566000D01*
X210676000Y-111566000D02*
X210676000Y-101286000D01*
X210676000Y-101286000D02*
X209026000Y-101286000D01*
X208772000Y-115002000D02*
G75*
G02X206772000Y-115002000I-1000000J0D01*
G01*
X206772000Y-115002000D02*
X205122000Y-115002000D01*
X205122000Y-115002000D02*
X205122000Y-125282000D01*
X205122000Y-125282000D02*
X210422000Y-125282000D01*
X210422000Y-125282000D02*
X210422000Y-115002000D01*
X210422000Y-115002000D02*
X208772000Y-115002000D01*
X101081000Y-111084000D02*
X102881000Y-111084000D01*
X102881000Y-107864000D02*
X100431000Y-107864000D01*
X87697000Y-74946000D02*
G75*
G02X87697000Y-76946000I0J-1000000D01*
G01*
X87697000Y-76946000D02*
X87697000Y-78596000D01*
X87697000Y-78596000D02*
X97977000Y-78596000D01*
X97977000Y-78596000D02*
X97977000Y-73296000D01*
X97977000Y-73296000D02*
X87697000Y-73296000D01*
X87697000Y-73296000D02*
X87697000Y-74946000D01*
X86681000Y-105934000D02*
G75*
G02X86681000Y-107934000I0J-1000000D01*
G01*
X86681000Y-107934000D02*
X86681000Y-109584000D01*
X86681000Y-109584000D02*
X96961000Y-109584000D01*
X96961000Y-109584000D02*
X96961000Y-104284000D01*
X96961000Y-104284000D02*
X86681000Y-104284000D01*
X86681000Y-104284000D02*
X86681000Y-105934000D01*
X98078000Y-125690999D02*
G75*
G02X98078000Y-127690999I0J-1000000D01*
G01*
X98078000Y-127690999D02*
X98078000Y-129340999D01*
X98078000Y-129340999D02*
X108358000Y-129340999D01*
X108358000Y-129340999D02*
X108358000Y-124040999D01*
X108358000Y-124040999D02*
X98078000Y-124040999D01*
X98078000Y-124040999D02*
X98078000Y-125690999D01*
X100827000Y-97302000D02*
X102627000Y-97302000D01*
X102627000Y-94082000D02*
X100177000Y-94082000D01*
X86681000Y-125492000D02*
G75*
G02X86681000Y-127492000I0J-1000000D01*
G01*
X86681000Y-127492000D02*
X86681000Y-129142000D01*
X86681000Y-129142000D02*
X96961000Y-129142000D01*
X96961000Y-129142000D02*
X96961000Y-123842000D01*
X96961000Y-123842000D02*
X86681000Y-123842000D01*
X86681000Y-123842000D02*
X86681000Y-125492000D01*
X209026000Y-91634000D02*
G75*
G02X207026000Y-91634000I-1000000J0D01*
G01*
X207026000Y-91634000D02*
X205376000Y-91634000D01*
X205376000Y-91634000D02*
X205376000Y-99374000D01*
X205376000Y-99374000D02*
X210676000Y-99374000D01*
X210676000Y-99374000D02*
X210676000Y-91634000D01*
X210676000Y-91634000D02*
X209026000Y-91634000D01*
D12*
X201246769Y-104648000D02*
G75*
G03X201246769Y-104648000I-5158769J0D01*
G01*
X199088000Y-104648000D02*
G75*
G03X199088000Y-104648000I-3000000J0D01*
G01*
X170942000Y-78486000D02*
X168402000Y-78486000D01*
X168402000Y-78486000D02*
X168402000Y-81026000D01*
X169672000Y-79756000D02*
X169672000Y-94996000D01*
X169672000Y-94996000D02*
X184912000Y-94996000D01*
X184912000Y-94996000D02*
X184912000Y-79756000D01*
X184912000Y-79756000D02*
X169672000Y-79756000D01*
D11*
X162278000Y-95246000D02*
X188898000Y-95246000D01*
X162278000Y-102366000D02*
X188898000Y-102366000D01*
X162278000Y-95246000D02*
X162278000Y-102366000D01*
X188898000Y-95246000D02*
X188898000Y-102366000D01*
X189004000Y-110748000D02*
X162384000Y-110748000D01*
X189004000Y-103628000D02*
X162384000Y-103628000D01*
X189004000Y-110748000D02*
X189004000Y-103628000D01*
X162384000Y-110748000D02*
X162384000Y-103628000D01*
X161180000Y-104314000D02*
G75*
G03X161180000Y-104314000I-12590000J0D01*
G01*
X161140000Y-104314000D02*
X136040000Y-104314000D01*
X161140000Y-104354000D02*
X136040000Y-104354000D01*
X161140000Y-104394000D02*
X136040000Y-104394000D01*
X161140000Y-104434000D02*
X136040000Y-104434000D01*
X161139000Y-104474000D02*
X136041000Y-104474000D01*
X161139000Y-104514000D02*
X136041000Y-104514000D01*
X161138000Y-104554000D02*
X136042000Y-104554000D01*
X161137000Y-104594000D02*
X136043000Y-104594000D01*
X161136000Y-104634000D02*
X136044000Y-104634000D01*
X161135000Y-104674000D02*
X136045000Y-104674000D01*
X161134000Y-104714000D02*
X136046000Y-104714000D01*
X161133000Y-104754000D02*
X136047000Y-104754000D01*
X161131000Y-104794000D02*
X136049000Y-104794000D01*
X161130000Y-104834000D02*
X136050000Y-104834000D01*
X161128000Y-104874000D02*
X136052000Y-104874000D01*
X161126000Y-104914000D02*
X136054000Y-104914000D01*
X161124000Y-104954000D02*
X136056000Y-104954000D01*
X161122000Y-104994000D02*
X136058000Y-104994000D01*
X161120000Y-105035000D02*
X136060000Y-105035000D01*
X161118000Y-105075000D02*
X136062000Y-105075000D01*
X161115000Y-105115000D02*
X136065000Y-105115000D01*
X161112000Y-105155000D02*
X136068000Y-105155000D01*
X161110000Y-105195000D02*
X136070000Y-105195000D01*
X161107000Y-105235000D02*
X136073000Y-105235000D01*
X161104000Y-105275000D02*
X136076000Y-105275000D01*
X161101000Y-105315000D02*
X136079000Y-105315000D01*
X161097000Y-105355000D02*
X136083000Y-105355000D01*
X161094000Y-105395000D02*
X136086000Y-105395000D01*
X161091000Y-105435000D02*
X136089000Y-105435000D01*
X161087000Y-105475000D02*
X136093000Y-105475000D01*
X161083000Y-105515000D02*
X136097000Y-105515000D01*
X161079000Y-105555000D02*
X136101000Y-105555000D01*
X161075000Y-105595000D02*
X136105000Y-105595000D01*
X161071000Y-105635000D02*
X136109000Y-105635000D01*
X161067000Y-105675000D02*
X136113000Y-105675000D01*
X161062000Y-105715000D02*
X136118000Y-105715000D01*
X161058000Y-105755000D02*
X136122000Y-105755000D01*
X161053000Y-105795000D02*
X136127000Y-105795000D01*
X161048000Y-105835000D02*
X136132000Y-105835000D01*
X161043000Y-105875000D02*
X136137000Y-105875000D01*
X161038000Y-105915000D02*
X136142000Y-105915000D01*
X161033000Y-105955000D02*
X136147000Y-105955000D01*
X161028000Y-105995000D02*
X136152000Y-105995000D01*
X161022000Y-106035000D02*
X136158000Y-106035000D01*
X161017000Y-106075000D02*
X136163000Y-106075000D01*
X161011000Y-106115000D02*
X136169000Y-106115000D01*
X161005000Y-106155000D02*
X136175000Y-106155000D01*
X160999000Y-106195000D02*
X136181000Y-106195000D01*
X160993000Y-106235000D02*
X136187000Y-106235000D01*
X160987000Y-106275000D02*
X136193000Y-106275000D01*
X160981000Y-106315000D02*
X136199000Y-106315000D01*
X160974000Y-106355000D02*
X136206000Y-106355000D01*
X160967000Y-106395000D02*
X136213000Y-106395000D01*
X160961000Y-106435000D02*
X136219000Y-106435000D01*
X160954000Y-106475000D02*
X136226000Y-106475000D01*
X160947000Y-106515000D02*
X136233000Y-106515000D01*
X160940000Y-106555000D02*
X136240000Y-106555000D01*
X160932000Y-106595000D02*
X136248000Y-106595000D01*
X160925000Y-106635000D02*
X136255000Y-106635000D01*
X160917000Y-106675000D02*
X136263000Y-106675000D01*
X160910000Y-106715000D02*
X136270000Y-106715000D01*
X160902000Y-106755000D02*
X136278000Y-106755000D01*
X160894000Y-106795000D02*
X136286000Y-106795000D01*
X160886000Y-106835000D02*
X136294000Y-106835000D01*
X160877000Y-106875000D02*
X136303000Y-106875000D01*
X160869000Y-106915000D02*
X136311000Y-106915000D01*
X160861000Y-106955000D02*
X136319000Y-106955000D01*
X160852000Y-106995000D02*
X136328000Y-106995000D01*
X160843000Y-107035000D02*
X136337000Y-107035000D01*
X160834000Y-107075000D02*
X136346000Y-107075000D01*
X160825000Y-107115000D02*
X136355000Y-107115000D01*
X160816000Y-107155000D02*
X150770000Y-107155000D01*
X146410000Y-107155000D02*
X136364000Y-107155000D01*
X160807000Y-107195000D02*
X150770000Y-107195000D01*
X146410000Y-107195000D02*
X136373000Y-107195000D01*
X160797000Y-107235000D02*
X150770000Y-107235000D01*
X146410000Y-107235000D02*
X136383000Y-107235000D01*
X160788000Y-107275000D02*
X150770000Y-107275000D01*
X146410000Y-107275000D02*
X136392000Y-107275000D01*
X160778000Y-107315000D02*
X150770000Y-107315000D01*
X146410000Y-107315000D02*
X136402000Y-107315000D01*
X160768000Y-107355000D02*
X150770000Y-107355000D01*
X146410000Y-107355000D02*
X136412000Y-107355000D01*
X160758000Y-107395000D02*
X150770000Y-107395000D01*
X146410000Y-107395000D02*
X136422000Y-107395000D01*
X160748000Y-107435000D02*
X150770000Y-107435000D01*
X146410000Y-107435000D02*
X136432000Y-107435000D01*
X160737000Y-107475000D02*
X150770000Y-107475000D01*
X146410000Y-107475000D02*
X136443000Y-107475000D01*
X160727000Y-107515000D02*
X150770000Y-107515000D01*
X146410000Y-107515000D02*
X136453000Y-107515000D01*
X160716000Y-107555000D02*
X150770000Y-107555000D01*
X146410000Y-107555000D02*
X136464000Y-107555000D01*
X160706000Y-107595000D02*
X150770000Y-107595000D01*
X146410000Y-107595000D02*
X136474000Y-107595000D01*
X160695000Y-107635000D02*
X150770000Y-107635000D01*
X146410000Y-107635000D02*
X136485000Y-107635000D01*
X160684000Y-107675000D02*
X150770000Y-107675000D01*
X146410000Y-107675000D02*
X136496000Y-107675000D01*
X160673000Y-107715000D02*
X150770000Y-107715000D01*
X146410000Y-107715000D02*
X136507000Y-107715000D01*
X160661000Y-107755000D02*
X150770000Y-107755000D01*
X146410000Y-107755000D02*
X136519000Y-107755000D01*
X160650000Y-107795000D02*
X150770000Y-107795000D01*
X146410000Y-107795000D02*
X136530000Y-107795000D01*
X160638000Y-107835000D02*
X150770000Y-107835000D01*
X146410000Y-107835000D02*
X136542000Y-107835000D01*
X160627000Y-107875000D02*
X150770000Y-107875000D01*
X146410000Y-107875000D02*
X136553000Y-107875000D01*
X160615000Y-107915000D02*
X150770000Y-107915000D01*
X146410000Y-107915000D02*
X136565000Y-107915000D01*
X160603000Y-107955000D02*
X150770000Y-107955000D01*
X146410000Y-107955000D02*
X136577000Y-107955000D01*
X160591000Y-107995000D02*
X150770000Y-107995000D01*
X146410000Y-107995000D02*
X136589000Y-107995000D01*
X160578000Y-108035000D02*
X150770000Y-108035000D01*
X146410000Y-108035000D02*
X136602000Y-108035000D01*
X160566000Y-108075000D02*
X150770000Y-108075000D01*
X146410000Y-108075000D02*
X136614000Y-108075000D01*
X160553000Y-108115000D02*
X150770000Y-108115000D01*
X146410000Y-108115000D02*
X136627000Y-108115000D01*
X160541000Y-108155000D02*
X150770000Y-108155000D01*
X146410000Y-108155000D02*
X136639000Y-108155000D01*
X160528000Y-108195000D02*
X150770000Y-108195000D01*
X146410000Y-108195000D02*
X136652000Y-108195000D01*
X160515000Y-108235000D02*
X150770000Y-108235000D01*
X146410000Y-108235000D02*
X136665000Y-108235000D01*
X160502000Y-108275000D02*
X150770000Y-108275000D01*
X146410000Y-108275000D02*
X136678000Y-108275000D01*
X160488000Y-108315000D02*
X150770000Y-108315000D01*
X146410000Y-108315000D02*
X136692000Y-108315000D01*
X160475000Y-108355000D02*
X150770000Y-108355000D01*
X146410000Y-108355000D02*
X136705000Y-108355000D01*
X160461000Y-108395000D02*
X150770000Y-108395000D01*
X146410000Y-108395000D02*
X136719000Y-108395000D01*
X160447000Y-108435000D02*
X150770000Y-108435000D01*
X146410000Y-108435000D02*
X136733000Y-108435000D01*
X160433000Y-108475000D02*
X150770000Y-108475000D01*
X146410000Y-108475000D02*
X136747000Y-108475000D01*
X160419000Y-108515000D02*
X150770000Y-108515000D01*
X146410000Y-108515000D02*
X136761000Y-108515000D01*
X160405000Y-108555000D02*
X150770000Y-108555000D01*
X146410000Y-108555000D02*
X136775000Y-108555000D01*
X160391000Y-108595000D02*
X150770000Y-108595000D01*
X146410000Y-108595000D02*
X136789000Y-108595000D01*
X160376000Y-108635000D02*
X150770000Y-108635000D01*
X146410000Y-108635000D02*
X136804000Y-108635000D01*
X160361000Y-108675000D02*
X150770000Y-108675000D01*
X146410000Y-108675000D02*
X136819000Y-108675000D01*
X160347000Y-108715000D02*
X150770000Y-108715000D01*
X146410000Y-108715000D02*
X136833000Y-108715000D01*
X160332000Y-108755000D02*
X150770000Y-108755000D01*
X146410000Y-108755000D02*
X136848000Y-108755000D01*
X160316000Y-108795000D02*
X150770000Y-108795000D01*
X146410000Y-108795000D02*
X136864000Y-108795000D01*
X160301000Y-108835000D02*
X150770000Y-108835000D01*
X146410000Y-108835000D02*
X136879000Y-108835000D01*
X160286000Y-108875000D02*
X150770000Y-108875000D01*
X146410000Y-108875000D02*
X136894000Y-108875000D01*
X160270000Y-108915000D02*
X150770000Y-108915000D01*
X146410000Y-108915000D02*
X136910000Y-108915000D01*
X160254000Y-108955000D02*
X150770000Y-108955000D01*
X146410000Y-108955000D02*
X136926000Y-108955000D01*
X160238000Y-108995000D02*
X150770000Y-108995000D01*
X146410000Y-108995000D02*
X136942000Y-108995000D01*
X160222000Y-109035000D02*
X150770000Y-109035000D01*
X146410000Y-109035000D02*
X136958000Y-109035000D01*
X160206000Y-109075000D02*
X150770000Y-109075000D01*
X146410000Y-109075000D02*
X136974000Y-109075000D01*
X160190000Y-109115000D02*
X150770000Y-109115000D01*
X146410000Y-109115000D02*
X136990000Y-109115000D01*
X160173000Y-109155000D02*
X150770000Y-109155000D01*
X146410000Y-109155000D02*
X137007000Y-109155000D01*
X160156000Y-109195000D02*
X150770000Y-109195000D01*
X146410000Y-109195000D02*
X137024000Y-109195000D01*
X160139000Y-109235000D02*
X150770000Y-109235000D01*
X146410000Y-109235000D02*
X137041000Y-109235000D01*
X160122000Y-109275000D02*
X150770000Y-109275000D01*
X146410000Y-109275000D02*
X137058000Y-109275000D01*
X160105000Y-109315000D02*
X150770000Y-109315000D01*
X146410000Y-109315000D02*
X137075000Y-109315000D01*
X160088000Y-109355000D02*
X150770000Y-109355000D01*
X146410000Y-109355000D02*
X137092000Y-109355000D01*
X160070000Y-109395000D02*
X150770000Y-109395000D01*
X146410000Y-109395000D02*
X137110000Y-109395000D01*
X160052000Y-109435000D02*
X150770000Y-109435000D01*
X146410000Y-109435000D02*
X137128000Y-109435000D01*
X160035000Y-109475000D02*
X150770000Y-109475000D01*
X146410000Y-109475000D02*
X137145000Y-109475000D01*
X160016000Y-109515000D02*
X150770000Y-109515000D01*
X146410000Y-109515000D02*
X137164000Y-109515000D01*
X159998000Y-109555000D02*
X150770000Y-109555000D01*
X146410000Y-109555000D02*
X137182000Y-109555000D01*
X159980000Y-109595000D02*
X150770000Y-109595000D01*
X146410000Y-109595000D02*
X137200000Y-109595000D01*
X159961000Y-109635000D02*
X150770000Y-109635000D01*
X146410000Y-109635000D02*
X137219000Y-109635000D01*
X159943000Y-109675000D02*
X150770000Y-109675000D01*
X146410000Y-109675000D02*
X137237000Y-109675000D01*
X159924000Y-109715000D02*
X150770000Y-109715000D01*
X146410000Y-109715000D02*
X137256000Y-109715000D01*
X159905000Y-109755000D02*
X150770000Y-109755000D01*
X146410000Y-109755000D02*
X137275000Y-109755000D01*
X159885000Y-109795000D02*
X150770000Y-109795000D01*
X146410000Y-109795000D02*
X137295000Y-109795000D01*
X159866000Y-109835000D02*
X150770000Y-109835000D01*
X146410000Y-109835000D02*
X137314000Y-109835000D01*
X159846000Y-109875000D02*
X150770000Y-109875000D01*
X146410000Y-109875000D02*
X137334000Y-109875000D01*
X159826000Y-109915000D02*
X150770000Y-109915000D01*
X146410000Y-109915000D02*
X137354000Y-109915000D01*
X159807000Y-109955000D02*
X150770000Y-109955000D01*
X146410000Y-109955000D02*
X137373000Y-109955000D01*
X159786000Y-109995000D02*
X150770000Y-109995000D01*
X146410000Y-109995000D02*
X137394000Y-109995000D01*
X159766000Y-110035000D02*
X150770000Y-110035000D01*
X146410000Y-110035000D02*
X137414000Y-110035000D01*
X159746000Y-110075000D02*
X150770000Y-110075000D01*
X146410000Y-110075000D02*
X137434000Y-110075000D01*
X159725000Y-110115000D02*
X150770000Y-110115000D01*
X146410000Y-110115000D02*
X137455000Y-110115000D01*
X159704000Y-110155000D02*
X150770000Y-110155000D01*
X146410000Y-110155000D02*
X137476000Y-110155000D01*
X159683000Y-110195000D02*
X150770000Y-110195000D01*
X146410000Y-110195000D02*
X137497000Y-110195000D01*
X159662000Y-110235000D02*
X150770000Y-110235000D01*
X146410000Y-110235000D02*
X137518000Y-110235000D01*
X159640000Y-110275000D02*
X150770000Y-110275000D01*
X146410000Y-110275000D02*
X137540000Y-110275000D01*
X159619000Y-110315000D02*
X150770000Y-110315000D01*
X146410000Y-110315000D02*
X137561000Y-110315000D01*
X159597000Y-110355000D02*
X150770000Y-110355000D01*
X146410000Y-110355000D02*
X137583000Y-110355000D01*
X159575000Y-110395000D02*
X150770000Y-110395000D01*
X146410000Y-110395000D02*
X137605000Y-110395000D01*
X159553000Y-110435000D02*
X150770000Y-110435000D01*
X146410000Y-110435000D02*
X137627000Y-110435000D01*
X159531000Y-110475000D02*
X150770000Y-110475000D01*
X146410000Y-110475000D02*
X137649000Y-110475000D01*
X159508000Y-110515000D02*
X150770000Y-110515000D01*
X146410000Y-110515000D02*
X137672000Y-110515000D01*
X159485000Y-110555000D02*
X150770000Y-110555000D01*
X146410000Y-110555000D02*
X137695000Y-110555000D01*
X159462000Y-110595000D02*
X150770000Y-110595000D01*
X146410000Y-110595000D02*
X137718000Y-110595000D01*
X159439000Y-110635000D02*
X150770000Y-110635000D01*
X146410000Y-110635000D02*
X137741000Y-110635000D01*
X159416000Y-110675000D02*
X150770000Y-110675000D01*
X146410000Y-110675000D02*
X137764000Y-110675000D01*
X159392000Y-110715000D02*
X150770000Y-110715000D01*
X146410000Y-110715000D02*
X137788000Y-110715000D01*
X159369000Y-110755000D02*
X150770000Y-110755000D01*
X146410000Y-110755000D02*
X137811000Y-110755000D01*
X159345000Y-110795000D02*
X150770000Y-110795000D01*
X146410000Y-110795000D02*
X137835000Y-110795000D01*
X159321000Y-110835000D02*
X150770000Y-110835000D01*
X146410000Y-110835000D02*
X137859000Y-110835000D01*
X159296000Y-110875000D02*
X150770000Y-110875000D01*
X146410000Y-110875000D02*
X137884000Y-110875000D01*
X159272000Y-110915000D02*
X150770000Y-110915000D01*
X146410000Y-110915000D02*
X137908000Y-110915000D01*
X159247000Y-110955000D02*
X150770000Y-110955000D01*
X146410000Y-110955000D02*
X137933000Y-110955000D01*
X159222000Y-110995000D02*
X150770000Y-110995000D01*
X146410000Y-110995000D02*
X137958000Y-110995000D01*
X159197000Y-111035000D02*
X150770000Y-111035000D01*
X146410000Y-111035000D02*
X137983000Y-111035000D01*
X159172000Y-111075000D02*
X150770000Y-111075000D01*
X146410000Y-111075000D02*
X138008000Y-111075000D01*
X159146000Y-111115000D02*
X150770000Y-111115000D01*
X146410000Y-111115000D02*
X138034000Y-111115000D01*
X159120000Y-111155000D02*
X150770000Y-111155000D01*
X146410000Y-111155000D02*
X138060000Y-111155000D01*
X159094000Y-111195000D02*
X150770000Y-111195000D01*
X146410000Y-111195000D02*
X138086000Y-111195000D01*
X159068000Y-111235000D02*
X150770000Y-111235000D01*
X146410000Y-111235000D02*
X138112000Y-111235000D01*
X159042000Y-111275000D02*
X150770000Y-111275000D01*
X146410000Y-111275000D02*
X138138000Y-111275000D01*
X159015000Y-111315000D02*
X150770000Y-111315000D01*
X146410000Y-111315000D02*
X138165000Y-111315000D01*
X158988000Y-111355000D02*
X150770000Y-111355000D01*
X146410000Y-111355000D02*
X138192000Y-111355000D01*
X158961000Y-111395000D02*
X150770000Y-111395000D01*
X146410000Y-111395000D02*
X138219000Y-111395000D01*
X158934000Y-111435000D02*
X150770000Y-111435000D01*
X146410000Y-111435000D02*
X138246000Y-111435000D01*
X158906000Y-111475000D02*
X150770000Y-111475000D01*
X146410000Y-111475000D02*
X138274000Y-111475000D01*
X158879000Y-111515000D02*
X138301000Y-111515000D01*
X158851000Y-111555000D02*
X138329000Y-111555000D01*
X158822000Y-111595000D02*
X138358000Y-111595000D01*
X158794000Y-111635000D02*
X138386000Y-111635000D01*
X158765000Y-111675000D02*
X138415000Y-111675000D01*
X158736000Y-111715000D02*
X138444000Y-111715000D01*
X158707000Y-111755000D02*
X138473000Y-111755000D01*
X158678000Y-111795000D02*
X138502000Y-111795000D01*
X158648000Y-111835000D02*
X138532000Y-111835000D01*
X158618000Y-111875000D02*
X138562000Y-111875000D01*
X158588000Y-111915000D02*
X138592000Y-111915000D01*
X158557000Y-111955000D02*
X138623000Y-111955000D01*
X158527000Y-111995000D02*
X138653000Y-111995000D01*
X158496000Y-112035000D02*
X138684000Y-112035000D01*
X158465000Y-112075000D02*
X138715000Y-112075000D01*
X158433000Y-112115000D02*
X138747000Y-112115000D01*
X158402000Y-112155000D02*
X138778000Y-112155000D01*
X158370000Y-112195000D02*
X138810000Y-112195000D01*
X158337000Y-112235000D02*
X138843000Y-112235000D01*
X158305000Y-112275000D02*
X138875000Y-112275000D01*
X158272000Y-112315000D02*
X138908000Y-112315000D01*
X158239000Y-112355000D02*
X138941000Y-112355000D01*
X158206000Y-112395000D02*
X138974000Y-112395000D01*
X158172000Y-112435000D02*
X139008000Y-112435000D01*
X158138000Y-112475000D02*
X139042000Y-112475000D01*
X158104000Y-112514000D02*
X139076000Y-112514000D01*
X158069000Y-112554000D02*
X139111000Y-112554000D01*
X158035000Y-112594000D02*
X139145000Y-112594000D01*
X158000000Y-112634000D02*
X139180000Y-112634000D01*
X157964000Y-112674000D02*
X139216000Y-112674000D01*
X157929000Y-112714000D02*
X139251000Y-112714000D01*
X157893000Y-112754000D02*
X139287000Y-112754000D01*
X157856000Y-112794000D02*
X139324000Y-112794000D01*
X157820000Y-112834000D02*
X139360000Y-112834000D01*
X157783000Y-112874000D02*
X139397000Y-112874000D01*
X157746000Y-112914000D02*
X139434000Y-112914000D01*
X157708000Y-112954000D02*
X139472000Y-112954000D01*
X157670000Y-112994000D02*
X139510000Y-112994000D01*
X157632000Y-113034000D02*
X139548000Y-113034000D01*
X157593000Y-113074000D02*
X139587000Y-113074000D01*
X157554000Y-113114000D02*
X139626000Y-113114000D01*
X157515000Y-113154000D02*
X139665000Y-113154000D01*
X157475000Y-113194000D02*
X139705000Y-113194000D01*
X157435000Y-113234000D02*
X139745000Y-113234000D01*
X157395000Y-113274000D02*
X139785000Y-113274000D01*
X157354000Y-113314000D02*
X139826000Y-113314000D01*
X157313000Y-113354000D02*
X139867000Y-113354000D01*
X157272000Y-113394000D02*
X139908000Y-113394000D01*
X157230000Y-113434000D02*
X139950000Y-113434000D01*
X157188000Y-113474000D02*
X139992000Y-113474000D01*
X157145000Y-113514000D02*
X140035000Y-113514000D01*
X157102000Y-113554000D02*
X140078000Y-113554000D01*
X157059000Y-113594000D02*
X140121000Y-113594000D01*
X157015000Y-113634000D02*
X140165000Y-113634000D01*
X156971000Y-113674000D02*
X140209000Y-113674000D01*
X156926000Y-113714000D02*
X140254000Y-113714000D01*
X156881000Y-113754000D02*
X140299000Y-113754000D01*
X156835000Y-113794000D02*
X140345000Y-113794000D01*
X156789000Y-113834000D02*
X140391000Y-113834000D01*
X156743000Y-113874000D02*
X140437000Y-113874000D01*
X156696000Y-113914000D02*
X140484000Y-113914000D01*
X156649000Y-113954000D02*
X140531000Y-113954000D01*
X156601000Y-113994000D02*
X140579000Y-113994000D01*
X156552000Y-114034000D02*
X140628000Y-114034000D01*
X156504000Y-114074000D02*
X140676000Y-114074000D01*
X156454000Y-114114000D02*
X140726000Y-114114000D01*
X156404000Y-114154000D02*
X140776000Y-114154000D01*
X156354000Y-114194000D02*
X140826000Y-114194000D01*
X156303000Y-114234000D02*
X140877000Y-114234000D01*
X156252000Y-114274000D02*
X140928000Y-114274000D01*
X156200000Y-114314000D02*
X140980000Y-114314000D01*
X156147000Y-114354000D02*
X141033000Y-114354000D01*
X156094000Y-114394000D02*
X141086000Y-114394000D01*
X156040000Y-114434000D02*
X141140000Y-114434000D01*
X155986000Y-114474000D02*
X141194000Y-114474000D01*
X155931000Y-114514000D02*
X141249000Y-114514000D01*
X155875000Y-114554000D02*
X141305000Y-114554000D01*
X155819000Y-114594000D02*
X141361000Y-114594000D01*
X155762000Y-114634000D02*
X141418000Y-114634000D01*
X155704000Y-114674000D02*
X141476000Y-114674000D01*
X155646000Y-114714000D02*
X141534000Y-114714000D01*
X155587000Y-114754000D02*
X141593000Y-114754000D01*
X155527000Y-114794000D02*
X141653000Y-114794000D01*
X155467000Y-114834000D02*
X141713000Y-114834000D01*
X155406000Y-114874000D02*
X141774000Y-114874000D01*
X155344000Y-114914000D02*
X141836000Y-114914000D01*
X155281000Y-114954000D02*
X141899000Y-114954000D01*
X155217000Y-114994000D02*
X141963000Y-114994000D01*
X155153000Y-115034000D02*
X142027000Y-115034000D01*
X155087000Y-115074000D02*
X142093000Y-115074000D01*
X155021000Y-115114000D02*
X142159000Y-115114000D01*
X154954000Y-115154000D02*
X142226000Y-115154000D01*
X154886000Y-115194000D02*
X142294000Y-115194000D01*
X154816000Y-115234000D02*
X142364000Y-115234000D01*
X154746000Y-115274000D02*
X142434000Y-115274000D01*
X154675000Y-115314000D02*
X142505000Y-115314000D01*
X154602000Y-115354000D02*
X142578000Y-115354000D01*
X154529000Y-115394000D02*
X142651000Y-115394000D01*
X154454000Y-115434000D02*
X142726000Y-115434000D01*
X154378000Y-115474000D02*
X142802000Y-115474000D01*
X154301000Y-115514000D02*
X142879000Y-115514000D01*
X154222000Y-115554000D02*
X142958000Y-115554000D01*
X154142000Y-115594000D02*
X143038000Y-115594000D01*
X154061000Y-115634000D02*
X143119000Y-115634000D01*
X153978000Y-115674000D02*
X143202000Y-115674000D01*
X153894000Y-115714000D02*
X143286000Y-115714000D01*
X153807000Y-115754000D02*
X143373000Y-115754000D01*
X153719000Y-115794000D02*
X143461000Y-115794000D01*
X153630000Y-115834000D02*
X143550000Y-115834000D01*
X153538000Y-115874000D02*
X143642000Y-115874000D01*
X153444000Y-115914000D02*
X143736000Y-115914000D01*
X153348000Y-115954000D02*
X143832000Y-115954000D01*
X153250000Y-115994000D02*
X143930000Y-115994000D01*
X153149000Y-116034000D02*
X144031000Y-116034000D01*
X153046000Y-116074000D02*
X144134000Y-116074000D01*
X152940000Y-116114000D02*
X144240000Y-116114000D01*
X152831000Y-116154000D02*
X144349000Y-116154000D01*
X152719000Y-116194000D02*
X144461000Y-116194000D01*
X152603000Y-116234000D02*
X144577000Y-116234000D01*
X152483000Y-116274000D02*
X144697000Y-116274000D01*
X152359000Y-116314000D02*
X144821000Y-116314000D01*
X152231000Y-116354000D02*
X144949000Y-116354000D01*
X152098000Y-116394000D02*
X145082000Y-116394000D01*
X151958000Y-116434000D02*
X145222000Y-116434000D01*
X151813000Y-116474000D02*
X145367000Y-116474000D01*
X151660000Y-116514000D02*
X145520000Y-116514000D01*
X151498000Y-116554000D02*
X145682000Y-116554000D01*
X151327000Y-116594000D02*
X145853000Y-116594000D01*
X151144000Y-116634000D02*
X146036000Y-116634000D01*
X150946000Y-116674000D02*
X146234000Y-116674000D01*
X150730000Y-116714000D02*
X146450000Y-116714000D01*
X150488000Y-116754000D02*
X146692000Y-116754000D01*
X150211000Y-116794000D02*
X146969000Y-116794000D01*
X149876000Y-116834000D02*
X147304000Y-116834000D01*
X149419000Y-116874000D02*
X147761000Y-116874000D01*
X148590000Y-94114000D02*
X148590000Y-97114000D01*
X150090000Y-95614000D02*
X147090000Y-95614000D01*
X135272000Y-104314000D02*
G75*
G03X135272000Y-104314000I-12590000J0D01*
G01*
X135232000Y-104314000D02*
X110132000Y-104314000D01*
X135232000Y-104354000D02*
X110132000Y-104354000D01*
X135232000Y-104394000D02*
X110132000Y-104394000D01*
X135232000Y-104434000D02*
X110132000Y-104434000D01*
X135231000Y-104474000D02*
X110133000Y-104474000D01*
X135231000Y-104514000D02*
X110133000Y-104514000D01*
X135230000Y-104554000D02*
X110134000Y-104554000D01*
X135229000Y-104594000D02*
X110135000Y-104594000D01*
X135228000Y-104634000D02*
X110136000Y-104634000D01*
X135227000Y-104674000D02*
X110137000Y-104674000D01*
X135226000Y-104714000D02*
X110138000Y-104714000D01*
X135225000Y-104754000D02*
X110139000Y-104754000D01*
X135223000Y-104794000D02*
X110141000Y-104794000D01*
X135222000Y-104834000D02*
X110142000Y-104834000D01*
X135220000Y-104874000D02*
X110144000Y-104874000D01*
X135218000Y-104914000D02*
X110146000Y-104914000D01*
X135216000Y-104954000D02*
X110148000Y-104954000D01*
X135214000Y-104994000D02*
X110150000Y-104994000D01*
X135212000Y-105035000D02*
X110152000Y-105035000D01*
X135210000Y-105075000D02*
X110154000Y-105075000D01*
X135207000Y-105115000D02*
X110157000Y-105115000D01*
X135204000Y-105155000D02*
X110160000Y-105155000D01*
X135202000Y-105195000D02*
X110162000Y-105195000D01*
X135199000Y-105235000D02*
X110165000Y-105235000D01*
X135196000Y-105275000D02*
X110168000Y-105275000D01*
X135193000Y-105315000D02*
X110171000Y-105315000D01*
X135189000Y-105355000D02*
X110175000Y-105355000D01*
X135186000Y-105395000D02*
X110178000Y-105395000D01*
X135183000Y-105435000D02*
X110181000Y-105435000D01*
X135179000Y-105475000D02*
X110185000Y-105475000D01*
X135175000Y-105515000D02*
X110189000Y-105515000D01*
X135171000Y-105555000D02*
X110193000Y-105555000D01*
X135167000Y-105595000D02*
X110197000Y-105595000D01*
X135163000Y-105635000D02*
X110201000Y-105635000D01*
X135159000Y-105675000D02*
X110205000Y-105675000D01*
X135154000Y-105715000D02*
X110210000Y-105715000D01*
X135150000Y-105755000D02*
X110214000Y-105755000D01*
X135145000Y-105795000D02*
X110219000Y-105795000D01*
X135140000Y-105835000D02*
X110224000Y-105835000D01*
X135135000Y-105875000D02*
X110229000Y-105875000D01*
X135130000Y-105915000D02*
X110234000Y-105915000D01*
X135125000Y-105955000D02*
X110239000Y-105955000D01*
X135120000Y-105995000D02*
X110244000Y-105995000D01*
X135114000Y-106035000D02*
X110250000Y-106035000D01*
X135109000Y-106075000D02*
X110255000Y-106075000D01*
X135103000Y-106115000D02*
X110261000Y-106115000D01*
X135097000Y-106155000D02*
X110267000Y-106155000D01*
X135091000Y-106195000D02*
X110273000Y-106195000D01*
X135085000Y-106235000D02*
X110279000Y-106235000D01*
X135079000Y-106275000D02*
X110285000Y-106275000D01*
X135073000Y-106315000D02*
X110291000Y-106315000D01*
X135066000Y-106355000D02*
X110298000Y-106355000D01*
X135059000Y-106395000D02*
X110305000Y-106395000D01*
X135053000Y-106435000D02*
X110311000Y-106435000D01*
X135046000Y-106475000D02*
X110318000Y-106475000D01*
X135039000Y-106515000D02*
X110325000Y-106515000D01*
X135032000Y-106555000D02*
X110332000Y-106555000D01*
X135024000Y-106595000D02*
X110340000Y-106595000D01*
X135017000Y-106635000D02*
X110347000Y-106635000D01*
X135009000Y-106675000D02*
X110355000Y-106675000D01*
X135002000Y-106715000D02*
X110362000Y-106715000D01*
X134994000Y-106755000D02*
X110370000Y-106755000D01*
X134986000Y-106795000D02*
X110378000Y-106795000D01*
X134978000Y-106835000D02*
X110386000Y-106835000D01*
X134969000Y-106875000D02*
X110395000Y-106875000D01*
X134961000Y-106915000D02*
X110403000Y-106915000D01*
X134953000Y-106955000D02*
X110411000Y-106955000D01*
X134944000Y-106995000D02*
X110420000Y-106995000D01*
X134935000Y-107035000D02*
X110429000Y-107035000D01*
X134926000Y-107075000D02*
X110438000Y-107075000D01*
X134917000Y-107115000D02*
X110447000Y-107115000D01*
X134908000Y-107155000D02*
X124862000Y-107155000D01*
X120502000Y-107155000D02*
X110456000Y-107155000D01*
X134899000Y-107195000D02*
X124862000Y-107195000D01*
X120502000Y-107195000D02*
X110465000Y-107195000D01*
X134889000Y-107235000D02*
X124862000Y-107235000D01*
X120502000Y-107235000D02*
X110475000Y-107235000D01*
X134880000Y-107275000D02*
X124862000Y-107275000D01*
X120502000Y-107275000D02*
X110484000Y-107275000D01*
X134870000Y-107315000D02*
X124862000Y-107315000D01*
X120502000Y-107315000D02*
X110494000Y-107315000D01*
X134860000Y-107355000D02*
X124862000Y-107355000D01*
X120502000Y-107355000D02*
X110504000Y-107355000D01*
X134850000Y-107395000D02*
X124862000Y-107395000D01*
X120502000Y-107395000D02*
X110514000Y-107395000D01*
X134840000Y-107435000D02*
X124862000Y-107435000D01*
X120502000Y-107435000D02*
X110524000Y-107435000D01*
X134829000Y-107475000D02*
X124862000Y-107475000D01*
X120502000Y-107475000D02*
X110535000Y-107475000D01*
X134819000Y-107515000D02*
X124862000Y-107515000D01*
X120502000Y-107515000D02*
X110545000Y-107515000D01*
X134808000Y-107555000D02*
X124862000Y-107555000D01*
X120502000Y-107555000D02*
X110556000Y-107555000D01*
X134798000Y-107595000D02*
X124862000Y-107595000D01*
X120502000Y-107595000D02*
X110566000Y-107595000D01*
X134787000Y-107635000D02*
X124862000Y-107635000D01*
X120502000Y-107635000D02*
X110577000Y-107635000D01*
X134776000Y-107675000D02*
X124862000Y-107675000D01*
X120502000Y-107675000D02*
X110588000Y-107675000D01*
X134765000Y-107715000D02*
X124862000Y-107715000D01*
X120502000Y-107715000D02*
X110599000Y-107715000D01*
X134753000Y-107755000D02*
X124862000Y-107755000D01*
X120502000Y-107755000D02*
X110611000Y-107755000D01*
X134742000Y-107795000D02*
X124862000Y-107795000D01*
X120502000Y-107795000D02*
X110622000Y-107795000D01*
X134730000Y-107835000D02*
X124862000Y-107835000D01*
X120502000Y-107835000D02*
X110634000Y-107835000D01*
X134719000Y-107875000D02*
X124862000Y-107875000D01*
X120502000Y-107875000D02*
X110645000Y-107875000D01*
X134707000Y-107915000D02*
X124862000Y-107915000D01*
X120502000Y-107915000D02*
X110657000Y-107915000D01*
X134695000Y-107955000D02*
X124862000Y-107955000D01*
X120502000Y-107955000D02*
X110669000Y-107955000D01*
X134683000Y-107995000D02*
X124862000Y-107995000D01*
X120502000Y-107995000D02*
X110681000Y-107995000D01*
X134670000Y-108035000D02*
X124862000Y-108035000D01*
X120502000Y-108035000D02*
X110694000Y-108035000D01*
X134658000Y-108075000D02*
X124862000Y-108075000D01*
X120502000Y-108075000D02*
X110706000Y-108075000D01*
X134645000Y-108115000D02*
X124862000Y-108115000D01*
X120502000Y-108115000D02*
X110719000Y-108115000D01*
X134633000Y-108155000D02*
X124862000Y-108155000D01*
X120502000Y-108155000D02*
X110731000Y-108155000D01*
X134620000Y-108195000D02*
X124862000Y-108195000D01*
X120502000Y-108195000D02*
X110744000Y-108195000D01*
X134607000Y-108235000D02*
X124862000Y-108235000D01*
X120502000Y-108235000D02*
X110757000Y-108235000D01*
X134594000Y-108275000D02*
X124862000Y-108275000D01*
X120502000Y-108275000D02*
X110770000Y-108275000D01*
X134580000Y-108315000D02*
X124862000Y-108315000D01*
X120502000Y-108315000D02*
X110784000Y-108315000D01*
X134567000Y-108355000D02*
X124862000Y-108355000D01*
X120502000Y-108355000D02*
X110797000Y-108355000D01*
X134553000Y-108395000D02*
X124862000Y-108395000D01*
X120502000Y-108395000D02*
X110811000Y-108395000D01*
X134539000Y-108435000D02*
X124862000Y-108435000D01*
X120502000Y-108435000D02*
X110825000Y-108435000D01*
X134525000Y-108475000D02*
X124862000Y-108475000D01*
X120502000Y-108475000D02*
X110839000Y-108475000D01*
X134511000Y-108515000D02*
X124862000Y-108515000D01*
X120502000Y-108515000D02*
X110853000Y-108515000D01*
X134497000Y-108555000D02*
X124862000Y-108555000D01*
X120502000Y-108555000D02*
X110867000Y-108555000D01*
X134483000Y-108595000D02*
X124862000Y-108595000D01*
X120502000Y-108595000D02*
X110881000Y-108595000D01*
X134468000Y-108635000D02*
X124862000Y-108635000D01*
X120502000Y-108635000D02*
X110896000Y-108635000D01*
X134453000Y-108675000D02*
X124862000Y-108675000D01*
X120502000Y-108675000D02*
X110911000Y-108675000D01*
X134439000Y-108715000D02*
X124862000Y-108715000D01*
X120502000Y-108715000D02*
X110925000Y-108715000D01*
X134424000Y-108755000D02*
X124862000Y-108755000D01*
X120502000Y-108755000D02*
X110940000Y-108755000D01*
X134408000Y-108795000D02*
X124862000Y-108795000D01*
X120502000Y-108795000D02*
X110956000Y-108795000D01*
X134393000Y-108835000D02*
X124862000Y-108835000D01*
X120502000Y-108835000D02*
X110971000Y-108835000D01*
X134378000Y-108875000D02*
X124862000Y-108875000D01*
X120502000Y-108875000D02*
X110986000Y-108875000D01*
X134362000Y-108915000D02*
X124862000Y-108915000D01*
X120502000Y-108915000D02*
X111002000Y-108915000D01*
X134346000Y-108955000D02*
X124862000Y-108955000D01*
X120502000Y-108955000D02*
X111018000Y-108955000D01*
X134330000Y-108995000D02*
X124862000Y-108995000D01*
X120502000Y-108995000D02*
X111034000Y-108995000D01*
X134314000Y-109035000D02*
X124862000Y-109035000D01*
X120502000Y-109035000D02*
X111050000Y-109035000D01*
X134298000Y-109075000D02*
X124862000Y-109075000D01*
X120502000Y-109075000D02*
X111066000Y-109075000D01*
X134282000Y-109115000D02*
X124862000Y-109115000D01*
X120502000Y-109115000D02*
X111082000Y-109115000D01*
X134265000Y-109155000D02*
X124862000Y-109155000D01*
X120502000Y-109155000D02*
X111099000Y-109155000D01*
X134248000Y-109195000D02*
X124862000Y-109195000D01*
X120502000Y-109195000D02*
X111116000Y-109195000D01*
X134231000Y-109235000D02*
X124862000Y-109235000D01*
X120502000Y-109235000D02*
X111133000Y-109235000D01*
X134214000Y-109275000D02*
X124862000Y-109275000D01*
X120502000Y-109275000D02*
X111150000Y-109275000D01*
X134197000Y-109315000D02*
X124862000Y-109315000D01*
X120502000Y-109315000D02*
X111167000Y-109315000D01*
X134180000Y-109355000D02*
X124862000Y-109355000D01*
X120502000Y-109355000D02*
X111184000Y-109355000D01*
X134162000Y-109395000D02*
X124862000Y-109395000D01*
X120502000Y-109395000D02*
X111202000Y-109395000D01*
X134144000Y-109435000D02*
X124862000Y-109435000D01*
X120502000Y-109435000D02*
X111220000Y-109435000D01*
X134127000Y-109475000D02*
X124862000Y-109475000D01*
X120502000Y-109475000D02*
X111237000Y-109475000D01*
X134108000Y-109515000D02*
X124862000Y-109515000D01*
X120502000Y-109515000D02*
X111256000Y-109515000D01*
X134090000Y-109555000D02*
X124862000Y-109555000D01*
X120502000Y-109555000D02*
X111274000Y-109555000D01*
X134072000Y-109595000D02*
X124862000Y-109595000D01*
X120502000Y-109595000D02*
X111292000Y-109595000D01*
X134053000Y-109635000D02*
X124862000Y-109635000D01*
X120502000Y-109635000D02*
X111311000Y-109635000D01*
X134035000Y-109675000D02*
X124862000Y-109675000D01*
X120502000Y-109675000D02*
X111329000Y-109675000D01*
X134016000Y-109715000D02*
X124862000Y-109715000D01*
X120502000Y-109715000D02*
X111348000Y-109715000D01*
X133997000Y-109755000D02*
X124862000Y-109755000D01*
X120502000Y-109755000D02*
X111367000Y-109755000D01*
X133977000Y-109795000D02*
X124862000Y-109795000D01*
X120502000Y-109795000D02*
X111387000Y-109795000D01*
X133958000Y-109835000D02*
X124862000Y-109835000D01*
X120502000Y-109835000D02*
X111406000Y-109835000D01*
X133938000Y-109875000D02*
X124862000Y-109875000D01*
X120502000Y-109875000D02*
X111426000Y-109875000D01*
X133918000Y-109915000D02*
X124862000Y-109915000D01*
X120502000Y-109915000D02*
X111446000Y-109915000D01*
X133899000Y-109955000D02*
X124862000Y-109955000D01*
X120502000Y-109955000D02*
X111465000Y-109955000D01*
X133878000Y-109995000D02*
X124862000Y-109995000D01*
X120502000Y-109995000D02*
X111486000Y-109995000D01*
X133858000Y-110035000D02*
X124862000Y-110035000D01*
X120502000Y-110035000D02*
X111506000Y-110035000D01*
X133838000Y-110075000D02*
X124862000Y-110075000D01*
X120502000Y-110075000D02*
X111526000Y-110075000D01*
X133817000Y-110115000D02*
X124862000Y-110115000D01*
X120502000Y-110115000D02*
X111547000Y-110115000D01*
X133796000Y-110155000D02*
X124862000Y-110155000D01*
X120502000Y-110155000D02*
X111568000Y-110155000D01*
X133775000Y-110195000D02*
X124862000Y-110195000D01*
X120502000Y-110195000D02*
X111589000Y-110195000D01*
X133754000Y-110235000D02*
X124862000Y-110235000D01*
X120502000Y-110235000D02*
X111610000Y-110235000D01*
X133732000Y-110275000D02*
X124862000Y-110275000D01*
X120502000Y-110275000D02*
X111632000Y-110275000D01*
X133711000Y-110315000D02*
X124862000Y-110315000D01*
X120502000Y-110315000D02*
X111653000Y-110315000D01*
X133689000Y-110355000D02*
X124862000Y-110355000D01*
X120502000Y-110355000D02*
X111675000Y-110355000D01*
X133667000Y-110395000D02*
X124862000Y-110395000D01*
X120502000Y-110395000D02*
X111697000Y-110395000D01*
X133645000Y-110435000D02*
X124862000Y-110435000D01*
X120502000Y-110435000D02*
X111719000Y-110435000D01*
X133623000Y-110475000D02*
X124862000Y-110475000D01*
X120502000Y-110475000D02*
X111741000Y-110475000D01*
X133600000Y-110515000D02*
X124862000Y-110515000D01*
X120502000Y-110515000D02*
X111764000Y-110515000D01*
X133577000Y-110555000D02*
X124862000Y-110555000D01*
X120502000Y-110555000D02*
X111787000Y-110555000D01*
X133554000Y-110595000D02*
X124862000Y-110595000D01*
X120502000Y-110595000D02*
X111810000Y-110595000D01*
X133531000Y-110635000D02*
X124862000Y-110635000D01*
X120502000Y-110635000D02*
X111833000Y-110635000D01*
X133508000Y-110675000D02*
X124862000Y-110675000D01*
X120502000Y-110675000D02*
X111856000Y-110675000D01*
X133484000Y-110715000D02*
X124862000Y-110715000D01*
X120502000Y-110715000D02*
X111880000Y-110715000D01*
X133461000Y-110755000D02*
X124862000Y-110755000D01*
X120502000Y-110755000D02*
X111903000Y-110755000D01*
X133437000Y-110795000D02*
X124862000Y-110795000D01*
X120502000Y-110795000D02*
X111927000Y-110795000D01*
X133413000Y-110835000D02*
X124862000Y-110835000D01*
X120502000Y-110835000D02*
X111951000Y-110835000D01*
X133388000Y-110875000D02*
X124862000Y-110875000D01*
X120502000Y-110875000D02*
X111976000Y-110875000D01*
X133364000Y-110915000D02*
X124862000Y-110915000D01*
X120502000Y-110915000D02*
X112000000Y-110915000D01*
X133339000Y-110955000D02*
X124862000Y-110955000D01*
X120502000Y-110955000D02*
X112025000Y-110955000D01*
X133314000Y-110995000D02*
X124862000Y-110995000D01*
X120502000Y-110995000D02*
X112050000Y-110995000D01*
X133289000Y-111035000D02*
X124862000Y-111035000D01*
X120502000Y-111035000D02*
X112075000Y-111035000D01*
X133264000Y-111075000D02*
X124862000Y-111075000D01*
X120502000Y-111075000D02*
X112100000Y-111075000D01*
X133238000Y-111115000D02*
X124862000Y-111115000D01*
X120502000Y-111115000D02*
X112126000Y-111115000D01*
X133212000Y-111155000D02*
X124862000Y-111155000D01*
X120502000Y-111155000D02*
X112152000Y-111155000D01*
X133186000Y-111195000D02*
X124862000Y-111195000D01*
X120502000Y-111195000D02*
X112178000Y-111195000D01*
X133160000Y-111235000D02*
X124862000Y-111235000D01*
X120502000Y-111235000D02*
X112204000Y-111235000D01*
X133134000Y-111275000D02*
X124862000Y-111275000D01*
X120502000Y-111275000D02*
X112230000Y-111275000D01*
X133107000Y-111315000D02*
X124862000Y-111315000D01*
X120502000Y-111315000D02*
X112257000Y-111315000D01*
X133080000Y-111355000D02*
X124862000Y-111355000D01*
X120502000Y-111355000D02*
X112284000Y-111355000D01*
X133053000Y-111395000D02*
X124862000Y-111395000D01*
X120502000Y-111395000D02*
X112311000Y-111395000D01*
X133026000Y-111435000D02*
X124862000Y-111435000D01*
X120502000Y-111435000D02*
X112338000Y-111435000D01*
X132998000Y-111475000D02*
X124862000Y-111475000D01*
X120502000Y-111475000D02*
X112366000Y-111475000D01*
X132971000Y-111515000D02*
X112393000Y-111515000D01*
X132943000Y-111555000D02*
X112421000Y-111555000D01*
X132914000Y-111595000D02*
X112450000Y-111595000D01*
X132886000Y-111635000D02*
X112478000Y-111635000D01*
X132857000Y-111675000D02*
X112507000Y-111675000D01*
X132828000Y-111715000D02*
X112536000Y-111715000D01*
X132799000Y-111755000D02*
X112565000Y-111755000D01*
X132770000Y-111795000D02*
X112594000Y-111795000D01*
X132740000Y-111835000D02*
X112624000Y-111835000D01*
X132710000Y-111875000D02*
X112654000Y-111875000D01*
X132680000Y-111915000D02*
X112684000Y-111915000D01*
X132649000Y-111955000D02*
X112715000Y-111955000D01*
X132619000Y-111995000D02*
X112745000Y-111995000D01*
X132588000Y-112035000D02*
X112776000Y-112035000D01*
X132557000Y-112075000D02*
X112807000Y-112075000D01*
X132525000Y-112115000D02*
X112839000Y-112115000D01*
X132494000Y-112155000D02*
X112870000Y-112155000D01*
X132462000Y-112195000D02*
X112902000Y-112195000D01*
X132429000Y-112235000D02*
X112935000Y-112235000D01*
X132397000Y-112275000D02*
X112967000Y-112275000D01*
X132364000Y-112315000D02*
X113000000Y-112315000D01*
X132331000Y-112355000D02*
X113033000Y-112355000D01*
X132298000Y-112395000D02*
X113066000Y-112395000D01*
X132264000Y-112435000D02*
X113100000Y-112435000D01*
X132230000Y-112475000D02*
X113134000Y-112475000D01*
X132196000Y-112514000D02*
X113168000Y-112514000D01*
X132161000Y-112554000D02*
X113203000Y-112554000D01*
X132127000Y-112594000D02*
X113237000Y-112594000D01*
X132092000Y-112634000D02*
X113272000Y-112634000D01*
X132056000Y-112674000D02*
X113308000Y-112674000D01*
X132021000Y-112714000D02*
X113343000Y-112714000D01*
X131985000Y-112754000D02*
X113379000Y-112754000D01*
X131948000Y-112794000D02*
X113416000Y-112794000D01*
X131912000Y-112834000D02*
X113452000Y-112834000D01*
X131875000Y-112874000D02*
X113489000Y-112874000D01*
X131838000Y-112914000D02*
X113526000Y-112914000D01*
X131800000Y-112954000D02*
X113564000Y-112954000D01*
X131762000Y-112994000D02*
X113602000Y-112994000D01*
X131724000Y-113034000D02*
X113640000Y-113034000D01*
X131685000Y-113074000D02*
X113679000Y-113074000D01*
X131646000Y-113114000D02*
X113718000Y-113114000D01*
X131607000Y-113154000D02*
X113757000Y-113154000D01*
X131567000Y-113194000D02*
X113797000Y-113194000D01*
X131527000Y-113234000D02*
X113837000Y-113234000D01*
X131487000Y-113274000D02*
X113877000Y-113274000D01*
X131446000Y-113314000D02*
X113918000Y-113314000D01*
X131405000Y-113354000D02*
X113959000Y-113354000D01*
X131364000Y-113394000D02*
X114000000Y-113394000D01*
X131322000Y-113434000D02*
X114042000Y-113434000D01*
X131280000Y-113474000D02*
X114084000Y-113474000D01*
X131237000Y-113514000D02*
X114127000Y-113514000D01*
X131194000Y-113554000D02*
X114170000Y-113554000D01*
X131151000Y-113594000D02*
X114213000Y-113594000D01*
X131107000Y-113634000D02*
X114257000Y-113634000D01*
X131063000Y-113674000D02*
X114301000Y-113674000D01*
X131018000Y-113714000D02*
X114346000Y-113714000D01*
X130973000Y-113754000D02*
X114391000Y-113754000D01*
X130927000Y-113794000D02*
X114437000Y-113794000D01*
X130881000Y-113834000D02*
X114483000Y-113834000D01*
X130835000Y-113874000D02*
X114529000Y-113874000D01*
X130788000Y-113914000D02*
X114576000Y-113914000D01*
X130741000Y-113954000D02*
X114623000Y-113954000D01*
X130693000Y-113994000D02*
X114671000Y-113994000D01*
X130644000Y-114034000D02*
X114720000Y-114034000D01*
X130596000Y-114074000D02*
X114768000Y-114074000D01*
X130546000Y-114114000D02*
X114818000Y-114114000D01*
X130496000Y-114154000D02*
X114868000Y-114154000D01*
X130446000Y-114194000D02*
X114918000Y-114194000D01*
X130395000Y-114234000D02*
X114969000Y-114234000D01*
X130344000Y-114274000D02*
X115020000Y-114274000D01*
X130292000Y-114314000D02*
X115072000Y-114314000D01*
X130239000Y-114354000D02*
X115125000Y-114354000D01*
X130186000Y-114394000D02*
X115178000Y-114394000D01*
X130132000Y-114434000D02*
X115232000Y-114434000D01*
X130078000Y-114474000D02*
X115286000Y-114474000D01*
X130023000Y-114514000D02*
X115341000Y-114514000D01*
X129967000Y-114554000D02*
X115397000Y-114554000D01*
X129911000Y-114594000D02*
X115453000Y-114594000D01*
X129854000Y-114634000D02*
X115510000Y-114634000D01*
X129796000Y-114674000D02*
X115568000Y-114674000D01*
X129738000Y-114714000D02*
X115626000Y-114714000D01*
X129679000Y-114754000D02*
X115685000Y-114754000D01*
X129619000Y-114794000D02*
X115745000Y-114794000D01*
X129559000Y-114834000D02*
X115805000Y-114834000D01*
X129498000Y-114874000D02*
X115866000Y-114874000D01*
X129436000Y-114914000D02*
X115928000Y-114914000D01*
X129373000Y-114954000D02*
X115991000Y-114954000D01*
X129309000Y-114994000D02*
X116055000Y-114994000D01*
X129245000Y-115034000D02*
X116119000Y-115034000D01*
X129179000Y-115074000D02*
X116185000Y-115074000D01*
X129113000Y-115114000D02*
X116251000Y-115114000D01*
X129046000Y-115154000D02*
X116318000Y-115154000D01*
X128978000Y-115194000D02*
X116386000Y-115194000D01*
X128908000Y-115234000D02*
X116456000Y-115234000D01*
X128838000Y-115274000D02*
X116526000Y-115274000D01*
X128767000Y-115314000D02*
X116597000Y-115314000D01*
X128694000Y-115354000D02*
X116670000Y-115354000D01*
X128621000Y-115394000D02*
X116743000Y-115394000D01*
X128546000Y-115434000D02*
X116818000Y-115434000D01*
X128470000Y-115474000D02*
X116894000Y-115474000D01*
X128393000Y-115514000D02*
X116971000Y-115514000D01*
X128314000Y-115554000D02*
X117050000Y-115554000D01*
X128234000Y-115594000D02*
X117130000Y-115594000D01*
X128153000Y-115634000D02*
X117211000Y-115634000D01*
X128070000Y-115674000D02*
X117294000Y-115674000D01*
X127986000Y-115714000D02*
X117378000Y-115714000D01*
X127899000Y-115754000D02*
X117465000Y-115754000D01*
X127811000Y-115794000D02*
X117553000Y-115794000D01*
X127722000Y-115834000D02*
X117642000Y-115834000D01*
X127630000Y-115874000D02*
X117734000Y-115874000D01*
X127536000Y-115914000D02*
X117828000Y-115914000D01*
X127440000Y-115954000D02*
X117924000Y-115954000D01*
X127342000Y-115994000D02*
X118022000Y-115994000D01*
X127241000Y-116034000D02*
X118123000Y-116034000D01*
X127138000Y-116074000D02*
X118226000Y-116074000D01*
X127032000Y-116114000D02*
X118332000Y-116114000D01*
X126923000Y-116154000D02*
X118441000Y-116154000D01*
X126811000Y-116194000D02*
X118553000Y-116194000D01*
X126695000Y-116234000D02*
X118669000Y-116234000D01*
X126575000Y-116274000D02*
X118789000Y-116274000D01*
X126451000Y-116314000D02*
X118913000Y-116314000D01*
X126323000Y-116354000D02*
X119041000Y-116354000D01*
X126190000Y-116394000D02*
X119174000Y-116394000D01*
X126050000Y-116434000D02*
X119314000Y-116434000D01*
X125905000Y-116474000D02*
X119459000Y-116474000D01*
X125752000Y-116514000D02*
X119612000Y-116514000D01*
X125590000Y-116554000D02*
X119774000Y-116554000D01*
X125419000Y-116594000D02*
X119945000Y-116594000D01*
X125236000Y-116634000D02*
X120128000Y-116634000D01*
X125038000Y-116674000D02*
X120326000Y-116674000D01*
X124822000Y-116714000D02*
X120542000Y-116714000D01*
X124580000Y-116754000D02*
X120784000Y-116754000D01*
X124303000Y-116794000D02*
X121061000Y-116794000D01*
X123968000Y-116834000D02*
X121396000Y-116834000D01*
X123511000Y-116874000D02*
X121853000Y-116874000D01*
X122682000Y-94114000D02*
X122682000Y-97114000D01*
X124182000Y-95614000D02*
X121182000Y-95614000D01*
X108137000Y-69910000D02*
X108137000Y-67250000D01*
X102997000Y-69910000D02*
X108137000Y-69910000D01*
X102997000Y-67250000D02*
X108137000Y-67250000D01*
X102997000Y-69910000D02*
X102997000Y-67250000D01*
X101727000Y-69910000D02*
X100397000Y-69910000D01*
X100397000Y-69910000D02*
X100397000Y-68580000D01*
X200085000Y-69275000D02*
X200085000Y-66615000D01*
X194945000Y-69275000D02*
X200085000Y-69275000D01*
X194945000Y-66615000D02*
X200085000Y-66615000D01*
X194945000Y-69275000D02*
X194945000Y-66615000D01*
X193675000Y-69275000D02*
X192345000Y-69275000D01*
X192345000Y-69275000D02*
X192345000Y-67945000D01*
D12*
X194942381Y-113692666D02*
X194466190Y-114026000D01*
X194942381Y-114264095D02*
X193942381Y-114264095D01*
X193942381Y-113883142D01*
X193990000Y-113787904D01*
X194037619Y-113740285D01*
X194132857Y-113692666D01*
X194275714Y-113692666D01*
X194370952Y-113740285D01*
X194418571Y-113787904D01*
X194466190Y-113883142D01*
X194466190Y-114264095D01*
X194275714Y-112835523D02*
X194942381Y-112835523D01*
X193894762Y-113073619D02*
X194609048Y-113311714D01*
X194609048Y-112692666D01*
X80081381Y-105211428D02*
X80081381Y-105782857D01*
X80081381Y-105497143D02*
X79081381Y-105497143D01*
X79224238Y-105592381D01*
X79319476Y-105687619D01*
X79367095Y-105782857D01*
X79081381Y-104592381D02*
X79081381Y-104497142D01*
X79129000Y-104401904D01*
X79176619Y-104354285D01*
X79271857Y-104306666D01*
X79462333Y-104259047D01*
X79700429Y-104259047D01*
X79890905Y-104306666D01*
X79986143Y-104354285D01*
X80033762Y-104401904D01*
X80081381Y-104497142D01*
X80081381Y-104592381D01*
X80033762Y-104687619D01*
X79986143Y-104735238D01*
X79890905Y-104782857D01*
X79700429Y-104830476D01*
X79462333Y-104830476D01*
X79271857Y-104782857D01*
X79176619Y-104735238D01*
X79129000Y-104687619D01*
X79081381Y-104592381D01*
X80081381Y-103830476D02*
X79081381Y-103830476D01*
X79700429Y-103735238D02*
X80081381Y-103449523D01*
X79414714Y-103449523D02*
X79795667Y-103830476D01*
X80081381Y-102497142D02*
X80081381Y-103068571D01*
X80081381Y-102782857D02*
X79081381Y-102782857D01*
X79224238Y-102878095D01*
X79319476Y-102973333D01*
X79367095Y-103068571D01*
X173645143Y-72850666D02*
X173692762Y-72898285D01*
X173740381Y-73041142D01*
X173740381Y-73136380D01*
X173692762Y-73279238D01*
X173597524Y-73374476D01*
X173502286Y-73422095D01*
X173311810Y-73469714D01*
X173168952Y-73469714D01*
X172978476Y-73422095D01*
X172883238Y-73374476D01*
X172788000Y-73279238D01*
X172740381Y-73136380D01*
X172740381Y-73041142D01*
X172788000Y-72898285D01*
X172835619Y-72850666D01*
X173740381Y-71898285D02*
X173740381Y-72469714D01*
X173740381Y-72184000D02*
X172740381Y-72184000D01*
X172883238Y-72279238D01*
X172978476Y-72374476D01*
X173026095Y-72469714D01*
X188849143Y-74588666D02*
X188896762Y-74636285D01*
X188944381Y-74779142D01*
X188944381Y-74874380D01*
X188896762Y-75017238D01*
X188801524Y-75112476D01*
X188706286Y-75160095D01*
X188515810Y-75207714D01*
X188372952Y-75207714D01*
X188182476Y-75160095D01*
X188087238Y-75112476D01*
X187992000Y-75017238D01*
X187944381Y-74874380D01*
X187944381Y-74779142D01*
X187992000Y-74636285D01*
X188039619Y-74588666D01*
X188039619Y-74207714D02*
X187992000Y-74160095D01*
X187944381Y-74064857D01*
X187944381Y-73826761D01*
X187992000Y-73731523D01*
X188039619Y-73683904D01*
X188134857Y-73636285D01*
X188230095Y-73636285D01*
X188372952Y-73683904D01*
X188944381Y-74255333D01*
X188944381Y-73636285D01*
X215181143Y-72770666D02*
X215228762Y-72818285D01*
X215276381Y-72961142D01*
X215276381Y-73056380D01*
X215228762Y-73199238D01*
X215133524Y-73294476D01*
X215038286Y-73342095D01*
X214847810Y-73389714D01*
X214704952Y-73389714D01*
X214514476Y-73342095D01*
X214419238Y-73294476D01*
X214324000Y-73199238D01*
X214276381Y-73056380D01*
X214276381Y-72961142D01*
X214324000Y-72818285D01*
X214371619Y-72770666D01*
X214276381Y-72437333D02*
X214276381Y-71818285D01*
X214657333Y-72151619D01*
X214657333Y-72008761D01*
X214704952Y-71913523D01*
X214752571Y-71865904D01*
X214847810Y-71818285D01*
X215085905Y-71818285D01*
X215181143Y-71865904D01*
X215228762Y-71913523D01*
X215276381Y-72008761D01*
X215276381Y-72294476D01*
X215228762Y-72389714D01*
X215181143Y-72437333D01*
X210145334Y-79883143D02*
X210097715Y-79930762D01*
X209954858Y-79978381D01*
X209859620Y-79978381D01*
X209716762Y-79930762D01*
X209621524Y-79835524D01*
X209573905Y-79740286D01*
X209526286Y-79549810D01*
X209526286Y-79406952D01*
X209573905Y-79216476D01*
X209621524Y-79121238D01*
X209716762Y-79026000D01*
X209859620Y-78978381D01*
X209954858Y-78978381D01*
X210097715Y-79026000D01*
X210145334Y-79073619D01*
X211002477Y-79311714D02*
X211002477Y-79978381D01*
X210764381Y-78930762D02*
X210526286Y-79645048D01*
X211145334Y-79645048D01*
X192833334Y-79157143D02*
X192785715Y-79204762D01*
X192642858Y-79252381D01*
X192547620Y-79252381D01*
X192404762Y-79204762D01*
X192309524Y-79109524D01*
X192261905Y-79014286D01*
X192214286Y-78823810D01*
X192214286Y-78680952D01*
X192261905Y-78490476D01*
X192309524Y-78395238D01*
X192404762Y-78300000D01*
X192547620Y-78252381D01*
X192642858Y-78252381D01*
X192785715Y-78300000D01*
X192833334Y-78347619D01*
X193738096Y-78252381D02*
X193261905Y-78252381D01*
X193214286Y-78728571D01*
X193261905Y-78680952D01*
X193357143Y-78633333D01*
X193595239Y-78633333D01*
X193690477Y-78680952D01*
X193738096Y-78728571D01*
X193785715Y-78823810D01*
X193785715Y-79061905D01*
X193738096Y-79157143D01*
X193690477Y-79204762D01*
X193595239Y-79252381D01*
X193357143Y-79252381D01*
X193261905Y-79204762D01*
X193214286Y-79157143D01*
X192619334Y-92583143D02*
X192571715Y-92630762D01*
X192428858Y-92678381D01*
X192333620Y-92678381D01*
X192190762Y-92630762D01*
X192095524Y-92535524D01*
X192047905Y-92440286D01*
X192000286Y-92249810D01*
X192000286Y-92106952D01*
X192047905Y-91916476D01*
X192095524Y-91821238D01*
X192190762Y-91726000D01*
X192333620Y-91678381D01*
X192428858Y-91678381D01*
X192571715Y-91726000D01*
X192619334Y-91773619D01*
X193476477Y-91678381D02*
X193286000Y-91678381D01*
X193190762Y-91726000D01*
X193143143Y-91773619D01*
X193047905Y-91916476D01*
X193000286Y-92106952D01*
X193000286Y-92487905D01*
X193047905Y-92583143D01*
X193095524Y-92630762D01*
X193190762Y-92678381D01*
X193381239Y-92678381D01*
X193476477Y-92630762D01*
X193524096Y-92583143D01*
X193571715Y-92487905D01*
X193571715Y-92249810D01*
X193524096Y-92154571D01*
X193476477Y-92106952D01*
X193381239Y-92059333D01*
X193190762Y-92059333D01*
X193095524Y-92106952D01*
X193047905Y-92154571D01*
X193000286Y-92249810D01*
X214463334Y-101322143D02*
X214415715Y-101369762D01*
X214272858Y-101417381D01*
X214177620Y-101417381D01*
X214034762Y-101369762D01*
X213939524Y-101274524D01*
X213891905Y-101179286D01*
X213844286Y-100988810D01*
X213844286Y-100845952D01*
X213891905Y-100655476D01*
X213939524Y-100560238D01*
X214034762Y-100465000D01*
X214177620Y-100417381D01*
X214272858Y-100417381D01*
X214415715Y-100465000D01*
X214463334Y-100512619D01*
X214796667Y-100417381D02*
X215463334Y-100417381D01*
X215034762Y-101417381D01*
X214463334Y-107037143D02*
X214415715Y-107084762D01*
X214272858Y-107132381D01*
X214177620Y-107132381D01*
X214034762Y-107084762D01*
X213939524Y-106989524D01*
X213891905Y-106894286D01*
X213844286Y-106703810D01*
X213844286Y-106560952D01*
X213891905Y-106370476D01*
X213939524Y-106275238D01*
X214034762Y-106180000D01*
X214177620Y-106132381D01*
X214272858Y-106132381D01*
X214415715Y-106180000D01*
X214463334Y-106227619D01*
X215034762Y-106560952D02*
X214939524Y-106513333D01*
X214891905Y-106465714D01*
X214844286Y-106370476D01*
X214844286Y-106322857D01*
X214891905Y-106227619D01*
X214939524Y-106180000D01*
X215034762Y-106132381D01*
X215225239Y-106132381D01*
X215320477Y-106180000D01*
X215368096Y-106227619D01*
X215415715Y-106322857D01*
X215415715Y-106370476D01*
X215368096Y-106465714D01*
X215320477Y-106513333D01*
X215225239Y-106560952D01*
X215034762Y-106560952D01*
X214939524Y-106608571D01*
X214891905Y-106656190D01*
X214844286Y-106751429D01*
X214844286Y-106941905D01*
X214891905Y-107037143D01*
X214939524Y-107084762D01*
X215034762Y-107132381D01*
X215225239Y-107132381D01*
X215320477Y-107084762D01*
X215368096Y-107037143D01*
X215415715Y-106941905D01*
X215415715Y-106751429D01*
X215368096Y-106656190D01*
X215320477Y-106608571D01*
X215225239Y-106560952D01*
X214451334Y-118189143D02*
X214403715Y-118236762D01*
X214260858Y-118284381D01*
X214165620Y-118284381D01*
X214022762Y-118236762D01*
X213927524Y-118141524D01*
X213879905Y-118046286D01*
X213832286Y-117855810D01*
X213832286Y-117712952D01*
X213879905Y-117522476D01*
X213927524Y-117427238D01*
X214022762Y-117332000D01*
X214165620Y-117284381D01*
X214260858Y-117284381D01*
X214403715Y-117332000D01*
X214451334Y-117379619D01*
X214927524Y-118284381D02*
X215118000Y-118284381D01*
X215213239Y-118236762D01*
X215260858Y-118189143D01*
X215356096Y-118046286D01*
X215403715Y-117855810D01*
X215403715Y-117474857D01*
X215356096Y-117379619D01*
X215308477Y-117332000D01*
X215213239Y-117284381D01*
X215022762Y-117284381D01*
X214927524Y-117332000D01*
X214879905Y-117379619D01*
X214832286Y-117474857D01*
X214832286Y-117712952D01*
X214879905Y-117808190D01*
X214927524Y-117855810D01*
X215022762Y-117903429D01*
X215213239Y-117903429D01*
X215308477Y-117855810D01*
X215356096Y-117808190D01*
X215403715Y-117712952D01*
X101338143Y-113871143D02*
X101290524Y-113918762D01*
X101147667Y-113966381D01*
X101052429Y-113966381D01*
X100909571Y-113918762D01*
X100814333Y-113823524D01*
X100766714Y-113728286D01*
X100719095Y-113537810D01*
X100719095Y-113394952D01*
X100766714Y-113204476D01*
X100814333Y-113109238D01*
X100909571Y-113014000D01*
X101052429Y-112966381D01*
X101147667Y-112966381D01*
X101290524Y-113014000D01*
X101338143Y-113061619D01*
X102290524Y-113966381D02*
X101719095Y-113966381D01*
X102004809Y-113966381D02*
X102004809Y-112966381D01*
X101909571Y-113109238D01*
X101814333Y-113204476D01*
X101719095Y-113252095D01*
X103147667Y-113299714D02*
X103147667Y-113966381D01*
X102909571Y-112918762D02*
X102671476Y-113633048D01*
X103290524Y-113633048D01*
X89527143Y-87352143D02*
X89479524Y-87399762D01*
X89336667Y-87447381D01*
X89241429Y-87447381D01*
X89098571Y-87399762D01*
X89003333Y-87304524D01*
X88955714Y-87209286D01*
X88908095Y-87018810D01*
X88908095Y-86875952D01*
X88955714Y-86685476D01*
X89003333Y-86590238D01*
X89098571Y-86495000D01*
X89241429Y-86447381D01*
X89336667Y-86447381D01*
X89479524Y-86495000D01*
X89527143Y-86542619D01*
X90479524Y-87447381D02*
X89908095Y-87447381D01*
X90193809Y-87447381D02*
X90193809Y-86447381D01*
X90098571Y-86590238D01*
X90003333Y-86685476D01*
X89908095Y-86733095D01*
X91384286Y-86447381D02*
X90908095Y-86447381D01*
X90860476Y-86923571D01*
X90908095Y-86875952D01*
X91003333Y-86828333D01*
X91241429Y-86828333D01*
X91336667Y-86875952D01*
X91384286Y-86923571D01*
X91431905Y-87018810D01*
X91431905Y-87256905D01*
X91384286Y-87352143D01*
X91336667Y-87399762D01*
X91241429Y-87447381D01*
X91003333Y-87447381D01*
X90908095Y-87399762D01*
X90860476Y-87352143D01*
X92702143Y-87455143D02*
X92654524Y-87502762D01*
X92511667Y-87550381D01*
X92416429Y-87550381D01*
X92273571Y-87502762D01*
X92178333Y-87407524D01*
X92130714Y-87312286D01*
X92083095Y-87121810D01*
X92083095Y-86978952D01*
X92130714Y-86788476D01*
X92178333Y-86693238D01*
X92273571Y-86598000D01*
X92416429Y-86550381D01*
X92511667Y-86550381D01*
X92654524Y-86598000D01*
X92702143Y-86645619D01*
X93654524Y-87550381D02*
X93083095Y-87550381D01*
X93368809Y-87550381D02*
X93368809Y-86550381D01*
X93273571Y-86693238D01*
X93178333Y-86788476D01*
X93083095Y-86836095D01*
X94511667Y-86550381D02*
X94321190Y-86550381D01*
X94225952Y-86598000D01*
X94178333Y-86645619D01*
X94083095Y-86788476D01*
X94035476Y-86978952D01*
X94035476Y-87359905D01*
X94083095Y-87455143D01*
X94130714Y-87502762D01*
X94225952Y-87550381D01*
X94416429Y-87550381D01*
X94511667Y-87502762D01*
X94559286Y-87455143D01*
X94606905Y-87359905D01*
X94606905Y-87121810D01*
X94559286Y-87026571D01*
X94511667Y-86978952D01*
X94416429Y-86931333D01*
X94225952Y-86931333D01*
X94130714Y-86978952D01*
X94083095Y-87026571D01*
X94035476Y-87121810D01*
X98020143Y-106814857D02*
X98067762Y-106862476D01*
X98115381Y-107005333D01*
X98115381Y-107100571D01*
X98067762Y-107243429D01*
X97972524Y-107338667D01*
X97877286Y-107386286D01*
X97686810Y-107433905D01*
X97543952Y-107433905D01*
X97353476Y-107386286D01*
X97258238Y-107338667D01*
X97163000Y-107243429D01*
X97115381Y-107100571D01*
X97115381Y-107005333D01*
X97163000Y-106862476D01*
X97210619Y-106814857D01*
X98115381Y-105862476D02*
X98115381Y-106433905D01*
X98115381Y-106148191D02*
X97115381Y-106148191D01*
X97258238Y-106243429D01*
X97353476Y-106338667D01*
X97401095Y-106433905D01*
X97115381Y-105529143D02*
X97115381Y-104862476D01*
X98115381Y-105291048D01*
X101592143Y-100155143D02*
X101544524Y-100202762D01*
X101401667Y-100250381D01*
X101306429Y-100250381D01*
X101163571Y-100202762D01*
X101068333Y-100107524D01*
X101020714Y-100012286D01*
X100973095Y-99821810D01*
X100973095Y-99678952D01*
X101020714Y-99488476D01*
X101068333Y-99393238D01*
X101163571Y-99298000D01*
X101306429Y-99250381D01*
X101401667Y-99250381D01*
X101544524Y-99298000D01*
X101592143Y-99345619D01*
X102544524Y-100250381D02*
X101973095Y-100250381D01*
X102258809Y-100250381D02*
X102258809Y-99250381D01*
X102163571Y-99393238D01*
X102068333Y-99488476D01*
X101973095Y-99536095D01*
X103115952Y-99678952D02*
X103020714Y-99631333D01*
X102973095Y-99583714D01*
X102925476Y-99488476D01*
X102925476Y-99440857D01*
X102973095Y-99345619D01*
X103020714Y-99298000D01*
X103115952Y-99250381D01*
X103306429Y-99250381D01*
X103401667Y-99298000D01*
X103449286Y-99345619D01*
X103496905Y-99440857D01*
X103496905Y-99488476D01*
X103449286Y-99583714D01*
X103401667Y-99631333D01*
X103306429Y-99678952D01*
X103115952Y-99678952D01*
X103020714Y-99726571D01*
X102973095Y-99774190D01*
X102925476Y-99869429D01*
X102925476Y-100059905D01*
X102973095Y-100155143D01*
X103020714Y-100202762D01*
X103115952Y-100250381D01*
X103306429Y-100250381D01*
X103401667Y-100202762D01*
X103449286Y-100155143D01*
X103496905Y-100059905D01*
X103496905Y-99869429D01*
X103449286Y-99774190D01*
X103401667Y-99726571D01*
X103306429Y-99678952D01*
X97512143Y-92590857D02*
X97559762Y-92638476D01*
X97607381Y-92781333D01*
X97607381Y-92876571D01*
X97559762Y-93019429D01*
X97464524Y-93114667D01*
X97369286Y-93162286D01*
X97178810Y-93209905D01*
X97035952Y-93209905D01*
X96845476Y-93162286D01*
X96750238Y-93114667D01*
X96655000Y-93019429D01*
X96607381Y-92876571D01*
X96607381Y-92781333D01*
X96655000Y-92638476D01*
X96702619Y-92590857D01*
X97607381Y-91638476D02*
X97607381Y-92209905D01*
X97607381Y-91924191D02*
X96607381Y-91924191D01*
X96750238Y-92019429D01*
X96845476Y-92114667D01*
X96893095Y-92209905D01*
X97607381Y-91162286D02*
X97607381Y-90971810D01*
X97559762Y-90876571D01*
X97512143Y-90828952D01*
X97369286Y-90733714D01*
X97178810Y-90686095D01*
X96797857Y-90686095D01*
X96702619Y-90733714D01*
X96655000Y-90781333D01*
X96607381Y-90876571D01*
X96607381Y-91067048D01*
X96655000Y-91162286D01*
X96702619Y-91209905D01*
X96797857Y-91257524D01*
X97035952Y-91257524D01*
X97131190Y-91209905D01*
X97178810Y-91162286D01*
X97226429Y-91067048D01*
X97226429Y-90876571D01*
X97178810Y-90781333D01*
X97131190Y-90733714D01*
X97035952Y-90686095D01*
X101592143Y-84431143D02*
X101544524Y-84478762D01*
X101401667Y-84526381D01*
X101306429Y-84526381D01*
X101163571Y-84478762D01*
X101068333Y-84383524D01*
X101020714Y-84288286D01*
X100973095Y-84097810D01*
X100973095Y-83954952D01*
X101020714Y-83764476D01*
X101068333Y-83669238D01*
X101163571Y-83574000D01*
X101306429Y-83526381D01*
X101401667Y-83526381D01*
X101544524Y-83574000D01*
X101592143Y-83621619D01*
X101973095Y-83621619D02*
X102020714Y-83574000D01*
X102115952Y-83526381D01*
X102354048Y-83526381D01*
X102449286Y-83574000D01*
X102496905Y-83621619D01*
X102544524Y-83716857D01*
X102544524Y-83812095D01*
X102496905Y-83954952D01*
X101925476Y-84526381D01*
X102544524Y-84526381D01*
X103163571Y-83526381D02*
X103258810Y-83526381D01*
X103354048Y-83574000D01*
X103401667Y-83621619D01*
X103449286Y-83716857D01*
X103496905Y-83907333D01*
X103496905Y-84145429D01*
X103449286Y-84335905D01*
X103401667Y-84431143D01*
X103354048Y-84478762D01*
X103258810Y-84526381D01*
X103163571Y-84526381D01*
X103068333Y-84478762D01*
X103020714Y-84431143D01*
X102973095Y-84335905D01*
X102925476Y-84145429D01*
X102925476Y-83907333D01*
X102973095Y-83716857D01*
X103020714Y-83621619D01*
X103068333Y-83574000D01*
X103163571Y-83526381D01*
X98544143Y-85725143D02*
X98496524Y-85772762D01*
X98353667Y-85820381D01*
X98258429Y-85820381D01*
X98115571Y-85772762D01*
X98020333Y-85677524D01*
X97972714Y-85582286D01*
X97925095Y-85391810D01*
X97925095Y-85248952D01*
X97972714Y-85058476D01*
X98020333Y-84963238D01*
X98115571Y-84868000D01*
X98258429Y-84820381D01*
X98353667Y-84820381D01*
X98496524Y-84868000D01*
X98544143Y-84915619D01*
X98925095Y-84915619D02*
X98972714Y-84868000D01*
X99067952Y-84820381D01*
X99306048Y-84820381D01*
X99401286Y-84868000D01*
X99448905Y-84915619D01*
X99496524Y-85010857D01*
X99496524Y-85106095D01*
X99448905Y-85248952D01*
X98877476Y-85820381D01*
X99496524Y-85820381D01*
X100448905Y-85820381D02*
X99877476Y-85820381D01*
X100163190Y-85820381D02*
X100163190Y-84820381D01*
X100067952Y-84963238D01*
X99972714Y-85058476D01*
X99877476Y-85106095D01*
X179196381Y-114496095D02*
X178196381Y-114496095D01*
X178196381Y-114258000D01*
X178244000Y-114115142D01*
X178339238Y-114019904D01*
X178434476Y-113972285D01*
X178624952Y-113924666D01*
X178767810Y-113924666D01*
X178958286Y-113972285D01*
X179053524Y-114019904D01*
X179148762Y-114115142D01*
X179196381Y-114258000D01*
X179196381Y-114496095D01*
X179196381Y-112972285D02*
X179196381Y-113543714D01*
X179196381Y-113258000D02*
X178196381Y-113258000D01*
X178339238Y-113353238D01*
X178434476Y-113448476D01*
X178482095Y-113543714D01*
X183699905Y-111632381D02*
X183699905Y-110632381D01*
X183938000Y-110632381D01*
X184080858Y-110680000D01*
X184176096Y-110775238D01*
X184223715Y-110870476D01*
X184271334Y-111060952D01*
X184271334Y-111203810D01*
X184223715Y-111394286D01*
X184176096Y-111489524D01*
X184080858Y-111584762D01*
X183938000Y-111632381D01*
X183699905Y-111632381D01*
X184652286Y-110727619D02*
X184699905Y-110680000D01*
X184795143Y-110632381D01*
X185033239Y-110632381D01*
X185128477Y-110680000D01*
X185176096Y-110727619D01*
X185223715Y-110822857D01*
X185223715Y-110918095D01*
X185176096Y-111060952D01*
X184604667Y-111632381D01*
X185223715Y-111632381D01*
X136167905Y-84018381D02*
X136167905Y-83018381D01*
X136406000Y-83018381D01*
X136548858Y-83066000D01*
X136644096Y-83161238D01*
X136691715Y-83256476D01*
X136739334Y-83446952D01*
X136739334Y-83589810D01*
X136691715Y-83780286D01*
X136644096Y-83875524D01*
X136548858Y-83970762D01*
X136406000Y-84018381D01*
X136167905Y-84018381D01*
X137072667Y-83018381D02*
X137691715Y-83018381D01*
X137358381Y-83399333D01*
X137501239Y-83399333D01*
X137596477Y-83446952D01*
X137644096Y-83494571D01*
X137691715Y-83589810D01*
X137691715Y-83827905D01*
X137644096Y-83923143D01*
X137596477Y-83970762D01*
X137501239Y-84018381D01*
X137215524Y-84018381D01*
X137120286Y-83970762D01*
X137072667Y-83923143D01*
X128905048Y-84907429D02*
X129666953Y-84907429D01*
X144145048Y-84907429D02*
X144906953Y-84907429D01*
X144526001Y-85288381D02*
X144526001Y-84526476D01*
X153185905Y-121737381D02*
X153185905Y-120737381D01*
X153424000Y-120737381D01*
X153566858Y-120785000D01*
X153662096Y-120880238D01*
X153709715Y-120975476D01*
X153757334Y-121165952D01*
X153757334Y-121308810D01*
X153709715Y-121499286D01*
X153662096Y-121594524D01*
X153566858Y-121689762D01*
X153424000Y-121737381D01*
X153185905Y-121737381D01*
X154614477Y-121070714D02*
X154614477Y-121737381D01*
X154376381Y-120689762D02*
X154138286Y-121404048D01*
X154757334Y-121404048D01*
X165631905Y-121737381D02*
X165631905Y-120737381D01*
X165870000Y-120737381D01*
X166012858Y-120785000D01*
X166108096Y-120880238D01*
X166155715Y-120975476D01*
X166203334Y-121165952D01*
X166203334Y-121308810D01*
X166155715Y-121499286D01*
X166108096Y-121594524D01*
X166012858Y-121689762D01*
X165870000Y-121737381D01*
X165631905Y-121737381D01*
X167108096Y-120737381D02*
X166631905Y-120737381D01*
X166584286Y-121213571D01*
X166631905Y-121165952D01*
X166727143Y-121118333D01*
X166965239Y-121118333D01*
X167060477Y-121165952D01*
X167108096Y-121213571D01*
X167155715Y-121308810D01*
X167155715Y-121546905D01*
X167108096Y-121642143D01*
X167060477Y-121689762D01*
X166965239Y-121737381D01*
X166727143Y-121737381D01*
X166631905Y-121689762D01*
X166584286Y-121642143D01*
X101242905Y-102052381D02*
X101242905Y-101052381D01*
X101481000Y-101052381D01*
X101623858Y-101100000D01*
X101719096Y-101195238D01*
X101766715Y-101290476D01*
X101814334Y-101480952D01*
X101814334Y-101623810D01*
X101766715Y-101814286D01*
X101719096Y-101909524D01*
X101623858Y-102004762D01*
X101481000Y-102052381D01*
X101242905Y-102052381D01*
X102671477Y-101052381D02*
X102481000Y-101052381D01*
X102385762Y-101100000D01*
X102338143Y-101147619D01*
X102242905Y-101290476D01*
X102195286Y-101480952D01*
X102195286Y-101861905D01*
X102242905Y-101957143D01*
X102290524Y-102004762D01*
X102385762Y-102052381D01*
X102576239Y-102052381D01*
X102671477Y-102004762D01*
X102719096Y-101957143D01*
X102766715Y-101861905D01*
X102766715Y-101623810D01*
X102719096Y-101528571D01*
X102671477Y-101480952D01*
X102576239Y-101433333D01*
X102385762Y-101433333D01*
X102290524Y-101480952D01*
X102242905Y-101528571D01*
X102195286Y-101623810D01*
X92527381Y-97766095D02*
X91527381Y-97766095D01*
X91527381Y-97528000D01*
X91575000Y-97385142D01*
X91670238Y-97289904D01*
X91765476Y-97242285D01*
X91955952Y-97194666D01*
X92098810Y-97194666D01*
X92289286Y-97242285D01*
X92384524Y-97289904D01*
X92479762Y-97385142D01*
X92527381Y-97528000D01*
X92527381Y-97766095D01*
X91527381Y-96861333D02*
X91527381Y-96194666D01*
X92527381Y-96623238D01*
X93979381Y-92686095D02*
X92979381Y-92686095D01*
X92979381Y-92448000D01*
X93027000Y-92305142D01*
X93122238Y-92209904D01*
X93217476Y-92162285D01*
X93407952Y-92114666D01*
X93550810Y-92114666D01*
X93741286Y-92162285D01*
X93836524Y-92209904D01*
X93931762Y-92305142D01*
X93979381Y-92448000D01*
X93979381Y-92686095D01*
X93407952Y-91543238D02*
X93360333Y-91638476D01*
X93312714Y-91686095D01*
X93217476Y-91733714D01*
X93169857Y-91733714D01*
X93074619Y-91686095D01*
X93027000Y-91638476D01*
X92979381Y-91543238D01*
X92979381Y-91352761D01*
X93027000Y-91257523D01*
X93074619Y-91209904D01*
X93169857Y-91162285D01*
X93217476Y-91162285D01*
X93312714Y-91209904D01*
X93360333Y-91257523D01*
X93407952Y-91352761D01*
X93407952Y-91543238D01*
X93455571Y-91638476D01*
X93503190Y-91686095D01*
X93598429Y-91733714D01*
X93788905Y-91733714D01*
X93884143Y-91686095D01*
X93931762Y-91638476D01*
X93979381Y-91543238D01*
X93979381Y-91352761D01*
X93931762Y-91257523D01*
X93884143Y-91209904D01*
X93788905Y-91162285D01*
X93598429Y-91162285D01*
X93503190Y-91209904D01*
X93455571Y-91257523D01*
X93407952Y-91352761D01*
X91693381Y-120118095D02*
X90693381Y-120118095D01*
X90693381Y-119880000D01*
X90741000Y-119737142D01*
X90836238Y-119641904D01*
X90931476Y-119594285D01*
X91121952Y-119546666D01*
X91264810Y-119546666D01*
X91455286Y-119594285D01*
X91550524Y-119641904D01*
X91645762Y-119737142D01*
X91693381Y-119880000D01*
X91693381Y-120118095D01*
X91693381Y-119070476D02*
X91693381Y-118880000D01*
X91645762Y-118784761D01*
X91598143Y-118737142D01*
X91455286Y-118641904D01*
X91264810Y-118594285D01*
X90883857Y-118594285D01*
X90788619Y-118641904D01*
X90741000Y-118689523D01*
X90693381Y-118784761D01*
X90693381Y-118975238D01*
X90741000Y-119070476D01*
X90788619Y-119118095D01*
X90883857Y-119165714D01*
X91121952Y-119165714D01*
X91217190Y-119118095D01*
X91264810Y-119070476D01*
X91312429Y-118975238D01*
X91312429Y-118784761D01*
X91264810Y-118689523D01*
X91217190Y-118641904D01*
X91121952Y-118594285D01*
X94670714Y-118744381D02*
X94670714Y-117744381D01*
X94908809Y-117744381D01*
X95051667Y-117792000D01*
X95146905Y-117887238D01*
X95194524Y-117982476D01*
X95242143Y-118172952D01*
X95242143Y-118315810D01*
X95194524Y-118506286D01*
X95146905Y-118601524D01*
X95051667Y-118696762D01*
X94908809Y-118744381D01*
X94670714Y-118744381D01*
X96194524Y-118744381D02*
X95623095Y-118744381D01*
X95908809Y-118744381D02*
X95908809Y-117744381D01*
X95813571Y-117887238D01*
X95718333Y-117982476D01*
X95623095Y-118030095D01*
X96813571Y-117744381D02*
X96908810Y-117744381D01*
X97004048Y-117792000D01*
X97051667Y-117839619D01*
X97099286Y-117934857D01*
X97146905Y-118125333D01*
X97146905Y-118363429D01*
X97099286Y-118553905D01*
X97051667Y-118649143D01*
X97004048Y-118696762D01*
X96908810Y-118744381D01*
X96813571Y-118744381D01*
X96718333Y-118696762D01*
X96670714Y-118649143D01*
X96623095Y-118553905D01*
X96575476Y-118363429D01*
X96575476Y-118125333D01*
X96623095Y-117934857D01*
X96670714Y-117839619D01*
X96718333Y-117792000D01*
X96813571Y-117744381D01*
X167588667Y-74618381D02*
X167588667Y-75332667D01*
X167541047Y-75475524D01*
X167445809Y-75570762D01*
X167302952Y-75618381D01*
X167207714Y-75618381D01*
X168588667Y-75618381D02*
X168017238Y-75618381D01*
X168302952Y-75618381D02*
X168302952Y-74618381D01*
X168207714Y-74761238D01*
X168112476Y-74856476D01*
X168017238Y-74904095D01*
X137080667Y-84288381D02*
X137080667Y-85002667D01*
X137033047Y-85145524D01*
X136937809Y-85240762D01*
X136794952Y-85288381D01*
X136699714Y-85288381D01*
X137509238Y-84383619D02*
X137556857Y-84336000D01*
X137652095Y-84288381D01*
X137890191Y-84288381D01*
X137985429Y-84336000D01*
X138033048Y-84383619D01*
X138080667Y-84478857D01*
X138080667Y-84574095D01*
X138033048Y-84716952D01*
X137461619Y-85288381D01*
X138080667Y-85288381D01*
X84375667Y-95718381D02*
X84375667Y-96432667D01*
X84328047Y-96575524D01*
X84232809Y-96670762D01*
X84089952Y-96718381D01*
X83994714Y-96718381D01*
X84756619Y-95718381D02*
X85375667Y-95718381D01*
X85042333Y-96099333D01*
X85185191Y-96099333D01*
X85280429Y-96146952D01*
X85328048Y-96194571D01*
X85375667Y-96289810D01*
X85375667Y-96527905D01*
X85328048Y-96623143D01*
X85280429Y-96670762D01*
X85185191Y-96718381D01*
X84899476Y-96718381D01*
X84804238Y-96670762D01*
X84756619Y-96623143D01*
X172553334Y-121864381D02*
X172077143Y-121864381D01*
X172077143Y-120864381D01*
X173362858Y-120864381D02*
X172886667Y-120864381D01*
X172839048Y-121340571D01*
X172886667Y-121292952D01*
X172981905Y-121245333D01*
X173220001Y-121245333D01*
X173315239Y-121292952D01*
X173362858Y-121340571D01*
X173410477Y-121435810D01*
X173410477Y-121673905D01*
X173362858Y-121769143D01*
X173315239Y-121816762D01*
X173220001Y-121864381D01*
X172981905Y-121864381D01*
X172886667Y-121816762D01*
X172839048Y-121769143D01*
X162925334Y-94674381D02*
X162449143Y-94674381D01*
X162449143Y-93674381D01*
X163306286Y-94674381D02*
X163496762Y-94674381D01*
X163592001Y-94626762D01*
X163639620Y-94579143D01*
X163734858Y-94436286D01*
X163782477Y-94245810D01*
X163782477Y-93864857D01*
X163734858Y-93769619D01*
X163687239Y-93722000D01*
X163592001Y-93674381D01*
X163401524Y-93674381D01*
X163306286Y-93722000D01*
X163258667Y-93769619D01*
X163211048Y-93864857D01*
X163211048Y-94102952D01*
X163258667Y-94198190D01*
X163306286Y-94245810D01*
X163401524Y-94293429D01*
X163592001Y-94293429D01*
X163687239Y-94245810D01*
X163734858Y-94198190D01*
X163782477Y-94102952D01*
X105481381Y-107068857D02*
X105481381Y-107545048D01*
X104481381Y-107545048D01*
X105481381Y-106211714D02*
X105481381Y-106783143D01*
X105481381Y-106497429D02*
X104481381Y-106497429D01*
X104624238Y-106592667D01*
X104719476Y-106687905D01*
X104767095Y-106783143D01*
X104481381Y-105592667D02*
X104481381Y-105497428D01*
X104529000Y-105402190D01*
X104576619Y-105354571D01*
X104671857Y-105306952D01*
X104862333Y-105259333D01*
X105100429Y-105259333D01*
X105290905Y-105306952D01*
X105386143Y-105354571D01*
X105433762Y-105402190D01*
X105481381Y-105497428D01*
X105481381Y-105592667D01*
X105433762Y-105687905D01*
X105386143Y-105735524D01*
X105290905Y-105783143D01*
X105100429Y-105830762D01*
X104862333Y-105830762D01*
X104671857Y-105783143D01*
X104576619Y-105735524D01*
X104529000Y-105687905D01*
X104481381Y-105592667D01*
X105227381Y-93352857D02*
X105227381Y-93829048D01*
X104227381Y-93829048D01*
X105227381Y-92495714D02*
X105227381Y-93067143D01*
X105227381Y-92781429D02*
X104227381Y-92781429D01*
X104370238Y-92876667D01*
X104465476Y-92971905D01*
X104513095Y-93067143D01*
X105227381Y-91543333D02*
X105227381Y-92114762D01*
X105227381Y-91829048D02*
X104227381Y-91829048D01*
X104370238Y-91924286D01*
X104465476Y-92019524D01*
X104513095Y-92114762D01*
X97353381Y-89542857D02*
X97353381Y-90019048D01*
X96353381Y-90019048D01*
X97353381Y-88685714D02*
X97353381Y-89257143D01*
X97353381Y-88971429D02*
X96353381Y-88971429D01*
X96496238Y-89066667D01*
X96591476Y-89161905D01*
X96639095Y-89257143D01*
X96448619Y-88304762D02*
X96401000Y-88257143D01*
X96353381Y-88161905D01*
X96353381Y-87923809D01*
X96401000Y-87828571D01*
X96448619Y-87780952D01*
X96543857Y-87733333D01*
X96639095Y-87733333D01*
X96781952Y-87780952D01*
X97353381Y-88352381D01*
X97353381Y-87733333D01*
X120438762Y-121197619D02*
X120343524Y-121150000D01*
X120248286Y-121054762D01*
X120105429Y-120911905D01*
X120010190Y-120864286D01*
X119914952Y-120864286D01*
X119962571Y-121102381D02*
X119867333Y-121054762D01*
X119772095Y-120959524D01*
X119724476Y-120769048D01*
X119724476Y-120435714D01*
X119772095Y-120245238D01*
X119867333Y-120150000D01*
X119962571Y-120102381D01*
X120153048Y-120102381D01*
X120248286Y-120150000D01*
X120343524Y-120245238D01*
X120391143Y-120435714D01*
X120391143Y-120769048D01*
X120343524Y-120959524D01*
X120248286Y-121054762D01*
X120153048Y-121102381D01*
X119962571Y-121102381D01*
X121343524Y-121102381D02*
X120772095Y-121102381D01*
X121057809Y-121102381D02*
X121057809Y-120102381D01*
X120962571Y-120245238D01*
X120867333Y-120340476D01*
X120772095Y-120388095D01*
X138334762Y-121197619D02*
X138239524Y-121150000D01*
X138144286Y-121054762D01*
X138001429Y-120911905D01*
X137906190Y-120864286D01*
X137810952Y-120864286D01*
X137858571Y-121102381D02*
X137763333Y-121054762D01*
X137668095Y-120959524D01*
X137620476Y-120769048D01*
X137620476Y-120435714D01*
X137668095Y-120245238D01*
X137763333Y-120150000D01*
X137858571Y-120102381D01*
X138049048Y-120102381D01*
X138144286Y-120150000D01*
X138239524Y-120245238D01*
X138287143Y-120435714D01*
X138287143Y-120769048D01*
X138239524Y-120959524D01*
X138144286Y-121054762D01*
X138049048Y-121102381D01*
X137858571Y-121102381D01*
X138668095Y-120197619D02*
X138715714Y-120150000D01*
X138810952Y-120102381D01*
X139049048Y-120102381D01*
X139144286Y-120150000D01*
X139191905Y-120197619D01*
X139239524Y-120292857D01*
X139239524Y-120388095D01*
X139191905Y-120530952D01*
X138620476Y-121102381D01*
X139239524Y-121102381D01*
X202128381Y-125134666D02*
X201652190Y-125468000D01*
X202128381Y-125706095D02*
X201128381Y-125706095D01*
X201128381Y-125325142D01*
X201176000Y-125229904D01*
X201223619Y-125182285D01*
X201318857Y-125134666D01*
X201461714Y-125134666D01*
X201556952Y-125182285D01*
X201604571Y-125229904D01*
X201652190Y-125325142D01*
X201652190Y-125706095D01*
X202128381Y-124182285D02*
X202128381Y-124753714D01*
X202128381Y-124468000D02*
X201128381Y-124468000D01*
X201271238Y-124563238D01*
X201366476Y-124658476D01*
X201414095Y-124753714D01*
X188059334Y-114932381D02*
X187726000Y-114456190D01*
X187487905Y-114932381D02*
X187487905Y-113932381D01*
X187868858Y-113932381D01*
X187964096Y-113980000D01*
X188011715Y-114027619D01*
X188059334Y-114122857D01*
X188059334Y-114265714D01*
X188011715Y-114360952D01*
X187964096Y-114408571D01*
X187868858Y-114456190D01*
X187487905Y-114456190D01*
X188440286Y-114027619D02*
X188487905Y-113980000D01*
X188583143Y-113932381D01*
X188821239Y-113932381D01*
X188916477Y-113980000D01*
X188964096Y-114027619D01*
X189011715Y-114122857D01*
X189011715Y-114218095D01*
X188964096Y-114360952D01*
X188392667Y-114932381D01*
X189011715Y-114932381D01*
X197990381Y-96190666D02*
X197514190Y-96524000D01*
X197990381Y-96762095D02*
X196990381Y-96762095D01*
X196990381Y-96381142D01*
X197038000Y-96285904D01*
X197085619Y-96238285D01*
X197180857Y-96190666D01*
X197323714Y-96190666D01*
X197418952Y-96238285D01*
X197466571Y-96285904D01*
X197514190Y-96381142D01*
X197514190Y-96762095D01*
X196990381Y-95857333D02*
X196990381Y-95238285D01*
X197371333Y-95571619D01*
X197371333Y-95428761D01*
X197418952Y-95333523D01*
X197466571Y-95285904D01*
X197561810Y-95238285D01*
X197799905Y-95238285D01*
X197895143Y-95285904D01*
X197942762Y-95333523D01*
X197990381Y-95428761D01*
X197990381Y-95714476D01*
X197942762Y-95809714D01*
X197895143Y-95857333D01*
X129410381Y-102540666D02*
X128934190Y-102874000D01*
X129410381Y-103112095D02*
X128410381Y-103112095D01*
X128410381Y-102731142D01*
X128458000Y-102635904D01*
X128505619Y-102588285D01*
X128600857Y-102540666D01*
X128743714Y-102540666D01*
X128838952Y-102588285D01*
X128886571Y-102635904D01*
X128934190Y-102731142D01*
X128934190Y-103112095D01*
X128410381Y-101635904D02*
X128410381Y-102112095D01*
X128886571Y-102159714D01*
X128838952Y-102112095D01*
X128791333Y-102016857D01*
X128791333Y-101778761D01*
X128838952Y-101683523D01*
X128886571Y-101635904D01*
X128981810Y-101588285D01*
X129219905Y-101588285D01*
X129315143Y-101635904D01*
X129362762Y-101683523D01*
X129410381Y-101778761D01*
X129410381Y-102016857D01*
X129362762Y-102112095D01*
X129315143Y-102159714D01*
X88283381Y-85002666D02*
X87807190Y-85336000D01*
X88283381Y-85574095D02*
X87283381Y-85574095D01*
X87283381Y-85193142D01*
X87331000Y-85097904D01*
X87378619Y-85050285D01*
X87473857Y-85002666D01*
X87616714Y-85002666D01*
X87711952Y-85050285D01*
X87759571Y-85097904D01*
X87807190Y-85193142D01*
X87807190Y-85574095D01*
X87283381Y-84145523D02*
X87283381Y-84336000D01*
X87331000Y-84431238D01*
X87378619Y-84478857D01*
X87521476Y-84574095D01*
X87711952Y-84621714D01*
X88092905Y-84621714D01*
X88188143Y-84574095D01*
X88235762Y-84526476D01*
X88283381Y-84431238D01*
X88283381Y-84240761D01*
X88235762Y-84145523D01*
X88188143Y-84097904D01*
X88092905Y-84050285D01*
X87854810Y-84050285D01*
X87759571Y-84097904D01*
X87711952Y-84145523D01*
X87664333Y-84240761D01*
X87664333Y-84431238D01*
X87711952Y-84526476D01*
X87759571Y-84574095D01*
X87854810Y-84621714D01*
X93178334Y-83002381D02*
X92845000Y-82526190D01*
X92606905Y-83002381D02*
X92606905Y-82002381D01*
X92987858Y-82002381D01*
X93083096Y-82050000D01*
X93130715Y-82097619D01*
X93178334Y-82192857D01*
X93178334Y-82335714D01*
X93130715Y-82430952D01*
X93083096Y-82478571D01*
X92987858Y-82526190D01*
X92606905Y-82526190D01*
X93511667Y-82002381D02*
X94178334Y-82002381D01*
X93749762Y-83002381D01*
X98189381Y-111672666D02*
X97713190Y-112006000D01*
X98189381Y-112244095D02*
X97189381Y-112244095D01*
X97189381Y-111863142D01*
X97237000Y-111767904D01*
X97284619Y-111720285D01*
X97379857Y-111672666D01*
X97522714Y-111672666D01*
X97617952Y-111720285D01*
X97665571Y-111767904D01*
X97713190Y-111863142D01*
X97713190Y-112244095D01*
X97617952Y-111101238D02*
X97570333Y-111196476D01*
X97522714Y-111244095D01*
X97427476Y-111291714D01*
X97379857Y-111291714D01*
X97284619Y-111244095D01*
X97237000Y-111196476D01*
X97189381Y-111101238D01*
X97189381Y-110910761D01*
X97237000Y-110815523D01*
X97284619Y-110767904D01*
X97379857Y-110720285D01*
X97427476Y-110720285D01*
X97522714Y-110767904D01*
X97570333Y-110815523D01*
X97617952Y-110910761D01*
X97617952Y-111101238D01*
X97665571Y-111196476D01*
X97713190Y-111244095D01*
X97808429Y-111291714D01*
X97998905Y-111291714D01*
X98094143Y-111244095D01*
X98141762Y-111196476D01*
X98189381Y-111101238D01*
X98189381Y-110910761D01*
X98141762Y-110815523D01*
X98094143Y-110767904D01*
X97998905Y-110720285D01*
X97808429Y-110720285D01*
X97713190Y-110767904D01*
X97665571Y-110815523D01*
X97617952Y-110910761D01*
X98189381Y-109132666D02*
X97713190Y-109466000D01*
X98189381Y-109704095D02*
X97189381Y-109704095D01*
X97189381Y-109323142D01*
X97237000Y-109227904D01*
X97284619Y-109180285D01*
X97379857Y-109132666D01*
X97522714Y-109132666D01*
X97617952Y-109180285D01*
X97665571Y-109227904D01*
X97713190Y-109323142D01*
X97713190Y-109704095D01*
X98189381Y-108656476D02*
X98189381Y-108466000D01*
X98141762Y-108370761D01*
X98094143Y-108323142D01*
X97951286Y-108227904D01*
X97760810Y-108180285D01*
X97379857Y-108180285D01*
X97284619Y-108227904D01*
X97237000Y-108275523D01*
X97189381Y-108370761D01*
X97189381Y-108561238D01*
X97237000Y-108656476D01*
X97284619Y-108704095D01*
X97379857Y-108751714D01*
X97617952Y-108751714D01*
X97713190Y-108704095D01*
X97760810Y-108656476D01*
X97808429Y-108561238D01*
X97808429Y-108370761D01*
X97760810Y-108275523D01*
X97713190Y-108227904D01*
X97617952Y-108180285D01*
X95321381Y-114180857D02*
X94845190Y-114514191D01*
X95321381Y-114752286D02*
X94321381Y-114752286D01*
X94321381Y-114371333D01*
X94369000Y-114276095D01*
X94416619Y-114228476D01*
X94511857Y-114180857D01*
X94654714Y-114180857D01*
X94749952Y-114228476D01*
X94797571Y-114276095D01*
X94845190Y-114371333D01*
X94845190Y-114752286D01*
X95321381Y-113228476D02*
X95321381Y-113799905D01*
X95321381Y-113514191D02*
X94321381Y-113514191D01*
X94464238Y-113609429D01*
X94559476Y-113704667D01*
X94607095Y-113799905D01*
X94321381Y-112609429D02*
X94321381Y-112514190D01*
X94369000Y-112418952D01*
X94416619Y-112371333D01*
X94511857Y-112323714D01*
X94702333Y-112276095D01*
X94940429Y-112276095D01*
X95130905Y-112323714D01*
X95226143Y-112371333D01*
X95273762Y-112418952D01*
X95321381Y-112514190D01*
X95321381Y-112609429D01*
X95273762Y-112704667D01*
X95226143Y-112752286D01*
X95130905Y-112799905D01*
X94940429Y-112847524D01*
X94702333Y-112847524D01*
X94511857Y-112799905D01*
X94416619Y-112752286D01*
X94369000Y-112704667D01*
X94321381Y-112609429D01*
X92453381Y-114180857D02*
X91977190Y-114514191D01*
X92453381Y-114752286D02*
X91453381Y-114752286D01*
X91453381Y-114371333D01*
X91501000Y-114276095D01*
X91548619Y-114228476D01*
X91643857Y-114180857D01*
X91786714Y-114180857D01*
X91881952Y-114228476D01*
X91929571Y-114276095D01*
X91977190Y-114371333D01*
X91977190Y-114752286D01*
X92453381Y-113228476D02*
X92453381Y-113799905D01*
X92453381Y-113514191D02*
X91453381Y-113514191D01*
X91596238Y-113609429D01*
X91691476Y-113704667D01*
X91739095Y-113799905D01*
X92453381Y-112276095D02*
X92453381Y-112847524D01*
X92453381Y-112561810D02*
X91453381Y-112561810D01*
X91596238Y-112657048D01*
X91691476Y-112752286D01*
X91739095Y-112847524D01*
X97533381Y-99436857D02*
X97057190Y-99770191D01*
X97533381Y-100008286D02*
X96533381Y-100008286D01*
X96533381Y-99627333D01*
X96581000Y-99532095D01*
X96628619Y-99484476D01*
X96723857Y-99436857D01*
X96866714Y-99436857D01*
X96961952Y-99484476D01*
X97009571Y-99532095D01*
X97057190Y-99627333D01*
X97057190Y-100008286D01*
X97533381Y-98484476D02*
X97533381Y-99055905D01*
X97533381Y-98770191D02*
X96533381Y-98770191D01*
X96676238Y-98865429D01*
X96771476Y-98960667D01*
X96819095Y-99055905D01*
X96628619Y-98103524D02*
X96581000Y-98055905D01*
X96533381Y-97960667D01*
X96533381Y-97722571D01*
X96581000Y-97627333D01*
X96628619Y-97579714D01*
X96723857Y-97532095D01*
X96819095Y-97532095D01*
X96961952Y-97579714D01*
X97533381Y-98151143D01*
X97533381Y-97532095D01*
X106423381Y-120784857D02*
X105947190Y-121118191D01*
X106423381Y-121356286D02*
X105423381Y-121356286D01*
X105423381Y-120975333D01*
X105471000Y-120880095D01*
X105518619Y-120832476D01*
X105613857Y-120784857D01*
X105756714Y-120784857D01*
X105851952Y-120832476D01*
X105899571Y-120880095D01*
X105947190Y-120975333D01*
X105947190Y-121356286D01*
X106423381Y-119832476D02*
X106423381Y-120403905D01*
X106423381Y-120118191D02*
X105423381Y-120118191D01*
X105566238Y-120213429D01*
X105661476Y-120308667D01*
X105709095Y-120403905D01*
X105423381Y-119499143D02*
X105423381Y-118880095D01*
X105804333Y-119213429D01*
X105804333Y-119070571D01*
X105851952Y-118975333D01*
X105899571Y-118927714D01*
X105994810Y-118880095D01*
X106232905Y-118880095D01*
X106328143Y-118927714D01*
X106375762Y-118975333D01*
X106423381Y-119070571D01*
X106423381Y-119356286D01*
X106375762Y-119451524D01*
X106328143Y-119499143D01*
X103523381Y-117736857D02*
X103047190Y-118070191D01*
X103523381Y-118308286D02*
X102523381Y-118308286D01*
X102523381Y-117927333D01*
X102571000Y-117832095D01*
X102618619Y-117784476D01*
X102713857Y-117736857D01*
X102856714Y-117736857D01*
X102951952Y-117784476D01*
X102999571Y-117832095D01*
X103047190Y-117927333D01*
X103047190Y-118308286D01*
X103523381Y-116784476D02*
X103523381Y-117355905D01*
X103523381Y-117070191D02*
X102523381Y-117070191D01*
X102666238Y-117165429D01*
X102761476Y-117260667D01*
X102809095Y-117355905D01*
X102856714Y-115927333D02*
X103523381Y-115927333D01*
X102475762Y-116165429D02*
X103190048Y-116403524D01*
X103190048Y-115784476D01*
X102862143Y-90876381D02*
X102528809Y-90400190D01*
X102290714Y-90876381D02*
X102290714Y-89876381D01*
X102671667Y-89876381D01*
X102766905Y-89924000D01*
X102814524Y-89971619D01*
X102862143Y-90066857D01*
X102862143Y-90209714D01*
X102814524Y-90304952D01*
X102766905Y-90352571D01*
X102671667Y-90400190D01*
X102290714Y-90400190D01*
X103814524Y-90876381D02*
X103243095Y-90876381D01*
X103528809Y-90876381D02*
X103528809Y-89876381D01*
X103433571Y-90019238D01*
X103338333Y-90114476D01*
X103243095Y-90162095D01*
X104719286Y-89876381D02*
X104243095Y-89876381D01*
X104195476Y-90352571D01*
X104243095Y-90304952D01*
X104338333Y-90257333D01*
X104576429Y-90257333D01*
X104671667Y-90304952D01*
X104719286Y-90352571D01*
X104766905Y-90447810D01*
X104766905Y-90685905D01*
X104719286Y-90781143D01*
X104671667Y-90828762D01*
X104576429Y-90876381D01*
X104338333Y-90876381D01*
X104243095Y-90828762D01*
X104195476Y-90781143D01*
X106423381Y-88780857D02*
X105947190Y-89114191D01*
X106423381Y-89352286D02*
X105423381Y-89352286D01*
X105423381Y-88971333D01*
X105471000Y-88876095D01*
X105518619Y-88828476D01*
X105613857Y-88780857D01*
X105756714Y-88780857D01*
X105851952Y-88828476D01*
X105899571Y-88876095D01*
X105947190Y-88971333D01*
X105947190Y-89352286D01*
X106423381Y-87828476D02*
X106423381Y-88399905D01*
X106423381Y-88114191D02*
X105423381Y-88114191D01*
X105566238Y-88209429D01*
X105661476Y-88304667D01*
X105709095Y-88399905D01*
X105423381Y-86971333D02*
X105423381Y-87161810D01*
X105471000Y-87257048D01*
X105518619Y-87304667D01*
X105661476Y-87399905D01*
X105851952Y-87447524D01*
X106232905Y-87447524D01*
X106328143Y-87399905D01*
X106375762Y-87352286D01*
X106423381Y-87257048D01*
X106423381Y-87066571D01*
X106375762Y-86971333D01*
X106328143Y-86923714D01*
X106232905Y-86876095D01*
X105994810Y-86876095D01*
X105899571Y-86923714D01*
X105851952Y-86971333D01*
X105804333Y-87066571D01*
X105804333Y-87257048D01*
X105851952Y-87352286D01*
X105899571Y-87399905D01*
X105994810Y-87447524D01*
X100655381Y-73286857D02*
X100179190Y-73620191D01*
X100655381Y-73858286D02*
X99655381Y-73858286D01*
X99655381Y-73477333D01*
X99703000Y-73382095D01*
X99750619Y-73334476D01*
X99845857Y-73286857D01*
X99988714Y-73286857D01*
X100083952Y-73334476D01*
X100131571Y-73382095D01*
X100179190Y-73477333D01*
X100179190Y-73858286D01*
X100655381Y-72334476D02*
X100655381Y-72905905D01*
X100655381Y-72620191D02*
X99655381Y-72620191D01*
X99798238Y-72715429D01*
X99893476Y-72810667D01*
X99941095Y-72905905D01*
X99655381Y-72001143D02*
X99655381Y-71334476D01*
X100655381Y-71763048D01*
X169817381Y-76207857D02*
X169341190Y-76541191D01*
X169817381Y-76779286D02*
X168817381Y-76779286D01*
X168817381Y-76398333D01*
X168865000Y-76303095D01*
X168912619Y-76255476D01*
X169007857Y-76207857D01*
X169150714Y-76207857D01*
X169245952Y-76255476D01*
X169293571Y-76303095D01*
X169341190Y-76398333D01*
X169341190Y-76779286D01*
X169817381Y-75255476D02*
X169817381Y-75826905D01*
X169817381Y-75541191D02*
X168817381Y-75541191D01*
X168960238Y-75636429D01*
X169055476Y-75731667D01*
X169103095Y-75826905D01*
X169245952Y-74684048D02*
X169198333Y-74779286D01*
X169150714Y-74826905D01*
X169055476Y-74874524D01*
X169007857Y-74874524D01*
X168912619Y-74826905D01*
X168865000Y-74779286D01*
X168817381Y-74684048D01*
X168817381Y-74493571D01*
X168865000Y-74398333D01*
X168912619Y-74350714D01*
X169007857Y-74303095D01*
X169055476Y-74303095D01*
X169150714Y-74350714D01*
X169198333Y-74398333D01*
X169245952Y-74493571D01*
X169245952Y-74684048D01*
X169293571Y-74779286D01*
X169341190Y-74826905D01*
X169436429Y-74874524D01*
X169626905Y-74874524D01*
X169722143Y-74826905D01*
X169769762Y-74779286D01*
X169817381Y-74684048D01*
X169817381Y-74493571D01*
X169769762Y-74398333D01*
X169722143Y-74350714D01*
X169626905Y-74303095D01*
X169436429Y-74303095D01*
X169341190Y-74350714D01*
X169293571Y-74398333D01*
X169245952Y-74493571D01*
X80081381Y-124467238D02*
X79605190Y-124800572D01*
X80081381Y-125038667D02*
X79081381Y-125038667D01*
X79081381Y-124657714D01*
X79129000Y-124562476D01*
X79176619Y-124514857D01*
X79271857Y-124467238D01*
X79414714Y-124467238D01*
X79509952Y-124514857D01*
X79557571Y-124562476D01*
X79605190Y-124657714D01*
X79605190Y-125038667D01*
X79081381Y-124181524D02*
X80081381Y-123848191D01*
X79081381Y-123514857D01*
X80081381Y-122657714D02*
X80081381Y-123229143D01*
X80081381Y-122943429D02*
X79081381Y-122943429D01*
X79224238Y-123038667D01*
X79319476Y-123133905D01*
X79367095Y-123229143D01*
X189484095Y-69556381D02*
X189484095Y-70365905D01*
X189531714Y-70461143D01*
X189579333Y-70508762D01*
X189674571Y-70556381D01*
X189865048Y-70556381D01*
X189960286Y-70508762D01*
X190007905Y-70461143D01*
X190055524Y-70365905D01*
X190055524Y-69556381D01*
X191055524Y-70556381D02*
X190484095Y-70556381D01*
X190769809Y-70556381D02*
X190769809Y-69556381D01*
X190674571Y-69699238D01*
X190579333Y-69794476D01*
X190484095Y-69842095D01*
X177716381Y-121411905D02*
X178525905Y-121411905D01*
X178621143Y-121364286D01*
X178668762Y-121316667D01*
X178716381Y-121221429D01*
X178716381Y-121030952D01*
X178668762Y-120935714D01*
X178621143Y-120888095D01*
X178525905Y-120840476D01*
X177716381Y-120840476D01*
X177811619Y-120411905D02*
X177764000Y-120364286D01*
X177716381Y-120269048D01*
X177716381Y-120030952D01*
X177764000Y-119935714D01*
X177811619Y-119888095D01*
X177906857Y-119840476D01*
X178002095Y-119840476D01*
X178144952Y-119888095D01*
X178716381Y-120459524D01*
X178716381Y-119840476D01*
X214264381Y-85851905D02*
X215073905Y-85851905D01*
X215169143Y-85804286D01*
X215216762Y-85756667D01*
X215264381Y-85661429D01*
X215264381Y-85470952D01*
X215216762Y-85375714D01*
X215169143Y-85328095D01*
X215073905Y-85280476D01*
X214264381Y-85280476D01*
X214264381Y-84899524D02*
X214264381Y-84280476D01*
X214645333Y-84613810D01*
X214645333Y-84470952D01*
X214692952Y-84375714D01*
X214740571Y-84328095D01*
X214835810Y-84280476D01*
X215073905Y-84280476D01*
X215169143Y-84328095D01*
X215216762Y-84375714D01*
X215264381Y-84470952D01*
X215264381Y-84756667D01*
X215216762Y-84851905D01*
X215169143Y-84899524D01*
X207264095Y-99738381D02*
X207264095Y-100547905D01*
X207311714Y-100643143D01*
X207359333Y-100690762D01*
X207454571Y-100738381D01*
X207645048Y-100738381D01*
X207740286Y-100690762D01*
X207787905Y-100643143D01*
X207835524Y-100547905D01*
X207835524Y-99738381D01*
X208740286Y-100071714D02*
X208740286Y-100738381D01*
X208502190Y-99690762D02*
X208264095Y-100405048D01*
X208883143Y-100405048D01*
X207010095Y-113454381D02*
X207010095Y-114263905D01*
X207057714Y-114359143D01*
X207105333Y-114406762D01*
X207200571Y-114454381D01*
X207391048Y-114454381D01*
X207486286Y-114406762D01*
X207533905Y-114359143D01*
X207581524Y-114263905D01*
X207581524Y-113454381D01*
X208533905Y-113454381D02*
X208057714Y-113454381D01*
X208010095Y-113930571D01*
X208057714Y-113882952D01*
X208152952Y-113835333D01*
X208391048Y-113835333D01*
X208486286Y-113882952D01*
X208533905Y-113930571D01*
X208581524Y-114025810D01*
X208581524Y-114263905D01*
X208533905Y-114359143D01*
X208486286Y-114406762D01*
X208391048Y-114454381D01*
X208152952Y-114454381D01*
X208057714Y-114406762D01*
X208010095Y-114359143D01*
X104227381Y-110235905D02*
X105036905Y-110235905D01*
X105132143Y-110188286D01*
X105179762Y-110140667D01*
X105227381Y-110045429D01*
X105227381Y-109854952D01*
X105179762Y-109759714D01*
X105132143Y-109712095D01*
X105036905Y-109664476D01*
X104227381Y-109664476D01*
X104227381Y-108759714D02*
X104227381Y-108950191D01*
X104275000Y-109045429D01*
X104322619Y-109093048D01*
X104465476Y-109188286D01*
X104655952Y-109235905D01*
X105036905Y-109235905D01*
X105132143Y-109188286D01*
X105179762Y-109140667D01*
X105227381Y-109045429D01*
X105227381Y-108854952D01*
X105179762Y-108759714D01*
X105132143Y-108712095D01*
X105036905Y-108664476D01*
X104798810Y-108664476D01*
X104703571Y-108712095D01*
X104655952Y-108759714D01*
X104608333Y-108854952D01*
X104608333Y-109045429D01*
X104655952Y-109140667D01*
X104703571Y-109188286D01*
X104798810Y-109235905D01*
X86149381Y-76707905D02*
X86958905Y-76707905D01*
X87054143Y-76660286D01*
X87101762Y-76612667D01*
X87149381Y-76517429D01*
X87149381Y-76326952D01*
X87101762Y-76231714D01*
X87054143Y-76184095D01*
X86958905Y-76136476D01*
X86149381Y-76136476D01*
X86149381Y-75755524D02*
X86149381Y-75088857D01*
X87149381Y-75517429D01*
X85133381Y-107695905D02*
X85942905Y-107695905D01*
X86038143Y-107648286D01*
X86085762Y-107600667D01*
X86133381Y-107505429D01*
X86133381Y-107314952D01*
X86085762Y-107219714D01*
X86038143Y-107172095D01*
X85942905Y-107124476D01*
X85133381Y-107124476D01*
X85561952Y-106505429D02*
X85514333Y-106600667D01*
X85466714Y-106648286D01*
X85371476Y-106695905D01*
X85323857Y-106695905D01*
X85228619Y-106648286D01*
X85181000Y-106600667D01*
X85133381Y-106505429D01*
X85133381Y-106314952D01*
X85181000Y-106219714D01*
X85228619Y-106172095D01*
X85323857Y-106124476D01*
X85371476Y-106124476D01*
X85466714Y-106172095D01*
X85514333Y-106219714D01*
X85561952Y-106314952D01*
X85561952Y-106505429D01*
X85609571Y-106600667D01*
X85657190Y-106648286D01*
X85752429Y-106695905D01*
X85942905Y-106695905D01*
X86038143Y-106648286D01*
X86085762Y-106600667D01*
X86133381Y-106505429D01*
X86133381Y-106314952D01*
X86085762Y-106219714D01*
X86038143Y-106172095D01*
X85942905Y-106124476D01*
X85752429Y-106124476D01*
X85657190Y-106172095D01*
X85609571Y-106219714D01*
X85561952Y-106314952D01*
X96530381Y-127452904D02*
X97339905Y-127452904D01*
X97435143Y-127405285D01*
X97482762Y-127357666D01*
X97530381Y-127262428D01*
X97530381Y-127071951D01*
X97482762Y-126976713D01*
X97435143Y-126929094D01*
X97339905Y-126881475D01*
X96530381Y-126881475D01*
X97530381Y-126357666D02*
X97530381Y-126167190D01*
X97482762Y-126071951D01*
X97435143Y-126024332D01*
X97292286Y-125929094D01*
X97101810Y-125881475D01*
X96720857Y-125881475D01*
X96625619Y-125929094D01*
X96578000Y-125976713D01*
X96530381Y-126071951D01*
X96530381Y-126262428D01*
X96578000Y-126357666D01*
X96625619Y-126405285D01*
X96720857Y-126452904D01*
X96958952Y-126452904D01*
X97054190Y-126405285D01*
X97101810Y-126357666D01*
X97149429Y-126262428D01*
X97149429Y-126071951D01*
X97101810Y-125976713D01*
X97054190Y-125929094D01*
X96958952Y-125881475D01*
X98555381Y-96864095D02*
X99364905Y-96864095D01*
X99460143Y-96816476D01*
X99507762Y-96768857D01*
X99555381Y-96673619D01*
X99555381Y-96483142D01*
X99507762Y-96387904D01*
X99460143Y-96340285D01*
X99364905Y-96292666D01*
X98555381Y-96292666D01*
X99555381Y-95292666D02*
X99555381Y-95864095D01*
X99555381Y-95578381D02*
X98555381Y-95578381D01*
X98698238Y-95673619D01*
X98793476Y-95768857D01*
X98841095Y-95864095D01*
X98555381Y-94673619D02*
X98555381Y-94578380D01*
X98603000Y-94483142D01*
X98650619Y-94435523D01*
X98745857Y-94387904D01*
X98936333Y-94340285D01*
X99174429Y-94340285D01*
X99364905Y-94387904D01*
X99460143Y-94435523D01*
X99507762Y-94483142D01*
X99555381Y-94578380D01*
X99555381Y-94673619D01*
X99507762Y-94768857D01*
X99460143Y-94816476D01*
X99364905Y-94864095D01*
X99174429Y-94911714D01*
X98936333Y-94911714D01*
X98745857Y-94864095D01*
X98650619Y-94816476D01*
X98603000Y-94768857D01*
X98555381Y-94673619D01*
X85133381Y-127730095D02*
X85942905Y-127730095D01*
X86038143Y-127682476D01*
X86085762Y-127634857D01*
X86133381Y-127539619D01*
X86133381Y-127349142D01*
X86085762Y-127253904D01*
X86038143Y-127206285D01*
X85942905Y-127158666D01*
X85133381Y-127158666D01*
X86133381Y-126158666D02*
X86133381Y-126730095D01*
X86133381Y-126444381D02*
X85133381Y-126444381D01*
X85276238Y-126539619D01*
X85371476Y-126634857D01*
X85419095Y-126730095D01*
X86133381Y-125206285D02*
X86133381Y-125777714D01*
X86133381Y-125492000D02*
X85133381Y-125492000D01*
X85276238Y-125587238D01*
X85371476Y-125682476D01*
X85419095Y-125777714D01*
X203866905Y-90086381D02*
X203866905Y-90895905D01*
X203914524Y-90991143D01*
X203962143Y-91038762D01*
X204057381Y-91086381D01*
X204247858Y-91086381D01*
X204343096Y-91038762D01*
X204390715Y-90991143D01*
X204438334Y-90895905D01*
X204438334Y-90086381D01*
X205438334Y-91086381D02*
X204866905Y-91086381D01*
X205152619Y-91086381D02*
X205152619Y-90086381D01*
X205057381Y-90229238D01*
X204962143Y-90324476D01*
X204866905Y-90372095D01*
X205819286Y-90181619D02*
X205866905Y-90134000D01*
X205962143Y-90086381D01*
X206200239Y-90086381D01*
X206295477Y-90134000D01*
X206343096Y-90181619D01*
X206390715Y-90276857D01*
X206390715Y-90372095D01*
X206343096Y-90514952D01*
X205771667Y-91086381D01*
X206390715Y-91086381D01*
X195326095Y-104227381D02*
X195897524Y-104227381D01*
X195611809Y-105227381D02*
X195611809Y-104227381D01*
X196754667Y-105227381D02*
X196183238Y-105227381D01*
X196468952Y-105227381D02*
X196468952Y-104227381D01*
X196373714Y-104370238D01*
X196278476Y-104465476D01*
X196183238Y-104513095D01*
X176530095Y-86828381D02*
X177101524Y-86828381D01*
X176815809Y-87828381D02*
X176815809Y-86828381D01*
X177387238Y-86923619D02*
X177434857Y-86876000D01*
X177530095Y-86828381D01*
X177768191Y-86828381D01*
X177863429Y-86876000D01*
X177911048Y-86923619D01*
X177958667Y-87018857D01*
X177958667Y-87114095D01*
X177911048Y-87256952D01*
X177339619Y-87828381D01*
X177958667Y-87828381D01*
X174945143Y-94353143D02*
X174897524Y-94400762D01*
X174754667Y-94448381D01*
X174659429Y-94448381D01*
X174516571Y-94400762D01*
X174421333Y-94305524D01*
X174373714Y-94210286D01*
X174326095Y-94019810D01*
X174326095Y-93876952D01*
X174373714Y-93686476D01*
X174421333Y-93591238D01*
X174516571Y-93496000D01*
X174659429Y-93448381D01*
X174754667Y-93448381D01*
X174897524Y-93496000D01*
X174945143Y-93543619D01*
X175897524Y-94448381D02*
X175326095Y-94448381D01*
X175611809Y-94448381D02*
X175611809Y-93448381D01*
X175516571Y-93591238D01*
X175421333Y-93686476D01*
X175326095Y-93734095D01*
X176278476Y-93543619D02*
X176326095Y-93496000D01*
X176421333Y-93448381D01*
X176659429Y-93448381D01*
X176754667Y-93496000D01*
X176802286Y-93543619D01*
X176849905Y-93638857D01*
X176849905Y-93734095D01*
X176802286Y-93876952D01*
X176230857Y-94448381D01*
X176849905Y-94448381D01*
X175051143Y-112355143D02*
X175003524Y-112402762D01*
X174860667Y-112450381D01*
X174765429Y-112450381D01*
X174622571Y-112402762D01*
X174527333Y-112307524D01*
X174479714Y-112212286D01*
X174432095Y-112021810D01*
X174432095Y-111878952D01*
X174479714Y-111688476D01*
X174527333Y-111593238D01*
X174622571Y-111498000D01*
X174765429Y-111450381D01*
X174860667Y-111450381D01*
X175003524Y-111498000D01*
X175051143Y-111545619D01*
X176003524Y-112450381D02*
X175432095Y-112450381D01*
X175717809Y-112450381D02*
X175717809Y-111450381D01*
X175622571Y-111593238D01*
X175527333Y-111688476D01*
X175432095Y-111736095D01*
X176336857Y-111450381D02*
X176955905Y-111450381D01*
X176622571Y-111831333D01*
X176765429Y-111831333D01*
X176860667Y-111878952D01*
X176908286Y-111926571D01*
X176955905Y-112021810D01*
X176955905Y-112259905D01*
X176908286Y-112355143D01*
X176860667Y-112402762D01*
X176765429Y-112450381D01*
X176479714Y-112450381D01*
X176384476Y-112402762D01*
X176336857Y-112355143D01*
X162757143Y-104956857D02*
X162804762Y-105004476D01*
X162852381Y-105147333D01*
X162852381Y-105242571D01*
X162804762Y-105385429D01*
X162709524Y-105480667D01*
X162614286Y-105528286D01*
X162423810Y-105575905D01*
X162280952Y-105575905D01*
X162090476Y-105528286D01*
X161995238Y-105480667D01*
X161900000Y-105385429D01*
X161852381Y-105242571D01*
X161852381Y-105147333D01*
X161900000Y-105004476D01*
X161947619Y-104956857D01*
X162852381Y-104004476D02*
X162852381Y-104575905D01*
X162852381Y-104290191D02*
X161852381Y-104290191D01*
X161995238Y-104385429D01*
X162090476Y-104480667D01*
X162138095Y-104575905D01*
X161852381Y-103385429D02*
X161852381Y-103290190D01*
X161900000Y-103194952D01*
X161947619Y-103147333D01*
X162042857Y-103099714D01*
X162233333Y-103052095D01*
X162471429Y-103052095D01*
X162661905Y-103099714D01*
X162757143Y-103147333D01*
X162804762Y-103194952D01*
X162852381Y-103290190D01*
X162852381Y-103385429D01*
X162804762Y-103480667D01*
X162757143Y-103528286D01*
X162661905Y-103575905D01*
X162471429Y-103623524D01*
X162233333Y-103623524D01*
X162042857Y-103575905D01*
X161947619Y-103528286D01*
X161900000Y-103480667D01*
X161852381Y-103385429D01*
X136849143Y-104956857D02*
X136896762Y-105004476D01*
X136944381Y-105147333D01*
X136944381Y-105242571D01*
X136896762Y-105385429D01*
X136801524Y-105480667D01*
X136706286Y-105528286D01*
X136515810Y-105575905D01*
X136372952Y-105575905D01*
X136182476Y-105528286D01*
X136087238Y-105480667D01*
X135992000Y-105385429D01*
X135944381Y-105242571D01*
X135944381Y-105147333D01*
X135992000Y-105004476D01*
X136039619Y-104956857D01*
X136944381Y-104004476D02*
X136944381Y-104575905D01*
X136944381Y-104290191D02*
X135944381Y-104290191D01*
X136087238Y-104385429D01*
X136182476Y-104480667D01*
X136230095Y-104575905D01*
X136944381Y-103052095D02*
X136944381Y-103623524D01*
X136944381Y-103337810D02*
X135944381Y-103337810D01*
X136087238Y-103433048D01*
X136182476Y-103528286D01*
X136230095Y-103623524D01*
X98849381Y-68913333D02*
X99563667Y-68913333D01*
X99706524Y-68960953D01*
X99801762Y-69056191D01*
X99849381Y-69199048D01*
X99849381Y-69294286D01*
X99182714Y-68008571D02*
X99849381Y-68008571D01*
X98801762Y-68246667D02*
X99516048Y-68484762D01*
X99516048Y-67865714D01*
X190797381Y-68278333D02*
X191511667Y-68278333D01*
X191654524Y-68325953D01*
X191749762Y-68421191D01*
X191797381Y-68564048D01*
X191797381Y-68659286D01*
X190797381Y-67325952D02*
X190797381Y-67802143D01*
X191273571Y-67849762D01*
X191225952Y-67802143D01*
X191178333Y-67706905D01*
X191178333Y-67468809D01*
X191225952Y-67373571D01*
X191273571Y-67325952D01*
X191368810Y-67278333D01*
X191606905Y-67278333D01*
X191702143Y-67325952D01*
X191749762Y-67373571D01*
X191797381Y-67468809D01*
X191797381Y-67706905D01*
X191749762Y-67802143D01*
X191702143Y-67849762D01*
M02*
